<?xml version="1.0" encoding="UTF-8"?>
<svg id="Layer_1" data-name="Layer 1" xmlns="http://www.w3.org/2000/svg" viewBox="0 0 600 529.9">
  <defs>
    <style>
      .cls-1 {
        fill: #dbdddb;
      }

      .cls-1, .cls-2 {
        fill-rule: evenodd;
        stroke: #fff;
      }

      .cls-2 {
        fill: #5e826d;
      }
    </style>
  </defs>
  <path class="cls-2" d="M571.27,197.65l-4.83.14-4.44.13-4.01.11-1.94-.32-2.51-.4-.99-.04-1.75.21-1.01-.22-.55-.25-.85-.85-.55-.11h-2.31s.07,1.14.07,1.14l-.58,3.39-.53,3.15-.61,3.53.07,2.37.02.73.09,2.85.19.56.24.42.17.41.1.43.02.51-3.08-.04-3.3-.05-5-.07-3.8-.05-2.31-.47-3.54-1.22-2.63-.9-1.22-.42-3.01-1.04-.52-.35-.53-.53-1.64-2.48-3.53-3.19-.77-1.34-.15-.95.36-1.51.04-.96-.2-.76-.36-.56-.99-1.04-.46-.7-.59-1.75-.17-.51-.39.49-.53.45-.58.33-.57.11-.6.04-.23-.89-.34-2.63-.05-5.28-.04-4.07.74-2.86,3.19-4.03h0s2.5-3.15,2.5-3.15l2.34-4.16,1.85-4.43.52-2.01.45-.79,3.05-2.72,3.47-3.09.97-.48,1.19-.31,1.02-.02.87.29,3.64,2.35,3.64,2.35,3.16,2.04.56.37,3.01,1.95.99.3.98-.23,1.97-.98-1.35-4.37-.14-1.14.21-1.05,1.46-3.81.27-.46.44-.42.33-.2.24-.23.14-.51v-.83s-.32-2.38-.32-2.38l-.2-.79-.36-.78-.12-1.18.04-1.24.14-.96.59-1.85-.05-8.21-.03-6.01-.02-4.5-.04-6.35-.03-5.24.28-2.59-.18-2.91-.87-2.88-1.2-2.61-1.96-4.23-.22-1.59-.23-5.93-.02-.61-.18-.59-.4-.48-2.22-1.63-.65-.61-.48-.78-1.4-3.27-1.33-4.67-.68-1.35-3.3-3.56-.64-1.33-.21-1.54.72-8.5-.21-1.12-2.37-7.36-1.41-4.41-1.77-5.51-1.77-5.5-1.52-4.72.34-.67-.8-1.18-.34-.28-.34-.02-.56.24-.27.04-.28-.11-.54-.34-.25-.07-.24-.18-.7-.85-.37-.23-.51.08-1.14.55-.26.06-.32.07-.59-.12-1.18-.52-3.74-.88-2.07-.23-1-.27-1.12.45-3.83.31-.67.21-.93.66-.51.15-.24-.08-.52-.36-.32-.09h-.99s-2.23-.25-2.23-.25l-.65.02-.67.18-1.29.59-.65.21-1.4.24-1.27.05-1.18-.29-1.08-.76-.48-.43-.51-.32-.65-.2-.85-.07-1.52.21-.61-.05-.82-.42-.98-.71-.51-.21-1.03-.12-.08-.12-.04-.16-.65-.71-.36-.18-.74-.17-.34-.14-.94-.58-.5-.14-1.24-.11-.84-.45-1.17-.25-2-1.33-.7-.2-2.32.12-.41.15-.62-.44-.7.1-1.27.59-1.16-.12-.66.15-.29.61-.37.37-.86-.09-1.72-.42-.71.16-1.26.7-.74.4-.51-.02-.21-.05-.24-.16-.64.23-.99-.1-1.88-.4-.9.11-.66.45-.56.49-.61.23-4.16.23-.31.13-.72.98v.17s-.52.31-.52.31l-.66.69-.8,1.04.26,2.59-.15.44-.35.32-.79,1.48-.61.48-1.49-.17-.78.04-.34.49-.19.71-.49.4-.69.2-.76.12-1.5.46-2.48,1.41-1.21.4h-.92s-.67-.11-.67-.11l-.61.11-.73.64-.55.17-2.17-.56-2.84.2-1.32.36-1.26.71-.52.45-1.25,1.47-.34.2-.84.08-.37.11-.32.21-1.08,1.37-.17.35-.07.48.07.46.11.29v.3s-.27.48-.27.48l-.32.29-.35.14-.34.08-.28.15-.15.22-.18.56-.14.23-.51.22-.79.23-.64.3-.06.4.3.79-.15.83-.42.74-.53.56-.47.3-.65.33-.72.27-.66.11-.4.37v.85s.29,1.58.29,1.58l-.55,1.04-1.19.83-1.43.6-1.31.34.22.68-.54.2-.74-.05-.37-.07-.08.29.1.29.15.26.07.18.07.11.15.17.07.15-.16.07-.04.05-.26.21-.05.02-.51,1.43-.2.34-.5.26-.46-.22-.94-1.05-1.37,1.12-.4.15-.47-.15-.49-.24h-.38s-.3,1.03-.3,1.03l-.65.71-.15.57-.03.21-.07.21-.12.16-.13.06-.09.1.05.25.1.3.05.24-.2.83-.51.67-.69.46-.74.23-1.43.05-.45.18-.33.36-.28.43-.34.23-.48-.26.25-.54-.27-.07-.51.18-.42.2-.1.21-.33.44-.35.2-.39-1.15-.49.4-.81,1.29-.56.55-.6.45-1.32.66-1.28.4-.38.44.49.72-.34.15h-.31s-.27-.13-.27-.13l-.25-.3-.08.22-.26.31-.15.26-.28-.34-.39-.15-.36.06-.15.3.15.46.29.25.19.24-.15.44-.42-.26-.38.04-.33.28-.27.45h.23l-.63.46-.2.22-.11.35-.23-.15-.24-.11.05.74.22.65.02.54-.53.38-.59-.02-.27-.41-.19-.46-.36-.15-.33.27-.61,1.54-.67,1.18-.17.7.08.36.07.3-.98,1.78.24.76-.13,1.01-2.42,9.94-.07,1.67-.66,3.29-.36.65-.55.49-.73.41-3.03.98-.73.4-.3.56-2.09,2.18-2.24,1.46-.93.77-.86,1.14-1.01,2.67-.25.43-2.24,2.31h-.01l-.77-.12-.62-.05-.65-.15-.65-.07-1.61.23-3.88,1.22-5.24,1.65-1.12.82-.52.27-1.77-.07-1.13.39-.27.05-.2.18-.05.92.36,2.75-.02,1.52-.36,1.21-1,2.3-.06,1.4-1.05,1.82-.75,2.51-3.01,6.75-1.1,4.92-.36.89-1.52,3.63-.74,2.29-4.43,3.48-2.47,1.23-7.17.75-1.44-.26-1.57-.49-1.33-.22-1.32.2-1.56.75-2.04,1.57-.68.29-2.05.55-1.04.12-.96-.25-1.12-.26-2.51.28-1.22-.28-1.82-1.24-2.61-.97-1.52-.56-.69.09-.69.29-.95.24-1.73-.29-1.45-1.07-2.37-2.83-1.52-.87h-1.81s-3.57.98-3.57.98l-.73.11-.05-.18.18-.33-.03-.31-.36-.3-.35-.22-.4-.08-1.78.45-.65-.41-.52-.74-1.56-1.13-1.3-1.72-.31-.19-.7-.23-.32-.2-.23-.34-.35-.79-.32-.29-1.93-.59-.43-.45-.26-.38-3.63-2.85-.87-.53-1-.46-.35-.26-.45-.48-.52-.8-.31-.31-.49-.15-.45.08-1.12.42-.61.05-.53-.12-1.56-.61-1.88-.35-1.7.12-1.64.49-2.58,1.22-.33.27-.42.24-.21-.2-.15-.38-.23-.31-.82-.12-.81.43-1.34,1.37-.18.34-.08.32-.14.3-.39.25-.48.21-.36.24-.29.32-.29.47-.55,1.47-.37.45-.88.36-.23.37-.69,2.35-.27.58-.09.31-.02.32.2.37.33.4.16.4-.31.37-.46.36-.04.3.13.33.05.41-.08.54-.09.39-.2.37-1.53,1.81-.46.78-.2.83.02.52.13.12.2.07.24.38.21.54.05.24-.37.64-.52.57-.69.6-.36.64.44.68.18.48v.85s-.09.9-.09.9l-.17.64-.31.48-.33.25-.98.36-.36.31.02.34.12.38-.03.44-1.43,2.21-.08.08-.33.35-.68.48-.39.51-.56,1.32-.64,1-.59.24-1.56-.34-1.09.2-.75.62-1.16,1.73-1.79,1.74-.83.44-.54.18-1.57.28-.32.23-.36.76-1.39,1.43-.65,1.37-1.11,3.03-1.31,2.01-1.74,1.75-2.02,1.25-2.17.52-3.33.02-1.09.2-.92.33-.41.4-.04.59.31,1.72.04.74-.14.7-.38.68-.64.61-1.95,1.33-.78.3h-.72s-2.04-.56-2.04-.56l-2.93-.08-1.69-.77-.78-.14-1.58.05-2.88.78-.49.02-.96-.12h-.49s-3,.87-3,.87l-1.07.03-4.54-1.02-1.38-.87-1.46-.61-1.92.25-.89.47-1.6,1.12-2.22,1.03-.74.53-.09.11-.17-.39-.36-1.21-.33-.42-.52-.36-.2-.2-.21-.29-.48-1.06-.34-1.38-.19-1.41v-1.15s.74-2.59.74-2.59l.05-.89-.16-.55-.56-.8-.21-.47-.1-.98.1-1.11.45-2.04.15-.46,1.02-.75.48-.61,1.02-1.9,1.99-2.51.78-1.36.64-1.47,1.49-2.1.12-.59-1.29-2.29-.12-.71.08-2.74-.3-3.29-.93-2.26v-.14s-.39-.44-.39-.44l-.2-.02-.34.18-.46.16.02-.35.37-.72-.72-2.52-.34-.68-.36-.29-.87-.44-.28-.39v-.39s.29-.82.29-.82l-.02-.42-.27-.23-.4-.07-.36-.13-.11-.41.19-.27.75-.46.21-.37-.27-1-1.55-1.37.07-1.06.22-.6,1.02-.64-.45-.39h-.32s-.3.2-.3.2l-.31.13-.34-.16-.02-.39.19-.47.02-.32-.52.07-.11-.74-.19-.35-1.01-.45-.56-.37-.22-.42-.23-1.18-.14-.3-.36-.49-.14-.26v-.29l.15-.21.13-.23-.08-.36-.22-.23-.62-.32-.22-.23-.07-.24-.07-.99-.66-.26-.64-.39-.32-.51.3-.63.05-.55-.37-.82-.93-1.47-1.08-2.33-.36-.49-4.45-3.67-2.63-1.6-.35-.1-.71-.05-.33-.09-.38-.26-.92-1.05-1.78-1.41-.65-1.02-.6-.46-.23-.26-.17-.62v.48s.01,6.34.01,6.34v2.12s0,2.12,0,2.12v14.84s0,14.89,0,14.89v2.13s0,2.13,0,2.13v10.68s0,10.7,0,10.7v4.29s0,8.59,0,8.59v2.15s0,10.76,0,10.76v4.31s0,12.97,0,12.97v19.53s.01,2.17.01,2.17v8.07l-.05,1.16-1.07.27-.36.04-1.11-.14-.39.05-.9.51-1.54,1.39-1,.29-1.66.12-.78.27-.68.53-.59.32-3.45.26-.3.09-.36.23-.22.27-.21.32-.3.38-.18.31-.29.72-.21.14-.33.13-.21.34-.99,3.13-.36.56-.59.49-.7.33-2.79.71-.5.22-.37-.07-.82-.67-.5.04-.44.38-.39.52-.6,1.13-.12.81.23.85,1.28,2.22-.02.47-.41.26-1.13.09-.21.15-.37.62-.28.28-1.96,1.04-1.42.48-1.33.07-.58-.77-.16-.16-.38-.12-1.21-.15-.24-.09-.36-.42-.86-1.37-.57-.54-7.18-1.04-6.59.97-1.25.68-.74.23-.16-.08-.42-.39-.15-.09-.19.04-.3.19-.19.07-.67.11-.38.12-.26.17-.67.28-.84-.14-1.44-.53-.77-.06-3.02.44-1.23.43h-.64s-2.89-1.03-2.89-1.03l-1.32-.68-2.09-1.74-1.16-.74-1.25-.52-5.74-1.28-1.11.1-.37.18-.68.46-.33.16-.44.02-1.11-.31-.74-.33-.16-.79.03-.96-.18-.83-.52-.37-.58.13-.65.3-.7.18-1.42.17-1.52.37-1.28-.21-.06-1.17.43-1.62.21-1.53-.37-.86-1.26-.47-.26-.65-.2-.89-.93-1.22-.28-.7.13-.56.45-.52.6-.39.58-.15.55-.39.29-.92.08-1.06-.07-.83-.18-.44-.55-.73-.24-.4-.13-.48-.04-.4-.1-.4-.31-.48-.13-.37-.05-.49-.14-.43-.39-.19-.89.05-2.18.52-1.1-.21-.73-.9-.17-1.82.09-.88v-.87s-.31-.67-.31-.67l-.86-.27-.67-.3-.45-.71-.4-.8-.48-.58-.39-.16h-.35s-.68.16-.68.16l-.39.2-1.15.86-.92-.24-.4.11-.49.52-.41.16-.34-.06-.35-.42-.27-.07-.21.17-.59.67-.12.1-.26,3.08-.25.39-.15-.02-.18-.14-.57.02-.15-.11-.14-.06-.21.17-.07.24.09.2.61.77v.28s-.51.12-.51.12h-.73l-.19.14-.14.36.1.27.26.4.2.46-.07.49-.32.24-.35-.12-.34-.26-.3-.14-.61.3-.15.7.14.8.24.59.73,1.12.24.71-.37.31-.51.34-.18.77-.04.89-.1.65-.37.67-.62.83-.69.59-.57-.06-.14-.36-.1-.49-.15-.45-.31-.19-.36.14-2.6,2.59-1.32.42-.95.49-.9.61-.63.3.06.39-.08.62-.22.58-.35.26.07.21.86.93.56.45.73,1.65.22.08.32.02.29.07.13.2.05.29.3.67.14.26-.11.81.19,1.38.35,1.38.37.84,2.32,2,1.55,2.16.26.53.52,1.51.32.49,2.2,1.94.53.89-.17.64.13.92.28.9.32.59.12.37-.03.9.15.33.36.38.2.36.73,2.37.63.76.1.18.15.39.67.72.15.25,1.27,3.89.26.44,1.02,2.81.14,1.49.23.85.46.37-.02.42.85,2.27.05.55v1.06s.16.51.16.51h-.21l.91,3.25.02.42.08.42.16.27.16.2.08.2.22,1.34,2.15,5.05.8,3.17.13,1.55.46,1.31,1.81,3.16.08,1.06.14.33.29,1.26.11,1.02.15.4,2.21,3.84.63.77.31.92,1.93,3.55.84.98-.13,1.5.92,1.72,2.02,2.78.42,1.4.28,1.46.18.57,1.91,3.83,2.39,3.39.35.67.73,1.79.45.69.13.26.35.98.17.12,1.86,3.07.18.52.31.42,1.4,1.13.43.51.41,1.89.34.99.98.76,1.34,2.1,1.13,1,.53.62.22.73.26.62,1.64,1.72,1.57,2.29.07.3.25.57,1.6,2.05.82,1.37.58,1.34.73,2.81.04.43-.04.32.03.36.21.54.39.68.43.56.39.81.05.85-.08,1.77.2.87.61,1.75.39,4.32,1.33,5.3-.16,1.63-.81,1.08-.19.66.41.91.2.65.16,2.82-.13,1.61-.8,3.31-.5,1.45-.8,1.59-4.16,4.21-1.14.89-1.32.34-1.48-.59-1.75-1.62-.4-.6.26-.3-.51-.05-.83.19-.81.34-.47.37-.11.51.03,1.25-.02.32-.12.28v.21s-.07.14-.07.14l-.28.06-.19.1-.53.47-.11.12-.11.16-.23-.02-.25-.05-.13.05-.03.36.13.15.19.1.79,1.07.19.48-.2.5-.35.44-.12.34.03.33.2.9.42,1.18.17.33-.24.63.12.45.24.36.13.35.02.28.09.38.21.43.38.43.67-.53.36-.18.42-.1-.18-.22-.31-.64,1.03-.17,1,.08.81.4.49.79.11.61-.11,1.77.12.4.28.4.76.76.17.08.39.05.15.1.1.27.07.69.18.34.74.76.14.46-.53.31-.44-.17-.45-.48-.64-.89-.94-.75-.25-.33.15-.45-.39-.27-.23-.39-.19-.44-.27-.47-.37-.15-.51.12-.88.44.4.56.38.76.48.66.71.28.58.31,1.58,1.53.33.53.1.43.84,1.13.45,1.09.86,1.61.2.81-.34.69,3.71,2.6.98,1.06.85,1.4.24.71.09.85v1.69l.12.37.27.24.56.37,1.59,1.93.32.16.19.8.9,1.8.91,3.64.08.81.15.53.66,1.07.15.78-.46,1.52-1.11.17-1.33-.04-1.11.9-.33.88-.37,1.47-.48.77-.51.62-.29.55.05.6.49.77.26-.16.2-.07.51-.07-.24.45-.15.4-.07.44-.02.57-.12.61-.27.21-.32.12-.25.33-.11.58.08.53.32.4.99.34.28.45.33,1.09.09.08.16.08.15.09.07.15-.04.33-.16.57-.04.26.11.49.83,1.64.52.69.82.75.85.45.64-.2-.59-.45-.14-.85.31-2.74-.02-.38-.05-.4-.47-1.72-.22-.27-.23-.18-.18-.23-.08-.43.05-.56.15-.3.51-.53.32-.42.29-.3.59-.43,1.24-.52.29-.2.51-.21,3.17-.16,3.22.31,2.04.5.55.31,1.44,2.2-.45.72-.47.34-.3.37.05.86.49,1.41.05.61-.29.81-.25.36-.2.15-.16.2-.12.46.02.33.23,1.37-.28.51-.04.41.32.51.32.2.39.09.33-.09.14-.34.72-.48,3.35-.56.99-.37.45-.04,2.63.17.36-.3.81-1.36.6-.35-.36.94-.23.87-.41.61-.89.16v.28l.55.37.63,1.17.47.46.46.14,2.11.14,2.4-.49.44.11.48.36.67.86.7,1.24.54,1.33.17,1.14-.17.46-2.04,2.82-.13.46.3-.21.3-.08.3.07.3.22.66-.53.82-.23.82.1.64.51.54.66.53.42,1.76,1,2.62,2.66,1.74,1.07.16.21.15.29.23.26.37.08.48-.15.57-.58.5-.12,5.52-.17.6.32.5.51,2.17,1.62.49.27.54.2.54.08.56-.13.9-.58.55-.15v-.26l-.46-1.12.97-1.31,2.54-1.86,1.4-.61.84-.23.37.12.21-.72.51-.7.62-.58.55-.39,1.12-.44.29-.15.35-.39.19-.37.23-.27.49-.11.65-.26.65-.62,1.88-2.55,1.19-.95,1.44-.67,4.81-.66,6.08,1.11.64-.26.29-.86-.41-.87-.83-.62-.93-.16.64-.32,1.97-.55h-.26l1.37-.68,1.65-.18,3.34.3,1.37.31,5.64,2.11,1.5.12,1.48-.23,2.29-1,.23-.18.18-.25.15-.27.24-.23,1.21-.23,1.43-.6.75-.14.76.19,1.29.8,3.63.74,1.49-.09,1.47-.3,1.4-.52,2.03-1.2.2-.15.68-1.21.33-.46-.18-1.35.1-.67.87-.95,1.28-.56,4.47-.67.69-.24.47-.4-.61-.36-.5-.49-.15-.67.43-.87,1-1.11.56-.43.69-.33,2.95-.73,1.44-.04,3.21.36,1.55-.36,1.39-.73,1.78-1.47.56-.26.68-.13.9-.03.69.1,3.88,1.37.83.16.63-.22-.56-.25-.54-.49-.45-.61-.33-.62,1.52.16.76.24.55.46h-.53s-.23.15-.23.15l-.03.29.08.39.28.61.39.26.45.14,1.1.68,2.74.87.53.05.36-.11.33-.15.44-.1.95.09.48.15.21.21.23-.26v-.3l-.34-.57-.35-.29-.33-.13-.26-.24-.12-.62.29.31.43.17,1.03.08.09.27.2,1.18.18.27,11.88,1.13v-.29l-.78-.12-.61-.56-.23-.83.33-.9.55-.56.66-.45.74-.33,5.53-1.28,1.62-.07,6.1,1.43,3.67.38,1.48.55.74.18,6.15.56,2.23.95.48.34.6.33,4.18.51.67.26,1.21,1.09,1.49.78,2.97.79.65.06,2.18-.42.79.11,1.9.51,2.35.07.72.24.43.62h.23l.23-.31.59-.46.12-.36-.15-.3-.33-.2-.32-.27-.14-.51.24-.62,1.64-1.49.36-.28.59-.71.38-.83-.49-1.69.54-.64.82-.44,2.01-.59,3.09-.43,3.14.07,2.92.78,1.25.51,1.18.87,1.22.21.93.55h.86s1.71-.23,1.71-.23l.99.17,1.82.58,1.08.12.9-.23.69-.43.75-.25,1.08.35.12-.14.07-.13.05-.32-.3-.37-.64-1.05-.99-.74-.17-.25-.15-.36-.67-.33-.15-.45.09-.98.57-2.32.65-1.34.89-1.14,1.11-.86,2.56-1.26,2.82-.9,3.02-.45,4.72.26,4.58.92,1.3.76.8.34.61-.11.66-.3.91-.04,2.92.43,1.41-.07,1.34-.37,3.29-1.66.75-.11.21-.18.23-.77.27-.18.41-.05,3.3-1.43,1.15-.69,1.66-.2.7-.19,1.93-1.69.76-.24.83-.05.66-.17,2.98-1.62.7-.12.31-.1.27-.26.19-.33.07-.31.11-.28.26-.29.54-.43,2.6-1.26.33-.4,3.66-2.53.14-.44.11-.12.07.04.11.11.15.1h.14l.84-.5,1.87-1.5.83-.9.24-1.05.37.2.29.04.27-.08.26-.15.8-1.18.16-.06.39-.34,2.42-.93,1.15-.95,3.07-3.26.59-.37,1.7-.64.67-.11.39-.18.67-.77,1.64-.76.14-.21.04-.22v-.21s.07-.15.07-.15l.47-.28.45-.67.31-.32,1.04-.38,3.52-2.95.74-.85.32-.87.26-1.21.66-1.12.87-.83,1.9-.56,1.02-.56,1.62-1.17,1.7-.92.8-.63.11-.64.55-.29,1.12-.95.87-.47,3.82-2.99.22-.49.27-.75.61-.84,1.27-1.34.31-.24.57-.28.29-.26.78-1.15,4.62-4.29.3-.39,1.83-1.14,3.54-4.87,4.23-4.56.95-1.48.35-.75.14-.66.33-.49,2.26-1.05.07-.15.11-.49.06-.15.1-.08.37-.21.61-1.11.09-.38.23-.65.53-.76,1.12-1.23,1.12-.83.37-.53.14-.99.19-.24,1.01-.57.68-1.51-.04-.17-.12-.18-.05-.21.21-.27.15-.04.38.06.17-.02.36-.11.32-.03.3-.07.89-.64,1.36-.51.55-.32,1.11-1.22.62-.5.77-.2.19-.08.27-.23.24-.31.23-.77.31-.23.76-.32,2.11-2.6.29-.7.68-.54.78-.37,2.12-.61.62-.32,5.01-4.78,1.82-2.14,1.11-2.41.98-.68,2.5-3.34,3.19-4.26,1.09-2.35.46-.4.49-.23.55-.57.97-1.4,5.84-10.88,1.62-1.76.28-.56.13-.61.7-1.61,4.98-8.8,1.93-4.52,1.65-2.9,1.01-1.25,3.57-3.26.89-1.07.3-.51.11-.27.06-.28v-.29l-.44.42-1.17.39-.52.29.17-1.03.33-.32h1.38s-.36-1.53-.36-1.53l.35-1.56,4.52-9.03,4.53-6.22.27-.7.26-.3.28-.25.43-.26.18-.82.17-.39.46-.42,1.17-.74.49-.43,1.32-1.85.45-.31.14-.14.13-.69.08-.24.21-.15.54-.26,1.62-1.46,6.69-7.66,1.05-.65v-.24l-.23-.11-.13-.15-.07-.23-.05-.33,1.54.31,1.31.04,1.25-.26,4.26-2.28,1.34-1.12.66-1.26-.58.06-.55.3-.45.4-.27.34-.77-1.07.79-.83,1.36-.21.95.78,3.77-3.25.46-.58.64-1.12.33-.43.44-.3,1.11-.54.45-.36,2.97-3.04.44-.68.29-1.27.57-1.41.38-1.44-.28-1.35-.28.15-.17.06-.12-.11-.13-.37.77-.23.59-.59.39-.81.13-.89.2-.62,2.89-4.52.23-.72,1.65-9.65-.05-.41-.2-.73v-.47s.11-.42.11-.42l.32-.91.07-.4.05-.87,2.38-11.32,3.6-10.2.15-1.01.32-.59.07-.33.14-1.11.1-.33,1.22-1.72.18-.8.08-.83.63-2.45.52-5,.43-1.56-5.32.16ZM457.59,294.87l-.64.91-.07.62.02.57-.16.43-.29.35-.39.29-.9.4-1.02.32-.98.42-.72.74-.24.82v.86s-.02.15-.02.15l.24.94.49.61-.56.39-.05.61v.65s-.38.49-.38.49l-2.65.82-1,.78-.56.99-.43,1.12-.64,1.18v.11s-.05.88-.05.88l-.2,1.04-.02.95.5.71.43.34.09.28-.02.35.08.55.37.76.08.39-.22.34-.39.2-.91.27-.42.18-2.69,1.67-1.36.84-3.99,2.63-2.22.91-2.27.49-3.09,1.17h-1.16s-1.67-.65-1.67-.65l-.58-.07-.56.14-1.49.89-.85.3-1.66-.24-.83.13-.68.59-.29.55-.58,1.1-.54.54-.32.24-.43.62-.24.24-.33.15-1.01.15-.62.26-.73.43-.53.6-.07.74.37.53.51.23.4.36.1.9-.24.86-.45.54-2.92,2.3-.27.47.07.31.4.7.11.39-.05.33-.58,1.84-.11.24-.28.36-.27.23-.29.16-.28.21-.23.37-.2.8.02.64.08.64v.78s-.83-.36-.83-.36l-4.07-.35-.72-.24-.68-.34-.33-.26-.27-.27-.29-.23-.4-.13-.3.05-.66.33-.34.05-1.44-.19-1.2-.37-1.03-.66-1.85-2.12-2.1-1.59-.21-.34-.06-.36-.02-.36-.11-.35-.83-1.17-.9-.89-.11-.39-.13-.45-1.25-.58-.53-.45-.37-.6-.25-.98-.25-.26h-.55s-.73.3-.73.3l-.24.04-.36-.05-.68-.19h-.02s-.37-.05-.37-.05l.05-.62-.77-2.13-.07-1.14.75-1.86.52-.53.02-.39-.32-.26-.53-.15h-.76l-.43.1-.31-.12-.43-.66-.23-.55-.46-1.88-.49-.8-1.65-1.39-.66-.77-.94-2.25-2.84-6.76h0s-.29-.59-.29-.59l-1-1.51-.46-.4-.45-.26-.49-.4-.27-.13.42-.98v-.63s.27-.37.27-.37h.36l.32.47.24-.3.26-.64.18-.17h.34s.11.2.11.2l.09.24.28.12.15-.11,1.11-1.17.18-.13.98-.39,1.01-.11.34-.13.62-.34.96-.2.73-.31,1.12-.66.16-.17.07-.08.23-.34.17-.42.07-.45.18-.14.8.04.18-.17.15-.71.38-.61,1.43-1.56.23-.17.13-.23.05-.5-.1-.31-.2-.24-.14-.23.08-.27.31-.25.31-.11.32-.17.33-.46.09-.35.07-.92.11-.31.56-.36,1.41-.46.28-.09.35-.29-.06-.46-.21-.91.02-.37.23-.35.34-.21.35-.13.25-.14,1.97-2.41.78-1.46-.04-.21-.13-.73.23-.27.24.27.17-.07.32-.16.22-.04-.3-.39-.43-.45-.16-.36.55-.15.43-.19.42-.46.66-.96.13-.05.17.05h.14s.06-.15.06-.15v-.28l.04-.12.07-.12.08-.21.04-.32v-.54l.28-.31.54-.18.37-.3-.25-.66,3.92.27.92-.41.32-.59.22-.62.27-.52.51-.29.64.08.41.37.32.42.39.2h.94l.3-.09.04-.23v-.3s.14-.31.14-.31l1.3-1.73,1.52-1.63.11-.23.95-1.4.46-.56.35-.49.31.12,1.86-.19.43-.04.7.31.79.08.8-.11.7-.27.66-.6.93-1.6.67-.67.7-.3,4.79-.32.68-.17,1.96-1.33.51-.06.65.48.46.55.32.64.21.77.25,1.6.36.55,1.53.04.51.43,1,1.88.29.21,1.08.2h.02s.54.21.54.21l.52.31h0s.48.42.48.42l.44.53,1.39,2.44,1.89,1.93.5-.03.81.23.74.35.32.39v.77s.21.49.21.49l.46.31.77.2,1.18.55,2.84,2.99,1.14.34,1.38.04,1.04.44.18,2.25.39.47.53.41.48.53.26.67.38,1.38.96,1.3.35.84.03.24-.03.6.04.28.15.24.46.45.11.23-.12.57Z"/>
  <polygon class="cls-1" points="542.33 415.64 542.25 415.56 542.01 415.46 541.92 415.4 541.84 415.27 541.83 415.23 541.81 415.2 541.7 415.15 541.65 415.12 541.63 415.06 541.62 414.99 541.61 414.85 541.59 414.81 541.43 414.64 541.39 414.56 541.37 414.33 541.32 414.23 541.18 414.08 541.11 414.02 541.03 413.97 540.73 413.9 540.64 413.85 540.55 413.81 540.32 413.81 540.22 413.78 540.13 413.81 540.05 413.8 539.86 413.73 539.75 413.72 539.44 413.73 539.15 413.89 538.97 414.02 538.75 414.02 538.65 414.07 538.69 414.11 538.7 414.14 538.69 414.17 538.65 414.21 538.68 414.31 538.65 414.44 538.57 414.54 538.35 414.64 538.28 414.75 538.25 414.89 538.25 415.02 538.3 415.16 538.38 415.31 538.66 415.68 538.67 415.79 538.67 415.91 538.7 416.07 538.78 416.21 539.01 416.48 539.06 416.57 539.09 416.6 539.3 416.6 539.37 416.62 539.41 416.66 539.45 416.73 539.5 416.79 539.61 416.85 539.88 416.96 540.08 417.01 540.28 417.16 540.4 417.22 540.53 417.25 540.7 417.26 540.87 417.26 540.98 417.22 541.09 417.26 541.24 417.27 541.39 417.24 541.6 417.13 541.71 417.11 541.95 417.12 542.08 417.07 542.14 416.95 542.15 416.8 542.15 416.67 542.16 416.52 542.27 416.01 542.32 415.89 542.36 415.77 542.33 415.64"/>
</svg>