<?xml version="1.0" encoding="UTF-8"?>
<svg id="Layer_1" data-name="Layer 1" xmlns="http://www.w3.org/2000/svg" viewBox="0 0 600 600">
  <defs>
    <style>
      .cls-1 {
        fill: #5d816c;
        fill-rule: evenodd;
        stroke: #fff;
        stroke-miterlimit: 10;
      }
    </style>
  </defs>
  <path class="cls-1" d="M334.03,292.18l-.79.02-.73.02-.66.02-.32-.05-.41-.07h-.16s-.29.03-.29.03l-.17-.04-.09-.04-.14-.14-.09-.02h-.38s.01.19.01.19l-.1.56-.09.52-.1.58v.39s.02.12.02.12v.47s.05.09.05.09l.04.07.03.07.02.07v.08s-.5,0-.5,0h-.54s-.82-.02-.82-.02h-.62s-.38-.09-.38-.09l-.58-.2-.43-.15-.2-.07-.5-.17-.09-.06-.09-.09-.27-.41-.58-.52-.13-.22-.02-.16.06-.25v-.16s-.03-.12-.03-.12l-.06-.09-.16-.17-.08-.11-.1-.29-.03-.08-.06.08-.09.07-.1.05-.09.02h-.1s-.04-.14-.04-.14l-.06-.43v-.87s-.02-.67-.02-.67l.12-.47.52-.66h0s.41-.52.41-.52l.38-.68.3-.73.09-.33.07-.13.5-.45.57-.51.16-.08.2-.05h.17s.14.04.14.04l.6.39.6.39.52.33.09.06.5.32.16.05.16-.04.32-.16-.22-.72-.02-.19.04-.17.24-.63.04-.08.07-.07.05-.03.04-.04.02-.08v-.14s-.05-.39-.05-.39l-.03-.13-.06-.13-.02-.19v-.2s.03-.16.03-.16l.1-.3v-1.35s-.01-.99-.01-.99v-.74s0-1.04,0-1.04v-.86s.04-.42.04-.42l-.03-.48-.14-.47-.2-.43-.32-.7-.04-.26-.04-.97v-.1s-.03-.1-.03-.1l-.07-.08-.37-.27-.11-.1-.08-.13-.23-.54-.22-.77-.11-.22-.54-.58-.11-.22-.03-.25.12-1.4-.03-.18-.39-1.21-.23-.72-.29-.91-.29-.9-.25-.78.06-.11-.13-.19-.06-.05h-.06s-.09.04-.09.04h-.04s-.05-.01-.05-.01l-.09-.06h-.04s-.04-.04-.04-.04l-.12-.14-.06-.04h-.08s-.19.1-.19.1h-.04s-.05.02-.05.02l-.1-.02-.19-.09-.62-.14-.34-.04-.17-.05-.18.07-.63.05-.11.04-.15.11-.08.03h-.04s-.09-.07-.09-.07h-.05s-.16-.01-.16-.01l-.37-.04h-.11s-.11.03-.11.03l-.21.1-.11.04-.23.04h-.21s-.19-.04-.19-.04l-.18-.12-.08-.07-.08-.05-.11-.03h-.14s-.25.02-.25.02h-.1s-.13-.08-.13-.08l-.16-.12-.08-.04-.17-.02v-.02s-.02-.03-.02-.03l-.11-.12-.06-.03-.12-.03-.06-.02-.15-.1-.08-.02-.2-.02-.14-.07-.19-.04-.33-.22-.12-.03-.38.02-.07.03-.1-.07-.12.02-.21.1-.19-.02-.11.02-.05.1-.06.06h-.14s-.28-.08-.28-.08l-.12.03-.21.12-.12.07h-.08s-.04-.01-.04-.01l-.04-.03-.1.04-.16-.02-.31-.07-.15.02-.11.07-.09.08-.1.04-.68.04-.05.02-.12.16v.03s-.08.05-.08.05l-.11.11-.13.17.04.43-.03.07-.06.05-.13.24-.1.08-.24-.03h-.13s-.06.09-.06.09l-.03.12-.08.07-.11.03-.12.02-.25.08-.41.23-.2.07h-.15s-.11-.02-.11-.02l-.1.02-.12.11-.09.03-.36-.09-.47.03-.22.06-.21.12-.08.07-.21.24-.06.03h-.14s-.06.03-.06.03l-.05.03-.18.23-.03.06v.08s0,.08,0,.08l.02.05v.05s-.04.08-.04.08l-.05.05-.06.02h-.06s-.05.04-.05.04l-.02.04-.03.09-.02.04-.08.04-.13.04-.11.05v.07s.04.13.04.13l-.02.14-.07.12-.09.09-.08.05-.11.05-.12.04-.11.02-.07.06v.14s.05.26.05.26l-.09.17-.2.14-.24.1-.21.06.04.11-.09.03h-.12s-.06-.02-.06-.02v.05s0,.05,0,.05l.02.04v.03s.02.02.02.02l.02.03v.02s-.02.01-.02.01h0s-.04.04-.04.04h0s-.08.24-.08.24l-.03.06-.08.04-.08-.04-.15-.17-.22.18-.07.03-.08-.03-.08-.04h-.06s-.05.17-.05.17l-.11.12-.02.09v.03s-.02.04-.02.04l-.02.03h-.02s-.01.03-.01.03v.04s.03.05.03.05v.04s-.02.14-.02.14l-.08.11-.11.08-.12.04h-.24s-.07.04-.07.04l-.05.06-.05.07-.06.04-.08-.04.04-.09h-.04s-.08.02-.08.02l-.07.03-.02.04-.05.07-.06.03-.06-.19-.08.07-.13.21-.09.09-.1.07-.22.11-.21.07-.06.07.08.12-.06.02h-.05s-.04-.02-.04-.02l-.04-.05v.04s-.06.05-.06.05l-.02.04-.05-.06-.06-.02h-.06s-.02.06-.02.06l.02.08.05.04.03.04-.03.07-.07-.04h-.06s-.05.05-.05.05l-.04.07h.04l-.1.08-.03.04-.02.06-.04-.02-.04-.02v.12s.04.11.04.11v.09s-.08.06-.08.06h-.1s-.04-.07-.04-.07l-.03-.08-.06-.02-.05.05-.1.25-.11.19-.03.12v.06s.03.05.03.05l-.16.29.04.12-.02.17-.4,1.63v.27s-.12.54-.12.54l-.06.11-.09.08-.12.07-.5.16-.12.07-.05.09-.34.36-.37.24-.15.13-.14.19-.17.44-.04.07-.37.38h0l-.13-.02h-.1s-.11-.03-.11-.03h-.11s-.26.03-.26.03l-.64.2-.86.27-.18.13-.08.05h-.29s-.19.05-.19.05h-.04s-.03.04-.03.04v.15s.05.45.05.45v.25s-.06.2-.06.2l-.16.38v.23s-.18.3-.18.3l-.12.41-.49,1.11-.18.81-.06.15-.25.6-.12.38-.73.57-.41.2-1.18.12-.24-.04-.26-.08-.22-.04-.22.03-.26.12-.34.26-.11.05-.34.09-.17.02-.16-.04-.18-.04-.41.05-.2-.05-.3-.2-.43-.16-.25-.09h-.11s-.11.06-.11.06l-.16.04-.28-.05-.24-.18-.39-.46-.25-.14h-.3s-.59.16-.59.16l-.12.02v-.03s.02-.05.02-.05v-.05s-.06-.05-.06-.05l-.06-.04h-.07s-.29.06-.29.06l-.11-.07-.08-.12-.26-.19-.21-.28-.05-.03-.11-.04-.05-.03-.04-.06-.06-.13-.05-.05-.32-.1-.07-.07-.04-.06-.6-.47-.14-.09-.17-.08-.06-.04-.07-.08-.09-.13-.05-.05-.08-.02h-.07s-.18.08-.18.08h-.1s-.09-.01-.09-.01l-.26-.1-.31-.06-.28.02-.27.08-.42.2-.05.05-.07.04-.04-.03-.02-.06-.04-.05-.13-.02-.13.07-.22.22-.03.06v.05s-.04.05-.04.05l-.06.04-.08.03-.06.04-.05.05-.05.08-.09.24-.06.07-.14.06-.04.06-.11.39-.04.1-.02.05v.05s.03.06.03.06l.05.07.03.07-.05.06-.08.06v.05s.01.05.01.05v.07s0,.09,0,.09v.06s-.05.06-.05.06l-.25.3-.08.13-.03.14v.09s.03.02.03.02h.03s.04.07.04.07l.04.09v.04s-.05.11-.05.11l-.09.09-.11.1-.06.1.07.11.03.08v.14s-.01.15-.01.15l-.03.1-.05.08-.05.04-.16.06-.06.05v.06s.02.06.02.06v.07s-.24.36-.24.36h-.01s-.05.07-.05.07l-.11.08-.06.08-.09.22-.11.16-.1.04-.26-.06-.18.03-.12.1-.19.28-.29.29-.14.07-.09.03-.26.05-.05.04-.06.12-.23.23-.11.22-.18.5-.21.33-.29.29-.33.2-.36.09h-.55s-.18.04-.18.04l-.15.05-.07.07v.1s.04.28.04.28v.12s-.02.12-.02.12l-.06.11-.1.1-.32.22-.13.05h-.12s-.34-.09-.34-.09h-.48s-.28-.14-.28-.14l-.13-.02h-.26s-.47.14-.47.14h-.08s-.16-.02-.16-.02h-.08s-.49.14-.49.14h-.18s-.75-.16-.75-.16l-.23-.14-.24-.1-.32.04-.15.08-.26.18-.36.17-.12.09-.02.02-.03-.06-.06-.2-.05-.07-.09-.06-.03-.03-.03-.05-.08-.17-.06-.23-.03-.23v-.19s.12-.43.12-.43v-.15s-.02-.09-.02-.09l-.09-.13-.04-.08-.02-.16.02-.18.07-.34.02-.08.17-.12.08-.1.17-.31.33-.41.13-.22.1-.24.24-.34.02-.1-.21-.38-.02-.12v-.45s-.04-.54-.04-.54l-.15-.37v-.02s-.06-.07-.06-.07h-.03s-.06.03-.06.03l-.08.03v-.06s.06-.12.06-.12l-.12-.41-.06-.11-.06-.05-.14-.07-.05-.06v-.06s.05-.13.05-.13v-.07s-.05-.04-.05-.04h-.07s-.06-.03-.06-.03l-.02-.07.03-.04.12-.08.04-.06-.04-.16-.25-.23v-.17s.05-.1.05-.1l.17-.11-.07-.06h-.05s-.05.03-.05.03l-.05.02-.06-.03v-.06s.03-.08.03-.08v-.05s-.08.01-.08.01l-.02-.12-.03-.06-.17-.07-.09-.06-.04-.07-.04-.19-.02-.05-.06-.08-.02-.04v-.05l.02-.04.02-.04v-.06s-.05-.04-.05-.04l-.1-.05-.04-.04v-.04s-.02-.16-.02-.16l-.11-.04-.11-.06-.05-.08.05-.1v-.09s-.05-.13-.05-.13l-.15-.24-.18-.38-.06-.08-.73-.6-.43-.26-.06-.02h-.12s-.05-.02-.05-.02l-.06-.04-.15-.17-.29-.23-.11-.17-.1-.08-.04-.04-.03-.1v.08s0,1.04,0,1.04v.35s0,.35,0,.35v2.44s0,2.45,0,2.45v.35s0,.35,0,.35v1.75s0,1.76,0,1.76v.7s0,1.41,0,1.41v.35s0,1.77,0,1.77v.71s0,2.13,0,2.13v3.21s0,.36,0,.36v1.52s-.18.04-.18.04h-.06s-.18-.02-.18-.02h-.06s-.15.09-.15.09l-.25.23-.17.05-.27.02-.13.04-.11.09-.1.05-.57.04-.05.02-.06.04-.04.04-.03.05-.05.06-.03.05-.05.12-.04.02-.05.02-.03.06-.16.51-.06.09-.1.08-.12.05-.46.12-.08.04h-.06s-.13-.12-.13-.12h-.08s-.07.07-.07.07l-.06.08-.1.19-.02.13.04.14.21.36v.08s-.07.04-.07.04h-.19s-.03.04-.03.04l-.06.1-.05.05-.32.17-.23.08h-.22s-.1-.11-.1-.11l-.03-.03-.06-.02-.2-.03h-.04s-.06-.08-.06-.08l-.14-.23-.09-.09-1.18-.17-1.08.16-.21.11-.12.04h-.03s-.07-.08-.07-.08h-.02s-.03,0-.03,0l-.05.03h-.03s-.11.03-.11.03l-.06.02-.04.03-.11.05-.14-.02-.24-.09h-.13s-.5.06-.5.06l-.2.07h-.1s-.48-.17-.48-.17l-.22-.11-.34-.29-.19-.12-.2-.09-.94-.21-.18.02-.06.03-.11.08-.05.03h-.07s-.18-.05-.18-.05l-.12-.05-.03-.13v-.16s-.03-.14-.03-.14l-.09-.06-.1.02-.11.05-.12.03-.23.03-.25.06-.21-.03v-.19s.06-.27.06-.27l.04-.25-.06-.14-.21-.08-.04-.11-.03-.15-.15-.2-.05-.12.02-.09.07-.09.1-.06.1-.02.09-.06.05-.15v-.17s0-.14,0-.14l-.03-.07-.09-.12-.04-.07-.02-.08v-.07s-.02-.07-.02-.07l-.05-.08-.02-.06v-.08s-.03-.07-.03-.07l-.06-.03h-.15s-.36.09-.36.09l-.18-.03-.12-.15-.03-.3.02-.14v-.14s-.05-.11-.05-.11l-.14-.04-.11-.05-.07-.12-.06-.13-.08-.09-.06-.03h-.06s-.11.03-.11.03l-.06.03-.19.14-.15-.04-.07.02-.08.09-.07.03h-.06s-.06-.08-.06-.08h-.04s-.03.02-.03.02l-.1.11-.02.02-.04.51-.04.06h-.02s-.03-.03-.03-.03h-.09s-.02-.02-.02-.02h-.02s-.03.02-.03.02v.04s0,.03,0,.03l.1.13v.05s-.08.02-.08.02h-.12l-.03.02-.02.06.02.05.04.07.03.08v.08s-.06.04-.06.04l-.06-.02-.06-.04-.05-.02-.1.05-.02.11.02.13.04.1.12.18.04.12-.06.05-.08.06-.03.13v.15s-.02.11-.02.11l-.06.11-.1.14-.11.1h-.09s-.02-.07-.02-.07l-.02-.08-.02-.07-.05-.03-.06.02-.43.43-.22.07-.16.08-.15.1-.1.05v.06s0,.1,0,.1l-.04.09-.06.04v.03s.15.15.15.15l.09.07.12.27h.04s.05.02.05.02h.05s.02.05.02.05v.05s.06.11.06.11l.02.04-.02.13.03.23.06.23.06.14.38.33.25.36.04.09.09.25.05.08.36.32.09.15-.03.1.02.15.05.15.05.1.02.06v.15s.02.05.02.05l.06.06.03.06.12.39.1.12.02.03.02.06.11.12.02.04.21.64.04.07.17.46.02.25.04.14.07.06v.07s.14.37.14.37v.09s0,.17,0,.17l.03.08h-.04l.15.53v.07s.02.07.02.07l.03.04.03.03v.03s.05.22.05.22l.35.83.13.52.02.25.08.22.3.52v.17s.04.05.04.05l.05.21.02.17.03.07.36.63.1.13.05.15.32.58.14.16-.02.25.15.28.33.46.07.23.05.24.03.09.31.63.39.56.06.11.12.29.07.11.02.04.06.16.03.02.31.5.03.09.05.07.23.19.07.08.07.31.06.16.16.12.22.34.19.16.09.1.04.12.04.1.27.28.26.38v.05s.05.09.05.09l.26.34.14.22.1.22.12.46v.07s0,.05,0,.05v.06s.04.09.04.09l.06.11.07.09.06.13v.14s0,.29,0,.29l.03.14.1.29.06.71.22.87-.03.27-.13.18-.03.11.07.15.03.11.03.46-.02.26-.13.54-.08.24-.13.26-.68.69-.19.15-.22.06-.24-.1-.29-.27-.07-.1.04-.05h-.08s-.14.02-.14.02l-.13.06-.08.06-.02.08v.21s0,.05,0,.05l-.02.05v.04s-.01.02-.01.02h-.05s-.03.03-.03.03l-.09.08-.02.02-.02.03h-.04s-.04-.01-.04-.01h-.02s0,.07,0,.07l.02.03.03.02.13.18.03.08-.03.08-.06.07-.02.06v.05s.04.15.04.15l.07.19.03.05-.04.1.02.07.04.06.02.06v.05s.02.06.02.06l.03.07.06.07.11-.09.06-.03.07-.02-.03-.04-.05-.11.17-.03h.16s.13.08.13.08l.08.13.02.1-.02.29.02.07.05.07.12.12h.03s.06.02.06.02l.02.02.02.05v.11s.04.06.04.06l.12.12.02.08-.09.05-.07-.03-.07-.08-.1-.15-.15-.12-.04-.05.03-.07-.06-.04-.04-.06-.03-.07-.04-.08-.06-.02-.08.02-.14.07.07.09.06.12.08.11.12.05.1.05.26.25.05.09.02.07.14.19.07.18.14.26.03.13-.06.11.61.43.16.17.14.23.04.12.02.14v.28l.02.06.04.04.09.06.26.32.05.03.03.13.15.3.15.6v.13s.04.09.04.09l.11.18.02.13-.08.25-.18.03h-.22s-.18.14-.18.14l-.05.14-.06.24-.08.13-.08.1-.05.09v.1s.09.13.09.13l.04-.03h.03s.08-.02.08-.02l-.04.07-.02.07v.07s-.01.09-.01.09l-.02.1-.04.04-.05.02-.04.05-.02.09v.09s.07.07.07.07l.16.06.05.07.05.18h.02s.03.03.03.03l.02.02v.02s0,.05,0,.05l-.03.09v.04s.01.08.01.08l.14.27.09.11.13.12.14.07.11-.03-.1-.07-.02-.14.05-.45v-.06s-.01-.07-.01-.07l-.08-.28-.04-.05-.04-.03-.03-.04v-.07s0-.09,0-.09l.02-.05.08-.09.05-.07.05-.05.1-.07.2-.08.05-.03.08-.04.52-.03.53.05.34.08.09.05.24.36-.07.12-.08.06-.05.06v.14s.09.23.09.23v.1s-.04.13-.04.13l-.04.06-.03.02-.03.03-.02.08v.05s.04.22.04.22l-.05.08v.07s.05.08.05.08l.05.03h.06s.05,0,.05,0l.02-.06.12-.08.55-.09.16-.06h.07s.43.02.43.02l.06-.05.13-.22.1-.06-.06.15-.04.14-.07.1-.15.03v.05l.09.06.1.19.08.08.08.02.35.02.4-.08.07.02.08.06.11.14.12.2.09.22.03.19-.03.08-.34.46-.02.08.05-.03h.05s.05,0,.05,0l.05.04.11-.09.14-.04.14.02.11.08.09.11.09.07.29.17.43.44.29.18.03.04.03.05.04.04h.06s.08-.01.08-.01l.09-.09.08-.02.91-.03.1.05.08.08.36.27.08.04.09.03h.09s.09,0,.09,0l.15-.09.09-.02v-.04l-.08-.18.16-.21.42-.31.23-.1.14-.04.06.02.03-.12.08-.11.1-.1.09-.06.18-.07.05-.03.06-.06.03-.06.04-.04.08-.02.11-.04.11-.1.31-.42.2-.16.24-.11.79-.11,1,.18.11-.04.05-.14-.07-.14-.14-.1-.15-.03.1-.05.32-.09h-.04l.23-.11.27-.03.55.05.23.05.93.35.25.02.24-.04.38-.16.04-.03.03-.04.03-.04.04-.04.2-.04.24-.1.12-.02.12.03.21.13.6.12h.25s.24-.06.24-.06l.23-.09.33-.2.03-.02.11-.2.05-.08-.03-.22.02-.11.14-.16.21-.09.73-.11.11-.04.08-.07-.1-.06-.08-.08-.03-.11.07-.14.16-.18.09-.07.11-.05.49-.12h.24s.53.05.53.05l.25-.06.23-.12.29-.24.09-.04.11-.02h.15s.11.01.11.01l.64.22.14.03.1-.04-.09-.04-.09-.08-.07-.1-.05-.1.25.03.12.04.09.08h-.09s-.04.02-.04.02v.05s0,.06,0,.06l.05.1.06.04.07.02.18.11.45.14h.09s.06,0,.06,0l.05-.02.07-.02h.16s.08.04.08.04l.03.03.04-.04v-.05l-.06-.09-.06-.05-.05-.02-.04-.04-.02-.1.05.05.07.03h.17s.01.06.01.06l.03.19.03.04,1.95.19v-.05l-.13-.02-.1-.09-.04-.14.05-.15.09-.09.11-.07.12-.05.91-.21h.27s1,.22,1,.22l.6.06.24.09.12.03,1.01.09.37.16.08.06.1.05.69.08.11.04.2.18.24.13.49.13h.11s.36-.06.36-.06l.13.02.31.08h.39s.12.05.12.05l.07.1h.04l.04-.05.1-.08.02-.06-.02-.05-.05-.03-.05-.04-.02-.08.04-.1.27-.25.06-.05.1-.12.06-.14-.08-.28.09-.11.13-.07.33-.1.51-.07h.52s.48.14.48.14l.2.08.19.14.2.04.15.09h.14s.28-.04.28-.04l.16.03.3.09.18.02.15-.04.11-.07.12-.04.18.06.02-.02v-.02s.02-.05.02-.05l-.05-.06-.11-.17-.16-.12-.03-.04-.03-.06-.11-.05-.03-.07v-.16s.11-.38.11-.38l.11-.22.15-.19.18-.14.42-.21.46-.15.5-.07.78.04.75.15.21.12.13.06.1-.02.11-.05h.15s.48.06.48.06h.23s.22-.07.22-.07l.54-.27.12-.02.04-.03.04-.13.04-.03h.07s.54-.24.54-.24l.19-.11.27-.03.11-.03.32-.28.12-.04h.14s.11-.04.11-.04l.49-.27.12-.02.05-.02.04-.04.03-.05v-.05s.03-.05.03-.05l.04-.05.09-.07.43-.21.05-.07.6-.42.02-.07.02-.02h.01s.02.02.02.02l.02.02h.02l.14-.08.31-.25.14-.15.04-.17.06.03h.05s.04,0,.04,0l.04-.02.13-.19h.03s.06-.07.06-.07l.4-.15.19-.16.5-.54.1-.06.28-.1.11-.02.06-.03.11-.13.27-.12.02-.03v-.04s0-.03,0-.03v-.02s.09-.05.09-.05l.07-.11.05-.05.17-.06.58-.48.12-.14.05-.14.04-.2.11-.18.14-.14.31-.09.17-.09.27-.19.28-.15.13-.1.02-.11.09-.05.18-.16.14-.08.63-.49.04-.08.04-.12.1-.14.21-.22.05-.04.09-.05.05-.04.13-.19.76-.7.05-.06.3-.19.58-.8.7-.75.16-.24.06-.12.02-.11.05-.08.37-.17v-.02s.03-.08.03-.08v-.03s.03-.01.03-.01l.06-.04.1-.18v-.06s.05-.11.05-.11l.09-.12.18-.2.18-.14.06-.09.02-.16.03-.04.17-.09.11-.25v-.03s-.03-.03-.03-.03v-.03s.03-.04.03-.04h.03s.06,0,.06,0h.03s.06-.02.06-.02h.05s.05-.02.05-.02l.15-.1.22-.08.09-.05.18-.2.1-.08.13-.03h.03s.04-.05.04-.05l.04-.05.04-.13.05-.04.12-.05.35-.43.05-.12.11-.09.13-.06.35-.1.1-.05.82-.79.3-.35.18-.4.16-.11.41-.55.52-.7.18-.39.08-.07.08-.04.09-.09.16-.23.96-1.79.27-.29.05-.09.02-.1.11-.26.82-1.45.32-.74.27-.48.17-.2.59-.54.15-.18.05-.08.02-.04v-.05s0-.05,0-.05l-.07.07-.19.06-.09.05.03-.17.05-.05h.23s-.06-.25-.06-.25l.06-.26.74-1.48.74-1.02.04-.12.04-.05.05-.04.07-.04.03-.13.03-.06.08-.07.19-.12.08-.07.22-.3.07-.05.02-.02.02-.11v-.04s.05-.03.05-.03l.09-.04.27-.24,1.1-1.26.17-.11v-.04l-.04-.02-.02-.03v-.04s-.02-.05-.02-.05l.25.05h.22s.21-.04.21-.04l.7-.37.22-.18.11-.21h-.09s-.09.06-.09.06l-.07.07-.04.06-.13-.18.13-.14.22-.03.16.13.62-.53.08-.1.1-.18.05-.07.07-.05.18-.09.07-.06.49-.5.07-.11.05-.21.09-.23.06-.24-.05-.22-.05.03h-.03s-.02,0-.02,0l-.02-.06.13-.04.1-.1.06-.13.02-.15.03-.1.47-.74.04-.12.27-1.59v-.07s-.04-.12-.04-.12v-.08s.02-.07.02-.07l.05-.15v-.07s.02-.14.02-.14l.39-1.86.59-1.68.02-.17.05-.1v-.05s.04-.18.04-.18l.02-.05.2-.28.03-.13v-.14s.12-.4.12-.4l.09-.82.07-.26-.87.03ZM315.35,308.15l-.1.15v.1s0,.09,0,.09l-.03.07-.05.06-.06.05-.15.07-.17.05-.16.07-.12.12-.04.13v.14s0,.03,0,.03l.04.15.08.1-.09.06v.1s0,.11,0,.11l-.06.08-.43.13-.16.13-.09.16-.07.18-.11.19v.02s0,.14,0,.14l-.03.17v.16s.08.12.08.12l.07.06.02.05v.06s0,.09,0,.09l.06.12v.06s-.02.06-.02.06l-.06.03-.15.04-.07.03-.44.27-.22.14-.66.43-.36.15-.37.08-.51.19h-.19s-.27-.11-.27-.11h-.09s-.09.01-.09.01l-.25.15-.14.05-.27-.04-.14.02-.11.1-.05.09-.1.18-.09.09-.05.04-.07.1-.04.04-.05.02-.17.02-.1.04-.12.07-.09.1v.12s.05.09.05.09l.08.04.07.06.02.15-.04.14-.07.09-.48.38-.04.08v.05s.08.12.08.12l.02.06v.05s-.1.3-.1.3l-.02.04-.05.06-.04.04-.05.03-.05.03-.04.06-.03.13v.11s.02.1.02.1v.13s-.14-.06-.14-.06l-.67-.06-.12-.04-.11-.06-.05-.04-.04-.05-.05-.04-.07-.02h-.05s-.11.06-.11.06h-.06s-.24-.02-.24-.02l-.2-.06-.17-.11-.3-.35-.34-.26-.04-.06v-.06s-.01-.06-.01-.06l-.02-.06-.14-.19-.15-.15-.02-.06-.02-.07-.21-.09-.09-.07-.06-.1-.04-.16-.04-.04h-.09s-.12.05-.12.05h-.04s-.06,0-.06,0l-.11-.03h0s-.06,0-.06,0v-.1s-.12-.35-.12-.35v-.19s.11-.31.11-.31l.08-.09v-.06s-.05-.04-.05-.04l-.09-.02h-.12l-.07.02-.05-.02-.07-.11-.04-.09-.08-.31-.08-.13-.27-.23-.11-.13-.15-.37-.47-1.11h0s-.05-.1-.05-.1l-.16-.25-.08-.07-.07-.04-.08-.07-.04-.02.07-.16v-.1s.04-.06.04-.06h.06l.05.08.04-.05.04-.1.03-.03h.06s.02.03.02.03v.04s.06.02.06.02l.03-.02.18-.19.03-.02.16-.06.17-.02.06-.02.1-.06.16-.03.12-.05.18-.11.03-.03h.01s.04-.07.04-.07l.03-.07v-.07s.04-.02.04-.02h.13s.03-.02.03-.02l.02-.12.06-.1.23-.26.04-.03.02-.04v-.08s0-.05,0-.05l-.03-.04-.02-.04v-.04s.06-.04.06-.04l.05-.02.05-.03.05-.08v-.06s.03-.15.03-.15l.02-.05.09-.06.23-.08h.05s.06-.06.06-.06v-.08s-.04-.15-.04-.15v-.06s.04-.06.04-.06l.06-.03.06-.02.04-.02.32-.4.13-.24v-.04s-.03-.12-.03-.12l.04-.04.04.04h.03s.05-.04.05-.04h.04s-.05-.07-.05-.07l-.07-.07-.03-.06.09-.02.07-.03.07-.08.11-.16h.02s.03,0,.03,0h.02s0-.02,0-.02v-.07s.02-.02.02-.02v-.03s.02-.05.02-.05v-.09l.05-.05.09-.03.06-.05-.04-.11.64.04.15-.07.05-.1.04-.1.04-.08.08-.05h.11s.07.08.07.08l.05.07.06.03h.2s0-.05,0-.05v-.05s.02-.05.02-.05l.21-.28.25-.27.02-.04.16-.23.08-.09.06-.08.05.02.31-.03h.07s.11.04.11.04h.13s.13,0,.13,0l.11-.04.11-.1.15-.26.11-.11.12-.05.79-.05.11-.03.32-.22h.08s.11.07.11.07l.08.09.05.11.03.13.04.26.06.09h.25s.08.08.08.08l.16.31.05.04.18.03h0s.09.04.09.04l.09.05h0s.08.07.08.07l.07.09.23.4.31.32h.08s.13.03.13.03l.12.06.05.06v.13s.03.08.03.08l.08.05.13.03.19.09.47.49.19.06h.23s.17.08.17.08l.03.37.06.08.09.07.08.09.04.11.06.23.16.21.06.14v.04s0,.1,0,.1v.05s.03.04.03.04l.08.07.02.04-.02.09Z"/>
</svg>