<?xml version="1.0" encoding="UTF-8"?>
<svg id="Layer_1" data-name="Layer 1" xmlns="http://www.w3.org/2000/svg" viewBox="0 0 600 600">
  <defs>
    <style>
      .cls-1 {
        fill: #5d816c;
        stroke: #fff;
        stroke-miterlimit: 10;
      }
    </style>
  </defs>
  <path class="cls-1" d="M247.52,269.67c-.07.02-.23.73-.23.74,0,.59.89-.89.23-.74Z"/>
  <path class="cls-1" d="M245.54,273.52c.06.09-.16.14-.23.2.2-.11.88-.35.11-.74-.16-.08-.45.37-.29.47.12.08.34-.05.41.07Z"/>
  <path class="cls-1" d="M298.14,278.66c.14-.16-.02-.56.18-.61.21-.05.52.17.65,0,.11-.14-.18-.36-.35-.41-.71-.17-1.8.71-1.13,1.35.22-.11.49-.15.65-.34Z"/>
  <path class="cls-1" d="M338.35,306.3c-.06.44.38.88.6,1.22.96-.72-.58-1.4-.6-1.22Z"/>
  <path class="cls-1" d="M205.95,313.13c.01-.16.2-.47.04-.47l-.14.95c.22,0,.06.02.1-.47Z"/>
  <path class="cls-1" d="M345.91,320.9c-.12.37.12.77.18,1.15.02-.47.18-.83.23-1.28.02-.14-.36,0-.41.13Z"/>
  <path class="cls-1" d="M346.05,322.9c-.03.21-.06.43-.09.64.78.31.37-2.68.09-.64Z"/>
  <path class="cls-1" d="M321.75,385.94c-.09.27.26.01.03.4.37,0,.52-.26.1-.73-.08-.09-.09.22-.13.33Z"/>
  <path class="cls-1" d="M321.01,387.27c.33.14.01.07.23-.27.07-.11.09.63.35.33.32-.36.2-.57,0-.93-.03-.07-.76.57-.6.87Z"/>
  <path class="cls-1" d="M310.51,251.8h0c-.11,0,.23.09,0,0Z"/>
  <path class="cls-1" d="M309.25,252.73c-.08-.02-.07.07,0,0h0Z"/>
  <path class="cls-1" d="M307.96,252.41c.01.16.21-.12.21-.19.04-.59-.49-.09-.32.07.05.05.1.05.11.12Z"/>
  <path class="cls-1" d="M305.79,250.15v.02c-.04.06.08-.02,0-.02Z"/>
  <path class="cls-1" d="M305.83,249.8c-.06-.03,0,.1,0,0h0Z"/>
  <path class="cls-1" d="M308.65,249.88h0c-.31,0,.31.09,0,0Z"/>
  <path class="cls-1" d="M310.73,251.09c-.07.01.23.1,0,0h0Z"/>
  <path class="cls-1" d="M310.23,251.28h0c.02.07.06-.02,0,0Z"/>
  <path class="cls-1" d="M310.05,251.02v.02s.04,0,0-.02Z"/>
  <path class="cls-1" d="M309.78,250.66h-.02s.07.14.02,0Z"/>
  <path class="cls-1" d="M313.06,249.7h0c-.06.02.06.05,0,0Z"/>
  <path class="cls-1" d="M312.17,250.08s-.02.04,0,0h0Z"/>
  <path class="cls-1" d="M312.6,250.63h-.01c-.11.07.2.02.01,0Z"/>
  <path class="cls-1" d="M313.85,250.02h0c-.15-.13.02.19,0,0Z"/>
  <path class="cls-1" d="M314.99,249.11h-.02c0,.05.04.01.02,0Z"/>
  <path class="cls-1" d="M315.38,249.28h0s.04.05,0,0Z"/>
  <path class="cls-1" d="M314.82,251.36l-.02.02c-.12.08.14-.02.02-.02Z"/>
  <path class="cls-1" d="M314.7,251.46v.02s.04-.02,0-.02Z"/>
  <path class="cls-1" d="M265.89,258.99c.63.05.32.32.95.2.3-.46-.59-.67-.77-1.22-.03-.1,0-1.08-.42-.74-.56.47-.06,1.32-.12,1.35-.17.1-1.16.03-.65.61.22.25.75-.22,1.01-.2Z"/>
  <path class="cls-1" d="M345.17,314.01c-.17.59-.82,1.06-.12,1.62.15,0,1.23-2.84,1.02-3.58-.06-.2-.03-.41-.04-.61,0-.04.05-.15,0-.14-1.07.46.26.42-.16,1.22-.04.07-.87.71-.84.75.31.38.44-.29.14.74Z"/>
  <path class="cls-1" d="M266.13,257.1c.61,2.07.77,1.14,1.9,2.43.37.28,3.18-2.17,1.78-2.57-1.07-.3-1.05.46-1.36.41-.22-.04-1-.42-1.19.07-.07.17.3.29.3.47,0,.1-.24.02-.3-.07-.12-.17-.07-.43-.18-.61,0-.01-.01-.01-.02-.01,0,0,0,0,0,0,0,0-.01,0-.02.01-.01,0-.02.02-.03.03h0s0,0,0,0c.06.08.06.13-.06.07h0s-.03.04-.05.06c0,0,0,0-.01.01,0,.01-.02.02-.03.03,0,0-.01,0-.02,0,0,0-.01,0-.02.01-.01,0-.02,0-.03-.02-.02-.04-.04-.07-.05-.1-.04-.09-.07-.15-.08-.2.13.1.23.16.29.19.02-.02.04-.05.06-.07-.12-.16-.45-.44-.35-.13-.03-.02-.06-.05-.1-.07-.04-.03-.08-.06-.12-.09-.14-.11-.25-.55-.36-.4-.08.11-.07.27-.06.4,0,.06.1.08.12.14Z"/>
  <path class="cls-1" d="M205.48,315.26c.15.62.02.31.41.91.38.57.24.3.44.81.68,0-1.36-3.87-.85-1.72Z"/>
  <path class="cls-1" d="M289.23,267.1c-.47-.41-.07.71-.65.27-.1-.08,0-.74-.06-.74-.64,0-.03.54-.42.61-.06.01-.11-.07-.18-.07-.16.02-.36.02-.47.13-.21.21.03.93.05,1.15.02.18-.36.23-.36.41,0,.04,1.21.14,1.89.27-1.35-1.16.64-1.64.19-2.03Z"/>
  <path class="cls-1" d="M346.55,325.7c-.01-.66-.82-1.42-.93-2.1-.01-.08.13-.12.13-.2,0-.19-.03-.4-.15-.54-.12-.15-.68-.6-.88-.95-.11-.2.47-.07.36-.27-.07-.13-.1-.18-.12-.2,0,0,0,0,0,0,0,0,0,0,0,0,0,0,0,0,0,0,0,0,0,0,0,0,.02-.01.05-.06.06-.22h0s0-.07,0-.11c.03-.65-.11-2.74-.03-3.18.07-.37.53-1.2.53-1.49,0-.16-.17-.34-.33-.34-.14,0-.13.41-.25.34-.4-.24-.14-2.44-.23-2.7-.15-.42-1.1-.15-1.25-.54-.03-.08.23-.04.24-.13,0-.03-.51-1.33-.53-1.35-.24-.25-.76-.36-.97-.61-.5-.6-.6-1.46-1.21-1.96-.47-.38-1.29-.23-1.61-.74-.14-.23-.77-1.44-1.11-1.55-.13-.04-.11.39-.24.34-.19-.07-.14-.39-.27-.54-.26-.27-.45.17-.69-.14-.07-.08.77,0,.76-.07-.08-.73-.36-1.49-.34-2.23,0-.25.49-1.75.22-1.69-.18.04-.25.55-.36.41-.32-.38.57-.77-.08-1.08-.08-.04,0,.34-.07.27-.11-.13-.23-1.05-.35-.07-.06.51.28.44.26,1.01,0,.02-.34-.47-.34-.47-.3-.23-.87-.42-1.15-.74-.17-.2-.15-1.01-.56-.88-1.3.43.43,1.62-.11,2.03-.09.06-.11-.18-.17-.27-.05-.08-.36-.71-.56-.74-.28-.05-.34.49-.6.61-.21.1.37-.52.19-.68-.11-.09-.3.15-.41.07-.08-.07.18-.12.24-.2.02-.03-.03-.05-.06-.07-.22-.13-.7-1.91-.58-2.37.02-.08.27-.85.26-.88-.04-.1-.19.15-.3.14-.18-.02-.31-.17-.46-.27,0,0,.1-.72.02-.88-.21-.41-.13.1-.41-.07-.2-.12.16-.44.19-.68.06-.47-.48-.25-.62-.81-.06-.23-.51,0-.7-.13-.26-.19-.44-.5-.51-.81-.05-.2-.02-.41-.04-.61-.02-.16-.23-.37-.11-.47.16-.13.78.68.93.47.04-.05-.31-1.03-.38-1.08-.22-.15-.68-.27-.7-.34-.05-.18,0-.64-.16-.54-1.63,1.03-.66,0-1.05-.4-.3-.32-1.1-.07-1.17-.2-.1-.18.03-.74-.39-.74-.29,0-.09.5-.19.47-1.45-.38-.6-1.11-.62-1.15-.12-.29-.12-1.11-.33-.88-.04.04-.07.08-.1.12-.01.02-.02.03-.03.05,0,.02-.02.03-.03.04-.01.02-.02.04-.02.05,0,0,0,.01,0,.02,0,.02-.01.03-.01.05h0s-.07,0-.11,0c-.05,0-.1,0-.17.01-1.24.13-.72-.77-.92-.81-.22-.05-.37.37-.59.34-.2-.03-.23-.36-.4-.47-.38-.24-.81-.12-1.22-.54-.8-.81.11-1.31-.25-2.03-.01-.03-.04-.05-.07-.08,0,0-.02-.02-.03-.02-.02-.02-.05-.04-.08-.06,0,0-.02-.01-.02-.02-.05-.04-.11-.07-.17-.11.6-.29.15-.98.06-1.05,0,0-.01,0-.01,0-.06.01-.1.02-.15.03-.01,0-.02,0-.04.01-.03,0-.06.02-.08.03-.01,0-.02.01-.03.02-.02,0-.04.02-.05.03-.01,0-.02.01-.03.02-.01,0-.02.02-.03.03,0,0-.01.01-.02.02,0,0-.02.02-.02.03,0,0,0,.01,0,.02,0,.01,0,.02,0,.03,0,0,0,.01,0,.02,0,.01,0,.03,0,.04,0,0,0,.01,0,.02,0,.02,0,.03.02.05,0,0,0,0,0,0,.07.17.25.37.34.62h0s0,0,0,0c-.02-.01-.04-.03-.06-.04-.04-.03-.07-.05-.11-.08-.01,0-.02-.02-.03-.03-.04-.04-.08-.07-.11-.11,0,0,0-.01-.01-.02-.04-.05-.07-.09-.09-.15,0,0,0,0,0-.01-.03-.06-.05-.12-.06-.19-.14-.9.37-1.69.27-2.55-.1-.85-.66-1.61-.84-2.43-.02-.09.33-.69.19-.74-.17-.07-.38.16-.53.07-.18-.1-.16-.38-.28-.54-.15-.19-1.01-.99-1.04-1.28-.08-.67.34-.76.26-1.49-.07-.61-.79-2.04-.79-2.5,0-.31.27-.57.43-.74.05-.06-.58-.14-.28-.74.09-.19.33-.33.36-.54.01-.1-.22.07-.29,0-.61-.55-1.29-1.48-2.05-1.62-.29-.05-.23-1.62-.63-1.62-.18,0-.21.3-.36.41-.12.08-.27.13-.42.13-.13,0-.25-.2-.35-.13-.54.34-.65,1.63-1.49.47-.88-1.23-.42-2.97-.84-4.26-.05-.16,0-.33-.02-.5,0-.17,0-.33-.01-.5,0-.16-.04-.33-.02-.5.02-.12.24-.31.12-.34-.22-.06-.46.32-.65.2-.17-.11-.03-.41,0-.61.02-.11.15-.17.18-.27.03-.09.06-.2,0-.27-1.26-1.62-1.5-.83-.57-2.57.02-.04-.07-.08-.12-.07-.09.02-1.27,0-1.3-.54-.07-1.25.25-2.68-.8-3.65-.07-.06-.11.14-.18.2-.54.49.13-.67.13-.68-.08-1.09-.93.44-1.01.47-.07.03-.58.04-.65.27-.17.58.09,1.41-.07,1.89-.12.35-.76,1.44-.61,1.89.06.17.38.23.35.4-.03.22-.25.46-.48.47-.3.02-.56.18-.77.41-.12.13-.35,1.35-.31,1.35.3,0,.14-.86.24-.27.02.13.36.27.41.27.28.02.65-.35.83-.13.19.21-.8.31-.71.4.4.46.96-.01.29.88-.05.07-.21-.9-.41-.74-.13.1-.04.33-.12.47l-.66.68c-.2.91.18.43.35,1.01.03.09-.05.18-.06.27,0,.04-.05.14,0,.14.09,0,.15-.14.24-.14.06,0-.12.08-.12.14,0,.08.12.13.12.2-.02.21-.16.4-.18.61-.01.11.13.25.06.34-.06.07-.1-.17-.11-.27-.03-.22.06-.46,0-.68-.08-.3-.46.45-.54.74-.39,1.41.17,1.23.21,2.37.03.79-.34,1.48-.2,2.3.08.51.41.98.46,1.49.01.16-.05.32,0,.47.02.06.24.07.18.07-.78,0-.77.69-1.02,1.22-.34.71.05,1.61-.14,2.3-.43,1.53-1.05,2.28-1.63,3.52-.64,1.36-.19,1.98-1.8,2.64-.37.15-.81.41-1.24.41-.75,0-1.46-1.06-2.17-1.27-.21-.06-.45.02-.64-.08-.62-.35-.52-1.49-.92-1.96-.33-.38-2.69-.54-3.24-.88-.57-.35-1.34-1.49-1.46-1.69-.17-.26-.66-.3-.88-.34-.63-.12-1.09-1.05-1.7-1.28-.09-.04-.8.37-.95.27-.25-.17-.17-.63-.41-.81-1.3-.95-2.58-2.11-4-3.04-.28-.18-.41-.64-.29-.95.07-.2.41-.17.53-.34.55-.73,1.32-2.12,1.61-2.98.59-1.77-.21.04-.47-1.35-.27-1.47.5.03.42-.54-.07-.51-.56-1.03.12-.88.11.03,0,.29.12.34.24.09.12-.77.36-.68.18.07.01.45.18.54.11.06.53-.88.54-.88.26.07-.21.81.05.81.23,0,.93-.41.77-.74-.06-.13-.31-.13-.35-.27-.08-.22.75.23.71,0-.01-.08-.85-.75-.65-.81.7-.2.81-.25.95-1.22.04-.29.83-.35.89-.54.03-.1-.22.06-.3,0-.08-.07-.09-.74-.53-.74-.53,0,.2.79-.36.41-.16-.11-.71-1.08-.71-1.08.05-.15.49-.24.36-.34-.15-.12-1.36.82-1.31,1.01.01.05,1.23,1.15.11,1.15-1.32,0-.42-.1-.59-.81-.04-.16-.35-.02-.47-.13-.06-.05.14-.07.18-.13.09-.15.31-.37.18-.47-.34-.26-.71.98-1.07.74-.75-.49.77-1.18.54-1.15-.92.13-2.1,1.57-2.91,1.15-.51-.27-.69-.79-1.07-1.08-.48-.37-.43.35-.59.47-.24.18-.61-.07-.89-.2-.12-.06-.21-.37-.3-.27-.15.17-.15.44-.3.61-.09.1.1-.72-.24-.95-.26-.18-.5.17-.71.07-.5-.24-.06-.27,0-.74,0-.06-.12.07-.18.07-.1,0-.2-.09-.3-.07-.2.04-.82.59-.95.54-.11-.04.15-.27.06-.34-.16-.13-.8-.2-1.07-.2-.4,0-.78-1.31-1.13-1.55-.09-.07,0,.24-.06.34-.04.07-.16-.1-.24-.07-.04.02-.38.52-.59.34-.11-.09-.77-1.08-.77-1.08-.13.02-.19.35-.3.27-.14-.11.12-.5-.06-.54-.17-.04-.08.39-.24.47-.21.12-.17-.61-.41-.61-.04,0,.26.84.12,1.08-.1.16-.45-.91-.71-1.01-.06-.02-.11.08-.12.13-.07.33-.27.09-.41.34-.06.1-.41.17-.3.2.12.03.23-.14.36-.14.19,0,.64,1.01.65,1.01.35.2,1.32-.8,1.72-.34.12.14-.07.42.06.54.13.12.39-.1.53,0,.08.05-.15.18-.12.27.03.09.24.04.24.13,0,.08-.17-.05-.24,0-.13.1-.34.24-.3.41.05.18.39.11.47.27.11.23-.4.43-.36.67.03.18.35.3.3.47-.04.13-.28-.02-.41-.07-.07-.02-.1-.14-.18-.13-.74.09-.22.76-.59,1.08-.01.01-.06.02-.06,0,.13-.44,0-.66-.42-.74-.22-.04-.51.41-.77.41-1.5,0,.76-.07-.47-.27-.42-.07-1.59.76-1.9-.07-.52-1.41.01.27-.3.2-.42-.1-1.04-.93-.95-.41.34,1.9-.15-.01-.53,1.01-.09.23.6.99.12.88-.5-.11,0-.83-.95-.95-.07,0-.04.13-.06.2-.08.28-.1.83.06.95.06.05.2.19.12.2-1.07.14.02-.13-.71-.41-.34-.13,0,.34-.12.34-.09,0-.2-.22-.24-.13-.07.16.21.63-.06.81-.45.3-.96.24-.71,1.01.02.08.82.91.71.95-.57.16-.07-.53-.47-.07-.28.32-.39.55-.83.68-.24.07-.2-.61-.47-.13-.16.27,0,.99-.06,1.15-.03.07-.35.24-.35.41,0,.2.2.55,0,.61-.34.1-1.33.75-1.24,1.49.08.64,1.21.46,1.42.54.16.06-.86.83.06,1.15.27.09.77-.69.77-.41,0,.33-.16.17-.41.34-.13.09.02.55-.12.47-.33-.19-.77-.77-.77.27,0,.03,0,.07,0,.1,0,.01,0,.02,0,.03,0,.02.01.04.02.06,0,.01.01.03.02.04,0,.02.02.04.02.05,0,.01.01.03.02.04,0,.02.02.03.03.05,0,.02.02.03.03.05,0,.01.02.03.03.04.01.02.03.04.04.06h0c.07.1.14.18.21.27-.05.01-.1.05-.15.07-.01,0-.03.01-.04.01,0,0-.01,0-.02,0-.02,0-.04,0-.06,0-.08-.04.03-.25-.06-.27-.12-.02-.2.28-.29.2-.13-.11-.04-.94-.59-1.15-.09-.04.16.18.12.27-.11.25-.39-.71-.59-.47-.36.41.06.98-.23,1.49-.14.24-.1-.99-.24-1.08-.46-.32-1.53-.81-2.31-.74-.64.06.03.69-.17,1.08-.06.1-.19-.26-.3-.2-.1.06.06.22.06.34,0,.03-.04.09-.06.07-.32-.31-.36-.87-.59-.07-.11.37.73,1.24.54,1.69-.04.09-.46-1.37-.77-1.22-.18.09.03.41,0,.61-.08.49-.49,1-1,1.08-.29.05.57-.52.65-.61.56-.65-.08-1.79.22-2.43.1-.22.64-.52.41-.61-1.27-.48-2.46-3.09-3.15-3.24-.1-.02-.54.27-.71.2-.29-.11-.21-.92-.72-.88-1.47.12.07.95,0,1.01-.1.1-.27.07-.41.07-.12,0-.25-.13-.36-.07-.07.04.12.13.12.2,0,.97-.15.01-.29.14-.07.06-.1.57-.23.67-.11.09-.04-.29-.12-.41-.04-.05-.12.08-.18.07-.42-.1.16-.76.11-.88-.06-.16-.33.11-.47.2-.4.27-.18,1.01-.7,1.01-.11,0-.04-.22-.06-.34-.07-.37.16-.8-.18-.95-.13-.05-.35-.19-.42-.07-.08.17.25.36.18.54-.05.13-.41-.07-.41.07,0,.25.58.1.65.34.1.33-.47.67-.52,1.01-.02.14.19.28.12.41-.07.13-.33.02-.41.14-.08.11.11.32,0,.4-.19.15-.19-.44-.24-.67-.06-.3-.5.84-.7.61-.35-.4.75-1.49-.13-1.49-.08,0-.09,1.27-.11,1.28-.27.31-.09-.51-.36-.2-.03.03-.06.07-.08.1,0,0,0,0,0,.01-.02.03-.04.05-.05.07,0,0,0,0,0,0-.01.02-.03.04-.04.06,0,0,0,0,0,0,0,.02-.02.03-.02.05,0,0,0,0,0,.01,0,.01,0,.02-.01.03,0,0,0,.01,0,.02,0,0,0,0,0,0,0,.01,0,.02,0,.03,0-.01-.01-.03-.03-.04,0,0,0,0,0,0,0,0-.02-.02-.03-.03,0,0-.01,0-.02-.01-.02-.01-.04-.03-.07-.04-.07-.03-.05-.23-.12-.2-.14.04-.26.19-.29.34-.02.07.22.07.18.13-.03.04-.57.33-.59.41-.06.21.61.44.65.47.2.19-.82.26-.11.61.35.17.14-.35.41.07.08.12.26.28.18.41-.1.15-.35.15-.53.13-.09,0-.09-.19-.18-.2-.13-.02-.23.15-.35.14-.3-.04-.01-.33-.06-.41-.31-.53-.24-.06-.47.2-.44.51-.28-.53-.59.2-.19.43.58-.1.71,0,.04.03-.8.68-.47.74.22.04.47-.26.65-.13.15.1-.14.38-.05.54.16.29.88.39.72.68-.14.24-.41-.4-.65-.54-.41-.23-.79-.41-1.19-.61-.09-.05-.18-.29-.24-.2-.05.08-.09.18-.06.27.02.06.17,0,.18.07.02.16-.02.34-.11.47-.14.19-.51-.03-.65,0-.35.07-.47,1.06-.4,1.35.02.09-.03.27.06.27.11,0,.1-.35.17-.27.17.19-.12.81.13.74.19-.06.12-.38.23-.54.07-.11.18-.2.29-.27.05-.03.14.05.18,0,.1-.14.27-.57.29-.41.08.5-.61.8-.7,1.22-.01.06.18,1.03-.11.95-.23-.07-.23-.81-.36-.61-.09.14-.37,1.05-.05,1.08.58.05,1.15-.12,1.71.2.11.06-.23.15-.35.14-.22-.03-1.61-.17-1.59-.14.03.12.17.17.24.27.69.97-1.49-1.03-1.54-.95-.11.16.33.36.24.54-.07.14-.28-.27-.42-.2-.15.07-.01.43-.17.47-.13.04,0-.29-.06-.41-.16-.31-.2-.76-.83-.68-.08.01.15.13.12.2-.48,1.13.85-.75.24.68-.03.07-.18-.06-.24,0-.09.1.08.3,0,.41-.04.05-.08.1-.11.13-.77-.93-.59.61,0,0,.02.02.04.04.06.07.11.14-.29.31-.23.47.11.32.4.61.72.74.2.08.53-.18.65,0,.1.17-.29.29-.35.47-.03.09.13.17.12.27-.03.21-.05.49-.23.61-.21.15-.7-.93-.77-.61-.14.58.11.31.36.81.07.13-.41.36-.4.88.01.8.41,1.24.67,1.96.02.07-.1-.1-.15-.15-.2-.21-.48-.35-.51-.66-.07-.87-.32-1.37-.67-2.1-.17-.34-.73-.86-.84-1.15-.06-.15.25-.39.11-.47-.1-.05-.34.11-.24-.13.04-.1.27-.22.17-.27-.06-.03-.12.09-.18.07-.07-.03-.18.06-.24,0-.09-.1.03-.3-.06-.4-.15-.17-.35.39-.36-.14,0-.24.54-.4.41-.61-.32-.48-1.23.75-1.17,1.01.04.18.36.23.36.41,0,.3-.77-.34-.88-.07-.09.21.03.46-.05.67-.04.1-.2-.19-.3-.13-.44.26-.64.88-1.1,1.42-.48.56.06,1.53.15,2.09.15.94-.26.83-.11.88.26.07,1.17-.63.71.54-.04.11-1.55,1.36-1.68,1.42-.1.04-.21-.2-.3-.13-.25.17-.04.63-.1.88-.14.53-.45-.13-.64.2-.07.12.12.27.12.41.02,1.35-1.67,3.04-2.76,3.58-1.28.64-2.54.66-3.67,1.15-.12.05-.52.47-.69.47-.27,0-.88-.74-1.3-.54-.67.31-.7.69-1.26,1.35-.38.44-1.9.12-2.34.27-.56.19-1.27,1.6-1.9,1.42-.22-.06-.57.24-1.05.2-.62-.05-.58-.69-.6-.68-.29.2-.75.54-1.16.54s.42-1-.02-.74c-.23.13-.44.72-.62.81-.85.42-1.86.73-2.6,1.42-.36.34-.89,1.32-1.36,1.69-.72.57-1.96.81-2.77,1.28-.28.17-.75,1.5-.83,1.69-.07.17.04,1.17-.26,1.08-.61-.17.28.19-.7.07-.11-.01-.09-.23-.07-.34.13-.68-.18-.23-.2-.95,0,0,.2-1.28.2-1.28.02-.08.18-.18.11-.2-.53-.17-.8.38-.97.74-.08.16-.81,2.27-.81,2.3-.03.68.71,1.12.64,1.82-.05.54-.01,1.33-.12,1.89-.08.45-.27.25-.62.67-.55.67-.98,2.62-.64,3.45.18.44.78.81.97,1.22,0,.01.05.86.15,1.01.45.71.71,1.5,1.13,2.23.2.34.81.8.97,1.15.1.22-.18,1.09-.19,1.15,0,.02.24.62.09.81-.82,1-.95-1.14-1.11-1.62-.15-.46-.11,1.44-.55.88-.36-.46.09-.78.07-1.15-.02-.53-.61-.75-.86-1.15-.08-.12,0-.38-.13-.41-.25-.05-.39,1.01-.13,1.01.12,0,.07-.45.1-.34.14.51.13,1.09.35,1.56.23.5,1.76,1.3,1.01,2.03-.09.08-.24.07-.34.14-.52.35-.36-.48-.37-.47-.07.14-.15.54-.22.4-.02-.04-.04-.09-.05-.13,0-.01,0-.02-.01-.03-.01-.04-.03-.09-.04-.14,0-.01,0-.03,0-.04,0-.04-.02-.08-.03-.12,0-.01,0-.03,0-.04,0-.05-.02-.09-.02-.14,0-.02,0-.04,0-.05,0-.04-.01-.08-.01-.12,0,0,0-.02,0-.03,0-.05,0-.09-.01-.13,0,0,0,0,0-.01,0-.09-.01-.16-.01-.21,0-.03,0-.06,0-.09,0,0,0,.04,0,.11.05,1.39-.17-.56-.44-1.03,0,0,0,0,0,0,0-.01-.02-.03-.02-.04,0,0,0,0,0,0,0,0-.01-.02-.02-.02,0,0,0,0,0,0,0,0-.01,0-.02-.01,0,0,0,0,0,0-.01,0-.02,0-.03,0-.22.06.09.45.08.68,0,.18.08.59-.09.54-.52-.15.22-1.05-.22-1.22-.17-.06-.08.36-.09.54,0,.09.09.22.01.27-.13.08-.21-.27-.36-.27-.08,0,.06.15.11.22.11.15.24.29.32.46.09.17.09.38.19.54.52.81,1.39,1.39,1.83,2.3.36.73,1.44,2.14,1.23,3.04-.11.46-.15.84.06,1.35.24.61.97,1.19,1.34,1.76.33.51.16.96.41,1.49.43.92,1.22,1.47,1.38,2.5.05.29-.14.58-.13.88.02,1.11.21,2.2.55,3.24.47,1.42,2.55,4.45,2.67,5.61.06.6-.02.96-.1,1.49-.05.37.28,1.04.3,1.42.01.21.07.57-.14.61-.47.08-.13-.98-.22-.88-.45.57,0,2.35.1,2.97.03.18.29-.34.23.07-.05.34-.18-.06-.33.14-.42.54-.26,1.28-1.18,1.28-.31,0-.51-.51-.82-.47-.25.03-.14.49-.13.74.02.33.11,2.14.25,2.3.23.26,1.57.46,1.95.61.78.3,1.07,1.27,1.62,1.76.31.27.74.41,1.15.41.1,0,.06-.32.15-.27.5.29.23.6.83.74.08.02,1.09-.25,1.17-.27.2-.05.32.34.52.34.38,0,.69-.45.94-.4.46.09-.29.11-.15.27.45.51.79.08,1.07,0,.06-.02.97.38.97.34.11-.93-.18-.41.77-.41.11,0-.11-.27-.02-.34.2-.14.62.09.73-.14.08-.17,0-.38.09-.54.18-.35.42-.25.72-.34.54-.16.41-.99,1.14-.95.23.02.47.05.68.14.08.03.09.19.18.2.2.04.4-.56.42-.61.12-.27.58.3.56-.07-.02-.48-.45.29-.19-.41.14-.38,1.55-1.71,1.85-1.62.12.04-.02.34.18.34,1.06,0,2.28-.61,3.37-.61.51,0,1.55.26,2.28.34.2.02.5-.34.67-.2.22.18.26.57.53.67.11.04,1.76-.56,2.02-.54,1.59.15.43-.2,1.49.54.27.19.52-.42.66-.47.53-.21.08.27.46.27,1.06,0,1.6-3.3,2.1-3.78.54-.53,1.11-.29,1.75-.47,1.5-.43,2.64-1.89,4.12-2.35,1.76-.55,3.63.13,5.49-.42,1.21-.36,2.83-.82,3.91-1.49.45-.28.96-.78,1.59-.88,1.11-.17,2.75-.52,3.87-.41.6.06,1.4.37,2,.27.34-.06.96-.71,1.25-.61,1.34.49,2.2,1.27,3.25,2.1.56.44,1.07-.43,1.54-.41,1,.06,1.17.73,1.71,1.15.17.13.41-.14.63-.14.19,0,.39.21.57.14.13-.05-.19-.42-.06-.41.13.02.21.22.34.2.11-.01.07-.31.17-.27.03.01,1.11,1.16,1.08,1.28-.01.04-.62.15-.29.54.25.3,1.26-.91,1.48.54.12.85-.82.04-.85.27-.03.17.3.23.34.4.03.14-.22.27-.17.41.04.11.28-.03.34.07.13.22.11.5.28.81.04.08.13.28.17.2.08-.19-.17-.5,0-.61.15-.09.09.37.22.47.24.18.59.18.85.34.09.05-.13-.17-.17-.27-.09-.21.66.1.45.27-.04.03-.21-.04-.17,0,.45.54.88.86.55,1.62-.02.05.96.7,1.07.81.42.4.22.96.33,1.35.14.51.38,1.35.72,1.76.05.06.29.03.22.07-.54.32-1.04-.7-1.06-.68-.15.17-.29.39-.29.61,0,.11.18-.16.28-.13.33.07.47.42.67.54.16.09.7,1.08.72,1.08.23.02.36-.31.57-.41.03-.01.67.69.67.41,0-.12.08-.97.01-.95-.2.08-.57.56-.57.34,0-.22.33-.96.46-1.15.09-.13.39.07.45-.07.65-1.51,1.45-2.2,2.87-3.04.47-.28-.73-.09.06-.4.26-.1.53.21.96-.14.52-.41.87-2.77,1.57-2.77.14,0,.26.17.4.14.07-.02-.06-1.94.03-1.89.45.21.32,1.35.54,1.82.07.15.28.24.28.41,0,.49-.69.25-.75.68-.07.54.79,1.2.31,1.62-.84.74-.78.99-1.34,1.96-.05.08-.27-.03-.28.07-.2,1.07.54,1.95-.05,3.11-.05.09-.18.13-.28.14-.43.04-.79-.38-1.24-.07-.55.38.1.52-.18.81-.33.35-.64.29-.35.74.01.02.88-.21,1.24-.47.61-.46,1.25.21,1.8-.2.45-.33.48-3.64,1.26-3.99.1-.04.13.17.16.27.13.37.14.51.32,1.01.09.26,1.14.88,1.05,1.28-.01.06-.06.14-.12.14-.33,0-.09,1.58-.32,2.09-.27.58-1.2.59-1.15,1.28,0,.07.09.14.17.14,1.14,0,2.31-1.09,2.98-.47.55.51,1.36,1.18,1.72,1.89.64,1.26.92,1.87.61,1.42-.48-.69-1.73-3.37-2.78-3.37-.17,0,.83.8.84.81.63.5,1.06,1.05,1.45,1.75.26.46.88,2.37.6,2.76-.03.04-.05.07-.07.1-.01.02-.02.03-.04.05,0,.01-.02.03-.03.04-.02.02-.04.05-.06.07,0,0,0,0,0,0-.09.11-.16.16-.21.19-.12-.2-.18.1,0,0,.02.04.05.1.08.19,0,0,0,0,0,0,.01.04.03.09.04.15,0,0,0,.02,0,.02.01.06.02.12.04.2.02.13-.17.21-.18.34,0,.15.08.28.16.4.27.44.65.63,1.03.94.62.51.77,1.54,1.39,2.02.49.38,1.4-.01,1.99.34.67.4.77,1.35,1.4,1.35.59,0,.19-.41.69-.67.46-.24.87.39,1.26.47.49.11.85-.22,1.33,0,.66.3,2.7,1.84,3.41,1.88.25.02,1.59-1.4,1.95-1.62.39-.23,2.16-1.06,1.84-1.35-.28-.25-1.22.35-1.11,0,.02-.06.06-.12.12-.13.25-.08,1.67-1.07,1.82-.94.53.45.81,1.43.08,1.82-.4.21-1.04-.02-1,.07.2.12.67.74.85.74.16,0,.3-.08.42-.19.05.06.15.15.3.25.16.12.41-.04.61,0,.07.01.11.09.16.13.05,0,.09,0,.12,0,.2.18.47.46.58.47.27.04,1.07-.14.83,0-.08.05-.28-.09-.28,0,.02.36.16.86.5.94.18.04.73-.59.8-.47.1.16.33,1.59.7,1.41.15-.07.55-1.32.35-1.35-.74-.09-.34.65-.77-.07-.06-.11-.21-.31.02-.4.4-.16,2.01-.05,2.17-.2,1.11-1.09,2.28-2.24,3.66-2.96.1-.05-.23-.04-.33,0-.23.09-.72.47-.37-.27.14-.29.62.24.93.2.87-.09,1.55-.34,2.47-.34.8,0,3.27.05,3.51-1.01.02-.1-.2-.18-.15-.27.03-.05.53.22.71.13.05-.02.39-1.53.38-1.55-.09-.11-.31-.07-.38-.2-.04-.08.17-.11.18-.2.15-1.03.45-2.06.86-2.96.12-.27-.14-.83-.1-1.01.12-.51.53-1.15.82-1.48.41-.45.93-1.57,1.14-2.09.04-.11-.21-.34-.09-.34.18,0,.27.42.43.34.16-.08-.14-.41-.02-.54.13-.15.66.04.57-.13-.17-.35-.21-.3-.37-.41-.09-.06-.36-.13-.27-.2.66-.5.85-.48.65-1.42-.06-.3.31.19.4-.14.04-.13-.06-.27-.03-.4.11-.54.54-.7.86-1.08.11-.13.43-.29.31-.41-.69-.65.15.25.2-.54.02-.27-1.01-.13-.77-.27.37-.21.67.13.85-.07l.28-.95c-.2-.11-.44.31-.64.2-.28-.15.94-.54.94-.54.43-.57.69-1.76,1.16-2.23.03-.03,2.15-.92,1.12-.74-.04,0-.07.06-.12.07-.13.02-.32.1-.4,0-.58-.75.82-.16.92-.2.22-.08,1.01-.83,1.25-1.01.27-.2.02-1.39.16-1.69.39-.8,1-1.14,1.15-2.16.01-.07.1.11.16.13.04.01.22-.45.69-1.96.23-.72-.2-.58-.08-1.49.11-.83.57-1.46.81-2.23.36-1.13.32-2.48.65-3.58.21-.7.84-1.23,1.02-1.96.14-.56.07-1.56.05-2.16ZM265.27,273.66c-.42.24.12-.14-.47-.07-.06,0-.11.01-.16.02-.01,0-.03,0-.04,0-.04,0-.08,0-.12,0,0,0-.01,0-.02,0-.04,0-.08,0-.11,0,0,0-.01,0-.02,0-.03,0-.05,0-.07,0,0,0-.01,0-.02,0-.02,0-.05,0-.07,0,0,0,0,0,0,0-.02,0-.03,0-.04-.01,0,0,0,0-.01,0-.01,0-.02,0-.03-.02,0,0,0,0,0,0,0,0,0-.01-.01-.02,0,0,0,0,0-.01,0,0,0,0,0,0-.01-.08.07-.2.09-.36.05.09.09.18.12.28.07.22,1.68-.19,1,.2ZM316.38,367.24c-.27-.13-.7-.27-.96-.29.38-.47.65-1.19,1.25-.72.36.28-.07.78-.28,1.02Z"/>
  <path class="cls-1" d="M291.27,356.52c0-.08,0-.14,0-.2.11-.15.03-.46,0,0-.03.04-.07.07-.13.07h0s-.04,0-.06-.01c0,0,0,0,0,0-.02,0-.05-.02-.07-.03,0,0,0,0-.01,0-.03-.01-.05-.03-.08-.05,0,0,0,0,0,0-.03-.02-.06-.05-.1-.09,0,0-.01-.01-.02-.02-.04-.03-.07-.07-.12-.12-.12-.14.1-.36.12-.54,0-.04-.61.04-.73,0-.53,0-3.93.77-2.77,1.55.09.06.25-.07.34,0,.09.07,0,.29.11.34.39.19,1.27-.21,1.57-.27,1.03-.19,0,.27.95.34.7.05.28-.59.85-.74.22-.06.45-.13.68-.13.17,0,.38.26.5.13.14-.15.07-.44-.04-.61-.21-.28-.97.75-.96.4Z"/>
  <path class="cls-1" d="M311.58,371.94c-.72.56-.45.14-.54.87-.29,2.4,1.89.1.54-.87Z"/>
  <path class="cls-1" d="M325.45,373.96c.01-.24.63-.11.31-.54-.27-.35-.68-.48-.93-.94-1.53-.23-.4.53-.37.61.08.17-.15.35-.14.54,0,.22.89,1.29,1.38.74.46-.52-.26-.19-.25-.4Z"/>
  <path class="cls-1" d="M325.67,377.18c-.09-.17-1.06-1.09-1.32-.8-.05.05.06.13.04.2-.03.12-.08.26-.19.34-.17.12-.71-.2-.76-.2-.38,0-.47.59-.75.67-.26.08-1.83-.22-2.15.2,0,0,0,.02,0,.04,0,0,0,.01,0,.02,0,0,0,.02,0,.03,0,0,0,.02,0,.02,0,.01.01.02.02.04,0,0,0,.02.02.03.01.02.02.04.04.06.01.02.03.04.04.06,0,0,.01.02.02.03.02.02.03.04.05.06,0,0,0,0,0,.01.02.02.04.05.06.07-.81-.39-.9.29-.92.28-.14-.06-.05-.35-.19-.4-.33-.11-.71.16-1.04.07-.87-.24-1.57-.82-2.29-1.21-.07-.04-.14.07-.22.07-.15-.01-.33-.02-.43-.13-.11-.12.02-.45-.14-.47-.05,0-1.26.58-1.76.06-.62-.64-.06.32-.2.6-.18.38-.47-.03-.3.53.25.84.46,2.04.83,2.81.46.94.95.48.98,1.87,0,0,0,.01,0,.02,0,0,0,0,0,0-.01,0-.02-.01-.03-.02,0,0,0,0-.01,0-.01,0-.02,0-.03,0-.01,0-.03,0-.04,0,0,0,0,0,0,0-.01,0-.03,0-.04.02-.11.05.04.24.06.37.05.32-.04,1.14.06,1.3.15.25.51.53.6.87.03.11-.1.45.08.53.56.26.44-.06.88.73.47,1.37-.15,0,.49,0,.18,0,.04.38.13.53.1.17.76-.04.86,0,.28.1-.13.13-.82.13-.08,0-.24,0-.22.07.08.29.18.58.38.8.06.07.19-.02.27-.07.4-.2.58-.07,1.24,0,.12.01.12-.31.23-.27.09.04.04.19.09.27.08.13.16.29.3.33.38.11,2.4-2.26,2.35-2.74-.02-.19-.32-.36-.23-.53,0-.01.01-.01.03-.01,0,0,0,0,.01,0,0,0,.02,0,.03.02,0,0,.01,0,.02.02.01.01.03.02.04.04,0,0,.01.01.02.02.05.05.1.11.15.18,0,0,0,0,0,.01.02.03.05.07.07.11,0,0,0,0,0,0,.05.08.09.16.13.23-.11.12-.16.24-.08.26.16.04.16-.09.08-.25.08-.09.19-.18.32-.24,0,0,0,0,.01,0,.04-.02.08-.03.12-.05,0,0,.02,0,.03,0,.04-.01.09-.02.14-.03,0,0,.02,0,.03,0,.04,0,.08,0,.11,0,.02,0,.03,0,.05,0,.03,0,.07.01.1.02.02,0,.03,0,.05.02.05.02.09.04.14.07,1.25.87-.83-.21-.59.73.03.12.3-.04.38.07.05.07-.17.11-.18.2,0,.08.08.15.15.2.29.25.19-.24.46-.33.14-.05.2.45.3.33.13-.15.24-1.47-.11-1.47-.12,0-.28.32-.28.2-.03-.49.54-.36.49-.73-.03-.21-.23-.4-.18-.6.04-.13.31-.02.39-.13.38-.56.03-.84.71-1.61.04-.04-.15-.01-.16-.07-.01-.15.21-.45.3-.33.04.05-.04,1.03.2,1.07.35.06.07-1.65.07-1.74,0-.57.44-3.41.4-3.48ZM316.21,382.8s-.02.08-.04.12c0,.01,0,.02-.01.04,0,.02-.01.04-.02.06,0,.01,0,.02-.01.04,0,.02-.01.03-.02.05,0,.01,0,.02-.01.03,0,.01-.01.02-.02.04,0,0,0,.02-.01.02,0,.01-.01.02-.02.03,0,0,0,.01-.01.01,0,0-.02.02-.03.02,0,0,0,0,0,0-.01,0-.02.01-.04.02h0s-.02,0-.03,0c0,0,0,0,0,0-.01,0-.02,0-.03,0,0,0,0,0,0,0-.01,0-.02-.01-.03-.02h0c-.21-.17-.42-.89-.66-1.07.05,0,.16-.11.25-.16,0,0,0,0,.01,0,.01,0,.03,0,.04-.01,0,0,.01,0,.01,0,.02,0,.03,0,.04.01.16.14.09.41.18.6.11.23.57-.15.48.2ZM321.2,378.72s-.03-.03-.04-.05c0,0,0-.01-.01-.02-.01-.02-.02-.04-.04-.06,0-.01-.01-.02-.02-.03-.01-.02-.02-.05-.04-.07,0-.01-.01-.02-.02-.04-.01-.03-.02-.05-.04-.08,0-.01-.01-.02-.02-.03-.01-.03-.03-.06-.04-.09,0,0,0-.01,0-.02-.03-.06-.05-.12-.07-.15.12.14.26.29.37.43.01.01.02.03.03.04.02.02.03.04.05.06.01.02.03.04.04.05.01.02.02.03.03.05.01.02.02.04.03.06,0,.01.02.03.02.04.01.02.02.04.03.06,0,.01,0,.02.01.03,0,.03.01.05.01.08,0,.14-.21-.18-.31-.27Z"/>
  <path class="cls-1" d="M308.15,254.01h0c.17.29-.08-.52,0,0Z"/>
  <path class="cls-1" d="M307.98,254.73l.02.02c.1.31.83-.57.19-.67-.28-.04-.32.46-.21.64Z"/>
</svg>