<?xml version="1.0" encoding="UTF-8"?>
<svg id="Layer_1" data-name="Layer 1" xmlns="http://www.w3.org/2000/svg" viewBox="0 0 600 600">
  <defs>
    <style>
      .cls-1 {
        fill: #5d816c;
        stroke: #fff;
      }
    </style>
  </defs>
  <polygon class="cls-1" points="261.98 321 261.98 321.93 262.97 322.92 263.97 323.91 263.97 324.91 263.97 325.91 263.97 326.9 263.97 327.84 262.97 327.84 263.97 329.75 264.98 331.76 265.97 332.75 267.89 333.75 269.95 333.75 270.88 334.67 271.94 334.67 272.86 334.67 273.86 335.74 271.94 337.66 270.88 338.65 269.95 340.64 269.95 341.58 268.88 342.57 268.88 343.57 268.88 345.48 268.88 346.48 267.89 347.47 267.89 349.61 267.89 349.46 268.88 350.4 268.88 349.46 270.88 350.4 271.94 350.4 272.86 350.4 273.86 350.4 274.8 350.4 275.79 350.4 276.79 350.4 278.84 350.4 278.84 351.47 279.77 351.47 280.77 351.47 280.77 352.39 282.76 353.39 283.69 352.39 284.69 352.39 285.68 353.39 286.68 354.38 287.67 354.38 288.6 355.32 289.67 354.38 290.59 354.38 291.65 352.39 293.51 353.39 293.51 354.38 294.51 354.38 295.5 354.38 296.56 353.39 297.49 354.38 298.55 354.38 299.48 354.38 300.48 353.39 301.4 353.39 303.41 353.39 304.4 353.39 305.45 354.38 305.45 353.39 306.39 353.39 308.31 354.38 308.31 355.32 308.31 356.37 309.38 357.31 309.38 356.37 310.3 356.37 310.3 355.32 310.3 354.38 309.38 353.39 309.38 352.39 309.38 351.47 308.31 350.4 308.31 349.46 308.31 347.47 311.37 347.47 312.29 346.48 313.22 345.48 313.22 344.56 314.28 344.56 315.21 344.56 316.27 344.56 316.27 343.57 316.27 342.57 315.21 341.58 314.28 340.64 313.22 339.65 312.29 339.65 311.37 338.65 310.3 336.66 309.38 334.67 308.31 333.75 308.31 332.75 308.31 330.82 307.39 329.75 306.39 328.83 306.39 326.9 305.45 326.9 304.4 324.91 304.4 322.92 305.45 323.91 305.45 324.91 307.39 323.91 308.31 324.91 310.3 324.91 312.29 323.91 313.22 323.91 314.28 322.92 315.21 322.92 318.26 321 319.19 320.01 320.19 319.01 322.18 318.08 323.18 319.01 323.18 320.01 324.11 320.01 325.16 319.01 325.16 318.08 325.16 315.09 326.1 314.1 325.16 314.1 325.16 313.17 325.16 312.11 325.16 309.18 325.16 308.26 324.11 306.27 324.11 305.27 324.11 304.28 325.16 303.28 324.11 303.28 323.18 302.29 323.18 301.35 322.18 300.35 321.18 298.36 322.18 297.44 323.18 296.37 323.18 295.51 323.18 294.46 323.18 293.46 323.18 292.53 323.18 289.61 320.19 289.61 320.19 287.61 320.19 285.62 318.26 285.62 317.2 285.62 317.2 284.62 316.27 283.7 316.27 282.71 315.21 282.71 314.28 283.7 313.22 283.7 312.29 283.7 310.3 284.62 308.31 285.62 307.39 284.62 307.39 285.62 306.39 285.62 304.4 285.62 303.41 285.62 301.4 284.62 302.47 284.62 302.47 283.7 303.41 283.7 303.41 282.71 303.41 281.64 302.47 281.64 301.4 281.64 300.48 282.71 299.48 280.72 298.55 280.72 297.49 280.72 297.49 279.72 296.56 279.72 295.5 279.72 295.5 278.73 296.56 277.73 295.5 276.8 294.51 275.8 293.51 274.88 291.65 274.88 290.59 273.81 289.67 273.81 289.67 275.8 289.67 276.8 290.59 277.73 290.59 278.73 288.6 279.72 287.67 279.72 287.67 280.72 288.6 280.72 288.6 281.64 288.6 282.71 290.59 283.7 289.67 284.62 290.59 285.62 292.58 286.61 292.58 288.6 291.65 286.61 290.59 285.62 288.6 285.62 286.68 285.62 286.68 286.61 286.68 288.6 286.68 289.61 285.68 290.54 285.68 291.46 284.69 289.61 284.69 288.6 284.69 287.61 283.69 287.61 283.69 288.6 282.76 288.6 282.76 287.61 283.69 286.61 281.69 285.62 279.77 285.62 277.78 285.62 276.79 285.62 276.79 286.61 275.79 287.61 275.79 288.6 276.79 288.6 276.79 289.61 277.78 290.54 276.79 291.46 276.79 292.53 276.79 293.46 276.79 294.46 275.79 294.46 275.79 295.51 275.79 297.44 275.79 298.36 274.8 299.36 275.79 300.35 275.79 301.35 274.8 304.28 273.86 304.28 272.86 304.28 271.94 304.28 270.88 304.28 269.95 303.28 266.97 304.28 264.98 305.27 264.98 306.27 264.98 307.19 264.98 309.18 264.98 310.17 262.97 311.18 262.97 312.11 262.97 313.17 262.97 314.1 261.98 316.09 262.97 316.09 262.97 317.02 262.97 318.08 261.98 318.08 261.98 319.01 261.98 320.01 261.98 321"/>
  <polygon class="cls-1" points="261.98 321 261.98 321.93 262.97 322.92 263.97 323.91 263.97 324.91 263.97 325.91 263.97 326.9 263.97 327.84 262.97 327.84 263.97 329.75 264.98 331.76 265.97 332.75 267.89 333.75 269.95 333.75 270.88 334.67 271.94 334.67 272.86 334.67 273.86 335.74 271.94 337.66 270.88 338.65 269.95 340.64 269.95 341.58 268.88 342.57 268.88 343.57 268.88 345.48 268.88 346.48 267.89 347.47 267.89 349.61 267.89 349.46 268.88 350.4 268.88 349.46 270.88 350.4 271.94 350.4 272.86 350.4 273.86 350.4 274.8 350.4 275.79 350.4 276.79 350.4 278.84 350.4 278.84 351.47 279.77 351.47 280.77 351.47 280.77 352.39 282.76 353.39 283.69 352.39 284.69 352.39 285.68 353.39 286.68 354.38 287.67 354.38 288.6 355.32 289.67 354.38 290.59 354.38 291.65 352.39 293.51 353.39 293.51 354.38 294.51 354.38 295.5 354.38 296.56 353.39 297.49 354.38 298.55 354.38 299.48 354.38 300.48 353.39 301.4 353.39 303.41 353.39 304.4 353.39 305.45 354.38 305.45 353.39 306.39 353.39 308.31 354.38 308.31 355.32 308.31 356.37 309.38 357.31 309.38 356.37 310.3 356.37 310.3 355.32 310.3 354.38 309.38 353.39 309.38 352.39 309.38 351.47 308.31 350.4 308.31 349.46 308.31 347.47 311.37 347.47 312.29 346.48 313.22 345.48 313.22 344.56 314.28 344.56 315.21 344.56 316.27 344.56 316.27 343.57 316.27 342.57 315.21 341.58 314.28 340.64 313.22 339.65 312.29 339.65 311.37 338.65 310.3 336.66 309.38 334.67 308.31 333.75 308.31 332.75 308.31 330.82 307.39 329.75 306.39 328.83 306.39 326.9 305.45 326.9 304.4 324.91 304.4 322.92 305.45 323.91 305.45 324.91 307.39 323.91 308.31 324.91 310.3 324.91 312.29 323.91 313.22 323.91 314.28 322.92 315.21 322.92 318.26 321 319.19 320.01 320.19 319.01 322.18 318.08 323.18 319.01 323.18 320.01 324.11 320.01 325.16 319.01 325.16 318.08 325.16 315.09 326.1 314.1 325.16 314.1 325.16 313.17 325.16 312.11 325.16 309.18 325.16 308.26 324.11 306.27 324.11 305.27 324.11 304.28 325.16 303.28 324.11 303.28 323.18 302.29 323.18 301.35 322.18 300.35 321.18 298.36 322.18 297.44 323.18 296.37 323.18 295.51 323.18 294.46 323.18 293.46 323.18 292.53 323.18 289.61 320.19 289.61 320.19 287.61 320.19 285.62 318.26 285.62 317.2 285.62 317.2 284.62 316.27 283.7 316.27 282.71 315.21 282.71 314.28 283.7 313.22 283.7 312.29 283.7 310.3 284.62 308.31 285.62 307.39 284.62 307.39 285.62 306.39 285.62 304.4 285.62 303.41 285.62 301.4 284.62 302.47 284.62 302.47 283.7 303.41 283.7 303.41 282.71 303.41 281.64 302.47 281.64 301.4 281.64 300.48 282.71 299.48 280.72 298.55 280.72 297.49 280.72 297.49 279.72 296.56 279.72 295.5 279.72 295.5 278.73 296.56 277.73 295.5 276.8 294.51 275.8 293.51 274.88 291.65 274.88 290.59 273.81 289.67 273.81 289.67 275.8 289.67 276.8 290.59 277.73 290.59 278.73 288.6 279.72 287.67 279.72 287.67 280.72 288.6 280.72 288.6 281.64 288.6 282.71 290.59 283.7 289.67 284.62 290.59 285.62 292.58 286.61 292.58 288.6 291.65 286.61 290.59 285.62 288.6 285.62 286.68 285.62 286.68 286.61 286.68 288.6 286.68 289.61 285.68 290.54 285.68 291.46 284.69 289.61 284.69 288.6 284.69 287.61 283.69 287.61 283.69 288.6 282.76 288.6 282.76 287.61 283.69 286.61 281.69 285.62 279.77 285.62 277.78 285.62 276.79 285.62 276.79 286.61 275.79 287.61 275.79 288.6 276.79 288.6 276.79 289.61 277.78 290.54 276.79 291.46 276.79 292.53 276.79 293.46 276.79 294.46 275.79 294.46 275.79 295.51 275.79 297.44 275.79 298.36 274.8 299.36 275.79 300.35 275.79 301.35 274.8 304.28 273.86 304.28 272.86 304.28 271.94 304.28 270.88 304.28 269.95 303.28 266.97 304.28 264.98 305.27 264.98 306.27 264.98 307.19 264.98 309.18 264.98 310.17 262.97 311.18 262.97 312.11 262.97 313.17 262.97 314.1 261.98 316.09 262.97 316.09 262.97 317.02 262.97 318.08 261.98 318.08 261.98 319.01 261.98 320.01 261.98 321"/>
</svg>