<?xml version="1.0" encoding="UTF-8"?>
<svg id="Layer_1" data-name="Layer 1" xmlns="http://www.w3.org/2000/svg" viewBox="0 0 600 600">
  <defs>
    <style>
      .cls-1 {
        fill: #fff;
        stroke: #fff;
      }
    </style>
  </defs>
  <polygon class="cls-1" points="91.3 341.33 91.3 347.72 98.24 354.66 105.11 361.53 105.11 368.46 105.11 375.33 105.11 382.27 105.11 388.73 98.24 388.73 105.11 402.05 112.12 415.99 119.06 422.86 132.31 429.8 146.67 429.8 153.06 436.19 160.48 436.19 166.87 436.19 173.74 443.61 160.48 456.86 153.06 463.8 146.67 477.61 146.67 484.13 139.25 491 139.25 497.94 139.25 511.19 139.25 518.13 132.31 525 132.31 539.85 132.31 538.81 139.25 545.33 139.25 538.81 153.06 545.33 160.48 545.33 166.87 545.33 173.74 545.33 180.26 545.33 187.2 545.33 194.07 545.33 208.29 545.33 208.29 552.76 214.81 552.76 221.68 552.76 221.68 559.14 235.49 566.08 242.01 559.14 248.88 559.14 255.82 566.08 262.69 572.95 269.63 572.95 276.01 579.47 283.44 572.95 289.82 572.95 297.24 559.14 310.15 566.08 310.15 572.95 317.02 572.95 323.96 572.95 331.24 566.08 337.77 572.95 345.05 572.95 351.57 572.95 358.44 566.08 364.9 566.08 378.77 566.08 385.71 566.08 393 572.95 393 566.08 399.45 566.08 412.77 572.95 412.77 579.47 412.77 586.76 420.2 593.28 420.2 586.76 426.58 586.76 426.58 579.47 426.58 572.95 420.2 566.08 420.2 559.14 420.2 552.76 412.77 545.33 412.77 538.81 412.77 525 434.01 525 440.39 518.13 446.91 511.19 446.91 504.81 454.2 504.81 460.72 504.81 468.01 504.81 468.01 497.94 468.01 491 460.72 484.13 454.2 477.61 446.91 470.67 440.39 470.67 434.01 463.8 426.58 449.99 420.2 436.19 412.77 429.8 412.77 422.86 412.77 409.47 406.39 402.05 399.45 395.66 399.45 382.27 393 382.27 385.71 368.46 385.71 354.66 393 361.53 393 368.46 406.39 361.53 412.77 368.46 426.58 368.46 440.39 361.53 446.91 361.53 454.2 354.66 460.72 354.66 481.81 341.33 488.34 334.46 495.27 327.53 509.01 321 515.95 327.53 515.95 334.46 522.47 334.46 529.76 327.53 529.76 321 529.76 300.33 536.28 293.39 529.76 293.39 529.76 287 529.76 279.58 529.76 259.32 529.76 252.94 522.47 239.06 522.47 232.19 522.47 225.32 529.76 218.38 522.47 218.38 515.95 211.44 515.95 204.99 509.01 198.05 502.14 184.24 509.01 177.86 515.95 170.43 515.95 164.47 515.95 157.18 515.95 150.24 515.95 143.72 515.95 123.53 495.27 123.53 495.27 109.65 495.27 95.84 481.81 95.84 474.53 95.84 474.53 88.9 468.01 82.52 468.01 75.65 460.72 75.65 454.2 82.52 446.91 82.52 440.39 82.52 426.58 88.9 412.77 95.84 406.39 88.9 406.39 95.84 399.45 95.84 385.71 95.84 378.77 95.84 364.9 88.9 372.25 88.9 372.25 82.52 378.77 82.52 378.77 75.65 378.77 68.23 372.25 68.23 364.9 68.23 358.44 75.65 351.57 61.77 345.05 61.77 337.77 61.77 337.77 54.9 331.24 54.9 323.96 54.9 323.96 48.04 331.24 41.1 323.96 34.57 317.02 27.7 310.15 21.32 297.24 21.32 289.82 13.9 283.44 13.9 283.44 27.7 283.44 34.57 289.82 41.1 289.82 48.04 276.01 54.9 269.63 54.9 269.63 61.77 276.01 61.77 276.01 68.23 276.01 75.65 289.82 82.52 283.44 88.9 289.82 95.84 303.63 102.71 303.63 116.52 297.24 102.71 289.82 95.84 276.01 95.84 262.69 95.84 262.69 102.71 262.69 116.52 262.69 123.53 255.82 129.91 255.82 136.37 248.88 123.53 248.88 116.52 248.88 109.65 242.01 109.65 242.01 116.52 235.49 116.52 235.49 109.65 242.01 102.71 228.07 95.84 214.81 95.84 201 95.84 194.07 95.84 194.07 102.71 187.2 109.65 187.2 116.52 194.07 116.52 194.07 123.53 201 129.91 194.07 136.37 194.07 143.72 194.07 150.24 194.07 157.18 187.2 157.18 187.2 164.47 187.2 177.86 187.2 184.24 180.26 191.18 187.2 198.05 187.2 204.99 180.26 225.32 173.74 225.32 166.87 225.32 160.48 225.32 153.06 225.32 146.67 218.38 125.93 225.32 112.12 232.19 112.12 239.06 112.12 245.51 112.12 259.32 112.12 266.19 98.24 273.2 98.24 279.58 98.24 287 98.24 293.39 91.3 307.2 98.24 307.2 98.24 313.72 98.24 321 91.3 321 91.3 327.53 91.3 334.46 91.3 341.33"/>
  <polygon class="cls-1" points="91.3 341.33 91.3 347.72 98.24 354.66 105.11 361.53 105.11 368.46 105.11 375.33 105.11 382.27 105.11 388.73 98.24 388.73 105.11 402.05 112.12 415.99 119.06 422.86 132.31 429.8 146.67 429.8 153.06 436.19 160.48 436.19 166.87 436.19 173.74 443.61 160.48 456.86 153.06 463.8 146.67 477.61 146.67 484.13 139.25 491 139.25 497.94 139.25 511.19 139.25 518.13 132.31 525 132.31 539.85 132.31 538.81 139.25 545.33 139.25 538.81 153.06 545.33 160.48 545.33 166.87 545.33 173.74 545.33 180.26 545.33 187.2 545.33 194.07 545.33 208.29 545.33 208.29 552.76 214.81 552.76 221.68 552.76 221.68 559.14 235.49 566.08 242.01 559.14 248.88 559.14 255.82 566.08 262.69 572.95 269.63 572.95 276.01 579.47 283.44 572.95 289.82 572.95 297.24 559.14 310.15 566.08 310.15 572.95 317.02 572.95 323.96 572.95 331.24 566.08 337.77 572.95 345.05 572.95 351.57 572.95 358.44 566.08 364.9 566.08 378.77 566.08 385.71 566.08 393 572.95 393 566.08 399.45 566.08 412.77 572.95 412.77 579.47 412.77 586.76 420.2 593.28 420.2 586.76 426.58 586.76 426.58 579.47 426.58 572.95 420.2 566.08 420.2 559.14 420.2 552.76 412.77 545.33 412.77 538.81 412.77 525 434.01 525 440.39 518.13 446.91 511.19 446.91 504.81 454.2 504.81 460.72 504.81 468.01 504.81 468.01 497.94 468.01 491 460.72 484.13 454.2 477.61 446.91 470.67 440.39 470.67 434.01 463.8 426.58 449.99 420.2 436.19 412.77 429.8 412.77 422.86 412.77 409.47 406.39 402.05 399.45 395.66 399.45 382.27 393 382.27 385.71 368.46 385.71 354.66 393 361.53 393 368.46 406.39 361.53 412.77 368.46 426.58 368.46 440.39 361.53 446.91 361.53 454.2 354.66 460.72 354.66 481.81 341.33 488.34 334.46 495.27 327.53 509.01 321 515.95 327.53 515.95 334.46 522.47 334.46 529.76 327.53 529.76 321 529.76 300.33 536.28 293.39 529.76 293.39 529.76 287 529.76 279.58 529.76 259.32 529.76 252.94 522.47 239.06 522.47 232.19 522.47 225.32 529.76 218.38 522.47 218.38 515.95 211.44 515.95 204.99 509.01 198.05 502.14 184.24 509.01 177.86 515.95 170.43 515.95 164.47 515.95 157.18 515.95 150.24 515.95 143.72 515.95 123.53 495.27 123.53 495.27 109.65 495.27 95.84 481.81 95.84 474.53 95.84 474.53 88.9 468.01 82.52 468.01 75.65 460.72 75.65 454.2 82.52 446.91 82.52 440.39 82.52 426.58 88.9 412.77 95.84 406.39 88.9 406.39 95.84 399.45 95.84 385.71 95.84 378.77 95.84 364.9 88.9 372.25 88.9 372.25 82.52 378.77 82.52 378.77 75.65 378.77 68.23 372.25 68.23 364.9 68.23 358.44 75.65 351.57 61.77 345.05 61.77 337.77 61.77 337.77 54.9 331.24 54.9 323.96 54.9 323.96 48.04 331.24 41.1 323.96 34.57 317.02 27.7 310.15 21.32 297.24 21.32 289.82 13.9 283.44 13.9 283.44 27.7 283.44 34.57 289.82 41.1 289.82 48.04 276.01 54.9 269.63 54.9 269.63 61.77 276.01 61.77 276.01 68.23 276.01 75.65 289.82 82.52 283.44 88.9 289.82 95.84 303.63 102.71 303.63 116.52 297.24 102.71 289.82 95.84 276.01 95.84 262.69 95.84 262.69 102.71 262.69 116.52 262.69 123.53 255.82 129.91 255.82 136.37 248.88 123.53 248.88 116.52 248.88 109.65 242.01 109.65 242.01 116.52 235.49 116.52 235.49 109.65 242.01 102.71 228.07 95.84 214.81 95.84 201 95.84 194.07 95.84 194.07 102.71 187.2 109.65 187.2 116.52 194.07 116.52 194.07 123.53 201 129.91 194.07 136.37 194.07 143.72 194.07 150.24 194.07 157.18 187.2 157.18 187.2 164.47 187.2 177.86 187.2 184.24 180.26 191.18 187.2 198.05 187.2 204.99 180.26 225.32 173.74 225.32 166.87 225.32 160.48 225.32 153.06 225.32 146.67 218.38 125.93 225.32 112.12 232.19 112.12 239.06 112.12 245.51 112.12 259.32 112.12 266.19 98.24 273.2 98.24 279.58 98.24 287 98.24 293.39 91.3 307.2 98.24 307.2 98.24 313.72 98.24 321 91.3 321 91.3 327.53 91.3 334.46 91.3 341.33"/>
</svg>