<?xml version="1.0" encoding="UTF-8"?>
<svg id="Layer_1" data-name="Layer 1" xmlns="http://www.w3.org/2000/svg" viewBox="0 0 600 600">
  <defs>
    <style>
      .cls-1 {
        fill: #fff;
        stroke: #fff;
      }
    </style>
  </defs>
  <g>
    <polygon class="cls-1" points="155.05 264.32 149.52 264.32 138.4 264.32 133.54 269.85 127.68 275.44 127.68 280.97 122.15 286.16 116.56 280.97 110.98 280.97 110.98 286.16 105.45 292.08 110.98 297.28 116.56 302.81 122.15 308.39 127.68 313.92 133.54 308.39 138.4 308.39 144.38 308.39 155.05 313.92 155.05 319.51 160.64 324.7 166.17 335.82 171.81 330.29 176.95 324.7 182.92 324.7 188.06 324.7 188.06 313.92 194.04 308.39 194.04 313.92 194.04 319.51 199.18 319.51 199.18 313.92 199.18 308.39 194.04 302.81 188.06 308.39 182.92 302.81 188.06 297.28 194.04 297.28 194.04 292.08 194.04 286.16 188.06 275.44 188.06 269.85 188.06 264.32 182.92 264.32 176.95 264.32 171.81 264.32 171.81 259.07 166.17 259.07 160.64 264.32 155.05 264.32"/>
    <polygon class="cls-1" points="155.05 264.32 149.52 264.32 138.4 264.32 133.54 269.85 127.68 275.44 127.68 280.97 122.15 286.16 116.56 280.97 110.98 280.97 110.98 286.16 105.45 292.08 110.98 297.28 116.56 302.81 122.15 308.39 127.68 313.92 133.54 308.39 138.4 308.39 144.38 308.39 155.05 313.92 155.05 319.51 160.64 324.7 166.17 335.82 171.81 330.29 176.95 324.7 182.92 324.7 188.06 324.7 188.06 313.92 194.04 308.39 194.04 313.92 194.04 319.51 199.18 319.51 199.18 313.92 199.18 308.39 194.04 302.81 188.06 308.39 182.92 302.81 188.06 297.28 194.04 297.28 194.04 292.08 194.04 286.16 188.06 275.44 188.06 269.85 188.06 264.32 182.92 264.32 176.95 264.32 171.81 264.32 171.81 259.07 166.17 259.07 160.64 264.32 155.05 264.32"/>
  </g>
  <g>
    <polygon class="cls-1" points="216.61 396.98 211.47 396.98 206.22 396.98 206.22 386.26 211.47 386.26 216.61 386.26 222.58 391.84 216.61 396.98"/>
    <polygon class="cls-1" points="216.61 396.98 211.47 396.98 206.22 396.98 206.22 386.26 211.47 386.26 216.61 386.26 222.58 391.84 216.61 396.98"/>
  </g>
  <g>
    <polygon class="cls-1" points="264.08 572.71 275.2 572.71 280.79 572.71 280.79 578.3 275.2 578.3 269.67 578.3 264.08 572.71"/>
    <polygon class="cls-1" points="264.08 572.71 275.2 572.71 280.79 572.71 280.79 578.3 275.2 578.3 269.67 578.3 264.08 572.71"/>
  </g>
  <g>
    <polygon class="cls-1" points="377.14 90.05 371.28 84.46 365.69 79.27 371.28 79.27 377.14 73.68 377.14 79.27 377.14 84.46 377.14 90.05"/>
    <polygon class="cls-1" points="377.14 90.05 371.28 84.46 365.69 79.27 371.28 79.27 377.14 73.68 377.14 79.27 377.14 84.46 377.14 90.05"/>
  </g>
  <g>
    <polygon class="cls-1" points="442.77 51.45 448.36 45.92 448.36 40.78 442.77 35.19 442.77 29.66 453.89 29.66 453.89 24.08 459.47 7.71 459.47 18.55 459.47 24.08 459.47 29.66 459.47 35.19 453.89 40.78 453.89 45.92 442.77 51.45"/>
    <polygon class="cls-1" points="442.77 51.45 448.36 45.92 448.36 40.78 442.77 35.19 442.77 29.66 453.89 29.66 453.89 24.08 459.47 7.71 459.47 18.55 459.47 24.08 459.47 29.66 459.47 35.19 453.89 40.78 453.89 45.92 442.77 51.45"/>
  </g>
  <g>
    <polygon class="cls-1" points="227.72 117.08 233.7 106.3 239.23 101.16 244.81 106.3 244.81 112.28 249.95 106.3 249.95 101.16 255.59 95.18 261.18 95.18 261.18 90.05 266.32 84.46 266.32 79.27 261.18 84.46 255.59 84.46 244.81 84.46 244.81 95.18 239.23 90.05 239.23 84.46 233.7 90.05 233.7 95.18 227.72 106.3 227.72 112.28 227.72 117.08"/>
    <polygon class="cls-1" points="227.72 117.08 233.7 106.3 239.23 101.16 244.81 106.3 244.81 112.28 249.95 106.3 249.95 101.16 255.59 95.18 261.18 95.18 261.18 90.05 266.32 84.46 266.32 79.27 261.18 84.46 255.59 84.46 244.81 84.46 244.81 95.18 239.23 90.05 239.23 84.46 233.7 90.05 233.7 95.18 227.72 106.3 227.72 112.28 227.72 117.08"/>
  </g>
  <g>
    <polygon class="cls-1" points="222.58 342.52 227.72 336.55 233.7 331.35 239.23 336.55 239.23 342.52 227.72 347.72 222.58 342.52"/>
    <polygon class="cls-1" points="222.58 342.52 227.72 336.55 233.7 331.35 239.23 336.55 239.23 342.52 227.72 347.72 222.58 342.52"/>
  </g>
  <g>
    <polygon class="cls-1" points="250.4 151.21 250.4 146.01 250.4 140.09 255.59 134.9 255.59 129.37 250.4 134.9 244.42 140.09 244.42 134.9 244.42 129.37 233.31 134.9 233.31 140.09 233.31 146.01 244.42 140.09 239.23 151.21 244.42 156.74 244.42 162.33 250.4 151.21"/>
    <polygon class="cls-1" points="250.4 151.21 250.4 146.01 250.4 140.09 255.59 134.9 255.59 129.37 250.4 134.9 244.42 140.09 244.42 134.9 244.42 129.37 233.31 134.9 233.31 140.09 233.31 146.01 244.42 140.09 239.23 151.21 244.42 156.74 244.42 162.33 250.4 151.21"/>
  </g>
  <g>
    <polygon class="cls-1" points="233.31 206.12 233.31 200.87 227.72 200.87 233.31 194.89 233.31 189.36 227.72 189.36 239.23 194.89 239.23 200.87 233.31 200.87 233.31 206.12"/>
    <polygon class="cls-1" points="233.31 206.12 233.31 200.87 227.72 200.87 233.31 194.89 233.31 189.36 227.72 189.36 239.23 194.89 239.23 200.87 233.31 200.87 233.31 206.12"/>
  </g>
  <g>
    <polygon class="cls-1" points="110.98 553.11 122.15 547.52 127.68 547.52 127.68 542.33 143.93 536.4 155.05 536.4 160.64 525.62 160.64 520.09 166.17 520.09 171.81 525.62 177.39 520.09 171.81 514.96 177.39 514.96 182.53 514.96 188.06 514.96 188.06 520.09 193.65 520.09 199.18 525.62 204.76 525.62 210.35 525.62 221.13 525.62 226.66 525.62 226.66 520.09 232.25 514.96 237.78 514.96 243.36 514.96 248.89 509.31 254.03 503.73 248.89 503.73 237.78 503.73 237.78 498.59 243.36 498.59 243.36 487.47 237.78 487.47 237.78 481.89 237.78 476.36 243.36 470.77 248.89 459.99 243.36 459.99 248.89 459.99 254.03 454.46 254.03 448.88 254.03 443.74 259.62 437.76 265.15 432.62 265.15 427.04 259.62 421.51 259.62 416.25 265.15 410.39 265.15 416.25 270.73 416.25 276.37 410.39 270.73 410.39 270.73 405.14 270.73 399.61 265.15 399.61 265.15 394.47 270.73 388.83 276.37 388.83 276.37 383.24 276.37 377.71 281.9 377.71 281.9 372.13 292.63 372.13 292.63 366.54 281.9 361.01 276.37 361.01 270.73 366.54 281.9 355.87 276.37 355.87 270.73 350.29 270.73 345.09 270.73 333.64 270.73 328.39 276.37 322.86 281.9 317.67 287.1 322.86 287.1 317.67 292.63 317.67 298.16 311.74 298.16 317.67 303.74 317.67 309.33 311.74 314.86 306.55 320.44 306.55 320.44 301.02 325.64 301.02 325.64 295.43 331.23 295.43 336.76 301.02 342.34 295.43 336.76 290.24 342.34 290.24 347.87 279.12 353.46 290.24 358.99 295.43 353.46 306.55 353.46 311.74 353.46 317.67 358.99 322.86 358.99 328.39 353.46 333.64 353.46 339.17 353.46 350.29 353.46 355.87 358.99 355.87 364.13 361.01 369.71 361.01 369.71 366.54 375.3 372.13 375.3 377.71 375.3 383.24 375.3 388.83 375.3 416.25 369.71 410.39 364.13 410.39 358.99 410.39 358.99 416.25 364.13 416.25 375.3 421.51 375.3 427.04 381.22 432.62 381.22 437.76 381.22 443.74 381.22 448.88 375.3 454.46 369.71 459.99 364.13 459.99 364.13 465.58 364.13 470.77 369.71 476.36 375.3 470.77 381.22 470.77 386.47 465.58 392.05 470.77 402.72 470.77 413.84 476.36 419.82 481.89 419.82 493 419.82 498.59 413.84 509.31 413.84 514.96 408.31 520.09 402.72 525.62 397.58 525.62 392.05 525.62 392.05 531.6 386.47 531.6 381.22 531.6 375.3 531.6 369.71 536.4 375.3 536.4 375.3 542.33 369.71 547.52 364.13 542.33 358.99 542.33 353.46 542.33 353.46 547.52 358.99 553.11 364.13 558.69 369.71 558.69 375.3 564.22 381.22 558.69 386.47 558.69 392.05 564.22 386.47 569.75 381.22 574.95 375.3 574.95 369.71 580.48 364.13 586.06 358.99 580.48 353.46 580.48 342.34 586.06 336.76 580.48 331.23 580.48 325.64 574.95 320.44 574.95 314.86 574.95 309.33 574.95 298.16 574.95 298.16 569.75 292.63 569.75 287.1 569.75 281.9 564.22 276.37 558.69 270.73 564.22 270.73 569.75 259.62 569.75 254.03 564.22 243.36 564.22 237.78 569.75 232.25 569.75 232.25 564.22 226.66 558.69 221.13 553.11 215.54 553.11 210.35 553.11 204.76 553.11 199.18 553.11 193.65 547.52 188.06 553.11 188.06 558.69 188.06 564.22 182.53 569.75 171.81 569.75 166.17 564.22 166.17 558.69 155.05 558.69 143.93 553.11 133.21 558.69 127.68 564.22 127.68 558.69 122.15 558.69 122.15 564.22 116.56 564.22 110.98 564.22 110.98 553.11 105.78 553.11 100.2 553.11 110.98 553.11"/>
    <polygon class="cls-1" points="110.98 553.11 122.15 547.52 127.68 547.52 127.68 542.33 143.93 536.4 155.05 536.4 160.64 525.62 160.64 520.09 166.17 520.09 171.81 525.62 177.39 520.09 171.81 514.96 177.39 514.96 182.53 514.96 188.06 514.96 188.06 520.09 193.65 520.09 199.18 525.62 204.76 525.62 210.35 525.62 221.13 525.62 226.66 525.62 226.66 520.09 232.25 514.96 237.78 514.96 243.36 514.96 248.89 509.31 254.03 503.73 248.89 503.73 237.78 503.73 237.78 498.59 243.36 498.59 243.36 487.47 237.78 487.47 237.78 481.89 237.78 476.36 243.36 470.77 248.89 459.99 243.36 459.99 248.89 459.99 254.03 454.46 254.03 448.88 254.03 443.74 259.62 437.76 265.15 432.62 265.15 427.04 259.62 421.51 259.62 416.25 265.15 410.39 265.15 416.25 270.73 416.25 276.37 410.39 270.73 410.39 270.73 405.14 270.73 399.61 265.15 399.61 265.15 394.47 270.73 388.83 276.37 388.83 276.37 383.24 276.37 377.71 281.9 377.71 281.9 372.13 292.63 372.13 292.63 366.54 281.9 361.01 276.37 361.01 270.73 366.54 281.9 355.87 276.37 355.87 270.73 350.29 270.73 345.09 270.73 333.64 270.73 328.39 276.37 322.86 281.9 317.67 287.1 322.86 287.1 317.67 292.63 317.67 298.16 311.74 298.16 317.67 303.74 317.67 309.33 311.74 314.86 306.55 320.44 306.55 320.44 301.02 325.64 301.02 325.64 295.43 331.23 295.43 336.76 301.02 342.34 295.43 336.76 290.24 342.34 290.24 347.87 279.12 353.46 290.24 358.99 295.43 353.46 306.55 353.46 311.74 353.46 317.67 358.99 322.86 358.99 328.39 353.46 333.64 353.46 339.17 353.46 350.29 353.46 355.87 358.99 355.87 364.13 361.01 369.71 361.01 369.71 366.54 375.3 372.13 375.3 377.71 375.3 383.24 375.3 388.83 375.3 416.25 369.71 410.39 364.13 410.39 358.99 410.39 358.99 416.25 364.13 416.25 375.3 421.51 375.3 427.04 381.22 432.62 381.22 437.76 381.22 443.74 381.22 448.88 375.3 454.46 369.71 459.99 364.13 459.99 364.13 465.58 364.13 470.77 369.71 476.36 375.3 470.77 381.22 470.77 386.47 465.58 392.05 470.77 402.72 470.77 413.84 476.36 419.82 481.89 419.82 493 419.82 498.59 413.84 509.31 413.84 514.96 408.31 520.09 402.72 525.62 397.58 525.62 392.05 525.62 392.05 531.6 386.47 531.6 381.22 531.6 375.3 531.6 369.71 536.4 375.3 536.4 375.3 542.33 369.71 547.52 364.13 542.33 358.99 542.33 353.46 542.33 353.46 547.52 358.99 553.11 364.13 558.69 369.71 558.69 375.3 564.22 381.22 558.69 386.47 558.69 392.05 564.22 386.47 569.75 381.22 574.95 375.3 574.95 369.71 580.48 364.13 586.06 358.99 580.48 353.46 580.48 342.34 586.06 336.76 580.48 331.23 580.48 325.64 574.95 320.44 574.95 314.86 574.95 309.33 574.95 298.16 574.95 298.16 569.75 292.63 569.75 287.1 569.75 281.9 564.22 276.37 558.69 270.73 564.22 270.73 569.75 259.62 569.75 254.03 564.22 243.36 564.22 237.78 569.75 232.25 569.75 232.25 564.22 226.66 558.69 221.13 553.11 215.54 553.11 210.35 553.11 204.76 553.11 199.18 553.11 193.65 547.52 188.06 553.11 188.06 558.69 188.06 564.22 182.53 569.75 171.81 569.75 166.17 564.22 166.17 558.69 155.05 558.69 143.93 553.11 133.21 558.69 127.68 564.22 127.68 558.69 122.15 558.69 122.15 564.22 116.56 564.22 110.98 564.22 110.98 553.11 105.78 553.11 100.2 553.11 110.98 553.11"/>
  </g>
  <g>
    <polygon class="cls-1" points="261.91 416.98 255.93 411.45 255.93 405.86 250.79 405.86 245.2 405.86 245.2 400.73 228.45 405.86 222.92 405.86 217.33 411.45 206.66 411.45 201.08 416.98 195.55 416.98 195.55 422.57 201.08 422.57 206.66 416.98 212.53 422.57 217.33 416.98 222.92 416.98 222.92 422.57 217.33 427.82 217.33 433.35 217.33 438.93 212.53 438.93 217.33 444.46 212.53 450.05 206.66 450.05 201.08 455.19 195.55 461.16 189.96 455.19 184.43 461.16 179.18 461.16 173.65 461.16 168.06 461.16 162.48 455.19 156.95 461.16 156.95 466.3 151.36 471.83 162.48 471.83 168.06 471.83 168.06 477.08 162.48 477.08 162.48 482.67 173.65 482.67 179.18 477.08 184.43 477.08 189.96 477.08 189.96 482.67 189.96 488.59 195.55 488.59 189.96 488.59 189.96 493.73 201.08 493.73 206.66 493.73 201.08 499.71 206.66 504.9 212.53 510.1 217.33 510.1 228.45 510.1 234.03 510.1 239.67 504.9 239.67 499.71 245.2 499.71 245.2 488.59 239.67 488.59 239.67 482.67 239.67 477.08 245.2 471.83 250.79 461.16 245.2 461.16 250.79 461.16 255.93 455.19 255.93 450.05 255.93 444.46 261.91 438.93 267.04 433.35 267.04 427.82 261.91 422.57 261.91 416.98"/>
    <polygon class="cls-1" points="261.91 416.98 255.93 411.45 255.93 405.86 250.79 405.86 245.2 405.86 245.2 400.73 228.45 405.86 222.92 405.86 217.33 411.45 206.66 411.45 201.08 416.98 195.55 416.98 195.55 422.57 201.08 422.57 206.66 416.98 212.53 422.57 217.33 416.98 222.92 416.98 222.92 422.57 217.33 427.82 217.33 433.35 217.33 438.93 212.53 438.93 217.33 444.46 212.53 450.05 206.66 450.05 201.08 455.19 195.55 461.16 189.96 455.19 184.43 461.16 179.18 461.16 173.65 461.16 168.06 461.16 162.48 455.19 156.95 461.16 156.95 466.3 151.36 471.83 162.48 471.83 168.06 471.83 168.06 477.08 162.48 477.08 162.48 482.67 173.65 482.67 179.18 477.08 184.43 477.08 189.96 477.08 189.96 482.67 189.96 488.59 195.55 488.59 189.96 488.59 189.96 493.73 201.08 493.73 206.66 493.73 201.08 499.71 206.66 504.9 212.53 510.1 217.33 510.1 228.45 510.1 234.03 510.1 239.67 504.9 239.67 499.71 245.2 499.71 245.2 488.59 239.67 488.59 239.67 482.67 239.67 477.08 245.2 471.83 250.79 461.16 245.2 461.16 250.79 461.16 255.93 455.19 255.93 450.05 255.93 444.46 261.91 438.93 267.04 433.35 267.04 427.82 261.91 422.57 261.91 416.98"/>
  </g>
  <g>
    <polygon class="cls-1" points="297.88 313.92 297.88 308.39 292.29 313.92 286.76 313.92 281.51 308.39 275.98 308.39 275.98 313.92 270.4 313.92 270.4 308.39 259.62 313.92 259.62 308.39 253.69 302.81 248.5 308.39 248.5 313.92 248.5 319.51 242.91 313.92 242.91 308.39 237.38 302.81 231.8 302.81 231.8 308.39 231.8 313.92 226.27 313.92 226.27 308.39 226.27 297.28 226.27 292.08 231.8 292.08 231.8 286.16 237.38 286.16 242.91 280.97 242.91 275.44 248.5 275.44 253.69 269.85 259.62 264.32 264.87 259.07 264.87 253.54 270.4 253.54 270.4 248.35 264.87 248.35 259.62 242.43 253.69 242.43 248.5 242.43 248.5 236.84 253.69 236.84 259.62 231.59 259.62 225.72 253.69 220.92 248.5 220.92 242.91 231.59 237.38 236.84 237.38 231.59 237.38 225.72 242.91 214.94 248.5 209.8 253.69 209.8 259.62 209.8 259.62 204.22 253.69 204.22 259.62 198.69 264.87 193.1 270.4 187.91 264.87 187.91 259.62 193.1 253.69 193.1 248.5 204.22 242.91 198.69 237.38 193.1 248.5 187.91 248.5 182.32 248.5 176.79 253.69 171.21 259.62 171.21 259.62 165.68 259.62 160.09 270.4 160.09 270.4 154.56 264.87 149.37 259.62 149.37 264.87 149.37 264.87 143.84 264.87 138.25 264.87 133.06 270.4 127.08 275.98 127.08 281.51 127.08 281.51 133.06 286.76 133.06 292.29 138.25 292.29 133.06 292.29 127.08 286.76 121.49 292.29 116.69 297.88 116.69 292.29 110.82 303.41 116.69 309.33 110.82 303.41 110.82 309.33 99.71 309.33 94.46 314.52 94.46 325.25 99.71 320.44 99.71 325.25 105.57 330.83 99.71 330.83 105.57 341.89 110.82 353.07 105.57 353.07 110.82 358.6 110.82 363.85 110.82 369.71 116.69 363.85 121.49 363.85 127.08 353.07 127.08 347.87 133.06 341.89 138.25 336.36 138.25 330.83 138.25 325.25 143.84 325.25 149.37 320.44 149.37 309.33 154.56 309.33 160.09 314.52 160.09 309.33 160.09 309.33 165.68 309.33 171.21 314.52 171.21 325.25 165.68 330.83 165.68 341.89 165.68 347.87 165.68 358.6 165.68 363.85 165.68 369.71 171.21 369.71 176.79 374.96 176.79 380.88 176.79 386.08 176.79 386.08 182.32 386.08 187.91 380.88 193.1 374.96 193.1 374.96 198.69 369.71 198.69 363.85 204.22 369.71 209.8 369.71 214.94 363.85 220.92 353.07 225.72 353.07 231.59 347.87 231.59 341.89 236.84 336.36 231.59 330.83 231.59 320.44 231.59 320.44 236.84 325.25 236.84 330.83 242.43 336.36 242.43 330.83 248.35 320.44 248.35 320.44 253.54 314.52 253.54 309.33 253.54 303.41 248.35 297.88 248.35 297.88 253.54 303.41 253.54 309.33 259.07 314.52 259.07 325.25 259.07 330.83 259.07 336.36 264.32 341.89 269.85 347.87 280.97 341.89 292.08 336.36 292.08 341.89 297.28 336.36 302.81 330.83 297.28 325.25 297.28 325.25 302.81 320.44 302.81 320.44 308.39 314.52 308.39 309.33 313.92 303.41 319.51 297.88 319.51 297.88 313.92"/>
    <polygon class="cls-1" points="297.88 313.92 297.88 308.39 292.29 313.92 286.76 313.92 281.51 308.39 275.98 308.39 275.98 313.92 270.4 313.92 270.4 308.39 259.62 313.92 259.62 308.39 253.69 302.81 248.5 308.39 248.5 313.92 248.5 319.51 242.91 313.92 242.91 308.39 237.38 302.81 231.8 302.81 231.8 308.39 231.8 313.92 226.27 313.92 226.27 308.39 226.27 297.28 226.27 292.08 231.8 292.08 231.8 286.16 237.38 286.16 242.91 280.97 242.91 275.44 248.5 275.44 253.69 269.85 259.62 264.32 264.87 259.07 264.87 253.54 270.4 253.54 270.4 248.35 264.87 248.35 259.62 242.43 253.69 242.43 248.5 242.43 248.5 236.84 253.69 236.84 259.62 231.59 259.62 225.72 253.69 220.92 248.5 220.92 242.91 231.59 237.38 236.84 237.38 231.59 237.38 225.72 242.91 214.94 248.5 209.8 253.69 209.8 259.62 209.8 259.62 204.22 253.69 204.22 259.62 198.69 264.87 193.1 270.4 187.91 264.87 187.91 259.62 193.1 253.69 193.1 248.5 204.22 242.91 198.69 237.38 193.1 248.5 187.91 248.5 182.32 248.5 176.79 253.69 171.21 259.62 171.21 259.62 165.68 259.62 160.09 270.4 160.09 270.4 154.56 264.87 149.37 259.62 149.37 264.87 149.37 264.87 143.84 264.87 138.25 264.87 133.06 270.4 127.08 275.98 127.08 281.51 127.08 281.51 133.06 286.76 133.06 292.29 138.25 292.29 133.06 292.29 127.08 286.76 121.49 292.29 116.69 297.88 116.69 292.29 110.82 303.41 116.69 309.33 110.82 303.41 110.82 309.33 99.71 309.33 94.46 314.52 94.46 325.25 99.71 320.44 99.71 325.25 105.57 330.83 99.71 330.83 105.57 341.89 110.82 353.07 105.57 353.07 110.82 358.6 110.82 363.85 110.82 369.71 116.69 363.85 121.49 363.85 127.08 353.07 127.08 347.87 133.06 341.89 138.25 336.36 138.25 330.83 138.25 325.25 143.84 325.25 149.37 320.44 149.37 309.33 154.56 309.33 160.09 314.52 160.09 309.33 160.09 309.33 165.68 309.33 171.21 314.52 171.21 325.25 165.68 330.83 165.68 341.89 165.68 347.87 165.68 358.6 165.68 363.85 165.68 369.71 171.21 369.71 176.79 374.96 176.79 380.88 176.79 386.08 176.79 386.08 182.32 386.08 187.91 380.88 193.1 374.96 193.1 374.96 198.69 369.71 198.69 363.85 204.22 369.71 209.8 369.71 214.94 363.85 220.92 353.07 225.72 353.07 231.59 347.87 231.59 341.89 236.84 336.36 231.59 330.83 231.59 320.44 231.59 320.44 236.84 325.25 236.84 330.83 242.43 336.36 242.43 330.83 248.35 320.44 248.35 320.44 253.54 314.52 253.54 309.33 253.54 303.41 248.35 297.88 248.35 297.88 253.54 303.41 253.54 309.33 259.07 314.52 259.07 325.25 259.07 330.83 259.07 336.36 264.32 341.89 269.85 347.87 280.97 341.89 292.08 336.36 292.08 341.89 297.28 336.36 302.81 330.83 297.28 325.25 297.28 325.25 302.81 320.44 302.81 320.44 308.39 314.52 308.39 309.33 313.92 303.41 319.51 297.88 319.51 297.88 313.92"/>
  </g>
</svg>