<?xml version="1.0" encoding="UTF-8"?>
<svg id="Layer_1" data-name="Layer 1" xmlns="http://www.w3.org/2000/svg" viewBox="0 0 600 600">
  <defs>
    <style>
      .cls-1 {
        fill: #5d816c;
      }

      .cls-1, .cls-2 {
        stroke: #fff;
      }

      .cls-2 {
        fill: #dbdcdb;
      }
    </style>
  </defs>
  <g>
    <polygon class="cls-1" points="282.91 297.7 281.92 297.7 279.93 297.7 279.06 298.69 278.01 299.69 278.01 300.68 277.01 301.61 276.02 300.68 275.02 300.68 275.02 301.61 274.03 302.67 275.02 303.6 276.02 304.59 277.01 305.59 278.01 306.58 279.06 305.59 279.93 305.59 280.99 305.59 282.91 306.58 282.91 307.58 283.91 308.51 284.9 310.5 285.91 309.51 286.83 308.51 287.9 308.51 288.82 308.51 288.82 306.58 289.89 305.59 289.89 306.58 289.89 307.58 290.81 307.58 290.81 306.58 290.81 305.59 289.89 304.59 288.82 305.59 287.9 304.59 288.82 303.6 289.89 303.6 289.89 302.67 289.89 301.61 288.82 299.69 288.82 298.69 288.82 297.7 287.9 297.7 286.83 297.7 285.91 297.7 285.91 296.76 284.9 296.76 283.91 297.7 282.91 297.7"/>
    <polygon class="cls-1" points="282.91 297.7 281.92 297.7 279.93 297.7 279.06 298.69 278.01 299.69 278.01 300.68 277.01 301.61 276.02 300.68 275.02 300.68 275.02 301.61 274.03 302.67 275.02 303.6 276.02 304.59 277.01 305.59 278.01 306.58 279.06 305.59 279.93 305.59 280.99 305.59 282.91 306.58 282.91 307.58 283.91 308.51 284.9 310.5 285.91 309.51 286.83 308.51 287.9 308.51 288.82 308.51 288.82 306.58 289.89 305.59 289.89 306.58 289.89 307.58 290.81 307.58 290.81 306.58 290.81 305.59 289.89 304.59 288.82 305.59 287.9 304.59 288.82 303.6 289.89 303.6 289.89 302.67 289.89 301.61 288.82 299.69 288.82 298.69 288.82 297.7 287.9 297.7 286.83 297.7 285.91 297.7 285.91 296.76 284.9 296.76 283.91 297.7 282.91 297.7"/>
  </g>
  <g>
    <polygon class="cls-1" points="293.93 321.45 293.01 321.45 292.07 321.45 292.07 319.53 293.01 319.53 293.93 319.53 295 320.53 293.93 321.45"/>
    <polygon class="cls-1" points="293.93 321.45 293.01 321.45 292.07 321.45 292.07 319.53 293.01 319.53 293.93 319.53 295 320.53 293.93 321.45"/>
  </g>
  <g>
    <polygon class="cls-2" points="302.43 352.91 304.42 352.91 305.42 352.91 305.42 353.91 304.42 353.91 303.43 353.91 302.43 352.91"/>
    <polygon class="cls-2" points="302.43 352.91 304.42 352.91 305.42 352.91 305.42 353.91 304.42 353.91 303.43 353.91 302.43 352.91"/>
  </g>
  <g>
    <polygon class="cls-1" points="322.67 266.5 321.62 265.5 320.62 264.57 321.62 264.57 322.67 263.57 322.67 264.57 322.67 265.5 322.67 266.5"/>
    <polygon class="cls-1" points="322.67 266.5 321.62 265.5 320.62 264.57 321.62 264.57 322.67 263.57 322.67 264.57 322.67 265.5 322.67 266.5"/>
  </g>
  <g>
    <polygon class="cls-1" points="295.92 271.34 296.99 269.41 297.98 268.49 298.98 269.41 298.98 270.48 299.9 269.41 299.9 268.49 300.91 267.42 301.91 267.42 301.91 266.5 302.83 265.5 302.83 264.57 301.91 265.5 300.91 265.5 298.98 265.5 298.98 267.42 297.98 266.5 297.98 265.5 296.99 266.5 296.99 267.42 295.92 269.41 295.92 270.48 295.92 271.34"/>
    <polygon class="cls-1" points="295.92 271.34 296.99 269.41 297.98 268.49 298.98 269.41 298.98 270.48 299.9 269.41 299.9 268.49 300.91 267.42 301.91 267.42 301.91 266.5 302.83 265.5 302.83 264.57 301.91 265.5 300.91 265.5 298.98 265.5 298.98 267.42 297.98 266.5 297.98 265.5 296.99 266.5 296.99 267.42 295.92 269.41 295.92 270.48 295.92 271.34"/>
  </g>
  <g>
    <polygon class="cls-1" points="295 311.7 295.92 310.63 296.99 309.7 297.98 310.63 297.98 311.7 295.92 312.62 295 311.7"/>
    <polygon class="cls-1" points="295 311.7 295.92 310.63 296.99 309.7 297.98 310.63 297.98 311.7 295.92 312.62 295 311.7"/>
  </g>
  <g>
    <polygon class="cls-1" points="299.97 277.44 299.97 276.52 299.97 275.46 300.91 274.53 300.91 273.54 299.97 274.53 298.91 275.46 298.91 274.53 298.91 273.54 296.92 274.53 296.92 275.46 296.92 276.52 298.91 275.46 297.98 277.44 298.91 278.44 298.91 279.44 299.97 277.44"/>
    <polygon class="cls-1" points="299.97 277.44 299.97 276.52 299.97 275.46 300.91 274.53 300.91 273.54 299.97 274.53 298.91 275.46 298.91 274.53 298.91 273.54 296.92 274.53 296.92 275.46 296.92 276.52 298.91 275.46 297.98 277.44 298.91 278.44 298.91 279.44 299.97 277.44"/>
  </g>
  <g>
    <polygon class="cls-1" points="296.92 287.28 296.92 286.34 295.92 286.34 296.92 285.27 296.92 284.28 295.92 284.28 297.98 285.27 297.98 286.34 296.92 286.34 296.92 287.28"/>
    <polygon class="cls-1" points="296.92 287.28 296.92 286.34 295.92 286.34 296.92 285.27 296.92 284.28 295.92 284.28 297.98 285.27 297.98 286.34 296.92 286.34 296.92 287.28"/>
  </g>
  <g>
    <polygon class="cls-1" points="275.02 349.4 277.01 348.4 278.01 348.4 278.01 347.47 280.92 346.41 282.91 346.41 283.91 344.48 283.91 343.49 284.9 343.49 285.91 344.48 286.91 343.49 285.91 342.56 286.91 342.56 287.83 342.56 288.82 342.56 288.82 343.49 289.82 343.49 290.81 344.48 291.81 344.48 292.8 344.48 294.73 344.48 295.73 344.48 295.73 343.49 296.73 342.56 297.72 342.56 298.72 342.56 299.71 341.56 300.63 340.56 299.71 340.56 297.72 340.56 297.72 339.64 298.72 339.64 298.72 337.65 297.72 337.65 297.72 336.65 297.72 335.66 298.72 334.66 299.71 332.73 298.72 332.73 299.71 332.73 300.63 331.74 300.63 330.74 300.63 329.82 301.63 328.75 302.62 327.83 302.62 326.83 301.63 325.84 301.63 324.9 302.62 323.85 302.62 324.9 303.62 324.9 304.63 323.85 303.62 323.85 303.62 322.91 303.62 321.92 302.62 321.92 302.62 320.99 303.62 319.98 304.63 319.98 304.63 318.99 304.63 317.99 305.62 317.99 305.62 317 307.54 317 307.54 316 305.62 315.01 304.63 315.01 303.62 316 305.62 314.09 304.63 314.09 303.62 313.09 303.62 312.16 303.62 310.11 303.62 309.17 304.63 308.18 305.62 307.25 306.54 308.18 306.54 307.25 307.54 307.25 308.53 306.19 308.53 307.25 309.53 307.25 310.53 306.19 311.52 305.26 312.52 305.26 312.52 304.27 313.45 304.27 313.45 303.27 314.45 303.27 315.44 304.27 316.44 303.27 315.44 302.34 316.44 302.34 317.43 300.35 318.43 302.34 319.42 303.27 318.43 305.26 318.43 306.19 318.43 307.25 319.42 308.18 319.42 309.17 318.43 310.11 318.43 311.1 318.43 313.09 318.43 314.09 319.42 314.09 320.34 315.01 321.34 315.01 321.34 316 322.33 317 322.33 317.99 322.33 318.99 322.33 319.98 322.33 324.9 321.34 323.85 320.34 323.85 319.42 323.85 319.42 324.9 320.34 324.9 322.33 325.84 322.33 326.83 323.4 327.83 323.4 328.75 323.4 329.82 323.4 330.74 322.33 331.74 321.34 332.73 320.34 332.73 320.34 333.73 320.34 334.66 321.34 335.66 322.33 334.66 323.4 334.66 324.34 333.73 325.33 334.66 327.25 334.66 329.24 335.66 330.31 336.65 330.31 338.64 330.31 339.64 329.24 341.56 329.24 342.56 328.25 343.49 327.25 344.48 326.33 344.48 325.33 344.48 325.33 345.55 324.34 345.55 323.4 345.55 322.33 345.55 321.34 346.41 322.33 346.41 322.33 347.47 321.34 348.4 320.34 347.47 319.42 347.47 318.43 347.47 318.43 348.4 319.42 349.4 320.34 350.39 321.34 350.39 322.33 351.39 323.4 350.39 324.34 350.39 325.33 351.39 324.34 352.38 323.4 353.3 322.33 353.3 321.34 354.3 320.34 355.3 319.42 354.3 318.43 354.3 316.44 355.3 315.44 354.3 314.45 354.3 313.45 353.3 312.52 353.3 311.52 353.3 310.53 353.3 308.53 353.3 308.53 352.38 307.54 352.38 306.54 352.38 305.62 351.39 304.63 350.39 303.62 351.39 303.62 352.38 301.63 352.38 300.63 351.39 298.72 351.39 297.72 352.38 296.73 352.38 296.73 351.39 295.73 350.39 294.73 349.4 293.74 349.4 292.8 349.4 291.81 349.4 290.81 349.4 289.82 348.4 288.82 349.4 288.82 350.39 288.82 351.39 287.83 352.38 285.91 352.38 284.9 351.39 284.9 350.39 282.91 350.39 280.92 349.4 279 350.39 278.01 351.39 278.01 350.39 277.01 350.39 277.01 351.39 276.02 351.39 275.02 351.39 275.02 349.4 274.09 349.4 273.09 349.4 275.02 349.4"/>
    <polygon class="cls-1" points="275.02 349.4 277.01 348.4 278.01 348.4 278.01 347.47 280.92 346.41 282.91 346.41 283.91 344.48 283.91 343.49 284.9 343.49 285.91 344.48 286.91 343.49 285.91 342.56 286.91 342.56 287.83 342.56 288.82 342.56 288.82 343.49 289.82 343.49 290.81 344.48 291.81 344.48 292.8 344.48 294.73 344.48 295.73 344.48 295.73 343.49 296.73 342.56 297.72 342.56 298.72 342.56 299.71 341.56 300.63 340.56 299.71 340.56 297.72 340.56 297.72 339.64 298.72 339.64 298.72 337.65 297.72 337.65 297.72 336.65 297.72 335.66 298.72 334.66 299.71 332.73 298.72 332.73 299.71 332.73 300.63 331.74 300.63 330.74 300.63 329.82 301.63 328.75 302.62 327.83 302.62 326.83 301.63 325.84 301.63 324.9 302.62 323.85 302.62 324.9 303.62 324.9 304.63 323.85 303.62 323.85 303.62 322.91 303.62 321.92 302.62 321.92 302.62 320.99 303.62 319.98 304.63 319.98 304.63 318.99 304.63 317.99 305.62 317.99 305.62 317 307.54 317 307.54 316 305.62 315.01 304.63 315.01 303.62 316 305.62 314.09 304.63 314.09 303.62 313.09 303.62 312.16 303.62 310.11 303.62 309.17 304.63 308.18 305.62 307.25 306.54 308.18 306.54 307.25 307.54 307.25 308.53 306.19 308.53 307.25 309.53 307.25 310.53 306.19 311.52 305.26 312.52 305.26 312.52 304.27 313.45 304.27 313.45 303.27 314.45 303.27 315.44 304.27 316.44 303.27 315.44 302.34 316.44 302.34 317.43 300.35 318.43 302.34 319.42 303.27 318.43 305.26 318.43 306.19 318.43 307.25 319.42 308.18 319.42 309.17 318.43 310.11 318.43 311.1 318.43 313.09 318.43 314.09 319.42 314.09 320.34 315.01 321.34 315.01 321.34 316 322.33 317 322.33 317.99 322.33 318.99 322.33 319.98 322.33 324.9 321.34 323.85 320.34 323.85 319.42 323.85 319.42 324.9 320.34 324.9 322.33 325.84 322.33 326.83 323.4 327.83 323.4 328.75 323.4 329.82 323.4 330.74 322.33 331.74 321.34 332.73 320.34 332.73 320.34 333.73 320.34 334.66 321.34 335.66 322.33 334.66 323.4 334.66 324.34 333.73 325.33 334.66 327.25 334.66 329.24 335.66 330.31 336.65 330.31 338.64 330.31 339.64 329.24 341.56 329.24 342.56 328.25 343.49 327.25 344.48 326.33 344.48 325.33 344.48 325.33 345.55 324.34 345.55 323.4 345.55 322.33 345.55 321.34 346.41 322.33 346.41 322.33 347.47 321.34 348.4 320.34 347.47 319.42 347.47 318.43 347.47 318.43 348.4 319.42 349.4 320.34 350.39 321.34 350.39 322.33 351.39 323.4 350.39 324.34 350.39 325.33 351.39 324.34 352.38 323.4 353.3 322.33 353.3 321.34 354.3 320.34 355.3 319.42 354.3 318.43 354.3 316.44 355.3 315.44 354.3 314.45 354.3 313.45 353.3 312.52 353.3 311.52 353.3 310.53 353.3 308.53 353.3 308.53 352.38 307.54 352.38 306.54 352.38 305.62 351.39 304.63 350.39 303.62 351.39 303.62 352.38 301.63 352.38 300.63 351.39 298.72 351.39 297.72 352.38 296.73 352.38 296.73 351.39 295.73 350.39 294.73 349.4 293.74 349.4 292.8 349.4 291.81 349.4 290.81 349.4 289.82 348.4 288.82 349.4 288.82 350.39 288.82 351.39 287.83 352.38 285.91 352.38 284.9 351.39 284.9 350.39 282.91 350.39 280.92 349.4 279 350.39 278.01 351.39 278.01 350.39 277.01 350.39 277.01 351.39 276.02 351.39 275.02 351.39 275.02 349.4 274.09 349.4 273.09 349.4 275.02 349.4"/>
  </g>
  <g>
    <polygon class="cls-1" points="302.04 325.03 300.97 324.04 300.97 323.04 300.05 323.04 299.05 323.04 299.05 322.12 296.05 323.04 295.06 323.04 294.06 324.04 292.14 324.04 291.15 325.03 290.16 325.03 290.16 326.03 291.15 326.03 292.14 325.03 293.2 326.03 294.06 325.03 295.06 325.03 295.06 326.03 294.06 326.96 294.06 327.96 294.06 328.96 293.2 328.96 294.06 329.95 293.2 330.95 292.14 330.95 291.15 331.87 290.16 332.94 289.16 331.87 288.16 332.94 287.23 332.94 286.23 332.94 285.24 332.94 284.24 331.87 283.25 332.94 283.25 333.86 282.25 334.85 284.24 334.85 285.24 334.85 285.24 335.79 284.24 335.79 284.24 336.79 286.23 336.79 287.23 335.79 288.16 335.79 289.16 335.79 289.16 336.79 289.16 337.85 290.16 337.85 289.16 337.85 289.16 338.77 291.15 338.77 292.14 338.77 291.15 339.84 292.14 340.77 293.2 341.7 294.06 341.7 296.05 341.7 297.05 341.7 298.06 340.77 298.06 339.84 299.05 339.84 299.05 337.85 298.06 337.85 298.06 336.79 298.06 335.79 299.05 334.85 300.05 332.94 299.05 332.94 300.05 332.94 300.97 331.87 300.97 330.95 300.97 329.95 302.04 328.96 302.96 327.96 302.96 326.96 302.04 326.03 302.04 325.03"/>
    <polygon class="cls-1" points="302.04 325.03 300.97 324.04 300.97 323.04 300.05 323.04 299.05 323.04 299.05 322.12 296.05 323.04 295.06 323.04 294.06 324.04 292.14 324.04 291.15 325.03 290.16 325.03 290.16 326.03 291.15 326.03 292.14 325.03 293.2 326.03 294.06 325.03 295.06 325.03 295.06 326.03 294.06 326.96 294.06 327.96 294.06 328.96 293.2 328.96 294.06 329.95 293.2 330.95 292.14 330.95 291.15 331.87 290.16 332.94 289.16 331.87 288.16 332.94 287.23 332.94 286.23 332.94 285.24 332.94 284.24 331.87 283.25 332.94 283.25 333.86 282.25 334.85 284.24 334.85 285.24 334.85 285.24 335.79 284.24 335.79 284.24 336.79 286.23 336.79 287.23 335.79 288.16 335.79 289.16 335.79 289.16 336.79 289.16 337.85 290.16 337.85 289.16 337.85 289.16 338.77 291.15 338.77 292.14 338.77 291.15 339.84 292.14 340.77 293.2 341.7 294.06 341.7 296.05 341.7 297.05 341.7 298.06 340.77 298.06 339.84 299.05 339.84 299.05 337.85 298.06 337.85 298.06 336.79 298.06 335.79 299.05 334.85 300.05 332.94 299.05 332.94 300.05 332.94 300.97 331.87 300.97 330.95 300.97 329.95 302.04 328.96 302.96 327.96 302.96 326.96 302.04 326.03 302.04 325.03"/>
  </g>
  <g>
    <polygon class="cls-1" points="308.48 306.58 308.48 305.59 307.48 306.58 306.49 306.58 305.55 305.59 304.56 305.59 304.56 306.58 303.56 306.58 303.56 305.59 301.63 306.58 301.63 305.59 300.57 304.59 299.64 305.59 299.64 306.58 299.64 307.58 298.64 306.58 298.64 305.59 297.65 304.59 296.65 304.59 296.65 305.59 296.65 306.58 295.66 306.58 295.66 305.59 295.66 303.6 295.66 302.67 296.65 302.67 296.65 301.61 297.65 301.61 298.64 300.68 298.64 299.69 299.64 299.69 300.57 298.69 301.63 297.7 302.56 296.76 302.56 295.77 303.56 295.77 303.56 294.84 302.56 294.84 301.63 293.78 300.57 293.78 299.64 293.78 299.64 292.78 300.57 292.78 301.63 291.84 301.63 290.79 300.57 289.93 299.64 289.93 298.64 291.84 297.65 292.78 297.65 291.84 297.65 290.79 298.64 288.86 299.64 287.94 300.57 287.94 301.63 287.94 301.63 286.94 300.57 286.94 301.63 285.95 302.56 284.95 303.56 284.02 302.56 284.02 301.63 284.95 300.57 284.95 299.64 286.94 298.64 285.95 297.65 284.95 299.64 284.02 299.64 283.02 299.64 282.03 300.57 281.03 301.63 281.03 301.63 280.03 301.63 279.04 303.56 279.04 303.56 278.04 302.56 277.12 301.63 277.12 302.56 277.12 302.56 276.13 302.56 275.13 302.56 274.2 303.56 273.13 304.56 273.13 305.55 273.13 305.55 274.2 306.49 274.2 307.48 275.13 307.48 274.2 307.48 273.13 306.49 272.13 307.48 271.27 308.48 271.27 307.48 270.22 309.47 271.27 310.53 270.22 309.47 270.22 310.53 268.23 310.53 267.29 311.46 267.29 313.38 268.23 312.52 268.23 313.38 269.28 314.37 268.23 314.37 269.28 316.36 270.22 318.35 269.28 318.35 270.22 319.35 270.22 320.29 270.22 321.34 271.27 320.29 272.13 320.29 273.13 318.35 273.13 317.43 274.2 316.36 275.13 315.37 275.13 314.37 275.13 313.38 276.13 313.38 277.12 312.52 277.12 310.53 278.04 310.53 279.04 311.46 279.04 310.53 279.04 310.53 280.03 310.53 281.03 311.46 281.03 313.38 280.03 314.37 280.03 316.36 280.03 317.43 280.03 319.35 280.03 320.29 280.03 321.34 281.03 321.34 282.03 322.28 282.03 323.34 282.03 324.26 282.03 324.26 283.02 324.26 284.02 323.34 284.95 322.28 284.95 322.28 285.95 321.34 285.95 320.29 286.94 321.34 287.94 321.34 288.86 320.29 289.93 318.35 290.79 318.35 291.84 317.43 291.84 316.36 292.78 315.37 291.84 314.37 291.84 312.52 291.84 312.52 292.78 313.38 292.78 314.37 293.78 315.37 293.78 314.37 294.84 312.52 294.84 312.52 295.77 311.46 295.77 310.53 295.77 309.47 294.84 308.48 294.84 308.48 295.77 309.47 295.77 310.53 296.76 311.46 296.76 313.38 296.76 314.37 296.76 315.37 297.7 316.36 298.69 317.43 300.68 316.36 302.67 315.37 302.67 316.36 303.6 315.37 304.59 314.37 303.6 313.38 303.6 313.38 304.59 312.52 304.59 312.52 305.59 311.46 305.59 310.53 306.58 309.47 307.58 308.48 307.58 308.48 306.58"/>
    <polygon class="cls-1" points="308.48 306.58 308.48 305.59 307.48 306.58 306.49 306.58 305.55 305.59 304.56 305.59 304.56 306.58 303.56 306.58 303.56 305.59 301.63 306.58 301.63 305.59 300.57 304.59 299.64 305.59 299.64 306.58 299.64 307.58 298.64 306.58 298.64 305.59 297.65 304.59 296.65 304.59 296.65 305.59 296.65 306.58 295.66 306.58 295.66 305.59 295.66 303.6 295.66 302.67 296.65 302.67 296.65 301.61 297.65 301.61 298.64 300.68 298.64 299.69 299.64 299.69 300.57 298.69 301.63 297.7 302.56 296.76 302.56 295.77 303.56 295.77 303.56 294.84 302.56 294.84 301.63 293.78 300.57 293.78 299.64 293.78 299.64 292.78 300.57 292.78 301.63 291.84 301.63 290.79 300.57 289.93 299.64 289.93 298.64 291.84 297.65 292.78 297.65 291.84 297.65 290.79 298.64 288.86 299.64 287.94 300.57 287.94 301.63 287.94 301.63 286.94 300.57 286.94 301.63 285.95 302.56 284.95 303.56 284.02 302.56 284.02 301.63 284.95 300.57 284.95 299.64 286.94 298.64 285.95 297.65 284.95 299.64 284.02 299.64 283.02 299.64 282.03 300.57 281.03 301.63 281.03 301.63 280.03 301.63 279.04 303.56 279.04 303.56 278.04 302.56 277.12 301.63 277.12 302.56 277.12 302.56 276.13 302.56 275.13 302.56 274.2 303.56 273.13 304.56 273.13 305.55 273.13 305.55 274.2 306.49 274.2 307.48 275.13 307.48 274.2 307.48 273.13 306.49 272.13 307.48 271.27 308.48 271.27 307.48 270.22 309.47 271.27 310.53 270.22 309.47 270.22 310.53 268.23 310.53 267.29 311.46 267.29 313.38 268.23 312.52 268.23 313.38 269.28 314.37 268.23 314.37 269.28 316.36 270.22 318.35 269.28 318.35 270.22 319.35 270.22 320.29 270.22 321.34 271.27 320.29 272.13 320.29 273.13 318.35 273.13 317.43 274.2 316.36 275.13 315.37 275.13 314.37 275.13 313.38 276.13 313.38 277.12 312.52 277.12 310.53 278.04 310.53 279.04 311.46 279.04 310.53 279.04 310.53 280.03 310.53 281.03 311.46 281.03 313.38 280.03 314.37 280.03 316.36 280.03 317.43 280.03 319.35 280.03 320.29 280.03 321.34 281.03 321.34 282.03 322.28 282.03 323.34 282.03 324.26 282.03 324.26 283.02 324.26 284.02 323.34 284.95 322.28 284.95 322.28 285.95 321.34 285.95 320.29 286.94 321.34 287.94 321.34 288.86 320.29 289.93 318.35 290.79 318.35 291.84 317.43 291.84 316.36 292.78 315.37 291.84 314.37 291.84 312.52 291.84 312.52 292.78 313.38 292.78 314.37 293.78 315.37 293.78 314.37 294.84 312.52 294.84 312.52 295.77 311.46 295.77 310.53 295.77 309.47 294.84 308.48 294.84 308.48 295.77 309.47 295.77 310.53 296.76 311.46 296.76 313.38 296.76 314.37 296.76 315.37 297.7 316.36 298.69 317.43 300.68 316.36 302.67 315.37 302.67 316.36 303.6 315.37 304.59 314.37 303.6 313.38 303.6 313.38 304.59 312.52 304.59 312.52 305.59 311.46 305.59 310.53 306.58 309.47 307.58 308.48 307.58 308.48 306.58"/>
  </g>
</svg>