<?xml version="1.0" encoding="UTF-8"?>
<svg id="Layer_1" data-name="Layer 1" xmlns="http://www.w3.org/2000/svg" viewBox="0 0 600 600">
  <defs>
    <style>
      .cls-1 {
        fill: #5e826d;
        stroke: #fff;
      }
    </style>
  </defs>
  <polygon class="cls-1" points="382.66 170.01 377.54 170.01 371.6 164.4 361.26 164.4 350.25 158.89 344.36 153.34 339.14 153.34 333.3 153.34 322.58 153.34 317.02 147.83 311.52 137.16 300.79 137.16 295.23 131.66 290.12 131.66 279.06 131.66 273.11 131.66 268 126.44 262.05 126.44 256.94 126.44 251.71 120.6 245.88 115.04 240.65 115.04 229.59 109.87 223.76 109.87 213.03 103.98 213.03 99.2 201.97 99.2 196.41 93.26 191.25 93.26 180.57 93.26 174.63 88.14 169.13 82.59 158.45 88.14 152.51 77.08 147.39 71.53 147.39 66.02 147.39 60.8 136.33 66.02 130.78 66.02 125.27 60.8 125.27 66.02 120.05 66.02 114.55 66.02 108.99 66.02 114.55 71.53 108.99 77.08 103.49 82.59 103.49 77.08 97.93 71.53 92.43 71.53 86.87 71.53 81.65 66.02 76.14 77.08 70.64 71.53 65.08 77.08 59.53 82.59 65.08 88.14 65.08 93.26 70.64 88.14 70.64 93.26 65.08 99.2 59.53 99.2 59.53 103.98 65.08 103.98 65.08 99.2 76.14 99.2 76.14 103.98 70.64 109.87 70.64 115.04 65.08 120.6 70.64 120.6 70.64 126.44 65.08 131.66 59.53 126.44 54.02 131.66 54.02 142.28 65.08 142.28 70.64 142.28 70.64 137.16 81.65 142.28 86.87 142.28 86.87 147.83 86.87 153.34 86.87 158.89 92.43 158.89 97.93 158.89 103.49 158.89 108.99 164.4 114.55 164.4 120.05 170.01 125.27 175.18 125.27 170.01 130.78 170.01 136.33 170.01 136.33 175.18 141.84 175.18 147.39 175.18 152.51 180.68 147.39 186.24 147.39 191.74 147.39 197.3 152.51 197.3 158.45 202.47 158.45 208.03 152.51 208.03 152.51 213.53 147.39 213.53 141.84 213.53 141.84 218.7 136.33 218.7 130.78 218.7 130.78 224.59 125.27 224.59 120.05 229.7 120.05 235.26 114.55 241.21 114.55 245.99 108.99 251.88 108.99 257.04 108.99 262.6 108.99 268.1 108.99 273.66 103.49 273.66 97.93 273.66 97.93 278.78 86.87 289.89 86.87 295.45 81.65 301.01 81.65 306.12 76.14 306.12 65.08 301.01 65.08 311.62 65.08 317.18 65.08 322.68 70.64 327.91 70.64 333.41 70.64 339.3 65.08 344.47 59.53 349.64 59.53 355.53 54.02 355.53 48.47 360.7 48.47 366.59 43.35 371.76 48.47 377.26 54.02 377.26 54.02 382.48 54.02 387.99 48.47 387.99 43.35 393.54 37.85 393.54 32.29 393.54 32.29 399.05 26.79 399.05 26.79 404.6 21.23 410.11 21.23 420.44 21.23 431.5 26.79 431.5 32.29 431.5 37.85 437.45 43.35 442.56 48.47 448.12 48.47 453.62 59.53 458.85 65.08 464.68 65.08 469.91 59.53 475.41 65.08 475.41 70.64 475.41 65.08 486.08 65.08 492.03 54.02 492.03 59.53 497.14 59.53 508.31 65.08 513.82 70.64 513.82 76.14 518.93 81.65 529.99 86.87 524.49 86.87 518.93 97.93 513.82 108.99 513.82 114.55 508.31 120.05 508.31 130.78 513.82 136.33 513.82 141.84 502.7 152.51 502.7 163.57 508.31 169.13 513.82 180.57 513.82 185.69 524.49 196.41 524.49 213.03 524.49 218.53 524.49 229.59 529.99 234.82 524.49 245.88 524.49 251.71 529.99 256.94 529.99 256.94 535.55 262.05 535.55 268 529.99 268 524.49 268 518.93 279.06 513.82 279.06 508.31 290.12 508.31 295.23 502.7 306.29 502.7 311.52 502.7 322.58 508.31 328.52 502.7 339.14 497.14 339.14 486.08 344.36 480.97 350.25 480.97 355.42 475.41 355.42 469.91 366.48 464.68 371.6 464.68 382.66 464.68 393.72 453.62 388.6 448.12 388.6 442.56 382.66 437.45 382.66 431.5 382.66 426.39 382.66 415.66 382.66 404.6 388.6 399.05 393.72 393.54 404.78 387.99 415.5 377.26 421.06 377.26 427.01 371.76 438.07 360.7 443.18 355.53 454.24 349.64 459.74 349.64 454.24 349.64 454.24 344.47 459.74 344.47 459.74 339.3 465.3 333.41 470.86 333.41 481.14 333.41 492.65 333.41 503.26 333.41 509.21 333.41 514.38 333.41 519.88 333.41 530.61 327.91 536.55 327.91 541.67 322.68 552.73 322.68 558.28 322.68 563.79 317.18 569.34 317.18 574.85 311.62 580.4 306.12 580.4 301.01 585.57 295.45 585.57 289.89 585.57 278.78 582.68 274.77 580.4 278.78 574.85 278.78 569.34 273.66 563.79 278.78 558.28 273.66 547.22 273.66 541.67 273.66 536.55 268.1 530.61 262.6 525.49 262.6 519.88 262.6 514.38 262.6 509.21 257.04 510.37 250.04 506.32 245.26 501.48 240.82 493.7 235.26 487.09 241.21 476.03 241.21 476.03 235.26 470.86 235.26 459.74 229.7 454.24 229.7 443.18 224.59 443.18 218.7 432.12 213.53 427.01 213.53 415.5 202.47 410.33 202.47 404.78 197.3 399.66 191.74 393.72 191.74 393.72 186.24 393.72 180.68 388.6 175.18 382.66 170.01"/>
  <polygon class="cls-1" points="382.66 170.01 377.54 170.01 371.6 164.4 361.26 164.4 350.25 158.89 344.36 153.34 339.14 153.34 333.3 153.34 322.58 153.34 317.02 147.83 311.52 137.16 300.79 137.16 295.23 131.66 290.12 131.66 279.06 131.66 273.11 131.66 268 126.44 262.05 126.44 256.94 126.44 251.71 120.6 245.88 115.04 240.65 115.04 229.59 109.87 223.76 109.87 213.03 103.98 213.03 99.2 201.97 99.2 196.41 93.26 191.25 93.26 180.57 93.26 174.63 88.14 169.13 82.59 158.45 88.14 152.51 77.08 147.39 71.53 147.39 66.02 147.39 60.8 136.33 66.02 130.78 66.02 125.27 60.8 125.27 66.02 120.05 66.02 114.55 66.02 108.99 66.02 114.55 71.53 108.99 77.08 103.49 82.59 103.49 77.08 97.93 71.53 92.43 71.53 86.87 71.53 81.65 66.02 76.14 77.08 70.64 71.53 65.08 77.08 59.53 82.59 65.08 88.14 65.08 93.26 70.64 88.14 70.64 93.26 65.08 99.2 59.53 99.2 59.53 103.98 65.08 103.98 65.08 99.2 76.14 99.2 76.14 103.98 70.64 109.87 70.64 115.04 65.08 120.6 70.64 120.6 70.64 126.44 65.08 131.66 59.53 126.44 54.02 131.66 54.02 142.28 65.08 142.28 70.64 142.28 70.64 137.16 81.65 142.28 86.87 142.28 86.87 147.83 86.87 153.34 86.87 158.89 92.43 158.89 97.93 158.89 103.49 158.89 108.99 164.4 114.55 164.4 120.05 170.01 125.27 175.18 125.27 170.01 130.78 170.01 136.33 170.01 136.33 175.18 141.84 175.18 147.39 175.18 152.51 180.68 147.39 186.24 147.39 191.74 147.39 197.3 152.51 197.3 158.45 202.47 158.45 208.03 152.51 208.03 152.51 213.53 147.39 213.53 141.84 213.53 141.84 218.7 136.33 218.7 130.78 218.7 130.78 224.59 125.27 224.59 120.05 229.7 120.05 235.26 114.55 241.21 114.55 245.99 108.99 251.88 108.99 257.04 108.99 262.6 108.99 268.1 108.99 273.66 103.49 273.66 97.93 273.66 97.93 278.78 86.87 289.89 86.87 295.45 81.65 301.01 81.65 306.12 76.14 306.12 65.08 301.01 65.08 311.62 65.08 317.18 65.08 322.68 70.64 327.91 70.64 333.41 70.64 339.3 65.08 344.47 59.53 349.64 59.53 355.53 54.02 355.53 48.47 360.7 48.47 366.59 43.35 371.76 48.47 377.26 54.02 377.26 54.02 382.48 54.02 387.99 48.47 387.99 43.35 393.54 37.85 393.54 32.29 393.54 32.29 399.05 26.79 399.05 26.79 404.6 21.23 410.11 21.23 420.44 21.23 431.5 26.79 431.5 32.29 431.5 37.85 437.45 43.35 442.56 48.47 448.12 48.47 453.62 59.53 458.85 65.08 464.68 65.08 469.91 59.53 475.41 65.08 475.41 70.64 475.41 65.08 486.08 65.08 492.03 54.02 492.03 59.53 497.14 59.53 508.31 65.08 513.82 70.64 513.82 76.14 518.93 81.65 529.99 86.87 524.49 86.87 518.93 97.93 513.82 108.99 513.82 114.55 508.31 120.05 508.31 130.78 513.82 136.33 513.82 141.84 502.7 152.51 502.7 163.57 508.31 169.13 513.82 180.57 513.82 185.69 524.49 196.41 524.49 213.03 524.49 218.53 524.49 229.59 529.99 234.82 524.49 245.88 524.49 251.71 529.99 256.94 529.99 256.94 535.55 262.05 535.55 268 529.99 268 524.49 268 518.93 279.06 513.82 279.06 508.31 290.12 508.31 295.23 502.7 306.29 502.7 311.52 502.7 322.58 508.31 328.52 502.7 339.14 497.14 339.14 486.08 344.36 480.97 350.25 480.97 355.42 475.41 355.42 469.91 366.48 464.68 371.6 464.68 382.66 464.68 393.72 453.62 388.6 448.12 388.6 442.56 382.66 437.45 382.66 431.5 382.66 426.39 382.66 415.66 382.66 404.6 388.6 399.05 393.72 393.54 404.78 387.99 415.5 377.26 421.06 377.26 427.01 371.76 438.07 360.7 443.18 355.53 454.24 349.64 459.74 349.64 454.24 349.64 454.24 344.47 459.74 344.47 459.74 339.3 465.3 333.41 470.86 333.41 481.14 333.41 492.65 333.41 503.26 333.41 509.21 333.41 514.38 333.41 519.88 333.41 530.61 327.91 536.55 327.91 541.67 322.68 552.73 322.68 558.28 322.68 563.79 317.18 569.34 317.18 574.85 311.62 580.4 306.12 580.4 301.01 585.57 295.45 585.57 289.89 585.57 278.78 582.68 274.77 580.4 278.78 574.85 278.78 569.34 273.66 563.79 278.78 558.28 273.66 547.22 273.66 541.67 273.66 536.55 268.1 530.61 262.6 525.49 262.6 519.88 262.6 514.38 262.6 509.21 257.04 510.37 250.04 506.32 245.26 501.48 240.82 493.7 235.26 487.09 241.21 476.03 241.21 476.03 235.26 470.86 235.26 459.74 229.7 454.24 229.7 443.18 224.59 443.18 218.7 432.12 213.53 427.01 213.53 415.5 202.47 410.33 202.47 404.78 197.3 399.66 191.74 393.72 191.74 393.72 186.24 393.72 180.68 388.6 175.18 382.66 170.01"/>
</svg>