<?xml version="1.0" encoding="UTF-8"?>
<svg id="Layer_1" data-name="Layer 1" xmlns="http://www.w3.org/2000/svg" viewBox="0 0 600 600">
  <defs>
    <style>
      .cls-1 {
        fill: #fff;
        stroke: #fff;
      }
    </style>
  </defs>
  <polygon class="cls-1" points="311.45 79.72 306.16 79.72 306.16 74.37 306.16 69.46 306.16 64.44 306.16 53.8 311.45 48.19 311.45 42.85 306.16 37.88 300.87 32.54 295.53 32.54 279.98 27.62 285.27 16.99 279.98 16.99 274.58 21.91 263.95 27.62 253.32 27.62 248.4 32.54 248.4 53.8 243.06 64.44 243.06 69.46 243.06 74.37 243.06 79.72 237.77 85.01 232.43 95.75 232.43 101.04 227.08 101.04 216.77 105.95 211.48 95.75 206.14 95.75 200.85 101.04 184.87 101.04 179.96 95.75 174.56 95.75 169.27 95.75 163.93 85.01 163.93 79.72 153.3 74.37 148.38 69.46 143.04 69.46 137.75 79.72 137.75 90.03 148.38 95.75 158.64 101.04 158.64 111.29 163.93 111.29 169.27 116.26 174.56 116.26 184.87 121.93 195.51 126.9 200.85 126.9 200.85 137.58 206.14 142.5 206.14 148.16 206.14 153.13 206.14 158.79 206.14 163.76 200.85 169.05 211.48 169.05 211.48 174.4 211.48 179.37 211.48 184.71 216.77 190 216.77 195.34 221.79 200.63 216.77 205.65 216.77 216.29 216.77 226.92 216.77 232.26 221.79 242.47 227.08 247.49 227.08 258.44 232.43 258.44 237.77 263.41 248.4 263.41 248.4 269.08 253.32 273.67 253.32 279.01 253.32 284.3 253.32 294.94 253.32 300.28 258.61 305.25 258.61 310.59 253.32 310.59 248.4 310.59 243.06 310.59 243.06 315.88 232.43 331.86 232.43 336.88 227.08 347.08 221.79 352.8 211.48 363.43 211.48 368.35 211.48 373.37 200.85 378.98 200.85 384 200.85 378.98 195.51 384 190.22 389.29 190.22 394.64 190.22 405.27 179.96 410.19 174.56 405.27 169.27 405.27 169.27 415.53 158.64 426.21 158.64 436.85 158.64 441.76 163.93 447.11 163.93 457.42 158.64 463.03 158.64 468.05 169.27 473.39 169.27 478.31 169.27 489.32 169.27 504.54 169.27 515.23 158.64 520.52 158.64 531.15 158.64 536.5 169.27 551.72 184.87 551.72 190.22 557.44 200.85 557.44 206.14 557.44 211.48 568.07 211.48 578.01 216.77 583.62 221.79 588.64 237.77 588.64 243.06 588.64 248.4 578.01 253.32 572.99 258.61 583.62 263.95 578.01 269.24 572.99 279.98 568.07 295.53 562.73 300.87 562.73 306.16 562.73 306.16 557.44 306.16 551.72 311.45 546.81 316.79 557.44 321.82 551.72 332.45 546.81 337.74 536.5 343.08 541.46 354.04 541.46 358.63 541.46 363.92 536.5 374.55 515.23 379.95 509.89 385.29 499.95 390.58 494.23 395.55 489.32 401.21 478.31 406.18 463.03 406.18 468.05 411.47 468.05 416.82 463.03 411.47 457.42 416.82 452.4 416.82 441.76 422.11 436.85 427.45 431.56 427.45 426.21 432.42 415.53 443.05 410.19 448.71 399.98 443.05 389.29 438.08 384 422.11 378.98 406.18 373.37 401.21 368.35 395.55 363.43 390.58 363.43 385.29 352.8 390.58 352.8 395.55 352.8 401.21 347.08 401.21 342.17 401.21 336.88 395.55 331.86 395.55 326.51 385.29 326.51 385.29 320.9 385.29 315.88 374.55 310.59 385.29 305.25 379.95 300.28 379.95 294.94 374.55 300.28 369.26 294.94 369.26 289.65 369.26 284.3 369.26 279.01 363.92 273.67 363.92 269.08 369.26 263.41 363.92 252.78 369.26 247.49 369.26 242.47 369.26 237.18 363.92 226.92 358.63 216.29 354.04 210.57 343.08 205.65 343.08 200.63 337.74 195.34 332.45 184.71 332.45 174.4 332.45 169.05 332.45 158.79 337.74 153.13 337.74 148.16 337.74 137.58 327.11 126.9 316.79 121.93 316.79 116.26 311.45 111.29 306.16 105.95 300.87 101.04 300.87 95.75 306.16 90.03 306.16 85.01 311.45 79.72"/>
  <polygon class="cls-1" points="311.45 79.72 306.16 79.72 306.16 74.37 306.16 69.46 306.16 64.44 306.16 53.8 311.45 48.19 311.45 42.85 306.16 37.88 300.87 32.54 295.53 32.54 279.98 27.62 285.27 16.99 279.98 16.99 274.58 21.91 263.95 27.62 253.32 27.62 248.4 32.54 248.4 53.8 243.06 64.44 243.06 69.46 243.06 74.37 243.06 79.72 237.77 85.01 232.43 95.75 232.43 101.04 227.08 101.04 216.77 105.95 211.48 95.75 206.14 95.75 200.85 101.04 184.87 101.04 179.96 95.75 174.56 95.75 169.27 95.75 163.93 85.01 163.93 79.72 153.3 74.37 148.38 69.46 143.04 69.46 137.75 79.72 137.75 90.03 148.38 95.75 158.64 101.04 158.64 111.29 163.93 111.29 169.27 116.26 174.56 116.26 184.87 121.93 195.51 126.9 200.85 126.9 200.85 137.58 206.14 142.5 206.14 148.16 206.14 153.13 206.14 158.79 206.14 163.76 200.85 169.05 211.48 169.05 211.48 174.4 211.48 179.37 211.48 184.71 216.77 190 216.77 195.34 221.79 200.63 216.77 205.65 216.77 216.29 216.77 226.92 216.77 232.26 221.79 242.47 227.08 247.49 227.08 258.44 232.43 258.44 237.77 263.41 248.4 263.41 248.4 269.08 253.32 273.67 253.32 279.01 253.32 284.3 253.32 294.94 253.32 300.28 258.61 305.25 258.61 310.59 253.32 310.59 248.4 310.59 243.06 310.59 243.06 315.88 232.43 331.86 232.43 336.88 227.08 347.08 221.79 352.8 211.48 363.43 211.48 368.35 211.48 373.37 200.85 378.98 200.85 384 200.85 378.98 195.51 384 190.22 389.29 190.22 394.64 190.22 405.27 179.96 410.19 174.56 405.27 169.27 405.27 169.27 415.53 158.64 426.21 158.64 436.85 158.64 441.76 163.93 447.11 163.93 457.42 158.64 463.03 158.64 468.05 169.27 473.39 169.27 478.31 169.27 489.32 169.27 504.54 169.27 515.23 158.64 520.52 158.64 531.15 158.64 536.5 169.27 551.72 184.87 551.72 190.22 557.44 200.85 557.44 206.14 557.44 211.48 568.07 211.48 578.01 216.77 583.62 221.79 588.64 237.77 588.64 243.06 588.64 248.4 578.01 253.32 572.99 258.61 583.62 263.95 578.01 269.24 572.99 279.98 568.07 295.53 562.73 300.87 562.73 306.16 562.73 306.16 557.44 306.16 551.72 311.45 546.81 316.79 557.44 321.82 551.72 332.45 546.81 337.74 536.5 343.08 541.46 354.04 541.46 358.63 541.46 363.92 536.5 374.55 515.23 379.95 509.89 385.29 499.95 390.58 494.23 395.55 489.32 401.21 478.31 406.18 463.03 406.18 468.05 411.47 468.05 416.82 463.03 411.47 457.42 416.82 452.4 416.82 441.76 422.11 436.85 427.45 431.56 427.45 426.21 432.42 415.53 443.05 410.19 448.71 399.98 443.05 389.29 438.08 384 422.11 378.98 406.18 373.37 401.21 368.35 395.55 363.43 390.58 363.43 385.29 352.8 390.58 352.8 395.55 352.8 401.21 347.08 401.21 342.17 401.21 336.88 395.55 331.86 395.55 326.51 385.29 326.51 385.29 320.9 385.29 315.88 374.55 310.59 385.29 305.25 379.95 300.28 379.95 294.94 374.55 300.28 369.26 294.94 369.26 289.65 369.26 284.3 369.26 279.01 363.92 273.67 363.92 269.08 369.26 263.41 363.92 252.78 369.26 247.49 369.26 242.47 369.26 237.18 363.92 226.92 358.63 216.29 354.04 210.57 343.08 205.65 343.08 200.63 337.74 195.34 332.45 184.71 332.45 174.4 332.45 169.05 332.45 158.79 337.74 153.13 337.74 148.16 337.74 137.58 327.11 126.9 316.79 121.93 316.79 116.26 311.45 111.29 306.16 105.95 300.87 101.04 300.87 95.75 306.16 90.03 306.16 85.01 311.45 79.72"/>
</svg>