<?xml version="1.0" encoding="UTF-8"?>
<svg id="Layer_1" data-name="Layer 1" xmlns="http://www.w3.org/2000/svg" viewBox="0 0 600 600">
  <defs>
    <style>
      .cls-1 {
        fill: #5d816c;
        stroke: #fff;
      }
    </style>
  </defs>
  <polygon class="cls-1" points="306.11 261.76 305.11 261.76 305.11 260.76 305.11 259.84 305.11 258.9 305.11 256.91 306.11 255.86 306.11 254.86 305.11 253.93 304.12 252.93 303.12 252.93 300.21 252.01 301.21 250.02 300.21 250.02 299.2 250.94 297.21 252.01 295.22 252.01 294.3 252.93 294.3 256.91 293.3 258.9 293.3 259.84 293.3 260.76 293.3 261.76 292.31 262.75 291.31 264.76 291.31 265.75 290.32 265.75 288.39 266.67 287.39 264.76 286.4 264.76 285.4 265.75 282.42 265.75 281.49 264.76 280.48 264.76 279.49 264.76 278.49 262.75 278.49 261.76 276.5 260.76 275.58 259.84 274.59 259.84 273.59 261.76 273.59 263.69 275.58 264.76 277.5 265.75 277.5 267.67 278.49 267.67 279.49 268.6 280.48 268.6 282.42 269.66 284.4 270.59 285.4 270.59 285.4 272.59 286.4 273.51 286.4 274.57 286.4 275.5 286.4 276.57 286.4 277.49 285.4 278.48 287.39 278.48 287.39 279.48 287.39 280.41 287.39 281.41 288.39 282.4 288.39 283.4 289.32 284.39 288.39 285.33 288.39 287.32 288.39 289.31 288.39 290.31 289.32 292.22 290.32 293.16 290.32 295.21 291.31 295.21 292.31 296.14 294.3 296.14 294.3 297.2 295.22 298.06 295.22 299.06 295.22 300.05 295.22 302.04 295.22 303.04 296.21 303.97 296.21 304.97 295.22 304.97 294.3 304.97 293.3 304.97 293.3 305.96 291.31 308.95 291.31 309.89 290.32 311.8 289.32 312.87 287.39 314.86 287.39 315.78 287.39 316.72 285.4 317.77 285.4 318.71 285.4 317.77 284.4 318.71 283.41 319.7 283.41 320.7 283.41 322.69 281.49 323.61 280.48 322.69 279.49 322.69 279.49 324.61 277.5 326.61 277.5 328.6 277.5 329.52 278.49 330.52 278.49 332.45 277.5 333.5 277.5 334.44 279.49 335.44 279.49 336.36 279.49 338.42 279.49 341.27 279.49 343.27 277.5 344.26 277.5 346.25 277.5 347.25 279.49 350.1 282.42 350.1 283.41 351.17 285.4 351.17 286.4 351.17 287.39 353.16 287.39 355.02 288.39 356.07 289.32 357.01 292.31 357.01 293.3 357.01 294.3 355.02 295.22 354.08 296.21 356.07 297.21 355.02 298.21 354.08 300.21 353.16 303.12 352.16 304.12 352.16 305.11 352.16 305.11 351.17 305.11 350.1 306.11 349.18 307.1 351.17 308.04 350.1 310.03 349.18 311.02 347.25 312.02 348.18 314.07 348.18 314.93 348.18 315.93 347.25 317.92 343.27 318.93 342.27 319.92 340.41 320.92 339.34 321.84 338.42 322.91 336.36 323.83 333.5 323.83 334.44 324.82 334.44 325.82 333.5 324.82 332.45 325.82 331.51 325.82 329.52 326.81 328.6 327.81 327.61 327.81 326.61 328.75 324.61 330.74 323.61 331.79 321.7 330.74 319.7 329.8 318.71 326.81 317.77 323.83 316.72 322.91 315.78 321.84 314.86 320.92 314.86 319.92 312.87 320.92 312.87 321.84 312.87 322.91 311.8 322.91 310.88 322.91 309.89 321.84 308.95 321.84 307.95 319.92 307.95 319.92 306.9 319.92 305.96 317.92 304.97 319.92 303.97 318.93 303.04 318.93 302.04 317.92 303.04 316.92 302.04 316.92 301.05 316.92 300.05 316.92 299.06 315.93 298.06 315.93 297.2 316.92 296.14 315.93 294.16 316.92 293.16 316.92 292.22 316.92 291.23 315.93 289.31 314.93 287.32 314.07 286.25 312.02 285.33 312.02 284.39 311.02 283.4 310.03 281.41 310.03 279.48 310.03 278.48 310.03 276.57 311.02 275.5 311.02 274.57 311.02 272.59 309.03 270.59 307.1 269.66 307.1 268.6 306.11 267.67 305.11 266.67 304.12 265.75 304.12 264.76 305.11 263.69 305.11 262.75 306.11 261.76"/>
  <polygon class="cls-1" points="306.11 261.76 305.11 261.76 305.11 260.76 305.11 259.84 305.11 258.9 305.11 256.91 306.11 255.86 306.11 254.86 305.11 253.93 304.12 252.93 303.12 252.93 300.21 252.01 301.21 250.02 300.21 250.02 299.2 250.94 297.21 252.01 295.22 252.01 294.3 252.93 294.3 256.91 293.3 258.9 293.3 259.84 293.3 260.76 293.3 261.76 292.31 262.75 291.31 264.76 291.31 265.75 290.32 265.75 288.39 266.67 287.39 264.76 286.4 264.76 285.4 265.75 282.42 265.75 281.49 264.76 280.48 264.76 279.49 264.76 278.49 262.75 278.49 261.76 276.5 260.76 275.58 259.84 274.59 259.84 273.59 261.76 273.59 263.69 275.58 264.76 277.5 265.75 277.5 267.67 278.49 267.67 279.49 268.6 280.48 268.6 282.42 269.66 284.4 270.59 285.4 270.59 285.4 272.59 286.4 273.51 286.4 274.57 286.4 275.5 286.4 276.57 286.4 277.49 285.4 278.48 287.39 278.48 287.39 279.48 287.39 280.41 287.39 281.41 288.39 282.4 288.39 283.4 289.32 284.39 288.39 285.33 288.39 287.32 288.39 289.31 288.39 290.31 289.32 292.22 290.32 293.16 290.32 295.21 291.31 295.21 292.31 296.14 294.3 296.14 294.3 297.2 295.22 298.06 295.22 299.06 295.22 300.05 295.22 302.04 295.22 303.04 296.21 303.97 296.21 304.97 295.22 304.97 294.3 304.97 293.3 304.97 293.3 305.96 291.31 308.95 291.31 309.89 290.32 311.8 289.32 312.87 287.39 314.86 287.39 315.78 287.39 316.72 285.4 317.77 285.4 318.71 285.4 317.77 284.4 318.71 283.41 319.7 283.41 320.7 283.41 322.69 281.49 323.61 280.48 322.69 279.49 322.69 279.49 324.61 277.5 326.61 277.5 328.6 277.5 329.52 278.49 330.52 278.49 332.45 277.5 333.5 277.5 334.44 279.49 335.44 279.49 336.36 279.49 338.42 279.49 341.27 279.49 343.27 277.5 344.26 277.5 346.25 277.5 347.25 279.49 350.1 282.42 350.1 283.41 351.17 285.4 351.17 286.4 351.17 287.39 353.16 287.39 355.02 288.39 356.07 289.32 357.01 292.31 357.01 293.3 357.01 294.3 355.02 295.22 354.08 296.21 356.07 297.21 355.02 298.21 354.08 300.21 353.16 303.12 352.16 304.12 352.16 305.11 352.16 305.11 351.17 305.11 350.1 306.11 349.18 307.1 351.17 308.04 350.1 310.03 349.18 311.02 347.25 312.02 348.18 314.07 348.18 314.93 348.18 315.93 347.25 317.92 343.27 318.93 342.27 319.92 340.41 320.92 339.34 321.84 338.42 322.91 336.36 323.83 333.5 323.83 334.44 324.82 334.44 325.82 333.5 324.82 332.45 325.82 331.51 325.82 329.52 326.81 328.6 327.81 327.61 327.81 326.61 328.75 324.61 330.74 323.61 331.79 321.7 330.74 319.7 329.8 318.71 326.81 317.77 323.83 316.72 322.91 315.78 321.84 314.86 320.92 314.86 319.92 312.87 320.92 312.87 321.84 312.87 322.91 311.8 322.91 310.88 322.91 309.89 321.84 308.95 321.84 307.95 319.92 307.95 319.92 306.9 319.92 305.96 317.92 304.97 319.92 303.97 318.93 303.04 318.93 302.04 317.92 303.04 316.92 302.04 316.92 301.05 316.92 300.05 316.92 299.06 315.93 298.06 315.93 297.2 316.92 296.14 315.93 294.16 316.92 293.16 316.92 292.22 316.92 291.23 315.93 289.31 314.93 287.32 314.07 286.25 312.02 285.33 312.02 284.39 311.02 283.4 310.03 281.41 310.03 279.48 310.03 278.48 310.03 276.57 311.02 275.5 311.02 274.57 311.02 272.59 309.03 270.59 307.1 269.66 307.1 268.6 306.11 267.67 305.11 266.67 304.12 265.75 304.12 264.76 305.11 263.69 305.11 262.75 306.11 261.76"/>
</svg>