<?xml version="1.0" encoding="UTF-8"?>
<svg id="Layer_1" data-name="Layer 1" xmlns="http://www.w3.org/2000/svg" viewBox="0 0 600 600">
  <defs>
    <style>
      .cls-1 {
        fill: #fff;
        stroke: #fff;
      }
    </style>
  </defs>
  <g>
    <polygon class="cls-1" points="464.95 456.22 470.13 451.04 470.13 445.92 474.94 440.75 470.13 435.62 460.19 435.62 454.66 435.62 449.9 425.69 449.9 420.56 449.9 410.22 449.9 405.09 454.66 400.23 454.66 395.11 454.66 390.35 449.9 384.81 444.36 384.81 439.24 380.05 439.24 374.87 444.36 374.87 449.9 374.87 454.66 374.87 460.19 369.65 464.95 364.53 470.13 359.35 464.95 354.59 464.95 349.42 460.19 344.29 460.19 339.12 464.95 339.12 464.95 334.31 464.95 328.82 460.19 324.01 460.19 318.84 464.95 318.84 460.19 313.71 460.19 308.9 464.95 308.9 470.13 308.9 470.13 303.42 464.95 293.48 460.19 293.48 460.19 298.66 454.66 298.66 449.9 308.9 439.24 313.71 434.42 303.42 439.24 293.48 449.9 283.5 449.9 278.32 454.66 273.2 464.95 273.2 474.94 268.02 480.11 258.04 480.11 252.91 485.24 247.74 490.41 252.91 495.95 258.04 500.71 247.74 505.83 252.91 505.83 237.44 510.69 232.32 510.69 227.56 510.69 217.52 510.69 212.09 516.13 206.91 516.13 202.1 520.99 192.17 526.42 186.63 536.46 176.7 531.29 171.57 526.42 171.57 520.99 171.57 516.13 166.35 505.83 166.35 495.95 161.22 490.41 156.41 485.24 146.11 480.11 135.82 470.13 135.82 464.95 131.01 460.19 131.01 454.66 131.01 449.9 135.82 449.9 131.01 444.36 125.83 439.24 120.71 434.42 120.71 434.42 115.53 429.3 110.77 429.3 105.24 424.44 100.79 424.44 95.3 419 95.3 419 100.79 414.14 100.79 408.71 100.79 403.53 95.3 408.71 90.18 408.71 85.32 408.71 75.02 403.53 75.02 398.72 75.02 393.55 75.02 388.42 65.08 388.42 59.96 383.25 59.96 378.13 59.96 378.13 54.74 378.13 49.61 372.95 49.61 368.14 49.61 368.14 44.44 362.97 39.32 362.97 34.5 362.97 29.38 362.97 24.21 352.67 24.21 347.55 24.21 342.37 24.21 337.2 24.21 332.44 24.21 327.31 29.38 327.31 34.5 327.31 39.32 322.45 44.44 322.45 49.61 322.45 59.96 322.45 65.08 317.02 65.08 311.84 65.08 306.72 69.9 301.49 69.9 291.56 75.02 281.26 79.88 270.96 79.88 260.98 79.88 260.98 85.32 266.1 85.32 276.14 90.18 281.26 95.3 276.14 95.3 276.14 100.79 266.1 95.3 255.8 95.3 245.51 95.3 245.51 90.18 235.21 90.18 225.33 85.32 215.03 79.88 215.03 85.32 204.63 79.88 209.86 75.02 204.63 69.9 204.63 65.08 209.86 59.96 204.63 59.96 199.87 59.96 194.69 54.74 189.57 54.74 189.57 59.96 184.03 65.08 184.03 75.02 184.03 79.88 189.57 90.18 184.03 95.3 184.03 100.79 184.03 105.24 189.57 110.77 189.57 115.53 179.27 115.53 173.74 110.77 168.98 110.77 164.11 110.77 168.98 105.24 158.99 105.24 148.69 105.24 143.52 100.79 143.52 105.24 133.64 105.24 133.64 100.79 133.64 90.18 128.1 90.18 123.29 90.18 123.29 85.32 128.1 79.88 123.29 85.32 113.04 79.88 107.87 85.32 107.87 90.18 97.88 90.18 97.88 85.32 87.58 85.32 82.05 85.32 77.29 79.88 71.75 85.32 67.3 85.32 62.13 85.32 57 85.32 57 90.18 62.13 90.18 67.3 90.18 71.75 90.18 71.75 95.3 71.75 100.79 67.3 100.79 67.3 105.24 62.13 105.24 57 105.24 51.83 110.77 57 110.77 62.13 115.53 67.3 125.83 67.3 120.71 77.29 125.83 77.29 120.71 82.05 120.71 82.05 125.83 92.34 135.82 97.88 135.82 97.88 140.99 102.64 140.99 102.64 146.11 102.64 151.29 113.04 151.29 123.29 151.29 117.8 156.41 123.29 156.41 128.1 161.22 123.29 171.57 128.1 171.57 133.64 176.7 143.52 176.7 133.64 176.7 133.64 181.87 138.09 181.87 138.09 186.63 128.1 196.93 128.1 202.1 133.64 212.09 138.09 212.09 138.09 222.39 143.52 227.56 143.52 232.32 153.82 237.44 158.99 232.32 158.99 237.44 158.99 242.62 153.82 247.74 158.99 247.74 153.82 252.91 153.82 263.21 153.82 268.02 148.69 273.2 148.69 278.32 153.82 278.32 153.82 283.5 153.82 288.31 158.99 293.48 158.99 298.66 158.99 308.9 158.99 313.71 153.82 308.9 153.82 303.42 153.82 298.66 148.69 293.48 148.69 288.31 143.52 283.5 143.52 278.32 138.09 283.5 138.09 298.66 138.09 303.42 133.64 308.9 133.64 318.84 128.1 318.84 138.09 324.01 133.64 328.82 123.29 328.82 123.29 334.31 123.29 339.12 117.8 344.29 117.8 349.42 113.04 349.42 113.04 359.35 107.87 359.35 102.64 364.53 102.64 369.65 92.34 380.05 82.05 390.35 87.58 395.11 92.34 400.23 92.34 405.09 92.34 410.22 97.88 410.22 102.64 410.22 113.04 420.56 117.8 420.56 123.29 430.86 128.1 430.86 133.64 430.86 138.09 435.62 148.69 445.92 153.82 445.92 164.11 451.04 168.98 451.04 168.98 456.22 181.03 456.89 192.68 453.47 198.78 457.67 200.9 463.77 199.87 471.33 204.63 476.5 209.86 476.5 215.03 476.5 219.79 476.5 225.33 481.62 230.45 486.8 235.21 486.8 245.51 486.8 250.68 491.25 256.53 492.33 260.98 491.25 266.1 491.25 269.93 493.68 275.73 488.87 273.4 487.16 271.95 484.37 270.96 481.62 276.14 476.5 270.96 471.33 276.14 461.03 276.14 456.22 281.26 451.04 286.44 451.04 291.56 445.92 296.73 445.92 301.49 445.92 306.72 445.92 311.84 440.75 317.02 435.62 322.45 435.62 327.31 440.75 332.44 445.92 337.2 445.92 347.55 445.92 347.55 456.22 352.67 451.04 357.79 451.04 362.97 445.92 368.14 445.92 368.14 451.04 368.14 456.22 372.95 456.22 378.13 456.22 378.13 461.03 378.13 466.2 383.25 461.03 388.42 466.2 393.55 471.33 393.55 476.5 398.72 481.62 403.53 481.62 408.71 481.62 414.14 481.62 419 481.62 424.44 481.62 429.3 476.5 429.3 471.33 429.3 466.2 434.42 466.2 439.24 466.2 444.36 466.2 444.36 461.03 449.9 461.03 454.66 461.03 454.66 466.2 464.95 456.22 460.19 461.03 464.95 456.22"/>
    <polygon class="cls-1" points="464.95 456.22 470.13 451.04 470.13 445.92 474.94 440.75 470.13 435.62 460.19 435.62 454.66 435.62 449.9 425.69 449.9 420.56 449.9 410.22 449.9 405.09 454.66 400.23 454.66 395.11 454.66 390.35 449.9 384.81 444.36 384.81 439.24 380.05 439.24 374.87 444.36 374.87 449.9 374.87 454.66 374.87 460.19 369.65 464.95 364.53 470.13 359.35 464.95 354.59 464.95 349.42 460.19 344.29 460.19 339.12 464.95 339.12 464.95 334.31 464.95 328.82 460.19 324.01 460.19 318.84 464.95 318.84 460.19 313.71 460.19 308.9 464.95 308.9 470.13 308.9 470.13 303.42 464.95 293.48 460.19 293.48 460.19 298.66 454.66 298.66 449.9 308.9 439.24 313.71 434.42 303.42 439.24 293.48 449.9 283.5 449.9 278.32 454.66 273.2 464.95 273.2 474.94 268.02 480.11 258.04 480.11 252.91 485.24 247.74 490.41 252.91 495.95 258.04 500.71 247.74 505.83 252.91 505.83 237.44 510.69 232.32 510.69 227.56 510.69 217.52 510.69 212.09 516.13 206.91 516.13 202.1 520.99 192.17 526.42 186.63 536.46 176.7 531.29 171.57 526.42 171.57 520.99 171.57 516.13 166.35 505.83 166.35 495.95 161.22 490.41 156.41 485.24 146.11 480.11 135.82 470.13 135.82 464.95 131.01 460.19 131.01 454.66 131.01 449.9 135.82 449.9 131.01 444.36 125.83 439.24 120.71 434.42 120.71 434.42 115.53 429.3 110.77 429.3 105.24 424.44 100.79 424.44 95.3 419 95.3 419 100.79 414.14 100.79 408.71 100.79 403.53 95.3 408.71 90.18 408.71 85.32 408.71 75.02 403.53 75.02 398.72 75.02 393.55 75.02 388.42 65.08 388.42 59.96 383.25 59.96 378.13 59.96 378.13 54.74 378.13 49.61 372.95 49.61 368.14 49.61 368.14 44.44 362.97 39.32 362.97 34.5 362.97 29.38 362.97 24.21 352.67 24.21 347.55 24.21 342.37 24.21 337.2 24.21 332.44 24.21 327.31 29.38 327.31 34.5 327.31 39.32 322.45 44.44 322.45 49.61 322.45 59.96 322.45 65.08 317.02 65.08 311.84 65.08 306.72 69.9 301.49 69.9 291.56 75.02 281.26 79.88 270.96 79.88 260.98 79.88 260.98 85.32 266.1 85.32 276.14 90.18 281.26 95.3 276.14 95.3 276.14 100.79 266.1 95.3 255.8 95.3 245.51 95.3 245.51 90.18 235.21 90.18 225.33 85.32 215.03 79.88 215.03 85.32 204.63 79.88 209.86 75.02 204.63 69.9 204.63 65.08 209.86 59.96 204.63 59.96 199.87 59.96 194.69 54.74 189.57 54.74 189.57 59.96 184.03 65.08 184.03 75.02 184.03 79.88 189.57 90.18 184.03 95.3 184.03 100.79 184.03 105.24 189.57 110.77 189.57 115.53 179.27 115.53 173.74 110.77 168.98 110.77 164.11 110.77 168.98 105.24 158.99 105.24 148.69 105.24 143.52 100.79 143.52 105.24 133.64 105.24 133.64 100.79 133.64 90.18 128.1 90.18 123.29 90.18 123.29 85.32 128.1 79.88 123.29 85.32 113.04 79.88 107.87 85.32 107.87 90.18 97.88 90.18 97.88 85.32 87.58 85.32 82.05 85.32 77.29 79.88 71.75 85.32 67.3 85.32 62.13 85.32 57 85.32 57 90.18 62.13 90.18 67.3 90.18 71.75 90.18 71.75 95.3 71.75 100.79 67.3 100.79 67.3 105.24 62.13 105.24 57 105.24 51.83 110.77 57 110.77 62.13 115.53 67.3 125.83 67.3 120.71 77.29 125.83 77.29 120.71 82.05 120.71 82.05 125.83 92.34 135.82 97.88 135.82 97.88 140.99 102.64 140.99 102.64 146.11 102.64 151.29 113.04 151.29 123.29 151.29 117.8 156.41 123.29 156.41 128.1 161.22 123.29 171.57 128.1 171.57 133.64 176.7 143.52 176.7 133.64 176.7 133.64 181.87 138.09 181.87 138.09 186.63 128.1 196.93 128.1 202.1 133.64 212.09 138.09 212.09 138.09 222.39 143.52 227.56 143.52 232.32 153.82 237.44 158.99 232.32 158.99 237.44 158.99 242.62 153.82 247.74 158.99 247.74 153.82 252.91 153.82 263.21 153.82 268.02 148.69 273.2 148.69 278.32 153.82 278.32 153.82 283.5 153.82 288.31 158.99 293.48 158.99 298.66 158.99 308.9 158.99 313.71 153.82 308.9 153.82 303.42 153.82 298.66 148.69 293.48 148.69 288.31 143.52 283.5 143.52 278.32 138.09 283.5 138.09 298.66 138.09 303.42 133.64 308.9 133.64 318.84 128.1 318.84 138.09 324.01 133.64 328.82 123.29 328.82 123.29 334.31 123.29 339.12 117.8 344.29 117.8 349.42 113.04 349.42 113.04 359.35 107.87 359.35 102.64 364.53 102.64 369.65 92.34 380.05 82.05 390.35 87.58 395.11 92.34 400.23 92.34 405.09 92.34 410.22 97.88 410.22 102.64 410.22 113.04 420.56 117.8 420.56 123.29 430.86 128.1 430.86 133.64 430.86 138.09 435.62 148.69 445.92 153.82 445.92 164.11 451.04 168.98 451.04 168.98 456.22 181.03 456.89 192.68 453.47 198.78 457.67 200.9 463.77 199.87 471.33 204.63 476.5 209.86 476.5 215.03 476.5 219.79 476.5 225.33 481.62 230.45 486.8 235.21 486.8 245.51 486.8 250.68 491.25 256.53 492.33 260.98 491.25 266.1 491.25 269.93 493.68 275.73 488.87 273.4 487.16 271.95 484.37 270.96 481.62 276.14 476.5 270.96 471.33 276.14 461.03 276.14 456.22 281.26 451.04 286.44 451.04 291.56 445.92 296.73 445.92 301.49 445.92 306.72 445.92 311.84 440.75 317.02 435.62 322.45 435.62 327.31 440.75 332.44 445.92 337.2 445.92 347.55 445.92 347.55 456.22 352.67 451.04 357.79 451.04 362.97 445.92 368.14 445.92 368.14 451.04 368.14 456.22 372.95 456.22 378.13 456.22 378.13 461.03 378.13 466.2 383.25 461.03 388.42 466.2 393.55 471.33 393.55 476.5 398.72 481.62 403.53 481.62 408.71 481.62 414.14 481.62 419 481.62 424.44 481.62 429.3 476.5 429.3 471.33 429.3 466.2 434.42 466.2 439.24 466.2 444.36 466.2 444.36 461.03 449.9 461.03 454.66 461.03 454.66 466.2 464.95 456.22 460.19 461.03 464.95 456.22"/>
  </g>
  <g>
    <polygon class="cls-1" points="516.13 586.04 512.71 585.37 509.66 580.56 509.66 575.38 505.83 570.93 502.73 565.45 506.24 562.34 505.83 560.64 505.83 555.46 503.81 551.01 502.73 545.58 503.81 540.04 502.73 535.54 506.24 532.18 510.69 526.64 516.13 524.57 518.56 521.16 520.99 520.12 526.42 520.12 531.6 517.69 536.05 518.77 537.14 517.69 539.57 520.12 541.59 524.88 541.59 530.42 541.59 535.23 541.59 545.58 536.46 550.7 531.29 555.46 531.29 560.64 531.29 565.76 526.42 576.06 526.42 580.92 520.99 586.04 520.99 591.22 516.13 586.04"/>
    <polygon class="cls-1" points="516.13 586.04 512.71 585.37 509.66 580.56 509.66 575.38 505.83 570.93 502.73 565.45 506.24 562.34 505.83 560.64 505.83 555.46 503.81 551.01 502.73 545.58 503.81 540.04 502.73 535.54 506.24 532.18 510.69 526.64 516.13 524.57 518.56 521.16 520.99 520.12 526.42 520.12 531.6 517.69 536.05 518.77 537.14 517.69 539.57 520.12 541.59 524.88 541.59 530.42 541.59 535.23 541.59 545.58 536.46 550.7 531.29 555.46 531.29 560.64 531.29 565.76 526.42 576.06 526.42 580.92 520.99 586.04 520.99 591.22 516.13 586.04"/>
  </g>
</svg>