<?xml version="1.0" encoding="UTF-8"?>
<svg id="Layer_1" data-name="Layer 1" xmlns="http://www.w3.org/2000/svg" viewBox="0 0 600 600">
  <defs>
    <style>
      .cls-1 {
        fill: #5d816c;
        stroke: #fff;
      }
    </style>
  </defs>
  <g>
    <polygon class="cls-1" points="336.72 323.4 337.71 322.41 337.71 321.41 338.65 320.42 337.71 319.42 335.8 319.42 334.73 319.42 333.8 317.5 333.8 316.51 333.8 314.52 333.8 313.52 334.73 312.59 334.73 311.59 334.73 310.67 333.8 309.6 332.74 309.6 331.74 308.68 331.74 307.68 332.74 307.68 333.8 307.68 334.73 307.68 335.8 306.68 336.72 305.68 337.71 304.68 336.72 303.76 336.72 302.77 335.8 301.77 335.8 300.78 336.72 300.78 336.72 299.84 336.72 298.79 335.8 297.85 335.8 296.85 336.72 296.85 335.8 295.86 335.8 294.94 336.72 294.94 337.71 294.94 337.71 293.87 336.72 291.95 335.8 291.95 335.8 292.95 334.73 292.95 333.8 294.94 331.74 295.86 330.82 293.87 331.74 291.95 333.8 290.02 333.8 289.03 334.73 288.03 336.72 288.03 338.65 287.04 339.64 285.1 339.64 284.11 340.64 283.11 341.63 284.11 342.7 285.1 343.63 283.11 344.62 284.11 344.62 281.12 345.56 280.13 345.56 279.21 345.56 277.28 345.56 276.22 346.61 275.23 346.61 274.29 347.55 272.37 348.6 271.31 350.53 269.39 349.54 268.39 348.6 268.39 347.55 268.39 346.61 267.38 344.62 267.38 342.7 266.39 341.63 265.47 340.64 263.48 339.64 261.49 337.71 261.49 336.72 260.55 335.8 260.55 334.73 260.55 333.8 261.49 333.8 260.55 332.74 259.55 331.74 258.56 330.82 258.56 330.82 257.56 329.82 256.64 329.82 255.57 328.89 254.71 328.89 253.66 327.84 253.66 327.84 254.71 326.9 254.71 325.84 254.71 324.85 253.66 325.84 252.66 325.84 251.73 325.84 249.74 324.85 249.74 323.91 249.74 322.92 249.74 321.92 247.82 321.92 246.82 320.93 246.82 319.93 246.82 319.93 245.81 319.93 244.82 318.94 244.82 318 244.82 318 243.82 317.01 242.83 317.01 241.91 317.01 240.91 317.01 239.92 315.01 239.92 314.02 239.92 313.03 239.92 312.03 239.92 311.11 239.92 310.11 240.91 310.11 241.91 310.11 242.83 309.18 243.82 309.18 244.82 309.18 246.82 309.18 247.82 308.12 247.82 307.13 247.82 306.13 248.74 305.12 248.74 303.21 249.74 301.22 250.67 299.23 250.67 297.29 250.67 297.29 251.73 298.29 251.73 300.22 252.66 301.22 253.66 300.22 253.66 300.22 254.71 298.29 253.66 296.3 253.66 294.31 253.66 294.31 252.66 292.32 252.66 290.4 251.73 288.41 250.67 288.41 251.73 286.41 250.67 287.42 249.74 286.41 248.74 286.41 247.82 287.42 246.82 286.41 246.82 285.49 246.82 284.49 245.81 283.5 245.81 283.5 246.82 282.43 247.82 282.43 249.74 282.43 250.67 283.5 252.66 282.43 253.66 282.43 254.71 282.43 255.57 283.5 256.64 283.5 257.56 281.5 257.56 280.44 256.64 279.52 256.64 278.58 256.64 279.52 255.57 277.58 255.57 275.59 255.57 274.6 254.71 274.6 255.57 272.68 255.57 272.68 254.71 272.68 252.66 271.61 252.66 270.69 252.66 270.69 251.73 271.61 250.67 270.69 251.73 268.7 250.67 267.71 251.73 267.71 252.66 265.77 252.66 265.77 251.73 263.78 251.73 262.72 251.73 261.79 250.67 260.73 251.73 259.86 251.73 258.87 251.73 257.87 251.73 257.87 252.66 258.87 252.66 259.86 252.66 260.73 252.66 260.73 253.66 260.73 254.71 259.86 254.71 259.86 255.57 258.87 255.57 257.87 255.57 256.88 256.64 257.87 256.64 258.87 257.56 259.86 259.55 259.86 258.56 261.79 259.55 261.79 258.56 262.72 258.56 262.72 259.55 264.71 261.49 265.77 261.49 265.77 262.48 266.69 262.48 266.69 263.48 266.69 264.47 268.7 264.47 270.69 264.47 269.62 265.47 270.69 265.47 271.61 266.39 270.69 268.39 271.61 268.39 272.68 269.39 274.6 269.39 272.68 269.39 272.68 270.38 273.54 270.38 273.54 271.31 271.61 273.3 271.61 274.29 272.68 276.22 273.54 276.22 273.54 278.21 274.6 279.21 274.6 280.13 276.59 281.12 277.58 280.13 277.58 281.12 277.58 282.12 276.59 283.11 277.58 283.11 276.59 284.11 276.59 286.1 276.59 287.04 275.59 288.03 275.59 289.03 276.59 289.03 276.59 290.02 276.59 290.96 277.58 291.95 277.58 292.95 277.58 294.94 277.58 295.86 276.59 294.94 276.59 293.87 276.59 292.95 275.59 291.95 275.59 290.96 274.6 290.02 274.6 289.03 273.54 290.02 273.54 292.95 273.54 293.87 272.68 294.94 272.68 296.85 271.61 296.85 273.54 297.85 272.68 298.79 270.69 298.79 270.69 299.84 270.69 300.78 269.62 301.77 269.62 302.77 268.7 302.77 268.7 304.68 267.71 304.68 266.69 305.68 266.69 306.68 264.71 308.68 262.72 310.67 263.78 311.59 264.71 312.59 264.71 313.52 264.71 314.52 265.77 314.52 266.69 314.52 268.7 316.51 269.62 316.51 270.69 318.5 271.61 318.5 272.68 318.5 273.54 319.42 275.59 321.41 276.59 321.41 278.58 322.41 279.52 322.41 279.52 323.4 281.84 323.53 284.09 322.87 285.28 323.68 285.69 324.86 285.49 326.33 286.41 327.32 287.42 327.32 288.41 327.32 289.33 327.32 290.4 328.32 291.4 329.31 292.32 329.31 294.31 329.31 295.31 330.18 296.43 330.38 297.29 330.18 298.29 330.18 299.02 330.64 300.15 329.71 299.7 329.39 299.42 328.84 299.23 328.32 300.22 327.32 299.23 326.33 300.22 324.34 300.22 323.4 301.22 322.41 302.21 322.41 303.21 321.41 304.2 321.41 305.12 321.41 306.13 321.41 307.13 320.42 308.12 319.42 309.18 319.42 310.11 320.42 311.11 321.41 312.03 321.41 314.02 321.41 314.02 323.4 315.01 322.41 316.01 322.41 317.01 321.41 318 321.41 318 322.41 318 323.4 318.94 323.4 319.93 323.4 319.93 324.34 319.93 325.33 320.93 324.34 321.92 325.33 322.92 326.33 322.92 327.32 323.91 328.32 324.85 328.32 325.84 328.32 326.9 328.32 327.84 328.32 328.89 328.32 329.82 327.32 329.82 326.33 329.82 325.33 330.82 325.33 331.74 325.33 332.74 325.33 332.74 324.34 333.8 324.34 334.73 324.34 334.73 325.33 336.72 323.4 335.8 324.34 336.72 323.4"/>
    <polygon class="cls-1" points="336.72 323.4 337.71 322.41 337.71 321.41 338.65 320.42 337.71 319.42 335.8 319.42 334.73 319.42 333.8 317.5 333.8 316.51 333.8 314.52 333.8 313.52 334.73 312.59 334.73 311.59 334.73 310.67 333.8 309.6 332.74 309.6 331.74 308.68 331.74 307.68 332.74 307.68 333.8 307.68 334.73 307.68 335.8 306.68 336.72 305.68 337.71 304.68 336.72 303.76 336.72 302.77 335.8 301.77 335.8 300.78 336.72 300.78 336.72 299.84 336.72 298.79 335.8 297.85 335.8 296.85 336.72 296.85 335.8 295.86 335.8 294.94 336.72 294.94 337.71 294.94 337.71 293.87 336.72 291.95 335.8 291.95 335.8 292.95 334.73 292.95 333.8 294.94 331.74 295.86 330.82 293.87 331.74 291.95 333.8 290.02 333.8 289.03 334.73 288.03 336.72 288.03 338.65 287.04 339.64 285.1 339.64 284.11 340.64 283.11 341.63 284.11 342.7 285.1 343.63 283.11 344.62 284.11 344.62 281.12 345.56 280.13 345.56 279.21 345.56 277.28 345.56 276.22 346.61 275.23 346.61 274.29 347.55 272.37 348.6 271.31 350.53 269.39 349.54 268.39 348.6 268.39 347.55 268.39 346.61 267.38 344.62 267.38 342.7 266.39 341.63 265.47 340.64 263.48 339.64 261.49 337.71 261.49 336.72 260.55 335.8 260.55 334.73 260.55 333.8 261.49 333.8 260.55 332.74 259.55 331.74 258.56 330.82 258.56 330.82 257.56 329.82 256.64 329.82 255.57 328.89 254.71 328.89 253.66 327.84 253.66 327.84 254.71 326.9 254.71 325.84 254.71 324.85 253.66 325.84 252.66 325.84 251.73 325.84 249.74 324.85 249.74 323.91 249.74 322.92 249.74 321.92 247.82 321.92 246.82 320.93 246.82 319.93 246.82 319.93 245.81 319.93 244.82 318.94 244.82 318 244.82 318 243.82 317.01 242.83 317.01 241.91 317.01 240.91 317.01 239.92 315.01 239.92 314.02 239.92 313.03 239.92 312.03 239.92 311.11 239.92 310.11 240.91 310.11 241.91 310.11 242.83 309.18 243.82 309.18 244.82 309.18 246.82 309.18 247.82 308.12 247.82 307.13 247.82 306.13 248.74 305.12 248.74 303.21 249.74 301.22 250.67 299.23 250.67 297.29 250.67 297.29 251.73 298.29 251.73 300.22 252.66 301.22 253.66 300.22 253.66 300.22 254.71 298.29 253.66 296.3 253.66 294.31 253.66 294.31 252.66 292.32 252.66 290.4 251.73 288.41 250.67 288.41 251.73 286.41 250.67 287.42 249.74 286.41 248.74 286.41 247.82 287.42 246.82 286.41 246.82 285.49 246.82 284.49 245.81 283.5 245.81 283.5 246.82 282.43 247.82 282.43 249.74 282.43 250.67 283.5 252.66 282.43 253.66 282.43 254.71 282.43 255.57 283.5 256.64 283.5 257.56 281.5 257.56 280.44 256.64 279.52 256.64 278.58 256.64 279.52 255.57 277.58 255.57 275.59 255.57 274.6 254.71 274.6 255.57 272.68 255.57 272.68 254.71 272.68 252.66 271.61 252.66 270.69 252.66 270.69 251.73 271.61 250.67 270.69 251.73 268.7 250.67 267.71 251.73 267.71 252.66 265.77 252.66 265.77 251.73 263.78 251.73 262.72 251.73 261.79 250.67 260.73 251.73 259.86 251.73 258.87 251.73 257.87 251.73 257.87 252.66 258.87 252.66 259.86 252.66 260.73 252.66 260.73 253.66 260.73 254.71 259.86 254.71 259.86 255.57 258.87 255.57 257.87 255.57 256.88 256.64 257.87 256.64 258.87 257.56 259.86 259.55 259.86 258.56 261.79 259.55 261.79 258.56 262.72 258.56 262.72 259.55 264.71 261.49 265.77 261.49 265.77 262.48 266.69 262.48 266.69 263.48 266.69 264.47 268.7 264.47 270.69 264.47 269.62 265.47 270.69 265.47 271.61 266.39 270.69 268.39 271.61 268.39 272.68 269.39 274.6 269.39 272.68 269.39 272.68 270.38 273.54 270.38 273.54 271.31 271.61 273.3 271.61 274.29 272.68 276.22 273.54 276.22 273.54 278.21 274.6 279.21 274.6 280.13 276.59 281.12 277.58 280.13 277.58 281.12 277.58 282.12 276.59 283.11 277.58 283.11 276.59 284.11 276.59 286.1 276.59 287.04 275.59 288.03 275.59 289.03 276.59 289.03 276.59 290.02 276.59 290.96 277.58 291.95 277.58 292.95 277.58 294.94 277.58 295.86 276.59 294.94 276.59 293.87 276.59 292.95 275.59 291.95 275.59 290.96 274.6 290.02 274.6 289.03 273.54 290.02 273.54 292.95 273.54 293.87 272.68 294.94 272.68 296.85 271.61 296.85 273.54 297.85 272.68 298.79 270.69 298.79 270.69 299.84 270.69 300.78 269.62 301.77 269.62 302.77 268.7 302.77 268.7 304.68 267.71 304.68 266.69 305.68 266.69 306.68 264.71 308.68 262.72 310.67 263.78 311.59 264.71 312.59 264.71 313.52 264.71 314.52 265.77 314.52 266.69 314.52 268.7 316.51 269.62 316.51 270.69 318.5 271.61 318.5 272.68 318.5 273.54 319.42 275.59 321.41 276.59 321.41 278.58 322.41 279.52 322.41 279.52 323.4 281.84 323.53 284.09 322.87 285.28 323.68 285.69 324.86 285.49 326.33 286.41 327.32 287.42 327.32 288.41 327.32 289.33 327.32 290.4 328.32 291.4 329.31 292.32 329.31 294.31 329.31 295.31 330.18 296.43 330.38 297.29 330.18 298.29 330.18 299.02 330.64 300.15 329.71 299.7 329.39 299.42 328.84 299.23 328.32 300.22 327.32 299.23 326.33 300.22 324.34 300.22 323.4 301.22 322.41 302.21 322.41 303.21 321.41 304.2 321.41 305.12 321.41 306.13 321.41 307.13 320.42 308.12 319.42 309.18 319.42 310.11 320.42 311.11 321.41 312.03 321.41 314.02 321.41 314.02 323.4 315.01 322.41 316.01 322.41 317.01 321.41 318 321.41 318 322.41 318 323.4 318.94 323.4 319.93 323.4 319.93 324.34 319.93 325.33 320.93 324.34 321.92 325.33 322.92 326.33 322.92 327.32 323.91 328.32 324.85 328.32 325.84 328.32 326.9 328.32 327.84 328.32 328.89 328.32 329.82 327.32 329.82 326.33 329.82 325.33 330.82 325.33 331.74 325.33 332.74 325.33 332.74 324.34 333.8 324.34 334.73 324.34 334.73 325.33 336.72 323.4 335.8 324.34 336.72 323.4"/>
  </g>
  <g>
    <polygon class="cls-1" points="346.61 348.5 345.95 348.37 345.35 347.43 345.35 346.43 344.62 345.57 344.02 344.52 344.69 343.92 344.62 343.58 344.62 342.59 344.22 341.72 344.02 340.67 344.22 339.6 344.02 338.74 344.69 338.08 345.56 337.01 346.61 336.61 347.08 335.96 347.55 335.75 348.6 335.75 349.59 335.28 350.46 335.49 350.66 335.28 351.13 335.75 351.53 336.67 351.53 337.74 351.53 338.68 351.53 340.67 350.53 341.66 349.54 342.59 349.54 343.58 349.54 344.58 348.6 346.57 348.6 347.5 347.55 348.5 347.55 349.49 346.61 348.5"/>
    <polygon class="cls-1" points="346.61 348.5 345.95 348.37 345.35 347.43 345.35 346.43 344.62 345.57 344.02 344.52 344.69 343.92 344.62 343.58 344.62 342.59 344.22 341.72 344.02 340.67 344.22 339.6 344.02 338.74 344.69 338.08 345.56 337.01 346.61 336.61 347.08 335.96 347.55 335.75 348.6 335.75 349.59 335.28 350.46 335.49 350.66 335.28 351.13 335.75 351.53 336.67 351.53 337.74 351.53 338.68 351.53 340.67 350.53 341.66 349.54 342.59 349.54 343.58 349.54 344.58 348.6 346.57 348.6 347.5 347.55 348.5 347.55 349.49 346.61 348.5"/>
  </g>
</svg>