<?xml version="1.0" encoding="UTF-8"?>
<svg id="Layer_1" data-name="Layer 1" xmlns="http://www.w3.org/2000/svg" viewBox="0 0 600 600">
  <defs>
    <style>
      .cls-1 {
        fill: #fff;
        stroke: #fff;
      }
    </style>
  </defs>
  <g>
    <polygon class="cls-1" points="286.02 336.2 305.7 326.9 315.59 326.9 326.17 336.2 334.68 346.09 354.36 346.09 374.04 355.88 383.93 365.18 393.72 365.18 402.82 375.56 402.82 384.86 413.4 393.96 422.5 404.54 422.5 424.22 413.4 424.22 402.82 404.54 393.72 393.96 383.93 384.86 364.25 375.56 354.36 365.18 334.68 355.88 326.17 346.09 305.7 346.09 295.91 346.09 286.02 336.2"/>
    <polygon class="cls-1" points="286.02 336.2 305.7 326.9 315.59 326.9 326.17 336.2 334.68 346.09 354.36 346.09 374.04 355.88 383.93 365.18 393.72 365.18 402.82 375.56 402.82 384.86 413.4 393.96 422.5 404.54 422.5 424.22 413.4 424.22 402.82 404.54 393.72 393.96 383.93 384.86 364.25 375.56 354.36 365.18 334.68 355.88 326.17 346.09 305.7 346.09 295.91 346.09 286.02 336.2"/>
  </g>
  <g>
    <polygon class="cls-1" points="265.05 77.58 285.53 77.58 305.21 77.58 324.89 77.58 343.78 77.58 353.67 87.47 366.82 76.89 363.46 66.41 370.68 62.55 391.74 55.93 402.23 62.55 409.54 55.93 412.71 55.93 421.21 67.79 431.8 67.79 431.8 77.58 451.48 67.79 460.77 67.79 469.87 67.79 489.55 67.79 500.13 57.9 519.02 57.9 538.8 57.9 538.21 48.61 530.89 38.22 530.89 28.43 548.59 21.11 562.44 28.43 568.27 38.22 577.57 38.22 577.57 48.61 577.57 57.9 568.27 67.79 573.61 76.89 559.18 80.25 562.44 87.47 557.79 106.56 548.59 116.35 548.59 126.24 538.8 136.03 528.91 136.03 519.02 126.24 489.55 126.24 469.87 116.35 451.48 116.35 441.69 116.35 451.48 126.24 441.69 136.03 421.21 136.03 412.11 126.24 402.23 116.35 392.43 126.24 392.43 136.03 392.43 145.23 382.64 145.23 353.67 145.23 343.78 145.23 343.78 155.02 353.67 164.91 362.86 174.7 382.64 184.59 402.23 193.79 412.11 193.79 402.23 204.17 382.64 212.78 362.86 212.78 362.86 193.79 353.67 193.79 343.78 193.79 353.67 204.17 362.86 223.36 373.35 223.36 373.35 233.15 343.78 223.36 333.99 212.78 324.89 204.17 314.3 193.79 314.3 204.17 314.3 212.78 324.89 223.36 343.78 233.15 343.78 242.35 324.89 233.15 305.21 223.36 294.62 204.17 285.53 184.59 274.94 174.7 274.94 155.02 265.05 155.02 245.97 164.91 236.87 174.7 245.97 184.59 245.97 193.79 245.97 204.17 245.97 223.36 255.86 233.15 274.94 242.35 285.53 261.93 314.3 290.91 324.89 290.91 314.3 310.59 305.21 310.59 305.21 300.8 305.21 290.91 294.62 281.12 274.94 281.12 265.05 281.12 255.86 290.91 265.05 310.59 274.94 310.59 274.94 320.48 265.05 330.27 255.86 339.56 265.05 349.35 285.53 349.35 305.21 359.24 324.89 369.04 333.99 369.04 343.78 388.02 362.86 397.32 373.35 397.32 373.35 417 373.35 436.68 373.35 446.47 373.35 456.36 353.67 446.47 343.78 427.38 333.99 427.38 314.3 446.47 305.21 456.36 305.21 465.46 314.3 476.04 324.89 476.04 343.78 465.46 343.78 485.24 324.89 495.13 305.21 504.92 294.62 504.92 285.53 495.13 285.53 485.24 274.94 476.04 265.05 476.04 265.05 495.13 274.94 504.92 285.53 523.91 294.62 523.91 294.62 543.59 305.21 553.48 305.21 563.27 324.89 572.57 324.89 582.36 285.53 582.36 274.94 582.36 274.94 563.27 265.05 563.27 265.05 543.59 255.86 553.48 255.86 563.27 255.86 572.57 255.86 592.25 245.97 592.25 236.87 572.57 226.29 572.57 217.19 563.27 217.19 553.48 217.19 543.59 217.19 533.8 206.61 523.91 198.1 533.8 198.1 543.59 206.61 553.48 198.1 563.27 187.62 563.27 177.83 563.27 167.94 543.59 167.94 533.8 167.94 523.91 158.15 514.81 167.94 504.92 167.94 485.24 167.94 476.04 158.15 465.46 148.85 456.36 139.06 456.36 129.96 436.68 129.96 427.38 139.06 417 148.85 417 158.15 417 167.94 417 177.83 417 187.62 407.7 198.1 407.7 206.61 407.7 217.19 407.7 226.29 407.7 226.29 417 245.97 407.7 255.86 417 255.86 427.38 265.05 436.68 274.94 427.38 285.53 427.38 294.62 417 274.94 407.7 265.05 397.32 255.86 388.02 236.87 388.02 236.87 397.32 226.29 388.02 217.19 378.93 198.1 378.93 187.62 378.93 177.83 378.93 158.15 388.02 158.15 378.93 148.85 378.93 139.06 378.93 129.96 388.02 110.18 378.93 99.7 378.93 99.7 369.04 99.7 359.24 90.5 349.35 99.7 339.56 110.18 339.56 129.96 339.56 129.96 330.27 129.96 320.48 119.38 320.48 110.18 320.48 99.7 320.48 90.5 330.27 80.02 320.48 80.02 300.8 80.02 290.91 60.83 290.91 51.04 281.12 41.94 261.93 51.04 261.93 51.04 252.83 51.04 242.35 60.83 233.15 71.41 233.15 90.5 223.36 80.02 212.78 90.5 212.78 99.7 204.17 110.18 184.59 119.38 174.7 119.38 164.91 119.38 155.02 110.18 145.23 99.7 136.03 110.18 126.24 119.38 126.24 119.38 116.35 129.96 126.24 148.85 126.24 158.15 126.24 177.83 116.35 198.1 116.35 206.61 106.56 217.19 96.67 226.29 106.56 236.87 106.56 245.97 106.56 255.86 96.67 265.05 87.47 285.53 77.58 265.05 77.58"/>
    <polygon class="cls-1" points="265.05 77.58 285.53 77.58 305.21 77.58 324.89 77.58 343.78 77.58 353.67 87.47 366.82 76.89 363.46 66.41 370.68 62.55 391.74 55.93 402.23 62.55 409.54 55.93 412.71 55.93 421.21 67.79 431.8 67.79 431.8 77.58 451.48 67.79 460.77 67.79 469.87 67.79 489.55 67.79 500.13 57.9 519.02 57.9 538.8 57.9 538.21 48.61 530.89 38.22 530.89 28.43 548.59 21.11 562.44 28.43 568.27 38.22 577.57 38.22 577.57 48.61 577.57 57.9 568.27 67.79 573.61 76.89 559.18 80.25 562.44 87.47 557.79 106.56 548.59 116.35 548.59 126.24 538.8 136.03 528.91 136.03 519.02 126.24 489.55 126.24 469.87 116.35 451.48 116.35 441.69 116.35 451.48 126.24 441.69 136.03 421.21 136.03 412.11 126.24 402.23 116.35 392.43 126.24 392.43 136.03 392.43 145.23 382.64 145.23 353.67 145.23 343.78 145.23 343.78 155.02 353.67 164.91 362.86 174.7 382.64 184.59 402.23 193.79 412.11 193.79 402.23 204.17 382.64 212.78 362.86 212.78 362.86 193.79 353.67 193.79 343.78 193.79 353.67 204.17 362.86 223.36 373.35 223.36 373.35 233.15 343.78 223.36 333.99 212.78 324.89 204.17 314.3 193.79 314.3 204.17 314.3 212.78 324.89 223.36 343.78 233.15 343.78 242.35 324.89 233.15 305.21 223.36 294.62 204.17 285.53 184.59 274.94 174.7 274.94 155.02 265.05 155.02 245.97 164.91 236.87 174.7 245.97 184.59 245.97 193.79 245.97 204.17 245.97 223.36 255.86 233.15 274.94 242.35 285.53 261.93 314.3 290.91 324.89 290.91 314.3 310.59 305.21 310.59 305.21 300.8 305.21 290.91 294.62 281.12 274.94 281.12 265.05 281.12 255.86 290.91 265.05 310.59 274.94 310.59 274.94 320.48 265.05 330.27 255.86 339.56 265.05 349.35 285.53 349.35 305.21 359.24 324.89 369.04 333.99 369.04 343.78 388.02 362.86 397.32 373.35 397.32 373.35 417 373.35 436.68 373.35 446.47 373.35 456.36 353.67 446.47 343.78 427.38 333.99 427.38 314.3 446.47 305.21 456.36 305.21 465.46 314.3 476.04 324.89 476.04 343.78 465.46 343.78 485.24 324.89 495.13 305.21 504.92 294.62 504.92 285.53 495.13 285.53 485.24 274.94 476.04 265.05 476.04 265.05 495.13 274.94 504.92 285.53 523.91 294.62 523.91 294.62 543.59 305.21 553.48 305.21 563.27 324.89 572.57 324.89 582.36 285.53 582.36 274.94 582.36 274.94 563.27 265.05 563.27 265.05 543.59 255.86 553.48 255.86 563.27 255.86 572.57 255.86 592.25 245.97 592.25 236.87 572.57 226.29 572.57 217.19 563.27 217.19 553.48 217.19 543.59 217.19 533.8 206.61 523.91 198.1 533.8 198.1 543.59 206.61 553.48 198.1 563.27 187.62 563.27 177.83 563.27 167.94 543.59 167.94 533.8 167.94 523.91 158.15 514.81 167.94 504.92 167.94 485.24 167.94 476.04 158.15 465.46 148.85 456.36 139.06 456.36 129.96 436.68 129.96 427.38 139.06 417 148.85 417 158.15 417 167.94 417 177.83 417 187.62 407.7 198.1 407.7 206.61 407.7 217.19 407.7 226.29 407.7 226.29 417 245.97 407.7 255.86 417 255.86 427.38 265.05 436.68 274.94 427.38 285.53 427.38 294.62 417 274.94 407.7 265.05 397.32 255.86 388.02 236.87 388.02 236.87 397.32 226.29 388.02 217.19 378.93 198.1 378.93 187.62 378.93 177.83 378.93 158.15 388.02 158.15 378.93 148.85 378.93 139.06 378.93 129.96 388.02 110.18 378.93 99.7 378.93 99.7 369.04 99.7 359.24 90.5 349.35 99.7 339.56 110.18 339.56 129.96 339.56 129.96 330.27 129.96 320.48 119.38 320.48 110.18 320.48 99.7 320.48 90.5 330.27 80.02 320.48 80.02 300.8 80.02 290.91 60.83 290.91 51.04 281.12 41.94 261.93 51.04 261.93 51.04 252.83 51.04 242.35 60.83 233.15 71.41 233.15 90.5 223.36 80.02 212.78 90.5 212.78 99.7 204.17 110.18 184.59 119.38 174.7 119.38 164.91 119.38 155.02 110.18 145.23 99.7 136.03 110.18 126.24 119.38 126.24 119.38 116.35 129.96 126.24 148.85 126.24 158.15 126.24 177.83 116.35 198.1 116.35 206.61 106.56 217.19 96.67 226.29 106.56 236.87 106.56 245.97 106.56 255.86 96.67 265.05 87.47 285.53 77.58 265.05 77.58"/>
  </g>
</svg>