<?xml version="1.0" encoding="UTF-8"?>
<svg id="Layer_1" data-name="Layer 1" xmlns="http://www.w3.org/2000/svg" viewBox="0 0 600 600">
  <defs>
    <style>
      .cls-1 {
        fill: #5d816c;
        stroke: #fff;
      }
    </style>
  </defs>
  <g>
    <polygon class="cls-1" points="273.37 317.74 275.36 316.8 276.36 316.8 277.42 317.74 278.29 318.73 280.28 318.73 282.27 319.73 283.26 320.67 284.26 320.67 285.18 321.72 285.18 322.66 286.25 323.58 287.17 324.65 287.17 326.64 286.25 326.64 285.18 324.65 284.26 323.58 283.26 322.66 281.27 321.72 280.28 320.67 278.29 319.73 277.42 318.73 275.36 318.73 274.37 318.73 273.37 317.74"/>
    <polygon class="cls-1" points="273.37 317.74 275.36 316.8 276.36 316.8 277.42 317.74 278.29 318.73 280.28 318.73 282.27 319.73 283.26 320.67 284.26 320.67 285.18 321.72 285.18 322.66 286.25 323.58 287.17 324.65 287.17 326.64 286.25 326.64 285.18 324.65 284.26 323.58 283.26 322.66 281.27 321.72 280.28 320.67 278.29 319.73 277.42 318.73 275.36 318.73 274.37 318.73 273.37 317.74"/>
  </g>
  <g>
    <polygon class="cls-1" points="271.25 291.59 273.31 291.59 275.3 291.59 277.29 291.59 279.21 291.59 280.2 292.58 281.54 291.52 281.2 290.46 281.93 290.07 284.05 289.39 285.12 290.07 285.85 289.39 286.18 289.39 287.04 290.59 288.11 290.59 288.11 291.59 290.1 290.59 291.03 290.59 291.96 290.59 293.95 290.59 295.01 289.6 296.93 289.6 298.92 289.6 298.86 288.66 298.13 287.61 298.13 286.61 299.92 285.88 301.32 286.61 301.91 287.61 302.84 287.61 302.84 288.66 302.84 289.6 301.91 290.59 302.45 291.52 300.98 291.85 301.32 292.58 300.85 294.52 299.92 295.51 299.92 296.51 298.92 297.5 297.93 297.5 296.93 296.51 293.95 296.51 291.96 295.51 290.1 295.51 289.1 295.51 290.1 296.51 289.1 297.5 287.04 297.5 286.12 296.51 285.12 295.51 284.13 296.51 284.13 297.5 284.13 298.42 283.13 298.42 280.2 298.42 279.21 298.42 279.21 299.42 280.2 300.41 281.14 301.41 283.13 302.4 285.12 303.34 286.12 303.34 285.12 304.39 283.13 305.26 281.14 305.26 281.14 303.34 280.2 303.34 279.21 303.34 280.2 304.39 281.14 306.33 282.2 306.33 282.2 307.32 279.21 306.33 278.22 305.26 277.29 304.39 276.23 303.34 276.23 304.39 276.23 305.26 277.29 306.33 279.21 307.32 279.21 308.24 277.29 307.32 275.3 306.33 274.23 304.39 273.31 302.4 272.24 301.41 272.24 299.42 271.25 299.42 269.32 300.41 268.4 301.41 269.32 302.4 269.32 303.34 269.32 304.39 269.32 306.33 270.31 307.32 272.24 308.24 273.31 310.23 276.23 313.16 277.29 313.16 276.23 315.15 275.3 315.15 275.3 314.16 275.3 313.16 274.23 312.16 272.24 312.16 271.25 312.16 270.31 313.16 271.25 315.15 272.24 315.15 272.24 316.14 271.25 317.14 270.31 318.08 271.25 319.07 273.31 319.07 275.3 320.07 277.29 321.06 278.22 321.06 279.21 322.98 281.14 323.92 282.2 323.92 282.2 325.9 282.2 327.9 282.2 328.89 282.2 329.89 280.2 328.89 279.21 326.96 278.22 326.96 276.23 328.89 275.3 329.89 275.3 330.81 276.23 331.88 277.29 331.88 279.21 330.81 279.21 332.81 277.29 333.81 275.3 334.8 274.23 334.8 273.31 333.81 273.31 332.81 272.24 331.88 271.25 331.88 271.25 333.81 272.24 334.8 273.31 336.72 274.23 336.72 274.23 338.71 275.3 339.71 275.3 340.7 277.29 341.64 277.29 342.63 273.31 342.63 272.24 342.63 272.24 340.7 271.25 340.7 271.25 338.71 270.31 339.71 270.31 340.7 270.31 341.64 270.31 343.63 269.32 343.63 268.4 341.64 267.33 341.64 266.41 340.7 266.41 339.71 266.41 338.71 266.41 337.71 265.34 336.72 264.47 337.71 264.47 338.71 265.34 339.71 264.47 340.7 263.42 340.7 262.43 340.7 261.43 338.71 261.43 337.71 261.43 336.72 260.44 335.8 261.43 334.8 261.43 332.81 261.43 331.88 260.44 330.81 259.5 329.89 258.5 329.89 257.58 327.9 257.58 326.96 258.5 325.9 259.5 325.9 260.44 325.9 261.43 325.9 262.43 325.9 263.42 324.97 264.47 324.97 265.34 324.97 266.41 324.97 267.33 324.97 267.33 325.9 269.32 324.97 270.31 325.9 270.31 326.96 271.25 327.9 272.24 326.96 273.31 326.96 274.23 325.9 272.24 324.97 271.25 323.92 270.31 322.98 268.4 322.98 268.4 323.92 267.33 322.98 266.41 322.06 264.47 322.06 263.42 322.06 262.43 322.06 260.44 322.98 260.44 322.06 259.5 322.06 258.5 322.06 257.58 322.98 255.59 322.06 254.52 322.06 254.52 321.06 254.52 320.07 253.6 319.07 254.52 318.08 255.59 318.08 257.58 318.08 257.58 317.14 257.58 316.14 256.51 316.14 255.59 316.14 254.52 316.14 253.6 317.14 252.53 316.14 252.53 314.16 252.53 313.16 250.6 313.16 249.61 312.16 248.69 310.23 249.61 310.23 249.61 309.31 249.61 308.24 250.6 307.32 251.67 307.32 253.6 306.33 252.53 305.26 253.6 305.26 254.52 304.39 255.59 302.4 256.51 301.41 256.51 300.41 256.51 299.42 255.59 298.42 254.52 297.5 255.59 296.51 256.51 296.51 256.51 295.51 257.58 296.51 259.5 296.51 260.44 296.51 262.43 295.51 264.47 295.51 265.34 294.52 266.41 293.52 267.33 294.52 268.4 294.52 269.32 294.52 270.31 293.52 271.25 292.58 273.31 291.59 271.25 291.59"/>
    <polygon class="cls-1" points="271.25 291.59 273.31 291.59 275.3 291.59 277.29 291.59 279.21 291.59 280.2 292.58 281.54 291.52 281.2 290.46 281.93 290.07 284.05 289.39 285.12 290.07 285.85 289.39 286.18 289.39 287.04 290.59 288.11 290.59 288.11 291.59 290.1 290.59 291.03 290.59 291.96 290.59 293.95 290.59 295.01 289.6 296.93 289.6 298.92 289.6 298.86 288.66 298.13 287.61 298.13 286.61 299.92 285.88 301.32 286.61 301.91 287.61 302.84 287.61 302.84 288.66 302.84 289.6 301.91 290.59 302.45 291.52 300.98 291.85 301.32 292.58 300.85 294.52 299.92 295.51 299.92 296.51 298.92 297.5 297.93 297.5 296.93 296.51 293.95 296.51 291.96 295.51 290.1 295.51 289.1 295.51 290.1 296.51 289.1 297.5 287.04 297.5 286.12 296.51 285.12 295.51 284.13 296.51 284.13 297.5 284.13 298.42 283.13 298.42 280.2 298.42 279.21 298.42 279.21 299.42 280.2 300.41 281.14 301.41 283.13 302.4 285.12 303.34 286.12 303.34 285.12 304.39 283.13 305.26 281.14 305.26 281.14 303.34 280.2 303.34 279.21 303.34 280.2 304.39 281.14 306.33 282.2 306.33 282.2 307.32 279.21 306.33 278.22 305.26 277.29 304.39 276.23 303.34 276.23 304.39 276.23 305.26 277.29 306.33 279.21 307.32 279.21 308.24 277.29 307.32 275.3 306.33 274.23 304.39 273.31 302.4 272.24 301.41 272.24 299.42 271.25 299.42 269.32 300.41 268.4 301.41 269.32 302.4 269.32 303.34 269.32 304.39 269.32 306.33 270.31 307.32 272.24 308.24 273.31 310.23 276.23 313.16 277.29 313.16 276.23 315.15 275.3 315.15 275.3 314.16 275.3 313.16 274.23 312.16 272.24 312.16 271.25 312.16 270.31 313.16 271.25 315.15 272.24 315.15 272.24 316.14 271.25 317.14 270.31 318.08 271.25 319.07 273.31 319.07 275.3 320.07 277.29 321.06 278.22 321.06 279.21 322.98 281.14 323.92 282.2 323.92 282.2 325.9 282.2 327.9 282.2 328.89 282.2 329.89 280.2 328.89 279.21 326.96 278.22 326.96 276.23 328.89 275.3 329.89 275.3 330.81 276.23 331.88 277.29 331.88 279.21 330.81 279.21 332.81 277.29 333.81 275.3 334.8 274.23 334.8 273.31 333.81 273.31 332.81 272.24 331.88 271.25 331.88 271.25 333.81 272.24 334.8 273.31 336.72 274.23 336.72 274.23 338.71 275.3 339.71 275.3 340.7 277.29 341.64 277.29 342.63 273.31 342.63 272.24 342.63 272.24 340.7 271.25 340.7 271.25 338.71 270.31 339.71 270.31 340.7 270.31 341.64 270.31 343.63 269.32 343.63 268.4 341.64 267.33 341.64 266.41 340.7 266.41 339.71 266.41 338.71 266.41 337.71 265.34 336.72 264.47 337.71 264.47 338.71 265.34 339.71 264.47 340.7 263.42 340.7 262.43 340.7 261.43 338.71 261.43 337.71 261.43 336.72 260.44 335.8 261.43 334.8 261.43 332.81 261.43 331.88 260.44 330.81 259.5 329.89 258.5 329.89 257.58 327.9 257.58 326.96 258.5 325.9 259.5 325.9 260.44 325.9 261.43 325.9 262.43 325.9 263.42 324.97 264.47 324.97 265.34 324.97 266.41 324.97 267.33 324.97 267.33 325.9 269.32 324.97 270.31 325.9 270.31 326.96 271.25 327.9 272.24 326.96 273.31 326.96 274.23 325.9 272.24 324.97 271.25 323.92 270.31 322.98 268.4 322.98 268.4 323.92 267.33 322.98 266.41 322.06 264.47 322.06 263.42 322.06 262.43 322.06 260.44 322.98 260.44 322.06 259.5 322.06 258.5 322.06 257.58 322.98 255.59 322.06 254.52 322.06 254.52 321.06 254.52 320.07 253.6 319.07 254.52 318.08 255.59 318.08 257.58 318.08 257.58 317.14 257.58 316.14 256.51 316.14 255.59 316.14 254.52 316.14 253.6 317.14 252.53 316.14 252.53 314.16 252.53 313.16 250.6 313.16 249.61 312.16 248.69 310.23 249.61 310.23 249.61 309.31 249.61 308.24 250.6 307.32 251.67 307.32 253.6 306.33 252.53 305.26 253.6 305.26 254.52 304.39 255.59 302.4 256.51 301.41 256.51 300.41 256.51 299.42 255.59 298.42 254.52 297.5 255.59 296.51 256.51 296.51 256.51 295.51 257.58 296.51 259.5 296.51 260.44 296.51 262.43 295.51 264.47 295.51 265.34 294.52 266.41 293.52 267.33 294.52 268.4 294.52 269.32 294.52 270.31 293.52 271.25 292.58 273.31 291.59 271.25 291.59"/>
  </g>
</svg>