<?xml version="1.0" encoding="UTF-8"?>
<svg id="Layer_1" data-name="Layer 1" xmlns="http://www.w3.org/2000/svg" viewBox="0 0 600 600">
  <defs>
    <style>
      .cls-1 {
        fill: #5d816c;
        stroke: #fff;
      }
    </style>
  </defs>
  <g>
    <polygon class="cls-1" points="250.47 310.38 251.41 311.3 252.4 310.38 254.39 310.38 255.46 310.38 256.38 309.31 257.38 309.31 258.31 309.31 258.31 308.39 259.37 308.39 260.31 307.39 260.31 308.39 261.36 309.31 262.29 310.38 261.36 310.38 262.29 311.3 262.29 312.24 263.29 312.24 263.29 313.31 262.29 315.29 263.29 315.29 263.29 316.22 262.29 317.21 261.36 317.21 261.36 318.15 261.36 319.14 261.36 320.14 261.36 321.13 261.36 322.13 260.31 324.05 260.31 326.04 260.31 328.03 260.31 329.02 259.37 329.96 258.31 329.02 257.38 329.02 255.46 328.03 254.39 329.02 254.39 329.96 254.39 330.95 253.4 330.95 252.4 330.95 250.47 329.96 250.47 329.02 250.47 328.03 249.48 327.03 250.47 325.04 249.48 324.05 250.47 324.05 251.41 323.12 251.41 322.13 251.41 321.13 252.4 320.14 253.4 319.14 251.41 319.14 250.47 319.14 250.47 317.21 250.47 316.22 249.48 314.23 249.48 313.31 249.48 312.24 250.47 311.3 250.47 310.38"/>
    <polygon class="cls-1" points="250.47 310.38 251.41 311.3 252.4 310.38 254.39 310.38 255.46 310.38 256.38 309.31 257.38 309.31 258.31 309.31 258.31 308.39 259.37 308.39 260.31 307.39 260.31 308.39 261.36 309.31 262.29 310.38 261.36 310.38 262.29 311.3 262.29 312.24 263.29 312.24 263.29 313.31 262.29 315.29 263.29 315.29 263.29 316.22 262.29 317.21 261.36 317.21 261.36 318.15 261.36 319.14 261.36 320.14 261.36 321.13 261.36 322.13 260.31 324.05 260.31 326.04 260.31 328.03 260.31 329.02 259.37 329.96 258.31 329.02 257.38 329.02 255.46 328.03 254.39 329.02 254.39 329.96 254.39 330.95 253.4 330.95 252.4 330.95 250.47 329.96 250.47 329.02 250.47 328.03 249.48 327.03 250.47 325.04 249.48 324.05 250.47 324.05 251.41 323.12 251.41 322.13 251.41 321.13 252.4 320.14 253.4 319.14 251.41 319.14 250.47 319.14 250.47 317.21 250.47 316.22 249.48 314.23 249.48 313.31 249.48 312.24 250.47 311.3 250.47 310.38"/>
  </g>
  <g>
    <polygon class="cls-1" points="310.6 342.7 310.6 343.7 310.6 344.69 309.61 346.68 308.68 346.68 307.69 347.61 307.69 348.67 307.69 349.6 307.69 350.59 306.69 351.59 306.69 352.52 306.69 353.59 307.69 353.59 306.69 354.51 307.69 354.51 307.69 356.5 305.7 357.44 305.7 359.43 303.71 358.49 302.64 359.43 300.78 358.49 299.79 356.5 299.79 355.45 297.8 354.51 295.81 354.51 294.88 353.59 292.89 353.59 291.89 351.59 290.89 350.59 287.98 349.6 286.91 348.67 285.99 348.67 284 347.61 282.93 346.68 282.93 345.69 284 344.69 284 342.7 284.92 342.7 285.99 341.77 286.91 342.7 286.91 343.7 288.9 342.7 290.89 342.7 291.89 343.7 293.82 344.69 295.81 345.69 297.8 345.69 299.79 344.69 300.78 344.69 301.78 344.69 302.64 344.69 303.71 343.7 304.63 343.7 305.7 344.69 306.69 343.7 308.68 343.7 310.6 342.7"/>
    <polygon class="cls-1" points="310.6 342.7 310.6 343.7 310.6 344.69 309.61 346.68 308.68 346.68 307.69 347.61 307.69 348.67 307.69 349.6 307.69 350.59 306.69 351.59 306.69 352.52 306.69 353.59 307.69 353.59 306.69 354.51 307.69 354.51 307.69 356.5 305.7 357.44 305.7 359.43 303.71 358.49 302.64 359.43 300.78 358.49 299.79 356.5 299.79 355.45 297.8 354.51 295.81 354.51 294.88 353.59 292.89 353.59 291.89 351.59 290.89 350.59 287.98 349.6 286.91 348.67 285.99 348.67 284 347.61 282.93 346.68 282.93 345.69 284 344.69 284 342.7 284.92 342.7 285.99 341.77 286.91 342.7 286.91 343.7 288.9 342.7 290.89 342.7 291.89 343.7 293.82 344.69 295.81 345.69 297.8 345.69 299.79 344.69 300.78 344.69 301.78 344.69 302.64 344.69 303.71 343.7 304.63 343.7 305.7 344.69 306.69 343.7 308.68 343.7 310.6 342.7"/>
  </g>
  <g>
    <polygon class="cls-1" points="248.22 280.98 250.15 280.12 251.15 279.05 252.14 279.05 253.13 279.05 255.13 278.13 256.12 277.13 256.12 276.14 257.04 275.14 258.04 274.14 260.03 274.14 261.04 274.14 263.03 276.14 263.95 275.14 266.93 277.13 266.93 276.14 267.93 275.14 268.92 275.14 269.92 275.14 268.92 276.14 268.92 277.13 269.92 278.13 268.92 279.05 270.86 280.98 271.91 285.02 272.85 288.87 273.84 289.88 275.83 294.78 276.83 294.78 278.82 296.77 279.75 298.76 280.81 299.62 281.74 300.69 284.66 303.6 290.57 309.51 291.62 309.51 292.56 311.5 294.55 311.5 295.54 313.44 296.54 312.44 299.46 315.43 300.52 316.42 301.45 317.34 302.38 317.34 304.37 319.33 305.44 319.33 306.36 320.33 306.36 322.26 306.36 323.31 306.36 324.18 308.35 325.25 309.34 325.25 310.28 325.25 312.33 326.24 313.26 327.16 313.26 328.23 314.26 329.15 315.18 332.08 316.25 335.06 316.25 337.99 315.18 338.99 314.26 338.99 313.26 338.99 313.26 339.98 313.26 340.98 313.26 341.9 313.26 342.84 312.33 343.89 311.33 344.82 311.33 345.88 312.33 346.82 313.26 346.82 314.26 346.82 315.18 346.82 316.25 345.88 317.17 345.88 317.17 344.82 319.23 343.89 319.23 342.84 319.23 340.98 320.23 339.98 321.17 338.99 322.16 337.99 323.16 337.99 324.08 337.99 325.15 337.99 325.15 337 325.15 336.06 325.15 335.06 325.15 333.08 325.15 332.08 325.15 331.08 324.08 330.16 322.16 331.08 321.17 329.43 320.83 326.84 321.17 325.25 322.16 325.25 322.16 324.18 323.16 323.31 322.16 323.31 323.16 322.26 324.08 321.32 325.15 321.32 326.07 321.32 326.07 322.26 328.06 323.31 329.05 323.31 330.05 323.31 331.04 323.31 332.04 323.31 332.04 324.18 332.04 325.25 332.97 326.24 332.97 327.16 334.03 328.23 334.89 328.23 335.96 328.23 336.96 327.16 336.96 325.25 336.96 323.31 336.96 322.26 334.89 321.32 334.03 319.33 332.97 318.34 331.04 317.34 329.05 317.34 328.06 316.42 327.14 315.43 324.08 314.43 323.16 313.44 322.16 312.44 321.17 312.44 319.23 312.44 318.24 311.5 316.25 310.51 315.18 310.51 316.25 309.51 317.17 309.51 318.24 308.52 318.24 306.53 315.18 305.59 314.26 305.59 311.33 305.59 309.34 305.59 307.43 304.6 306.36 302.68 305.44 301.61 303.44 299.62 302.38 297.76 300.52 295.77 300.52 293.78 301.45 292.79 300.52 290.87 299.46 288.87 299.46 287.87 298.53 286.88 298.53 285.02 297.46 285.02 295.54 283.96 293.55 282.97 292.56 282.97 290.57 282.03 290.57 280.98 289.63 280.12 289.63 279.05 288.64 277.13 289.63 276.14 289.63 275.14 289.63 274.14 290.57 273.21 291.62 272.21 291.62 271.22 290.57 271.22 289.63 270.22 289.63 269.3 288.64 269.3 289.63 268.23 290.57 268.23 290.57 266.3 292.56 266.3 293.55 266.3 294.55 266.3 295.54 266.3 296.54 265.31 297.46 265.31 297.46 264.38 298.53 264.38 299.46 264.38 299.46 265.31 300.52 266.3 300.52 264.38 301.45 264.38 302.38 263.32 301.45 262.4 300.52 261.4 302.38 260.4 302.38 259.47 301.45 258.41 301.45 257.48 301.45 256.48 300.52 256.48 299.46 255.49 297.46 255.49 296.54 255.49 295.54 255.49 294.55 255.49 293.55 254.57 292.56 253.5 292.56 252.58 291.62 251.58 290.57 250.59 288.64 250.59 287.64 250.59 286.65 250.59 285.72 250.59 284.66 249.57 283.66 249.57 283.66 250.59 281.74 251.58 280.81 251.58 279.75 251.58 279.75 250.59 279.75 249.57 278.82 249.57 277.75 249.57 277.75 250.59 277.75 251.58 277.75 252.58 276.83 252.58 275.83 251.58 274.84 252.58 273.84 253.5 274.84 254.57 273.84 255.49 272.85 254.57 271.91 254.57 270.86 254.57 269.92 254.57 269.92 253.5 268.92 252.58 267.93 252.58 267.93 253.5 267.93 255.49 266.93 255.49 265.94 256.48 264.94 257.48 264.94 258.41 263.95 257.48 263.03 256.48 262.03 255.49 262.03 254.57 262.03 253.5 261.04 252.58 260.03 252.58 259.03 253.5 259.03 254.57 258.04 256.48 257.04 256.48 255.13 256.48 254.13 255.49 250.15 256.48 249.21 256.48 249.21 257.48 248.22 257.48 248.22 258.41 249.21 259.47 249.21 260.4 250.15 261.4 249.21 262.4 248.22 263.32 247.22 264.38 246.23 264.38 245.23 264.38 244.24 264.38 244.24 265.31 245.23 266.3 246.23 266.3 247.22 267.3 247.22 268.23 247.22 269.3 246.23 270.22 246.23 271.22 246.23 273.21 246.23 274.14 247.22 276.14 248.22 276.14 250.15 276.14 251.15 277.13 250.15 278.13 250.15 279.05 249.21 280.12 248.22 280.98"/>
    <polygon class="cls-1" points="248.22 280.98 250.15 280.12 251.15 279.05 252.14 279.05 253.13 279.05 255.13 278.13 256.12 277.13 256.12 276.14 257.04 275.14 258.04 274.14 260.03 274.14 261.04 274.14 263.03 276.14 263.95 275.14 266.93 277.13 266.93 276.14 267.93 275.14 268.92 275.14 269.92 275.14 268.92 276.14 268.92 277.13 269.92 278.13 268.92 279.05 270.86 280.98 271.91 285.02 272.85 288.87 273.84 289.88 275.83 294.78 276.83 294.78 278.82 296.77 279.75 298.76 280.81 299.62 281.74 300.69 284.66 303.6 290.57 309.51 291.62 309.51 292.56 311.5 294.55 311.5 295.54 313.44 296.54 312.44 299.46 315.43 300.52 316.42 301.45 317.34 302.38 317.34 304.37 319.33 305.44 319.33 306.36 320.33 306.36 322.26 306.36 323.31 306.36 324.18 308.35 325.25 309.34 325.25 310.28 325.25 312.33 326.24 313.26 327.16 313.26 328.23 314.26 329.15 315.18 332.08 316.25 335.06 316.25 337.99 315.18 338.99 314.26 338.99 313.26 338.99 313.26 339.98 313.26 340.98 313.26 341.9 313.26 342.84 312.33 343.89 311.33 344.82 311.33 345.88 312.33 346.82 313.26 346.82 314.26 346.82 315.18 346.82 316.25 345.88 317.17 345.88 317.17 344.82 319.23 343.89 319.23 342.84 319.23 340.98 320.23 339.98 321.17 338.99 322.16 337.99 323.16 337.99 324.08 337.99 325.15 337.99 325.15 337 325.15 336.06 325.15 335.06 325.15 333.08 325.15 332.08 325.15 331.08 324.08 330.16 322.16 331.08 321.17 329.43 320.83 326.84 321.17 325.25 322.16 325.25 322.16 324.18 323.16 323.31 322.16 323.31 323.16 322.26 324.08 321.32 325.15 321.32 326.07 321.32 326.07 322.26 328.06 323.31 329.05 323.31 330.05 323.31 331.04 323.31 332.04 323.31 332.04 324.18 332.04 325.25 332.97 326.24 332.97 327.16 334.03 328.23 334.89 328.23 335.96 328.23 336.96 327.16 336.96 325.25 336.96 323.31 336.96 322.26 334.89 321.32 334.03 319.33 332.97 318.34 331.04 317.34 329.05 317.34 328.06 316.42 327.14 315.43 324.08 314.43 323.16 313.44 322.16 312.44 321.17 312.44 319.23 312.44 318.24 311.5 316.25 310.51 315.18 310.51 316.25 309.51 317.17 309.51 318.24 308.52 318.24 306.53 315.18 305.59 314.26 305.59 311.33 305.59 309.34 305.59 307.43 304.6 306.36 302.68 305.44 301.61 303.44 299.62 302.38 297.76 300.52 295.77 300.52 293.78 301.45 292.79 300.52 290.87 299.46 288.87 299.46 287.87 298.53 286.88 298.53 285.02 297.46 285.02 295.54 283.96 293.55 282.97 292.56 282.97 290.57 282.03 290.57 280.98 289.63 280.12 289.63 279.05 288.64 277.13 289.63 276.14 289.63 275.14 289.63 274.14 290.57 273.21 291.62 272.21 291.62 271.22 290.57 271.22 289.63 270.22 289.63 269.3 288.64 269.3 289.63 268.23 290.57 268.23 290.57 266.3 292.56 266.3 293.55 266.3 294.55 266.3 295.54 266.3 296.54 265.31 297.46 265.31 297.46 264.38 298.53 264.38 299.46 264.38 299.46 265.31 300.52 266.3 300.52 264.38 301.45 264.38 302.38 263.32 301.45 262.4 300.52 261.4 302.38 260.4 302.38 259.47 301.45 258.41 301.45 257.48 301.45 256.48 300.52 256.48 299.46 255.49 297.46 255.49 296.54 255.49 295.54 255.49 294.55 255.49 293.55 254.57 292.56 253.5 292.56 252.58 291.62 251.58 290.57 250.59 288.64 250.59 287.64 250.59 286.65 250.59 285.72 250.59 284.66 249.57 283.66 249.57 283.66 250.59 281.74 251.58 280.81 251.58 279.75 251.58 279.75 250.59 279.75 249.57 278.82 249.57 277.75 249.57 277.75 250.59 277.75 251.58 277.75 252.58 276.83 252.58 275.83 251.58 274.84 252.58 273.84 253.5 274.84 254.57 273.84 255.49 272.85 254.57 271.91 254.57 270.86 254.57 269.92 254.57 269.92 253.5 268.92 252.58 267.93 252.58 267.93 253.5 267.93 255.49 266.93 255.49 265.94 256.48 264.94 257.48 264.94 258.41 263.95 257.48 263.03 256.48 262.03 255.49 262.03 254.57 262.03 253.5 261.04 252.58 260.03 252.58 259.03 253.5 259.03 254.57 258.04 256.48 257.04 256.48 255.13 256.48 254.13 255.49 250.15 256.48 249.21 256.48 249.21 257.48 248.22 257.48 248.22 258.41 249.21 259.47 249.21 260.4 250.15 261.4 249.21 262.4 248.22 263.32 247.22 264.38 246.23 264.38 245.23 264.38 244.24 264.38 244.24 265.31 245.23 266.3 246.23 266.3 247.22 267.3 247.22 268.23 247.22 269.3 246.23 270.22 246.23 271.22 246.23 273.21 246.23 274.14 247.22 276.14 248.22 276.14 250.15 276.14 251.15 277.13 250.15 278.13 250.15 279.05 249.21 280.12 248.22 280.98"/>
  </g>
</svg>