<?xml version="1.0" encoding="UTF-8"?>
<svg id="Layer_1" data-name="Layer 1" xmlns="http://www.w3.org/2000/svg" viewBox="0 0 600 600">
  <defs>
    <style>
      .cls-1 {
        fill: #fff;
        stroke: #fff;
      }
    </style>
  </defs>
  <g>
    <polygon class="cls-1" points="91.23 371.13 96.29 376.59 101.73 371.13 112.56 371.13 118.38 371.13 123.38 364.79 128.77 364.79 133.89 364.79 133.89 359.34 139.6 359.34 144.71 353.41 144.71 359.34 150.43 364.79 155.54 371.13 150.43 371.13 155.54 376.59 155.54 382.16 160.98 382.16 160.98 388.5 155.54 400.29 160.98 400.29 160.98 405.74 155.54 411.61 150.43 411.61 150.43 417.18 150.43 423.11 150.43 428.97 150.43 434.84 150.43 440.77 144.71 452.15 144.71 463.94 144.71 475.73 144.71 481.6 139.6 487.17 133.89 481.6 128.77 481.6 118.38 475.73 112.56 481.6 112.56 487.17 112.56 493.1 107.12 493.1 101.73 493.1 91.23 487.17 91.23 481.6 91.23 475.73 85.79 469.81 91.23 458.01 85.79 452.15 91.23 452.15 96.29 446.69 96.29 440.77 96.29 434.84 101.73 428.97 107.12 423.11 96.29 423.11 91.23 423.11 91.23 411.61 91.23 405.74 85.79 393.95 85.79 388.5 85.79 382.16 91.23 376.59 91.23 371.13"/>
    <polygon class="cls-1" points="91.23 371.13 96.29 376.59 101.73 371.13 112.56 371.13 118.38 371.13 123.38 364.79 128.77 364.79 133.89 364.79 133.89 359.34 139.6 359.34 144.71 353.41 144.71 359.34 150.43 364.79 155.54 371.13 150.43 371.13 155.54 376.59 155.54 382.16 160.98 382.16 160.98 388.5 155.54 400.29 160.98 400.29 160.98 405.74 155.54 411.61 150.43 411.61 150.43 417.18 150.43 423.11 150.43 428.97 150.43 434.84 150.43 440.77 144.71 452.15 144.71 463.94 144.71 475.73 144.71 481.6 139.6 487.17 133.89 481.6 128.77 481.6 118.38 475.73 112.56 481.6 112.56 487.17 112.56 493.1 107.12 493.1 101.73 493.1 91.23 487.17 91.23 481.6 91.23 475.73 85.79 469.81 91.23 458.01 85.79 452.15 91.23 452.15 96.29 446.69 96.29 440.77 96.29 434.84 101.73 428.97 107.12 423.11 96.29 423.11 91.23 423.11 91.23 411.61 91.23 405.74 85.79 393.95 85.79 388.5 85.79 382.16 91.23 376.59 91.23 371.13"/>
  </g>
  <g>
    <polygon class="cls-1" points="78.93 196.89 89.49 191.8 94.87 185.46 100.32 185.46 105.7 185.46 116.53 180 121.97 174.08 121.97 168.21 126.98 162.28 132.36 156.42 143.19 156.42 148.68 156.42 159.51 168.21 164.57 162.28 180.79 174.08 180.79 168.21 186.17 162.28 191.61 162.28 197 162.28 191.61 168.21 191.61 174.08 197 180 191.61 185.46 202.11 196.89 207.88 220.84 212.94 243.65 218.38 249.64 229.21 278.68 234.6 278.68 245.42 290.47 250.54 302.27 256.25 307.36 261.37 313.71 277.2 330.95 309.35 366.04 315.12 366.04 320.18 377.83 331.01 377.83 336.45 389.27 341.84 383.34 357.78 401.06 363.49 406.93 368.61 412.44 373.61 412.44 384.44 424.23 390.26 424.23 395.27 430.1 395.27 441.54 395.27 447.76 395.27 452.92 406.09 459.26 411.53 459.26 416.59 459.26 427.75 465.13 432.86 470.64 432.86 476.92 438.25 482.37 443.31 499.74 449.08 517.46 449.08 534.76 443.31 540.69 438.25 540.69 432.86 540.69 432.86 546.56 432.86 552.48 432.86 557.93 432.86 563.51 427.75 569.73 422.36 575.3 422.36 581.52 427.75 587.09 432.86 587.09 438.25 587.09 443.31 587.09 449.08 581.52 454.14 581.52 454.14 575.3 465.34 569.73 465.34 563.51 465.34 552.48 470.79 546.56 475.85 540.69 481.29 534.76 486.67 534.76 491.68 534.76 497.5 534.76 497.5 528.89 497.5 523.32 497.5 517.46 497.5 505.66 497.5 499.74 497.5 493.87 491.68 488.36 481.29 493.87 475.85 484.03 474 468.68 475.85 459.26 481.29 459.26 481.29 452.92 486.67 447.76 481.29 447.76 486.67 441.54 491.68 436.03 497.5 436.03 502.51 436.03 502.51 441.54 513.33 447.76 518.77 447.76 524.16 447.76 529.6 447.76 535.04 447.76 535.04 452.92 535.04 459.26 540.1 465.13 540.1 470.64 545.82 476.92 550.55 476.92 556.37 476.92 561.76 470.64 561.76 459.26 561.76 447.76 561.76 441.54 550.55 436.03 545.82 424.23 540.1 418.31 529.6 412.44 518.77 412.44 513.33 406.93 508.33 401.06 491.68 395.13 486.67 389.27 481.29 383.34 475.85 383.34 465.34 383.34 459.9 377.83 449.08 371.9 443.31 371.9 449.08 366.04 454.14 366.04 459.9 360.11 459.9 348.32 443.31 342.74 438.25 342.74 422.36 342.74 411.53 342.74 401.09 336.88 395.27 325.5 390.26 319.16 379.43 307.36 373.61 296.4 363.49 284.61 363.49 272.81 368.61 266.89 363.49 255.51 357.78 243.65 357.78 237.73 352.66 231.86 352.66 220.84 346.9 220.84 336.45 214.61 325.62 208.69 320.18 208.69 309.35 203.12 309.35 196.89 304.29 191.8 304.29 185.46 298.85 174.08 304.29 168.21 304.29 162.28 304.29 156.42 309.35 150.85 315.12 144.98 315.12 139.05 309.35 139.05 304.29 133.13 304.29 127.67 298.85 127.67 304.29 121.39 309.35 121.39 309.35 109.89 320.18 109.89 325.62 109.89 331.01 109.89 336.45 109.89 341.84 104.03 346.9 104.03 346.9 98.57 352.66 98.57 357.78 98.57 357.78 104.03 363.49 109.89 363.49 98.57 368.61 98.57 373.61 92.23 368.61 86.78 363.49 80.85 373.61 74.99 373.61 69.42 368.61 63.13 368.61 57.62 368.61 51.7 363.49 51.7 357.78 45.83 346.9 45.83 341.84 45.83 336.45 45.83 331.01 45.83 325.62 40.38 320.18 34.04 320.18 28.58 315.12 22.66 309.35 16.79 298.85 16.79 293.47 16.79 288.03 16.79 283.02 16.79 277.2 10.8 271.81 10.8 271.81 16.79 261.37 22.66 256.25 22.66 250.54 22.66 250.54 16.79 250.54 10.8 245.42 10.8 239.6 10.8 239.6 16.79 239.6 22.66 239.6 28.58 234.6 28.58 229.21 22.66 223.77 28.58 218.38 34.04 223.77 40.38 218.38 45.83 212.94 40.38 207.88 40.38 202.11 40.38 197 40.38 197 34.04 191.61 28.58 186.17 28.58 186.17 34.04 186.17 45.83 180.79 45.83 175.4 51.7 169.96 57.62 169.96 63.13 164.57 57.62 159.51 51.7 154.13 45.83 154.13 40.38 154.13 34.04 148.68 28.58 143.19 28.58 137.8 34.04 137.8 40.38 132.36 51.7 126.98 51.7 116.53 51.7 111.14 45.83 89.49 51.7 84.37 51.7 84.37 57.62 78.93 57.62 78.93 63.13 84.37 69.42 84.37 74.99 89.49 80.85 84.37 86.78 78.93 92.23 73.55 98.57 68.11 98.57 62.72 98.57 57.28 98.57 57.28 104.03 62.72 109.89 68.11 109.89 73.55 115.82 73.55 121.39 73.55 127.67 68.11 133.13 68.11 139.05 68.11 150.85 68.11 156.42 73.55 168.21 78.93 168.21 89.49 168.21 94.87 174.08 89.49 180 89.49 185.46 84.37 191.8 78.93 196.89"/>
    <polygon class="cls-1" points="78.93 196.89 89.49 191.8 94.87 185.46 100.32 185.46 105.7 185.46 116.53 180 121.97 174.08 121.97 168.21 126.98 162.28 132.36 156.42 143.19 156.42 148.68 156.42 159.51 168.21 164.57 162.28 180.79 174.08 180.79 168.21 186.17 162.28 191.61 162.28 197 162.28 191.61 168.21 191.61 174.08 197 180 191.61 185.46 202.11 196.89 207.88 220.84 212.94 243.65 218.38 249.64 229.21 278.68 234.6 278.68 245.42 290.47 250.54 302.27 256.25 307.36 261.37 313.71 277.2 330.95 309.35 366.04 315.12 366.04 320.18 377.83 331.01 377.83 336.45 389.27 341.84 383.34 357.78 401.06 363.49 406.93 368.61 412.44 373.61 412.44 384.44 424.23 390.26 424.23 395.27 430.1 395.27 441.54 395.27 447.76 395.27 452.92 406.09 459.26 411.53 459.26 416.59 459.26 427.75 465.13 432.86 470.64 432.86 476.92 438.25 482.37 443.31 499.74 449.08 517.46 449.08 534.76 443.31 540.69 438.25 540.69 432.86 540.69 432.86 546.56 432.86 552.48 432.86 557.93 432.86 563.51 427.75 569.73 422.36 575.3 422.36 581.52 427.75 587.09 432.86 587.09 438.25 587.09 443.31 587.09 449.08 581.52 454.14 581.52 454.14 575.3 465.34 569.73 465.34 563.51 465.34 552.48 470.79 546.56 475.85 540.69 481.29 534.76 486.67 534.76 491.68 534.76 497.5 534.76 497.5 528.89 497.5 523.32 497.5 517.46 497.5 505.66 497.5 499.74 497.5 493.87 491.68 488.36 481.29 493.87 475.85 484.03 474 468.68 475.85 459.26 481.29 459.26 481.29 452.92 486.67 447.76 481.29 447.76 486.67 441.54 491.68 436.03 497.5 436.03 502.51 436.03 502.51 441.54 513.33 447.76 518.77 447.76 524.16 447.76 529.6 447.76 535.04 447.76 535.04 452.92 535.04 459.26 540.1 465.13 540.1 470.64 545.82 476.92 550.55 476.92 556.37 476.92 561.76 470.64 561.76 459.26 561.76 447.76 561.76 441.54 550.55 436.03 545.82 424.23 540.1 418.31 529.6 412.44 518.77 412.44 513.33 406.93 508.33 401.06 491.68 395.13 486.67 389.27 481.29 383.34 475.85 383.34 465.34 383.34 459.9 377.83 449.08 371.9 443.31 371.9 449.08 366.04 454.14 366.04 459.9 360.11 459.9 348.32 443.31 342.74 438.25 342.74 422.36 342.74 411.53 342.74 401.09 336.88 395.27 325.5 390.26 319.16 379.43 307.36 373.61 296.4 363.49 284.61 363.49 272.81 368.61 266.89 363.49 255.51 357.78 243.65 357.78 237.73 352.66 231.86 352.66 220.84 346.9 220.84 336.45 214.61 325.62 208.69 320.18 208.69 309.35 203.12 309.35 196.89 304.29 191.8 304.29 185.46 298.85 174.08 304.29 168.21 304.29 162.28 304.29 156.42 309.35 150.85 315.12 144.98 315.12 139.05 309.35 139.05 304.29 133.13 304.29 127.67 298.85 127.67 304.29 121.39 309.35 121.39 309.35 109.89 320.18 109.89 325.62 109.89 331.01 109.89 336.45 109.89 341.84 104.03 346.9 104.03 346.9 98.57 352.66 98.57 357.78 98.57 357.78 104.03 363.49 109.89 363.49 98.57 368.61 98.57 373.61 92.23 368.61 86.78 363.49 80.85 373.61 74.99 373.61 69.42 368.61 63.13 368.61 57.62 368.61 51.7 363.49 51.7 357.78 45.83 346.9 45.83 341.84 45.83 336.45 45.83 331.01 45.83 325.62 40.38 320.18 34.04 320.18 28.58 315.12 22.66 309.35 16.79 298.85 16.79 293.47 16.79 288.03 16.79 283.02 16.79 277.2 10.8 271.81 10.8 271.81 16.79 261.37 22.66 256.25 22.66 250.54 22.66 250.54 16.79 250.54 10.8 245.42 10.8 239.6 10.8 239.6 16.79 239.6 22.66 239.6 28.58 234.6 28.58 229.21 22.66 223.77 28.58 218.38 34.04 223.77 40.38 218.38 45.83 212.94 40.38 207.88 40.38 202.11 40.38 197 40.38 197 34.04 191.61 28.58 186.17 28.58 186.17 34.04 186.17 45.83 180.79 45.83 175.4 51.7 169.96 57.62 169.96 63.13 164.57 57.62 159.51 51.7 154.13 45.83 154.13 40.38 154.13 34.04 148.68 28.58 143.19 28.58 137.8 34.04 137.8 40.38 132.36 51.7 126.98 51.7 116.53 51.7 111.14 45.83 89.49 51.7 84.37 51.7 84.37 57.62 78.93 57.62 78.93 63.13 84.37 69.42 84.37 74.99 89.49 80.85 84.37 86.78 78.93 92.23 73.55 98.57 68.11 98.57 62.72 98.57 57.28 98.57 57.28 104.03 62.72 109.89 68.11 109.89 73.55 115.82 73.55 121.39 73.55 127.67 68.11 133.13 68.11 139.05 68.11 150.85 68.11 156.42 73.55 168.21 78.93 168.21 89.49 168.21 94.87 174.08 89.49 180 89.49 185.46 84.37 191.8 78.93 196.89"/>
  </g>
</svg>