<?xml version="1.0" encoding="UTF-8"?>
<svg id="Layer_1" data-name="Layer 1" xmlns="http://www.w3.org/2000/svg" viewBox="0 0 600 600">
  <defs>
    <style>
      .cls-1 {
        fill: #fff;
        stroke: #fff;
      }
    </style>
  </defs>
  <polygon class="cls-1" points="73.56 336.39 73.56 338.17 75.43 338.17 75.43 339.8 77.32 338.17 79.2 338.17 79.2 341.78 79.2 345.7 75.43 345.7 77.32 349.33 79.2 349.33 80.73 349.33 80.73 351.09 82.71 354.48 82.71 358.13 84.49 362 86.48 362 88.37 362 88.37 363.91 92.02 363.91 95.9 363.91 99.4 363.91 101.29 365.79 101.29 367.53 102.92 367.53 106.68 365.79 106.68 363.91 108.57 363.91 112.22 365.79 114.36 369.42 117.73 369.42 117.73 371.29 115.99 373.07 115.99 374.96 119.51 380.47 121.53 385.99 117.73 387.88 123.4 387.88 123.4 389.77 123.4 391.65 128.91 393.14 130.68 393.14 134.45 395.01 134.45 398.78 134.45 400.42 137.97 400.42 139.95 400.42 143.47 400.42 143.47 404.43 147.24 404.43 149.13 408.08 147.24 409.82 145.36 411.73 143.47 413.63 139.95 415.5 137.97 417.26 134.45 415.5 132.58 415.5 132.58 417.26 132.58 420.91 132.58 422.78 134.45 426.66 136.19 430.18 136.19 432.31 137.97 433.83 141.84 435.47 141.84 433.83 145.36 432.31 147.24 433.83 151 432.31 152.78 432.31 154.76 430.18 156.54 430.18 160.31 432.31 163.83 430.18 165.57 430.18 167.59 432.31 169.61 435.47 171.11 437.46 171.11 441.11 171.11 444.87 171.11 446.86 174.87 446.86 180.51 446.86 182.4 444.87 184.03 444.87 184.03 446.86 186.16 450.53 189.68 450.53 189.68 452.27 191.31 457.79 191.31 459.57 193.43 459.57 197.1 459.57 198.97 459.57 200.62 461.44 202.6 459.57 204.38 461.44 206.5 461.44 208.13 459.57 211.91 456.05 215.67 456.05 215.67 457.79 217.19 459.57 222.96 463.2 226.61 461.44 226.61 459.57 228.35 461.44 230.22 463.2 233.98 461.44 233.98 463.2 237.75 463.2 237.75 461.44 241.4 461.44 243.29 461.44 243.29 463.2 244.94 465.32 244.94 463.2 248.55 463.2 252.45 465.32 255.96 465.32 257.86 463.2 259.88 463.2 259.88 468.97 257.86 470.73 254.09 472.61 252.45 474.63 254.09 476.01 257.86 476.01 257.86 477.75 255.96 479.77 254.09 481.67 254.09 483.41 255.96 483.41 259.88 489.04 259.88 494.59 257.86 500.24 254.09 500.24 248.55 500.24 246.92 501.87 244.94 507.52 239.39 509.4 239.39 518.46 241.4 516.43 243.29 516.43 244.94 514.94 244.94 518.46 246.92 518.46 250.71 514.94 252.45 513.29 255.96 513.29 255.96 516.43 255.96 518.46 252.45 520.2 248.55 522.2 246.92 524.09 248.55 525.83 250.71 527.73 246.92 529.48 243.29 527.73 241.4 527.73 239.39 529.48 237.75 529.48 237.75 531.38 239.39 533.27 244.94 533.27 246.92 535.14 246.92 536.88 252.45 538.77 250.71 538.77 248.55 540.65 246.92 538.77 246.92 542.54 248.55 544.16 246.92 546.19 244.94 544.16 243.29 542.54 241.4 544.16 241.4 548.06 239.39 549.95 241.4 551.73 241.4 555.34 237.75 555.34 235.76 560.75 235.76 562.63 239.39 564.52 243.29 566.39 244.94 566.39 248.55 566.39 250.71 568.28 250.71 570.04 254.09 570.04 255.96 568.28 257.86 570.04 261.62 570.04 261.62 571.93 265.38 573.67 269.03 573.67 270.77 575.54 272.55 577.44 276.32 577.44 281.71 584.85 283.69 581.2 285.47 581.2 289.24 581.2 291.13 579.21 292.87 575.54 296.63 577.44 300.28 579.21 302.06 579.21 309.59 579.21 311.22 581.2 313.35 581.2 316.97 581.2 320.49 581.2 326.03 579.21 327.77 579.21 329.79 581.2 335.3 581.2 338.95 581.2 340.95 581.2 342.86 582.98 340.95 584.85 344.74 584.85 348.25 584.85 350.15 582.98 353.65 581.2 357.52 582.98 359.3 582.98 361.17 581.2 361.17 579.21 362.93 579.21 364.69 579.21 364.69 582.98 368.57 581.2 368.57 579.21 372.22 579.21 375.85 581.2 375.85 582.98 375.85 584.85 377.88 586.59 381.39 584.85 383.27 584.85 388.77 586.59 394.31 586.59 396.21 586.59 399.86 590.51 403.62 592.25 407.23 592.25 408.88 592.25 412.78 590.51 414.76 586.59 412.78 584.85 416.41 584.85 418.28 584.85 418.28 581.2 420.06 577.44 418.28 577.44 414.76 575.54 410.9 573.67 408.88 571.93 403.62 568.28 399.86 566.39 396.21 562.63 396.21 555.34 394.31 553.72 392.29 551.73 392.29 548.06 390.68 544.16 388.77 544.16 388.77 542.54 385.01 540.65 379.62 536.88 379.62 538.77 377.88 540.65 375.85 538.77 372.22 536.88 374.11 529.48 374.11 527.73 375.85 525.83 375.85 522.2 377.88 520.2 375.85 518.46 375.85 513.29 377.88 509.4 377.88 505.76 379.62 505.76 381.39 507.52 385.01 503.74 387.03 501.87 388.77 500.24 390.68 496.48 392.29 498.35 394.31 494.59 392.29 489.04 388.77 489.04 387.03 489.04 383.27 487.3 385.01 483.41 387.03 481.67 388.77 481.67 387.03 479.77 381.39 476.01 374.11 470.73 370.59 466.97 368.57 468.97 364.69 468.97 364.69 470.73 362.93 472.61 359.3 470.73 357.52 468.97 357.52 465.32 357.52 463.2 353.65 461.44 350.15 461.44 348.25 463.2 348.25 457.79 348.25 454.03 352.02 448.39 346.48 446.86 344.74 444.87 346.48 442.85 346.48 437.46 344.74 435.47 342.86 432.31 344.74 428.44 346.48 428.44 346.48 422.78 344.74 422.78 348.25 417.26 352.02 419.26 353.65 422.78 357.52 424.67 359.3 426.66 362.93 422.78 362.93 420.91 361.17 417.26 359.3 411.73 355.54 409.82 359.3 408.08 362.93 408.08 362.93 406.21 362.93 404.43 362.93 396.79 366.58 396.79 368.57 395.01 370.59 391.65 374.11 387.88 375.85 384.36 375.85 382.24 375.85 380.47 377.88 380.47 379.62 382.24 381.39 384.36 385.01 382.24 387.03 378.71 388.77 374.96 392.29 373.07 394.31 373.07 398.21 376.95 398.21 374.96 399.86 371.29 401.73 371.29 405.36 371.29 407.23 373.07 410.9 374.96 416.41 374.96 418.28 376.95 421.95 376.95 423.94 376.95 425.56 378.71 425.56 374.96 423.94 373.07 423.94 371.29 425.56 371.29 435 373.07 440.51 374.96 442.4 371.29 442.4 369.42 442.4 367.53 444.02 367.53 444.02 365.79 442.4 363.91 445.92 363.91 449.68 363.91 447.79 360.11 449.68 360.11 451.7 358.13 455.32 360.11 458.99 360.11 458.99 356.35 462.35 356.35 460.86 352.72 462.35 351.09 464.25 349.33 468.26 347.44 470.02 349.33 471.66 352.72 475.43 352.72 482.84 351.09 484.58 351.09 486.6 351.09 486.6 349.33 486.6 345.7 489.97 343.67 495.76 341.78 501.26 336.39 502.91 334.52 502.91 330.74 501.26 327.12 497.52 323.47 495.76 323.47 493.89 325.1 489.97 327.12 484.58 327.12 481.06 327.12 479.19 327.12 473.53 325.1 473.53 323.47 471.66 319.6 470.02 319.6 468.26 319.6 464.25 323.47 462.35 325.1 458.99 325.1 455.32 321.58 451.7 315.79 451.7 312.18 451.7 310.65 449.68 308.78 447.79 306.88 447.79 305.14 444.02 301.25 444.02 293.96 445.92 288.46 444.02 286.57 440.51 284.7 440.51 279.04 440.51 275.39 438.63 277.15 438.63 279.04 435 286.57 431.11 292.07 425.56 293.96 420.06 295.84 416.41 297.61 410.9 290.2 410.9 284.7 414.76 282.92 420.06 281.18 421.95 282.92 423.94 284.7 425.56 282.92 425.56 279.04 425.56 277.15 427.59 273.5 429.33 270.13 427.59 266.33 423.94 264.72 423.94 262.72 421.95 262.72 420.06 264.72 416.41 264.72 414.76 264.72 412.78 266.33 405.36 270.13 401.73 270.13 399.86 264.72 396.21 258.8 394.31 257.06 396.21 255.28 398.21 255.28 398.21 249.78 396.21 244.14 392.29 238.6 394.31 234.83 396.21 233.09 398.21 233.09 398.21 231.07 396.21 227.8 396.21 225.92 396.21 220.42 396.21 218.4 392.29 218.4 392.29 214.88 390.68 211.11 388.77 209.22 387.03 205.46 385.01 205.46 385.01 203.7 383.27 201.96 381.39 203.7 379.62 198.19 375.85 190.67 374.11 183.63 372.22 179.86 366.58 176.1 366.58 170.56 364.69 168.78 361.17 164.92 361.17 161.52 359.3 157.49 357.52 155.75 355.54 153.87 353.65 146.7 352.02 144.96 348.25 143.07 348.25 141.18 344.74 139.31 342.86 137.44 340.95 128.13 338.95 128.13 338.95 124.48 337.07 120.85 337.07 122.59 335.3 118.96 335.3 115.06 333.56 113.43 331.78 109.55 329.79 106.4 326.03 106.4 326.03 104.41 326.03 102.63 329.79 102.63 331.78 100.64 331.78 93.21 331.78 87.82 331.78 84.06 333.56 84.06 335.3 78.53 335.3 70.98 331.78 61.96 333.56 58.31 337.07 54.55 338.95 50.78 337.07 45.39 337.07 39.89 335.3 36.22 331.78 34.1 333.56 30.45 331.78 30.45 329.79 28.69 327.77 28.69 326.03 32.32 324.4 32.32 322.62 28.69 320.49 26.68 318.86 26.68 316.97 25.17 316.97 21.67 315.09 21.67 311.22 21.67 309.59 23.41 307.57 23.41 305.94 23.41 304.18 19.53 302.06 17.91 304.18 16.02 304.18 13.9 302.06 13.9 294.65 13.9 287.48 17.91 283.69 19.53 278.3 19.53 274.43 19.53 276.32 21.67 276.32 26.68 274.43 28.69 276.32 30.45 278.3 32.32 279.93 36.22 283.69 36.22 285.47 38 281.71 41.63 279.93 47.15 281.71 47.15 283.69 49.16 279.93 52.67 276.32 52.67 272.55 49.16 274.43 47.15 272.55 43.39 270.77 41.63 269.03 43.39 267.14 47.15 267.14 49.16 267.14 52.67 267.14 54.55 265.38 58.31 259.88 58.31 255.96 58.31 255.96 60.2 254.09 67.22 254.09 69.11 250.71 72.88 250.71 74.65 250.71 76.64 248.55 74.65 246.92 72.88 243.29 78.53 243.29 74.65 243.29 70.98 244.94 69.11 243.29 67.22 243.29 63.97 241.4 63.97 239.39 63.97 237.75 61.96 235.76 67.22 237.75 67.22 237.75 70.98 235.76 70.98 235.76 69.11 233.98 69.11 233.98 70.98 233.98 72.88 237.75 78.53 233.98 78.53 232.24 76.64 232.24 74.65 230.22 76.64 228.35 80.16 226.61 80.16 222.96 87.82 220.95 89.6 219.19 91.34 220.95 93.21 222.96 95.1 219.19 98.87 217.19 100.64 215.67 100.64 219.19 104.41 219.19 107.78 219.19 111.43 219.19 113.43 217.19 115.06 213.78 117.08 208.13 118.96 206.5 120.85 200.62 117.08 197.1 115.06 193.43 115.06 189.68 113.43 189.68 111.43 189.68 107.78 189.68 106.4 195.32 104.41 195.32 102.63 198.97 102.63 200.62 100.64 197.1 98.87 195.32 96.99 193.43 95.1 189.68 95.1 187.92 91.34 186.16 91.34 180.51 93.21 176.9 93.21 176.9 95.1 172.98 95.1 176.9 96.99 178.64 98.87 180.51 100.64 180.51 102.63 180.51 106.4 182.4 107.78 182.4 109.55 184.03 109.55 182.4 113.43 182.4 115.06 182.4 120.85 186.16 120.85 189.68 120.85 191.31 122.59 191.31 124.48 193.43 126.48 193.43 128.13 195.32 130.15 193.43 131.89 191.31 135.54 195.32 139.31 197.1 141.18 193.43 143.07 191.31 141.18 187.92 143.07 184.03 143.07 186.16 139.31 187.92 139.31 184.03 135.54 182.4 137.44 178.64 137.44 174.87 135.54 174.87 137.44 172.98 141.18 171.11 146.7 167.59 148.33 165.57 150.11 165.57 153.87 163.83 157.49 161.93 159.51 160.31 161.52 161.93 163.14 167.59 166.91 171.11 168.78 171.11 170.56 174.87 174.32 176.9 179.86 176.9 181.6 186.16 179.86 187.92 181.6 189.68 185.37 186.16 183.63 184.03 183.63 180.51 183.63 176.9 181.6 174.87 179.86 172.98 179.86 171.11 181.6 169.61 179.86 165.57 181.6 160.31 179.86 156.54 177.84 152.78 177.84 152.78 176.1 151 176.1 145.36 176.1 139.95 174.32 139.95 177.84 137.97 179.86 137.97 181.6 141.84 183.63 143.47 185.37 149.13 187.26 149.13 185.37 151 185.37 154.76 188.77 156.54 196.17 152.78 198.19 151 199.93 147.24 198.19 143.47 198.19 141.84 198.19 137.97 194.43 136.19 192.54 134.45 190.67 132.58 194.43 130.68 192.54 125.29 190.67 125.29 187.26 123.4 187.26 123.4 185.37 123.4 183.63 121.53 181.6 121.53 179.86 119.51 176.1 117.73 174.32 117.73 172.45 119.51 170.56 119.51 166.91 117.73 164.92 117.73 163.14 115.99 161.52 114.36 159.51 108.57 159.51 106.68 159.51 105.05 159.51 102.92 157.49 105.05 157.49 105.05 155.75 102.92 155.75 101.29 155.75 101.29 153.87 97.53 153.87 95.9 151.98 93.65 148.33 95.9 144.96 93.65 144.96 92.02 143.07 93.65 143.07 95.9 143.07 97.53 143.07 101.29 146.7 102.92 148.33 105.05 148.33 105.05 146.7 108.57 148.33 112.22 150.11 114.36 150.11 115.99 150.11 117.73 151.98 121.53 151.98 125.29 151.98 130.68 153.87 132.58 151.98 134.45 150.11 136.19 151.98 136.19 153.87 139.95 153.87 143.47 153.87 147.24 153.87 151 150.11 152.78 150.11 156.54 148.33 158.28 146.7 158.28 144.96 160.31 143.07 161.93 143.07 161.93 141.18 161.93 139.31 163.83 139.31 165.57 131.89 163.83 128.13 163.83 124.48 161.93 124.48 161.93 120.85 160.31 122.59 158.28 120.85 158.28 117.08 154.76 117.08 152.78 117.08 152.78 115.06 147.24 113.43 143.47 115.06 141.84 113.43 139.95 111.43 136.19 109.55 136.19 111.43 134.45 109.55 130.68 106.4 125.29 106.4 119.51 102.63 114.36 100.64 110.35 102.63 97.53 102.63 95.9 102.63 93.65 100.64 90 102.63 90 100.64 88.37 98.87 86.48 100.64 84.49 96.99 82.71 96.99 80.73 93.21 79.2 93.21 77.32 96.99 75.43 96.99 73.56 93.21 71.82 93.21 71.82 98.87 68.02 98.87 66.14 96.99 62.38 96.99 53.72 100.38 51.07 106.4 50.33 112.32 48.44 112.32 48.44 114.95 46.32 116.95 46.32 120.36 51.71 124.86 54.47 128.87 59.11 134.9 57.1 139.55 57.86 147.59 59.75 155.5 66.39 160.89 71.82 170.18 69.15 173.58 70.42 176.21 69.79 179.47 70.42 182.85 71.04 188.89 73.05 194.16 74.43 194.16 77.08 202.05 79.84 202.05 81.71 202.83 81.71 206.71 79.08 207.46 77.08 208.84 79.84 216.75 82.47 218.15 86.48 220.78 93.76 222.65 95.9 227.42 92.51 229.44 91.13 235.48 88.37 240.13 85.84 245.39 86.48 248.02 83.11 250.02 71.82 268.6 71.82 273.5 75.43 273.5 79.2 271.62 80.73 271.62 80.73 273.5 79.2 277.15 79.2 279.04 82.71 279.04 84.49 281.18 88.37 282.92 90 281.18 93.65 281.18 95.9 281.18 97.53 282.92 99.4 282.92 99.4 286.57 97.53 286.57 93.65 286.57 90 286.57 84.49 286.57 84.49 288.46 82.71 288.46 82.71 286.57 80.73 288.46 80.73 290.2 80.73 292.07 80.73 293.96 79.2 293.96 77.32 290.2 75.43 292.07 75.43 293.96 75.43 295.84 75.43 299.49 77.32 301.25 77.32 305.14 73.56 308.78 73.56 310.65 75.43 312.18 73.56 315.79 75.43 319.6 75.43 323.47 79.2 325.1 80.73 327.12 80.73 328.86 79.2 330.74 77.32 328.86 75.43 327.12 73.56 328.86 73.56 330.74 75.43 332.63 77.32 332.63 75.43 336.39 73.56 336.39"/>
  <polygon class="cls-1" points="73.56 336.39 73.56 338.17 75.43 338.17 75.43 339.8 77.32 338.17 79.2 338.17 79.2 341.78 79.2 345.7 75.43 345.7 77.32 349.33 79.2 349.33 80.73 349.33 80.73 351.09 82.71 354.48 82.71 358.13 84.49 362 86.48 362 88.37 362 88.37 363.91 92.02 363.91 95.9 363.91 99.4 363.91 101.29 365.79 101.29 367.53 102.92 367.53 106.68 365.79 106.68 363.91 108.57 363.91 112.22 365.79 114.36 369.42 117.73 369.42 117.73 371.29 115.99 373.07 115.99 374.96 119.51 380.47 121.53 385.99 117.73 387.88 123.4 387.88 123.4 389.77 123.4 391.65 128.91 393.14 130.68 393.14 134.45 395.01 134.45 398.78 134.45 400.42 137.97 400.42 139.95 400.42 143.47 400.42 143.47 404.43 147.24 404.43 149.13 408.08 147.24 409.82 145.36 411.73 143.47 413.63 139.95 415.5 137.97 417.26 134.45 415.5 132.58 415.5 132.58 417.26 132.58 420.91 132.58 422.78 134.45 426.66 136.19 430.18 136.19 432.31 137.97 433.83 141.84 435.47 141.84 433.83 145.36 432.31 147.24 433.83 151 432.31 152.78 432.31 154.76 430.18 156.54 430.18 160.31 432.31 163.83 430.18 165.57 430.18 167.59 432.31 169.61 435.47 171.11 437.46 171.11 441.11 171.11 444.87 171.11 446.86 174.87 446.86 180.51 446.86 182.4 444.87 184.03 444.87 184.03 446.86 186.16 450.53 189.68 450.53 189.68 452.27 191.31 457.79 191.31 459.57 193.43 459.57 197.1 459.57 198.97 459.57 200.62 461.44 202.6 459.57 204.38 461.44 206.5 461.44 208.13 459.57 211.91 456.05 215.67 456.05 215.67 457.79 217.19 459.57 222.96 463.2 226.61 461.44 226.61 459.57 228.35 461.44 230.22 463.2 233.98 461.44 233.98 463.2 237.75 463.2 237.75 461.44 241.4 461.44 243.29 461.44 243.29 463.2 244.94 465.32 244.94 463.2 248.55 463.2 252.45 465.32 255.96 465.32 257.86 463.2 259.88 463.2 259.88 468.97 257.86 470.73 254.09 472.61 252.45 474.63 254.09 476.01 257.86 476.01 257.86 477.75 255.96 479.77 254.09 481.67 254.09 483.41 255.96 483.41 259.88 489.04 259.88 494.59 257.86 500.24 254.09 500.24 248.55 500.24 246.92 501.87 244.94 507.52 239.39 509.4 239.39 518.46 241.4 516.43 243.29 516.43 244.94 514.94 244.94 518.46 246.92 518.46 250.71 514.94 252.45 513.29 255.96 513.29 255.96 516.43 255.96 518.46 252.45 520.2 248.55 522.2 246.92 524.09 248.55 525.83 250.71 527.73 246.92 529.48 243.29 527.73 241.4 527.73 239.39 529.48 237.75 529.48 237.75 531.38 239.39 533.27 244.94 533.27 246.92 535.14 246.92 536.88 252.45 538.77 250.71 538.77 248.55 540.65 246.92 538.77 246.92 542.54 248.55 544.16 246.92 546.19 244.94 544.16 243.29 542.54 241.4 544.16 241.4 548.06 239.39 549.95 241.4 551.73 241.4 555.34 237.75 555.34 235.76 560.75 235.76 562.63 239.39 564.52 243.29 566.39 244.94 566.39 248.55 566.39 250.71 568.28 250.71 570.04 254.09 570.04 255.96 568.28 257.86 570.04 261.62 570.04 261.62 571.93 265.38 573.67 269.03 573.67 270.77 575.54 272.55 577.44 276.32 577.44 281.71 584.85 283.69 581.2 285.47 581.2 289.24 581.2 291.13 579.21 292.87 575.54 296.63 577.44 300.28 579.21 302.06 579.21 309.59 579.21 311.22 581.2 313.35 581.2 316.97 581.2 320.49 581.2 326.03 579.21 327.77 579.21 329.79 581.2 335.3 581.2 338.95 581.2 340.95 581.2 342.86 582.98 340.95 584.85 344.74 584.85 348.25 584.85 350.15 582.98 353.65 581.2 357.52 582.98 359.3 582.98 361.17 581.2 361.17 579.21 362.93 579.21 364.69 579.21 364.69 582.98 368.57 581.2 368.57 579.21 372.22 579.21 375.85 581.2 375.85 582.98 375.85 584.85 377.88 586.59 381.39 584.85 383.27 584.85 388.77 586.59 394.31 586.59 396.21 586.59 399.86 590.51 403.62 592.25 407.23 592.25 408.88 592.25 412.78 590.51 414.76 586.59 412.78 584.85 416.41 584.85 418.28 584.85 418.28 581.2 420.06 577.44 418.28 577.44 414.76 575.54 410.9 573.67 408.88 571.93 403.62 568.28 399.86 566.39 396.21 562.63 396.21 555.34 394.31 553.72 392.29 551.73 392.29 548.06 390.68 544.16 388.77 544.16 388.77 542.54 385.01 540.65 379.62 536.88 379.62 538.77 377.88 540.65 375.85 538.77 372.22 536.88 374.11 529.48 374.11 527.73 375.85 525.83 375.85 522.2 377.88 520.2 375.85 518.46 375.85 513.29 377.88 509.4 377.88 505.76 379.62 505.76 381.39 507.52 385.01 503.74 387.03 501.87 388.77 500.24 390.68 496.48 392.29 498.35 394.31 494.59 392.29 489.04 388.77 489.04 387.03 489.04 383.27 487.3 385.01 483.41 387.03 481.67 388.77 481.67 387.03 479.77 381.39 476.01 374.11 470.73 370.59 466.97 368.57 468.97 364.69 468.97 364.69 470.73 362.93 472.61 359.3 470.73 357.52 468.97 357.52 465.32 357.52 463.2 353.65 461.44 350.15 461.44 348.25 463.2 348.25 457.79 348.25 454.03 352.02 448.39 346.48 446.86 344.74 444.87 346.48 442.85 346.48 437.46 344.74 435.47 342.86 432.31 344.74 428.44 346.48 428.44 346.48 422.78 344.74 422.78 348.25 417.26 352.02 419.26 353.65 422.78 357.52 424.67 359.3 426.66 362.93 422.78 362.93 420.91 361.17 417.26 359.3 411.73 355.54 409.82 359.3 408.08 362.93 408.08 362.93 406.21 362.93 404.43 362.93 396.79 366.58 396.79 368.57 395.01 370.59 391.65 374.11 387.88 375.85 384.36 375.85 382.24 375.85 380.47 377.88 380.47 379.62 382.24 381.39 384.36 385.01 382.24 387.03 378.71 388.77 374.96 392.29 373.07 394.31 373.07 398.21 376.95 398.21 374.96 399.86 371.29 401.73 371.29 405.36 371.29 407.23 373.07 410.9 374.96 416.41 374.96 418.28 376.95 421.95 376.95 423.94 376.95 425.56 378.71 425.56 374.96 423.94 373.07 423.94 371.29 425.56 371.29 435 373.07 440.51 374.96 442.4 371.29 442.4 369.42 442.4 367.53 444.02 367.53 444.02 365.79 442.4 363.91 445.92 363.91 449.68 363.91 447.79 360.11 449.68 360.11 451.7 358.13 455.32 360.11 458.99 360.11 458.99 356.35 462.35 356.35 460.86 352.72 462.35 351.09 464.25 349.33 468.26 347.44 470.02 349.33 471.66 352.72 475.43 352.72 482.84 351.09 484.58 351.09 486.6 351.09 486.6 349.33 486.6 345.7 489.97 343.67 495.76 341.78 501.26 336.39 502.91 334.52 502.91 330.74 501.26 327.12 497.52 323.47 495.76 323.47 493.89 325.1 489.97 327.12 484.58 327.12 481.06 327.12 479.19 327.12 473.53 325.1 473.53 323.47 471.66 319.6 470.02 319.6 468.26 319.6 464.25 323.47 462.35 325.1 458.99 325.1 455.32 321.58 451.7 315.79 451.7 312.18 451.7 310.65 449.68 308.78 447.79 306.88 447.79 305.14 444.02 301.25 444.02 293.96 445.92 288.46 444.02 286.57 440.51 284.7 440.51 279.04 440.51 275.39 438.63 277.15 438.63 279.04 435 286.57 431.11 292.07 425.56 293.96 420.06 295.84 416.41 297.61 410.9 290.2 410.9 284.7 414.76 282.92 420.06 281.18 421.95 282.92 423.94 284.7 425.56 282.92 425.56 279.04 425.56 277.15 427.59 273.5 429.33 270.13 427.59 266.33 423.94 264.72 423.94 262.72 421.95 262.72 420.06 264.72 416.41 264.72 414.76 264.72 412.78 266.33 405.36 270.13 401.73 270.13 399.86 264.72 396.21 258.8 394.31 257.06 396.21 255.28 398.21 255.28 398.21 249.78 396.21 244.14 392.29 238.6 394.31 234.83 396.21 233.09 398.21 233.09 398.21 231.07 396.21 227.8 396.21 225.92 396.21 220.42 396.21 218.4 392.29 218.4 392.29 214.88 390.68 211.11 388.77 209.22 387.03 205.46 385.01 205.46 385.01 203.7 383.27 201.96 381.39 203.7 379.62 198.19 375.85 190.67 374.11 183.63 372.22 179.86 366.58 176.1 366.58 170.56 364.69 168.78 361.17 164.92 361.17 161.52 359.3 157.49 357.52 155.75 355.54 153.87 353.65 146.7 352.02 144.96 348.25 143.07 348.25 141.18 344.74 139.31 342.86 137.44 340.95 128.13 338.95 128.13 338.95 124.48 337.07 120.85 337.07 122.59 335.3 118.96 335.3 115.06 333.56 113.43 331.78 109.55 329.79 106.4 326.03 106.4 326.03 104.41 326.03 102.63 329.79 102.63 331.78 100.64 331.78 93.21 331.78 87.82 331.78 84.06 333.56 84.06 335.3 78.53 335.3 70.98 331.78 61.96 333.56 58.31 337.07 54.55 338.95 50.78 337.07 45.39 337.07 39.89 335.3 36.22 331.78 34.1 333.56 30.45 331.78 30.45 329.79 28.69 327.77 28.69 326.03 32.32 324.4 32.32 322.62 28.69 320.49 26.68 318.86 26.68 316.97 25.17 316.97 21.67 315.09 21.67 311.22 21.67 309.59 23.41 307.57 23.41 305.94 23.41 304.18 19.53 302.06 17.91 304.18 16.02 304.18 13.9 302.06 13.9 294.65 13.9 287.48 17.91 283.69 19.53 278.3 19.53 274.43 19.53 276.32 21.67 276.32 26.68 274.43 28.69 276.32 30.45 278.3 32.32 279.93 36.22 283.69 36.22 285.47 38 281.71 41.63 279.93 47.15 281.71 47.15 283.69 49.16 279.93 52.67 276.32 52.67 272.55 49.16 274.43 47.15 272.55 43.39 270.77 41.63 269.03 43.39 267.14 47.15 267.14 49.16 267.14 52.67 267.14 54.55 265.38 58.31 259.88 58.31 255.96 58.31 255.96 60.2 254.09 67.22 254.09 69.11 250.71 72.88 250.71 74.65 250.71 76.64 248.55 74.65 246.92 72.88 243.29 78.53 243.29 74.65 243.29 70.98 244.94 69.11 243.29 67.22 243.29 63.97 241.4 63.97 239.39 63.97 237.75 61.96 235.76 67.22 237.75 67.22 237.75 70.98 235.76 70.98 235.76 69.11 233.98 69.11 233.98 70.98 233.98 72.88 237.75 78.53 233.98 78.53 232.24 76.64 232.24 74.65 230.22 76.64 228.35 80.16 226.61 80.16 222.96 87.82 220.95 89.6 219.19 91.34 220.95 93.21 222.96 95.1 219.19 98.87 217.19 100.64 215.67 100.64 219.19 104.41 219.19 107.78 219.19 111.43 219.19 113.43 217.19 115.06 213.78 117.08 208.13 118.96 206.5 120.85 200.62 117.08 197.1 115.06 193.43 115.06 189.68 113.43 189.68 111.43 189.68 107.78 189.68 106.4 195.32 104.41 195.32 102.63 198.97 102.63 200.62 100.64 197.1 98.87 195.32 96.99 193.43 95.1 189.68 95.1 187.92 91.34 186.16 91.34 180.51 93.21 176.9 93.21 176.9 95.1 172.98 95.1 176.9 96.99 178.64 98.87 180.51 100.64 180.51 102.63 180.51 106.4 182.4 107.78 182.4 109.55 184.03 109.55 182.4 113.43 182.4 115.06 182.4 120.85 186.16 120.85 189.68 120.85 191.31 122.59 191.31 124.48 193.43 126.48 193.43 128.13 195.32 130.15 193.43 131.89 191.31 135.54 195.32 139.31 197.1 141.18 193.43 143.07 191.31 141.18 187.92 143.07 184.03 143.07 186.16 139.31 187.92 139.31 184.03 135.54 182.4 137.44 178.64 137.44 174.87 135.54 174.87 137.44 172.98 141.18 171.11 146.7 167.59 148.33 165.57 150.11 165.57 153.87 163.83 157.49 161.93 159.51 160.31 161.52 161.93 163.14 167.59 166.91 171.11 168.78 171.11 170.56 174.87 174.32 176.9 179.86 176.9 181.6 186.16 179.86 187.92 181.6 189.68 185.37 186.16 183.63 184.03 183.63 180.51 183.63 176.9 181.6 174.87 179.86 172.98 179.86 171.11 181.6 169.61 179.86 165.57 181.6 160.31 179.86 156.54 177.84 152.78 177.84 152.78 176.1 151 176.1 145.36 176.1 139.95 174.32 139.95 177.84 137.97 179.86 137.97 181.6 141.84 183.63 143.47 185.37 149.13 187.26 149.13 185.37 151 185.37 154.76 188.77 156.54 196.17 152.78 198.19 151 199.93 147.24 198.19 143.47 198.19 141.84 198.19 137.97 194.43 136.19 192.54 134.45 190.67 132.58 194.43 130.68 192.54 125.29 190.67 125.29 187.26 123.4 187.26 123.4 185.37 123.4 183.63 121.53 181.6 121.53 179.86 119.51 176.1 117.73 174.32 117.73 172.45 119.51 170.56 119.51 166.91 117.73 164.92 117.73 163.14 115.99 161.52 114.36 159.51 108.57 159.51 106.68 159.51 105.05 159.51 102.92 157.49 105.05 157.49 105.05 155.75 102.92 155.75 101.29 155.75 101.29 153.87 97.53 153.87 95.9 151.98 93.65 148.33 95.9 144.96 93.65 144.96 92.02 143.07 93.65 143.07 95.9 143.07 97.53 143.07 101.29 146.7 102.92 148.33 105.05 148.33 105.05 146.7 108.57 148.33 112.22 150.11 114.36 150.11 115.99 150.11 117.73 151.98 121.53 151.98 125.29 151.98 130.68 153.87 132.58 151.98 134.45 150.11 136.19 151.98 136.19 153.87 139.95 153.87 143.47 153.87 147.24 153.87 151 150.11 152.78 150.11 156.54 148.33 158.28 146.7 158.28 144.96 160.31 143.07 161.93 143.07 161.93 141.18 161.93 139.31 163.83 139.31 165.57 131.89 163.83 128.13 163.83 124.48 161.93 124.48 161.93 120.85 160.31 122.59 158.28 120.85 158.28 117.08 154.76 117.08 152.78 117.08 152.78 115.06 147.24 113.43 143.47 115.06 141.84 113.43 139.95 111.43 136.19 109.55 136.19 111.43 134.45 109.55 130.68 106.4 125.29 106.4 119.51 102.63 114.36 100.64 110.35 102.63 97.53 102.63 95.9 102.63 93.65 100.64 90 102.63 90 100.64 88.37 98.87 86.48 100.64 84.49 96.99 82.71 96.99 80.73 93.21 79.2 93.21 77.32 96.99 75.43 96.99 73.56 93.21 71.82 93.21 71.82 98.87 68.02 98.87 66.14 96.99 62.38 96.99 53.72 100.38 51.07 106.4 50.33 112.32 48.44 112.32 48.44 114.95 46.32 116.95 46.32 120.36 51.71 124.86 54.47 128.87 59.11 134.9 57.1 139.55 57.86 147.59 59.75 155.5 66.39 160.89 71.82 170.18 69.15 173.58 70.42 176.21 69.79 179.47 70.42 182.85 71.04 188.89 73.05 194.16 74.43 194.16 77.08 202.05 79.84 202.05 81.71 202.83 81.71 206.71 79.08 207.46 77.08 208.84 79.84 216.75 82.47 218.15 86.48 220.78 93.76 222.65 95.9 227.42 92.51 229.44 91.13 235.48 88.37 240.13 85.84 245.39 86.48 248.02 83.11 250.02 71.82 268.6 71.82 273.5 75.43 273.5 79.2 271.62 80.73 271.62 80.73 273.5 79.2 277.15 79.2 279.04 82.71 279.04 84.49 281.18 88.37 282.92 90 281.18 93.65 281.18 95.9 281.18 97.53 282.92 99.4 282.92 99.4 286.57 97.53 286.57 93.65 286.57 90 286.57 84.49 286.57 84.49 288.46 82.71 288.46 82.71 286.57 80.73 288.46 80.73 290.2 80.73 292.07 80.73 293.96 79.2 293.96 77.32 290.2 75.43 292.07 75.43 293.96 75.43 295.84 75.43 299.49 77.32 301.25 77.32 305.14 73.56 308.78 73.56 310.65 75.43 312.18 73.56 315.79 75.43 319.6 75.43 323.47 79.2 325.1 80.73 327.12 80.73 328.86 79.2 330.74 77.32 328.86 75.43 327.12 73.56 328.86 73.56 330.74 75.43 332.63 77.32 332.63 75.43 336.39 73.56 336.39"/>
</svg>