<?xml version="1.0" encoding="UTF-8"?>
<svg id="Layer_1" data-name="Layer 1" xmlns="http://www.w3.org/2000/svg" viewBox="0 0 600 600">
  <defs>
    <style>
      .cls-1 {
        fill: #5d816c;
        stroke: #fff;
      }
    </style>
  </defs>
  <polygon class="cls-1" points="199.21 322.55 199.21 323.49 200.21 323.49 200.21 324.35 201.21 323.49 202.2 323.49 202.2 325.4 202.2 327.47 200.21 327.47 201.21 329.39 202.2 329.39 203.01 329.39 203.01 330.32 204.06 332.11 204.06 334.04 205 336.09 206.05 336.09 207.04 336.09 207.04 337.1 208.98 337.1 211.02 337.1 212.88 337.1 213.88 338.09 213.88 339.01 214.74 339.01 216.73 338.09 216.73 337.1 217.73 337.1 219.66 338.09 220.79 340.01 222.57 340.01 222.57 341 221.65 341.94 221.65 342.94 223.51 345.85 224.57 348.77 222.57 349.77 225.57 349.77 225.57 350.77 225.57 351.76 228.48 352.55 229.42 352.55 231.41 353.54 231.41 355.53 231.41 356.4 233.27 356.4 234.32 356.4 236.18 356.4 236.18 358.52 238.17 358.52 239.16 360.45 238.17 361.37 237.18 362.38 236.18 363.38 234.32 364.37 233.27 365.3 231.41 364.37 230.41 364.37 230.41 365.3 230.41 367.23 230.41 368.22 231.41 370.27 232.33 372.13 232.33 373.26 233.27 374.06 235.32 374.93 235.32 374.06 237.18 373.26 238.17 374.06 240.16 373.26 241.1 373.26 242.15 372.13 243.09 372.13 245.08 373.26 246.94 372.13 247.86 372.13 248.93 373.26 249.99 374.93 250.78 375.98 250.78 377.91 250.78 379.9 250.78 380.95 252.77 380.95 255.76 380.95 256.75 379.9 257.62 379.9 257.62 380.95 258.75 382.89 260.6 382.89 260.6 383.81 261.47 386.73 261.47 387.67 262.59 387.67 264.53 387.67 265.52 387.67 266.38 388.66 267.44 387.67 268.37 388.66 269.5 388.66 270.36 387.67 272.35 385.81 274.35 385.81 274.35 386.73 275.15 387.67 278.19 389.59 280.13 388.66 280.13 387.67 281.05 388.66 282.04 389.59 284.03 388.66 284.03 389.59 286.02 389.59 286.02 388.66 287.95 388.66 288.95 388.66 288.95 389.59 289.81 390.71 289.81 389.59 291.73 389.59 293.79 390.71 295.65 390.71 296.65 389.59 297.71 389.59 297.71 392.64 296.65 393.57 294.66 394.56 293.79 395.63 294.66 396.36 296.65 396.36 296.65 397.28 295.65 398.35 294.66 399.35 294.66 400.27 295.65 400.27 297.71 403.25 297.71 406.18 296.65 409.17 294.66 409.17 291.73 409.17 290.87 410.03 289.81 413.02 286.89 414.01 286.89 418.8 287.95 417.73 288.95 417.73 289.81 416.94 289.81 418.8 290.87 418.8 292.87 416.94 293.79 416.07 295.65 416.07 295.65 417.73 295.65 418.8 293.79 419.72 291.73 420.78 290.87 421.78 291.73 422.7 292.87 423.7 290.87 424.63 288.95 423.7 287.95 423.7 286.89 424.63 286.02 424.63 286.02 425.63 286.89 426.63 289.81 426.63 290.87 427.62 290.87 428.54 293.79 429.54 292.87 429.54 291.73 430.53 290.87 429.54 290.87 431.53 291.73 432.39 290.87 433.46 289.81 432.39 288.95 431.53 287.95 432.39 287.95 434.45 286.89 435.45 287.95 436.39 287.95 438.3 286.02 438.3 284.97 441.16 284.97 442.15 286.89 443.15 288.95 444.14 289.81 444.14 291.73 444.14 292.87 445.14 292.87 446.07 294.66 446.07 295.65 445.14 296.65 446.07 298.64 446.07 298.64 447.07 300.63 447.99 302.56 447.99 303.48 448.98 304.42 449.98 306.41 449.98 309.26 453.9 310.31 451.97 311.25 451.97 313.24 451.97 314.24 450.92 315.16 448.98 317.15 449.98 319.08 450.92 320.02 450.92 324 450.92 324.86 451.97 325.99 451.97 327.9 451.97 329.76 451.97 332.69 450.92 333.61 450.92 334.68 451.97 337.59 451.97 339.52 451.97 340.58 451.97 341.59 452.91 340.58 453.9 342.58 453.9 344.44 453.9 345.44 452.91 347.29 451.97 349.34 452.91 350.28 452.91 351.27 451.97 351.27 450.92 352.2 450.92 353.13 450.92 353.13 452.91 355.18 451.97 355.18 450.92 357.11 450.92 359.03 451.97 359.03 452.91 359.03 453.9 360.1 454.82 361.96 453.9 362.95 453.9 365.86 454.82 368.79 454.82 369.79 454.82 371.72 456.89 373.71 457.81 375.62 457.81 376.49 457.81 378.55 456.89 379.6 454.82 378.55 453.9 380.47 453.9 381.46 453.9 381.46 451.97 382.4 449.98 381.46 449.98 379.6 448.98 377.56 447.99 376.49 447.07 373.71 445.14 371.72 444.14 369.79 442.15 369.79 438.3 368.79 437.44 367.72 436.39 367.72 434.45 366.87 432.39 365.86 432.39 365.86 431.53 363.87 430.53 361.02 428.54 361.02 429.54 360.1 430.53 359.03 429.54 357.11 428.54 358.11 424.63 358.11 423.7 359.03 422.7 359.03 420.78 360.1 419.72 359.03 418.8 359.03 416.07 360.1 414.01 360.1 412.09 361.02 412.09 361.96 413.02 363.87 411.02 364.94 410.03 365.86 409.17 366.87 407.18 367.72 408.17 368.79 406.18 367.72 403.25 365.86 403.25 364.94 403.25 362.95 402.33 363.87 400.27 364.94 399.35 365.86 399.35 364.94 398.35 361.96 396.36 358.11 393.57 356.25 391.58 355.18 392.64 353.13 392.64 353.13 393.57 352.2 394.56 350.28 393.57 349.34 392.64 349.34 390.71 349.34 389.59 347.29 388.66 345.44 388.66 344.44 389.59 344.44 386.73 344.44 384.74 346.43 381.76 343.5 380.95 342.58 379.9 343.5 378.83 343.5 375.98 342.58 374.93 341.59 373.26 342.58 371.21 343.5 371.21 343.5 368.22 342.58 368.22 344.44 365.3 346.43 366.36 347.29 368.22 349.34 369.22 350.28 370.27 352.2 368.22 352.2 367.23 351.27 365.3 350.28 362.38 348.29 361.37 350.28 360.45 352.2 360.45 352.2 359.46 352.2 358.52 352.2 354.48 354.13 354.48 355.18 353.54 356.25 351.76 358.11 349.77 359.03 347.91 359.03 346.79 359.03 345.85 360.1 345.85 361.02 346.79 361.96 347.91 363.87 346.79 364.94 344.92 365.86 342.94 367.72 341.94 368.79 341.94 370.85 343.99 370.85 342.94 371.72 341 372.71 341 374.63 341 375.62 341.94 377.56 342.94 380.47 342.94 381.46 343.99 383.39 343.99 384.45 343.99 385.31 344.92 385.31 342.94 384.45 341.94 384.45 341 385.31 341 390.3 341.94 393.21 342.94 394.21 341 394.21 340.01 394.21 339.01 395.07 339.01 395.07 338.09 394.21 337.1 396.07 337.1 398.06 337.1 397.06 335.09 398.06 335.09 399.12 334.04 401.04 335.09 402.97 335.09 402.97 333.1 404.76 333.1 403.97 331.18 404.76 330.32 405.75 329.39 407.88 328.39 408.81 329.39 409.68 331.18 411.67 331.18 415.59 330.32 416.51 330.32 417.58 330.32 417.58 329.39 417.58 327.47 419.36 326.4 422.42 325.4 425.33 322.55 426.2 321.56 426.2 319.56 425.33 317.65 423.34 315.72 422.42 315.72 421.43 316.58 419.36 317.65 416.51 317.65 414.65 317.65 413.66 317.65 410.67 316.58 410.67 315.72 409.68 313.67 408.81 313.67 407.88 313.67 405.75 315.72 404.76 316.58 402.97 316.58 401.04 314.72 399.12 311.66 399.12 309.75 399.12 308.94 398.06 307.95 397.06 306.95 397.06 306.03 395.07 303.97 395.07 300.12 396.07 297.21 395.07 296.21 393.21 295.22 393.21 292.23 393.21 290.3 392.22 291.23 392.22 292.23 390.3 296.21 388.24 299.12 385.31 300.12 382.4 301.11 380.47 302.05 377.56 298.13 377.56 295.22 379.6 294.28 382.4 293.36 383.39 294.28 384.45 295.22 385.31 294.28 385.31 292.23 385.31 291.23 386.38 289.3 387.3 287.52 386.38 285.51 384.45 284.66 384.45 283.6 383.39 283.6 382.4 284.66 380.47 284.66 379.6 284.66 378.55 285.51 374.63 287.52 372.71 287.52 371.72 284.66 369.79 281.53 368.79 280.61 369.79 279.67 370.85 279.67 370.85 276.76 369.79 273.78 367.72 270.85 368.79 268.86 369.79 267.94 370.85 267.94 370.85 266.87 369.79 265.14 369.79 264.15 369.79 261.24 369.79 260.17 367.72 260.17 367.72 258.31 366.87 256.32 365.86 255.32 364.94 253.33 363.87 253.33 363.87 252.4 362.95 251.48 361.96 252.4 361.02 249.49 359.03 245.51 358.11 241.79 357.11 239.8 354.13 237.81 354.13 234.88 353.13 233.94 351.27 231.9 351.27 230.1 350.28 227.97 349.34 227.05 348.29 226.06 347.29 222.27 346.43 221.35 344.44 220.35 344.44 219.35 342.58 218.36 341.59 217.37 340.58 212.45 339.52 212.45 339.52 210.52 338.53 208.6 338.53 209.52 337.59 207.6 337.59 205.54 336.67 204.68 335.73 202.63 334.68 200.96 332.69 200.96 332.69 199.91 332.69 198.97 334.68 198.97 335.73 197.92 335.73 193.99 335.73 191.14 335.73 189.15 336.67 189.15 337.59 186.23 337.59 182.24 335.73 177.47 336.67 175.54 338.53 173.55 339.52 171.56 338.53 168.71 338.53 165.8 337.59 163.86 335.73 162.74 336.67 160.81 335.73 160.81 334.68 159.88 333.61 159.88 332.69 161.8 331.83 161.8 330.89 159.88 329.76 158.82 328.9 158.82 327.9 158.02 327.9 156.17 326.91 156.17 324.86 156.17 324 157.09 322.93 157.09 322.06 157.09 321.14 155.04 320.02 154.18 321.14 153.18 321.14 152.06 320.02 152.06 316.1 152.06 312.3 154.18 310.31 155.04 307.46 155.04 305.41 155.04 306.41 156.17 306.41 158.82 305.41 159.88 306.41 160.81 307.46 161.8 308.32 163.86 310.31 163.86 311.25 164.8 309.26 166.72 308.32 169.64 309.26 169.64 310.31 170.7 308.32 172.56 306.41 172.56 304.42 170.7 305.41 169.64 304.42 167.65 303.48 166.72 302.56 167.65 301.56 169.64 301.56 170.7 301.56 172.56 301.56 173.55 300.63 175.54 297.71 175.54 295.65 175.54 295.65 176.54 294.66 180.25 294.66 181.25 292.87 183.24 292.87 184.18 292.87 185.23 291.73 184.18 290.87 183.24 288.95 186.23 288.95 184.18 288.95 182.24 289.81 181.25 288.95 180.25 288.95 178.53 287.95 178.53 286.89 178.53 286.02 177.47 284.97 180.25 286.02 180.25 286.02 182.24 284.97 182.24 284.97 181.25 284.03 181.25 284.03 182.24 284.03 183.24 286.02 186.23 284.03 186.23 283.11 185.23 283.11 184.18 282.04 185.23 281.05 187.09 280.13 187.09 278.19 191.14 277.14 192.08 276.2 193 277.14 193.99 278.19 194.99 276.2 196.98 275.15 197.92 274.35 197.92 276.2 199.91 276.2 201.69 276.2 203.62 276.2 204.68 275.15 205.54 273.35 206.61 270.36 207.6 269.5 208.6 266.38 206.61 264.53 205.54 262.59 205.54 260.6 204.68 260.6 203.62 260.6 201.69 260.6 200.96 263.59 199.91 263.59 198.97 265.52 198.97 266.38 197.92 264.53 196.98 263.59 195.99 262.59 194.99 260.6 194.99 259.68 193 258.75 193 255.76 193.99 253.84 193.99 253.84 194.99 251.78 194.99 253.84 195.99 254.77 196.98 255.76 197.92 255.76 198.97 255.76 200.96 256.75 201.69 256.75 202.63 257.62 202.63 256.75 204.68 256.75 205.54 256.75 208.6 258.75 208.6 260.6 208.6 261.47 209.52 261.47 210.52 262.59 211.58 262.59 212.45 263.59 213.52 262.59 214.44 261.47 216.37 263.59 218.36 264.53 219.35 262.59 220.35 261.47 219.35 259.68 220.35 257.62 220.35 258.75 218.36 259.68 218.36 257.62 216.37 256.75 217.37 254.77 217.37 252.77 216.37 252.77 217.37 251.78 219.35 250.78 222.27 248.93 223.13 247.86 224.07 247.86 226.06 246.94 227.97 245.94 229.04 245.08 230.1 245.94 230.96 248.93 232.95 250.78 233.94 250.78 234.88 252.77 236.87 253.84 239.8 253.84 240.72 258.75 239.8 259.68 240.72 260.6 242.71 258.75 241.79 257.62 241.79 255.76 241.79 253.84 240.72 252.77 239.8 251.78 239.8 250.78 240.72 249.99 239.8 247.86 240.72 245.08 239.8 243.09 238.73 241.1 238.73 241.1 237.81 240.16 237.81 237.18 237.81 234.32 236.87 234.32 238.73 233.27 239.8 233.27 240.72 235.32 241.79 236.18 242.71 239.16 243.71 239.16 242.71 240.16 242.71 242.15 244.51 243.09 248.42 241.1 249.49 240.16 250.41 238.17 249.49 236.18 249.49 235.32 249.49 233.27 247.5 232.33 246.5 231.41 245.51 230.41 247.5 229.42 246.5 226.57 245.51 226.57 243.71 225.57 243.71 225.57 242.71 225.57 241.79 224.57 240.72 224.57 239.8 223.51 237.81 222.57 236.87 222.57 235.88 223.51 234.88 223.51 232.95 222.57 231.9 222.57 230.96 221.65 230.1 220.79 229.04 217.73 229.04 216.73 229.04 215.87 229.04 214.74 227.97 215.87 227.97 215.87 227.05 214.74 227.05 213.88 227.05 213.88 226.06 211.89 226.06 211.02 225.06 209.84 223.13 211.02 221.35 209.84 221.35 208.98 220.35 209.84 220.35 211.02 220.35 211.89 220.35 213.88 222.27 214.74 223.13 215.87 223.13 215.87 222.27 217.73 223.13 219.66 224.07 220.79 224.07 221.65 224.07 222.57 225.06 224.57 225.06 226.57 225.06 229.42 226.06 230.41 225.06 231.41 224.07 232.33 225.06 232.33 226.06 234.32 226.06 236.18 226.06 238.17 226.06 240.16 224.07 241.1 224.07 243.09 223.13 244.01 222.27 244.01 221.35 245.08 220.35 245.94 220.35 245.94 219.35 245.94 218.36 246.94 218.36 247.86 214.44 246.94 212.45 246.94 210.52 245.94 210.52 245.94 208.6 245.08 209.52 244.01 208.6 244.01 206.61 242.15 206.61 241.1 206.61 241.1 205.54 238.17 204.68 236.18 205.54 235.32 204.68 234.32 203.62 232.33 202.63 232.33 203.62 231.41 202.63 229.42 200.96 226.57 200.96 223.51 198.97 220.79 197.92 218.66 198.97 211.89 198.97 211.02 198.97 209.84 197.92 207.91 198.97 207.91 197.92 207.04 196.98 206.05 197.92 205 195.99 204.06 195.99 203.01 193.99 202.2 193.99 201.21 195.99 200.21 195.99 199.21 193.99 198.29 193.99 198.29 196.98 196.29 196.98 195.29 195.99 193.3 195.99 188.72 197.78 187.33 200.96 186.94 204.09 185.94 204.09 185.94 205.48 184.82 206.54 184.82 208.34 187.67 210.72 189.13 212.84 191.58 216.03 190.52 218.49 190.92 222.74 191.91 226.92 195.43 229.77 198.29 234.68 196.89 236.48 197.56 237.87 197.23 239.59 197.56 241.38 197.88 244.57 198.95 247.36 199.68 247.36 201.07 251.53 202.54 251.53 203.53 251.94 203.53 253.99 202.14 254.39 201.07 255.12 202.54 259.3 203.93 260.04 206.05 261.43 209.9 262.42 211.02 264.94 209.24 266.01 208.51 269.2 207.04 271.66 205.71 274.44 206.05 275.83 204.26 276.89 198.29 286.71 198.29 289.3 200.21 289.3 202.2 288.31 203.01 288.31 203.01 289.3 202.2 291.23 202.2 292.23 204.06 292.23 205 293.36 207.04 294.28 207.91 293.36 209.84 293.36 211.02 293.36 211.89 294.28 212.88 294.28 212.88 296.21 211.89 296.21 209.84 296.21 207.91 296.21 205 296.21 205 297.21 204.06 297.21 204.06 296.21 203.01 297.21 203.01 298.13 203.01 299.12 203.01 300.12 202.2 300.12 201.21 298.13 200.21 299.12 200.21 300.12 200.21 301.11 200.21 303.04 201.21 303.97 201.21 306.03 199.21 307.95 199.21 308.94 200.21 309.75 199.21 311.66 200.21 313.67 200.21 315.72 202.2 316.58 203.01 317.65 203.01 318.57 202.2 319.56 201.21 318.57 200.21 317.65 199.21 318.57 199.21 319.56 200.21 320.56 201.21 320.56 200.21 322.55 199.21 322.55"/>
  <polygon class="cls-1" points="199.21 322.55 199.21 323.49 200.21 323.49 200.21 324.35 201.21 323.49 202.2 323.49 202.2 325.4 202.2 327.47 200.21 327.47 201.21 329.39 202.2 329.39 203.01 329.39 203.01 330.32 204.06 332.11 204.06 334.04 205 336.09 206.05 336.09 207.04 336.09 207.04 337.1 208.98 337.1 211.02 337.1 212.88 337.1 213.88 338.09 213.88 339.01 214.74 339.01 216.73 338.09 216.73 337.1 217.73 337.1 219.66 338.09 220.79 340.01 222.57 340.01 222.57 341 221.65 341.94 221.65 342.94 223.51 345.85 224.57 348.77 222.57 349.77 225.57 349.77 225.57 350.77 225.57 351.76 228.48 352.55 229.42 352.55 231.41 353.54 231.41 355.53 231.41 356.4 233.27 356.4 234.32 356.4 236.18 356.4 236.18 358.52 238.17 358.52 239.16 360.45 238.17 361.37 237.18 362.38 236.18 363.38 234.32 364.37 233.27 365.3 231.41 364.37 230.41 364.37 230.41 365.3 230.41 367.23 230.41 368.22 231.41 370.27 232.33 372.13 232.33 373.26 233.27 374.06 235.32 374.93 235.32 374.06 237.18 373.26 238.17 374.06 240.16 373.26 241.1 373.26 242.15 372.13 243.09 372.13 245.08 373.26 246.94 372.13 247.86 372.13 248.93 373.26 249.99 374.93 250.78 375.98 250.78 377.91 250.78 379.9 250.78 380.95 252.77 380.95 255.76 380.95 256.75 379.9 257.62 379.9 257.62 380.95 258.75 382.89 260.6 382.89 260.6 383.81 261.47 386.73 261.47 387.67 262.59 387.67 264.53 387.67 265.52 387.67 266.38 388.66 267.44 387.67 268.37 388.66 269.5 388.66 270.36 387.67 272.35 385.81 274.35 385.81 274.35 386.73 275.15 387.67 278.19 389.59 280.13 388.66 280.13 387.67 281.05 388.66 282.04 389.59 284.03 388.66 284.03 389.59 286.02 389.59 286.02 388.66 287.95 388.66 288.95 388.66 288.95 389.59 289.81 390.71 289.81 389.59 291.73 389.59 293.79 390.71 295.65 390.71 296.65 389.59 297.71 389.59 297.71 392.64 296.65 393.57 294.66 394.56 293.79 395.63 294.66 396.36 296.65 396.36 296.65 397.28 295.65 398.35 294.66 399.35 294.66 400.27 295.65 400.27 297.71 403.25 297.71 406.18 296.65 409.17 294.66 409.17 291.73 409.17 290.87 410.03 289.81 413.02 286.89 414.01 286.89 418.8 287.95 417.73 288.95 417.73 289.81 416.94 289.81 418.8 290.87 418.8 292.87 416.94 293.79 416.07 295.65 416.07 295.65 417.73 295.65 418.8 293.79 419.72 291.73 420.78 290.87 421.78 291.73 422.7 292.87 423.7 290.87 424.63 288.95 423.7 287.95 423.7 286.89 424.63 286.02 424.63 286.02 425.63 286.89 426.63 289.81 426.63 290.87 427.62 290.87 428.54 293.79 429.54 292.87 429.54 291.73 430.53 290.87 429.54 290.87 431.53 291.73 432.39 290.87 433.46 289.81 432.39 288.95 431.53 287.95 432.39 287.95 434.45 286.89 435.45 287.95 436.39 287.95 438.3 286.02 438.3 284.97 441.16 284.97 442.15 286.89 443.15 288.95 444.14 289.81 444.14 291.73 444.14 292.87 445.14 292.87 446.07 294.66 446.07 295.65 445.14 296.65 446.07 298.64 446.07 298.64 447.07 300.63 447.99 302.56 447.99 303.48 448.98 304.42 449.98 306.41 449.98 309.26 453.9 310.31 451.97 311.25 451.97 313.24 451.97 314.24 450.92 315.16 448.98 317.15 449.98 319.08 450.92 320.02 450.92 324 450.92 324.86 451.97 325.99 451.97 327.9 451.97 329.76 451.97 332.69 450.92 333.61 450.92 334.68 451.97 337.59 451.97 339.52 451.97 340.58 451.97 341.59 452.91 340.58 453.9 342.58 453.9 344.44 453.9 345.44 452.91 347.29 451.97 349.34 452.91 350.28 452.91 351.27 451.97 351.27 450.92 352.2 450.92 353.13 450.92 353.13 452.91 355.18 451.97 355.18 450.92 357.11 450.92 359.03 451.97 359.03 452.91 359.03 453.9 360.1 454.82 361.96 453.9 362.95 453.9 365.86 454.82 368.79 454.82 369.79 454.82 371.72 456.89 373.71 457.81 375.62 457.81 376.49 457.81 378.55 456.89 379.6 454.82 378.55 453.9 380.47 453.9 381.46 453.9 381.46 451.97 382.4 449.98 381.46 449.98 379.6 448.98 377.56 447.99 376.49 447.07 373.71 445.14 371.72 444.14 369.79 442.15 369.79 438.3 368.79 437.44 367.72 436.39 367.72 434.45 366.87 432.39 365.86 432.39 365.86 431.53 363.87 430.53 361.02 428.54 361.02 429.54 360.1 430.53 359.03 429.54 357.11 428.54 358.11 424.63 358.11 423.7 359.03 422.7 359.03 420.78 360.1 419.72 359.03 418.8 359.03 416.07 360.1 414.01 360.1 412.09 361.02 412.09 361.96 413.02 363.87 411.02 364.94 410.03 365.86 409.17 366.87 407.18 367.72 408.17 368.79 406.18 367.72 403.25 365.86 403.25 364.94 403.25 362.95 402.33 363.87 400.27 364.94 399.35 365.86 399.35 364.94 398.35 361.96 396.36 358.11 393.57 356.25 391.58 355.18 392.64 353.13 392.64 353.13 393.57 352.2 394.56 350.28 393.57 349.34 392.64 349.34 390.71 349.34 389.59 347.29 388.66 345.44 388.66 344.44 389.59 344.44 386.73 344.44 384.74 346.43 381.76 343.5 380.95 342.58 379.9 343.5 378.83 343.5 375.98 342.58 374.93 341.59 373.26 342.58 371.21 343.5 371.21 343.5 368.22 342.58 368.22 344.44 365.3 346.43 366.36 347.29 368.22 349.34 369.22 350.28 370.27 352.2 368.22 352.2 367.23 351.27 365.3 350.28 362.38 348.29 361.37 350.28 360.45 352.2 360.45 352.2 359.46 352.2 358.52 352.2 354.48 354.13 354.48 355.18 353.54 356.25 351.76 358.11 349.77 359.03 347.91 359.03 346.79 359.03 345.85 360.1 345.85 361.02 346.79 361.96 347.91 363.87 346.79 364.94 344.92 365.86 342.94 367.72 341.94 368.79 341.94 370.85 343.99 370.85 342.94 371.72 341 372.71 341 374.63 341 375.62 341.94 377.56 342.94 380.47 342.94 381.46 343.99 383.39 343.99 384.45 343.99 385.31 344.92 385.31 342.94 384.45 341.94 384.45 341 385.31 341 390.3 341.94 393.21 342.94 394.21 341 394.21 340.01 394.21 339.01 395.07 339.01 395.07 338.09 394.21 337.1 396.07 337.1 398.06 337.1 397.06 335.09 398.06 335.09 399.12 334.04 401.04 335.09 402.97 335.09 402.97 333.1 404.76 333.1 403.97 331.18 404.76 330.32 405.75 329.39 407.88 328.39 408.81 329.39 409.68 331.18 411.67 331.18 415.59 330.32 416.51 330.32 417.58 330.32 417.58 329.39 417.58 327.47 419.36 326.4 422.42 325.4 425.33 322.55 426.2 321.56 426.2 319.56 425.33 317.65 423.34 315.72 422.42 315.72 421.43 316.58 419.36 317.65 416.51 317.65 414.65 317.65 413.66 317.65 410.67 316.58 410.67 315.72 409.68 313.67 408.81 313.67 407.88 313.67 405.75 315.72 404.76 316.58 402.97 316.58 401.04 314.72 399.12 311.66 399.12 309.75 399.12 308.94 398.06 307.95 397.06 306.95 397.06 306.03 395.07 303.97 395.07 300.12 396.07 297.21 395.07 296.21 393.21 295.22 393.21 292.23 393.21 290.3 392.22 291.23 392.22 292.23 390.3 296.21 388.24 299.12 385.31 300.12 382.4 301.11 380.47 302.05 377.56 298.13 377.56 295.22 379.6 294.28 382.4 293.36 383.39 294.28 384.45 295.22 385.31 294.28 385.31 292.23 385.31 291.23 386.38 289.3 387.3 287.52 386.38 285.51 384.45 284.66 384.45 283.6 383.39 283.6 382.4 284.66 380.47 284.66 379.6 284.66 378.55 285.51 374.63 287.52 372.71 287.52 371.72 284.66 369.79 281.53 368.79 280.61 369.79 279.67 370.85 279.67 370.85 276.76 369.79 273.78 367.72 270.85 368.79 268.86 369.79 267.94 370.85 267.94 370.85 266.87 369.79 265.14 369.79 264.15 369.79 261.24 369.79 260.17 367.72 260.17 367.72 258.31 366.87 256.32 365.86 255.32 364.94 253.33 363.87 253.33 363.87 252.4 362.95 251.48 361.96 252.4 361.02 249.49 359.03 245.51 358.11 241.79 357.11 239.8 354.13 237.81 354.13 234.88 353.13 233.94 351.27 231.9 351.27 230.1 350.28 227.97 349.34 227.05 348.29 226.06 347.29 222.27 346.43 221.35 344.44 220.35 344.44 219.35 342.58 218.36 341.59 217.37 340.58 212.45 339.52 212.45 339.52 210.52 338.53 208.6 338.53 209.52 337.59 207.6 337.59 205.54 336.67 204.68 335.73 202.63 334.68 200.96 332.69 200.96 332.69 199.91 332.69 198.97 334.68 198.97 335.73 197.92 335.73 193.99 335.73 191.14 335.73 189.15 336.67 189.15 337.59 186.23 337.59 182.24 335.73 177.47 336.67 175.54 338.53 173.55 339.52 171.56 338.53 168.71 338.53 165.8 337.59 163.86 335.73 162.74 336.67 160.81 335.73 160.81 334.68 159.88 333.61 159.88 332.69 161.8 331.83 161.8 330.89 159.88 329.76 158.82 328.9 158.82 327.9 158.02 327.9 156.17 326.91 156.17 324.86 156.17 324 157.09 322.93 157.09 322.06 157.09 321.14 155.04 320.02 154.18 321.14 153.18 321.14 152.06 320.02 152.06 316.1 152.06 312.3 154.18 310.31 155.04 307.46 155.04 305.41 155.04 306.41 156.17 306.41 158.82 305.41 159.88 306.41 160.81 307.46 161.8 308.32 163.86 310.31 163.86 311.25 164.8 309.26 166.72 308.32 169.64 309.26 169.64 310.31 170.7 308.32 172.56 306.41 172.56 304.42 170.7 305.41 169.64 304.42 167.65 303.48 166.72 302.56 167.65 301.56 169.64 301.56 170.7 301.56 172.56 301.56 173.55 300.63 175.54 297.71 175.54 295.65 175.54 295.65 176.54 294.66 180.25 294.66 181.25 292.87 183.24 292.87 184.18 292.87 185.23 291.73 184.18 290.87 183.24 288.95 186.23 288.95 184.18 288.95 182.24 289.81 181.25 288.95 180.25 288.95 178.53 287.95 178.53 286.89 178.53 286.02 177.47 284.97 180.25 286.02 180.25 286.02 182.24 284.97 182.24 284.97 181.25 284.03 181.25 284.03 182.24 284.03 183.24 286.02 186.23 284.03 186.23 283.11 185.23 283.11 184.18 282.04 185.23 281.05 187.09 280.13 187.09 278.19 191.14 277.14 192.08 276.2 193 277.14 193.99 278.19 194.99 276.2 196.98 275.15 197.92 274.35 197.92 276.2 199.91 276.2 201.69 276.2 203.62 276.2 204.68 275.15 205.54 273.35 206.61 270.36 207.6 269.5 208.6 266.38 206.61 264.53 205.54 262.59 205.54 260.6 204.68 260.6 203.62 260.6 201.69 260.6 200.96 263.59 199.91 263.59 198.97 265.52 198.97 266.38 197.92 264.53 196.98 263.59 195.99 262.59 194.99 260.6 194.99 259.68 193 258.75 193 255.76 193.99 253.84 193.99 253.84 194.99 251.78 194.99 253.84 195.99 254.77 196.98 255.76 197.92 255.76 198.97 255.76 200.96 256.75 201.69 256.75 202.63 257.62 202.63 256.75 204.68 256.75 205.54 256.75 208.6 258.75 208.6 260.6 208.6 261.47 209.52 261.47 210.52 262.59 211.58 262.59 212.45 263.59 213.52 262.59 214.44 261.47 216.37 263.59 218.36 264.53 219.35 262.59 220.35 261.47 219.35 259.68 220.35 257.62 220.35 258.75 218.36 259.68 218.36 257.62 216.37 256.75 217.37 254.77 217.37 252.77 216.37 252.77 217.37 251.78 219.35 250.78 222.27 248.93 223.13 247.86 224.07 247.86 226.06 246.94 227.97 245.94 229.04 245.08 230.1 245.94 230.96 248.93 232.95 250.78 233.94 250.78 234.88 252.77 236.87 253.84 239.8 253.84 240.72 258.75 239.8 259.68 240.72 260.6 242.71 258.75 241.79 257.62 241.79 255.76 241.79 253.84 240.72 252.77 239.8 251.78 239.8 250.78 240.72 249.99 239.8 247.86 240.72 245.08 239.8 243.09 238.73 241.1 238.73 241.1 237.81 240.16 237.81 237.18 237.81 234.32 236.87 234.32 238.73 233.27 239.8 233.27 240.72 235.32 241.79 236.18 242.71 239.16 243.71 239.16 242.71 240.16 242.71 242.15 244.51 243.09 248.42 241.1 249.49 240.16 250.41 238.17 249.49 236.18 249.49 235.32 249.49 233.27 247.5 232.33 246.5 231.41 245.51 230.41 247.5 229.42 246.5 226.57 245.51 226.57 243.71 225.57 243.71 225.57 242.71 225.57 241.79 224.57 240.72 224.57 239.8 223.51 237.81 222.57 236.87 222.57 235.88 223.51 234.88 223.51 232.95 222.57 231.9 222.57 230.96 221.65 230.1 220.79 229.04 217.73 229.04 216.73 229.04 215.87 229.04 214.74 227.97 215.87 227.97 215.87 227.05 214.74 227.05 213.88 227.05 213.88 226.06 211.89 226.06 211.02 225.06 209.84 223.13 211.02 221.35 209.84 221.35 208.98 220.35 209.84 220.35 211.02 220.35 211.89 220.35 213.88 222.27 214.74 223.13 215.87 223.13 215.87 222.27 217.73 223.13 219.66 224.07 220.79 224.07 221.65 224.07 222.57 225.06 224.57 225.06 226.57 225.06 229.42 226.06 230.41 225.06 231.41 224.07 232.33 225.06 232.33 226.06 234.32 226.06 236.18 226.06 238.17 226.06 240.16 224.07 241.1 224.07 243.09 223.13 244.01 222.27 244.01 221.35 245.08 220.35 245.94 220.35 245.94 219.35 245.94 218.36 246.94 218.36 247.86 214.44 246.94 212.45 246.94 210.52 245.94 210.52 245.94 208.6 245.08 209.52 244.01 208.6 244.01 206.61 242.15 206.61 241.1 206.61 241.1 205.54 238.17 204.68 236.18 205.54 235.32 204.68 234.32 203.62 232.33 202.63 232.33 203.62 231.41 202.63 229.42 200.96 226.57 200.96 223.51 198.97 220.79 197.92 218.66 198.97 211.89 198.97 211.02 198.97 209.84 197.92 207.91 198.97 207.91 197.92 207.04 196.98 206.05 197.92 205 195.99 204.06 195.99 203.01 193.99 202.2 193.99 201.21 195.99 200.21 195.99 199.21 193.99 198.29 193.99 198.29 196.98 196.29 196.98 195.29 195.99 193.3 195.99 188.72 197.78 187.33 200.96 186.94 204.09 185.94 204.09 185.94 205.48 184.82 206.54 184.82 208.34 187.67 210.72 189.13 212.84 191.58 216.03 190.52 218.49 190.92 222.74 191.91 226.92 195.43 229.77 198.29 234.68 196.89 236.48 197.56 237.87 197.23 239.59 197.56 241.38 197.88 244.57 198.95 247.36 199.68 247.36 201.07 251.53 202.54 251.53 203.53 251.94 203.53 253.99 202.14 254.39 201.07 255.12 202.54 259.3 203.93 260.04 206.05 261.43 209.9 262.42 211.02 264.94 209.24 266.01 208.51 269.2 207.04 271.66 205.71 274.44 206.05 275.83 204.26 276.89 198.29 286.71 198.29 289.3 200.21 289.3 202.2 288.31 203.01 288.31 203.01 289.3 202.2 291.23 202.2 292.23 204.06 292.23 205 293.36 207.04 294.28 207.91 293.36 209.84 293.36 211.02 293.36 211.89 294.28 212.88 294.28 212.88 296.21 211.89 296.21 209.84 296.21 207.91 296.21 205 296.21 205 297.21 204.06 297.21 204.06 296.21 203.01 297.21 203.01 298.13 203.01 299.12 203.01 300.12 202.2 300.12 201.21 298.13 200.21 299.12 200.21 300.12 200.21 301.11 200.21 303.04 201.21 303.97 201.21 306.03 199.21 307.95 199.21 308.94 200.21 309.75 199.21 311.66 200.21 313.67 200.21 315.72 202.2 316.58 203.01 317.65 203.01 318.57 202.2 319.56 201.21 318.57 200.21 317.65 199.21 318.57 199.21 319.56 200.21 320.56 201.21 320.56 200.21 322.55 199.21 322.55"/>
</svg>