<?xml version="1.0" encoding="UTF-8"?>
<svg id="Layer_1" data-name="Layer 1" xmlns="http://www.w3.org/2000/svg" viewBox="0 0 600 463.92">
  <defs>
    <style>
      .cls-1 {
        fill: #fff;
        stroke: #fff;
      }
    </style>
  </defs>
  <path class="cls-1" d="M68.19,77.29l-.49-.06-.32.27-.7.73-1.11.88-.2.65.52.68.22.4v.11s-.01.22-.01.22l.17-.06.34-.35.44-.15.51.04.49-.26.26-.71.2-.84.3-.74-.09-.52-.52-.27ZM154.11,317.96l.55.2.43.36.54.21.95-.28.76-.66.5-.95.21-1.11-.16-1.14-.51-.89-.74-.5-.63.16-.28,1.05-.25.49h-.54s-.61-.16-.61-.16l-.43-.03-.89.81-1.18,1.88-.65.56v.5l.81-.02,2.12-.48ZM158.18,327.84l.59,1.09.12.68.46.34.5-.04.22-.11.36-.31h.7s.6.89.6.89l.77.76.82-.08.38-.76-.02-.85-.23-.69-.06-.52.05-.4-.23-.43-.44-.4-.64-.16-.78-.05-.57-.29-.39-.42-.61-.27-.82-.13-.7.07-.48.25h-.51l-.64-.17.27.66,1.29,1.35ZM163.96,304.47l-.07-.41-.16-.35-.28-.37-.58-.16-.84.07-.57-.26-.42.06-.51.34-.13.36.29.09.29-.05.19.1-.47.36.09.17h.32s.25.12.25.12l.09.34.31.04.36-.17.27.18.58.65.36.13.32-.18.28-.25.02-.78ZM158.82,319.21l-.62-.35-.78.08-.96.48-.2.63.45.83.54.75.98,1.11-.02.31.14.47.6.05.69-.39.21-.75v-.88s.39-.47.39-.47l.65.03.46-.29.16-.74-.31-1.23.88-.56-.07-.49-.32-.45-.32-.18-.42.04h-.85s-.62.59-.62.59l.13.93-.17.48-.6.02ZM67.42,65.59l-3.62,1.27-1.66-.59-.68,2.93,1.99,1.7,2.68.37,1.33-1.04-.35-.32-.77-.14-.63-.32-.02-.86.35-.17,1.66-.14,1.27.77.9-.66.12-1.21-.73-.89-1.81-.67ZM163.09,324.03l-.16-.33-.47-.65-.62-.28-.5.41-.96.41-1.63.27-.64.54.8.48,1.09.4.85.73.76.43.78-.21.39-.41-.14-1.07.22-.51.21-.21ZM152.35,324.44l-.23-.24-.31-.05-.44.06-2.15.81-1.17.25-.89-.34-.8.3-.71.47-.52.69-.21.99.12,1.04.35.84.55.53.77.09.77-.35.57-.7.36-.93.13-1.06.37-.21.82.17h.89s.57-.75.57-.75l.33.2.74.21.3.14-.02-1.68-.19-.49ZM154.55,341.66l.69-.05.59-.2.17-.92-.54-1.11-.69-1.02-.84-1.82-.54.69-.24,1.52.26,2.75.52.44.62-.28ZM152.13,330.99l-.78-.7-.55-1.02-.24-.16-.41.21-1.19,1.62-1.93.77-.45.61.59,1.32.29-.1,1.03.43.95.55v.25l.67.06.46-.04.45-.33.99-1.33.28-.58.14-.62-.08-.61-.21-.33ZM94.69,379.92l-.58-.71-.72-.24-.51.46-.32.82.16.61.74.45,1.27,1.17.32.21.14.08.29.05.21-.35-.07-.62-.93-1.93ZM115.85,332.26h-.57s-.22-.56-.22-.56l-.29-.23-.54.1-.54.4-.47.74-.44.85-.36.96-.07,1.05.42,1.14.63.27.27-.3.33-.46.44-.71.2-.56,1.04-1.2.17-.45.3-.36.58-.57-.13-.32-.75.19ZM131.7,91.09l-.52.08-.07.71.35,1.02.21.46.38-.19.62-.61.2-.89-.45-.48-.71-.09ZM167.37,84.39l.73-.39.6-.24,2.72.58,1.44-.09,1.15-1,.44-1.46-.61-.69-1.2-.18-1.28.02-1.22-.74-1.05-.27-.92.25-.8.78-.75,2.27-.15.28.27.89.64-.02ZM168.17,314.21l.24-.21.22-.82-.02-.34-.38-.15h-1.11l-.52.28-.13.76.32.71.8.03.58-.25ZM182.21,123.78l-1.15.61-.54.74-.13,1.06.15,1.03.43.27.54-.06.51.38.74-.18.57-.67.06-.5.26-.54.7-.24.29-.33-.25-.99-.68-.45-1.49-.13ZM173.75,88.02l-.07-.28-.21-1.51-.09-.35-.16-.25-.24-.14-.38.09-.37.31-.31.42-.21.4-.37,1.55-.26.65-.58.52,4.43,3.45,1.33-.08.69-.89-.13-.78-.63-.71-.81-.64-.9-.75-.4-.46-.32-.54ZM189.74,105.61l-.35-.32-.25-.4-.25-.26-.53-.27-.4-.07-.36-.02-.38-.16-.37-.21-.37-.15-.76-.76-.92.34-.45,1.84-1.33.7-1.44-.03-2.12.23-2.96,2.07-.53-.28-.39.12-.25.6.17.43.72.68.15.44-.42.41.7.18.48.22.4-.32.26-.35.39.05.16.4-.1.29.07.17.22-.08.24-.26.51.33.28,1,.25.06.6-.06.65.14,2.85-2.15.45-.8.83-.74,1.52-.66.69-.33.51.09,1.14-.27.22-.3.55-.41.36-.14-.16-.43-.28-.55ZM176.19,87.81l2.33,4.43.34.44.37.25.07.4-.54.87-.48.32-2.01.52,1.34,1.79,1.28.59,3.44-.19.24-.15.28-.28.35-.13.5.3.68.74.4.18.5-.06.66-.57.73-1.73.84-.5-.21-.36-.36-.88-.37-.44.22-.69-.22-2.96-.14-.6-.6-1.11-.15-.55.07-.5.35-1.11.07-.67-.34-1.32-.83-.84-2.1-1.06-.99-.9-.98-1.16-1.04-.75-1.2.31-1.55,1.79-.62.24-.28.89.07,3.9-.24.88.14.68ZM187.33,130.12l-.02.41,1.52-.19,3.34-2.65.33-.75-.15-.7-.16-.38-.35-.35-1.25-.52-.76-.44-.28-.65.2-.7-.21-.07-.92.81-1.07-.52-.14.16.47.54.47.84.36,1.21-.02.98-.85.96.3.48-.1.55-.7.97ZM157.86,362.3l-.44-.22-.93.14-2.25-.47-.5.32-.03.39-.26.37.03.43.46.65,1.35.56.42-.06.12-.39h.22s.27.41.27.41l.29.14.37-.31.63-.08.31-.45-.12-.57.07-.88ZM168.43,261.25l.21.53.29.3.38-.09.21-.19.52-.4.81-.9,1.2-1.03.24-.59-.14-.48-.28-.21-.24.26-.5.4-.74-.14h-.29s.12.43.12.43l-.23.1-.39.07-.24.34-.37.2-.16.19.33.21.09.13-.69.36-.13.51ZM171.19,317.03l-.82.25-.06.33-.22.22-.23.3-1.33.48-1.04.07-.36.42.4.51.77.26.97-.15.85-.42,1.94-.31.27.14,1.82,1,.17.32-.21.46-.42.47.7.26,1.28-1.18-.14-1.68-1.23-.44h-.92s-.43-.14-.43-.14l-.08-.37-.05-.47.13-.37.99-.66.57-.08.09-.47-.83-.83-1.16-.59-1.13-.27-.72.37.22.78.51.7-.02.58-.3.5ZM158.59,128.08l.17-.05.17.42.43.74.65.29.77-.12.59-.25.83-.85.26-.5-.5-.55-1.6-.84-.47-.39-.46-.77-.52-.36-.49.66-.37,1.1-.2,1.34v.29s.27.09.27.09l.46-.26ZM166.6,300.76l.6-.04.46-.46-.17-.52-.4.12h-.31s-.14-.34-.14-.34l-.41-.2-.63.33-.55.19-.61-.41-.76-.28-.83.28-.41.64.7,1.63.36.43.37.19.28.25.29.06.58.06.37.32,1.67.28.45.13-.13.39v.7s.25.47.25.47l.31.41.76.17.17.25.25-.21.25-.77-.12-.61-.32-.45-.2-.7-.39-.55-.68-.05-.61-.28-.71-.74v-.42l.25-.29ZM156.18,302.87l.16.17.24.18.62-.1,1.74.47.35-.09.24-.65.55-.84.74-.71.7-.29-.89-1.41-.28-.82.05-.8.46-.67,1.98-1.16-.99-.26-1.35.32-1.18.76-.5,1.08-.31.51-.73.35-.77.26-.45.25-.35.74-.51,2.53.28.05.17.14ZM331.42,316.47l-.63.43-1.32.47,1.03-2.69.27-.95v-1.04s-.28-.77-.28-.77l-.39-.75-.31-.93-.02-.47.42-2.95v-.77s-.3-.66-.3-.66l-1.15-.46-1,.8-.37,1.45.77,1.46-4.57,2.6-.87-.11.07,1.27.31,1.36.69,1.18,1.21.8v.49l-1.21-.08-.88-.43-.87-.55-1.07-.46h-.67s-2.45.49-2.45.49l-.85.36-.99.65-.85.84-.43.91.21,1.51.75,1.14.93,1.02.75,1.15,1.04-.85,2.34-1.03.67-.83.89.54-.35,1.4-.03,1.23-.46.87-1.63.33-.41.41-.05.92.3.91.6.42,2.02-1.03-.32,1.16-.06.94.36.7.92.44-2.24,1.61,1.43-.09,4.73-1.47,1.02-.89-.53-.61-1.08-.45-.77-.59.37-1.03,1.13-1.32.21-.6.2-1.11.75.54,1.22.65,1.14.39.51-.2-.18-1.23-.84-1.79-.36-1.06.89.38.57-.55.3-1,.07-.94-.06-1.33-.22-.16ZM300.81,336.73l-.3-.03v-.49s-2.08-1.1-2.08-1.1l-.44.1-.27.25-.02.43-.17.36-.03.4.29.22.25.05.28.29.07.41-.23.5.07.3.38-.08.35-.32.69-.35.51-.08.62.14.42-.06.29-.19.62-.77.09-.43-.16-.17-1.22.61ZM298.36,323.67l.2-.24-.05-.57.33-.17h.69l.27-.43-.37-.61-.98-1.09-.82-.19-.88.66-.45.73-.08.43.41.62.72.5.39.18.61.17ZM286.88,322.07l-2.2-.36-1.51.32-1.61.64-1.26.22-.78-1.4-1.41-.47-.55-.39-.37-.72-.3-1.39-.27-.55,1.47-1.53.58-1,.09-1.04-.51-.99-.87-.77-.99-.31-.85.42-1.05.82-.39.5-.3,1.75-.39.26-.52.1-.5.36-.75,1.42-.17,1.4.24,1.41,1.8,5.85.14,1,.02.69.09.59.4.71.6.39.97.34.93-.03.39-.7.22-1.65.58-1.34.86-.59,1.08.58.73,3.2.65,1.53,1.07-.14,1.21-.56,1.03.45.96.58,1-.19.28-.8-.55-1.61.52-.29.37-.41.06-.93-.19-1.63.2-1.03.36-.84.2-.8-.33-.9-.45-.17ZM287.54,319.85l-.38-.52-.38-1.32-.15-.95-.32-.18-.33-.32-.19-.55-.63.11-.76,1.21-.38.87-.35-.24-.07-.73.23-.87.46-1.28-.33-.88-1.04.28-.6.77-.57,1.09-.9,1.15-.45,1.22.58,1.13.98.59.95.11,1.61-.52,2.95.78.69-.18-.36-.54-.27-.21ZM268.59,346.6l-.52-.09-.03-.28.12-.55-.99-1.92-.86-.63-1.19.16-1.11.53-.35.68.46.56.54.29.31.48.3.68.63.49.95.32.61.33.21.32.14.14.53-.02.82-.28.14-.49-.28-.46-.44-.24ZM270.27,334.84l-.46-1.16-.6-.94-.68-.17.8-.73.33-.87-.17-.74-.7-.31-.82.09-.7.33-.13.64.99,1.05-.5,2.01-.22.47-1.22.92-.29.38-.39,1.45.28.91,2.31,2.35.74.39.74-.06.65-.67.47-1.09.2-1.13-.06-1.15-.55-1.98ZM535.12,126.77l-.07.13.1.06.06-.12-.09-.07ZM471.76,102.2l-1.56.58-2.32.39-1.18.78-.55,1.25.33,1.67,1.07,1.29,1.63.97,1.66.32,1.25-.62.76-1.54.71-2.32.08-2.08-1.12-.84-.77.16ZM311.4,321.88l-.64-.62-1.14.07-1,.25-.62.25-.45-.22-.76-.58-1.02-.41-.76.2-.53.57.14.52.45.02.74-.24,1.19.4.62.5-.12.6-.62.5.3.24.84.13.18.51-.14.52.55.02.25.62.47.6h1.09s.67-.84.67-.84l.27-.48-.54-.44-.54-.1v-.2s.24-.16.24-.16l.66.27.29-.48-.24-.38.35-.64-.17-1.01ZM176.59,180.32l-.12-.5-.87-1.39-1.24.43-1.15,1.07-.57.74.67,2.26.3,1.79.25,2.97-.36,1.94.69-.36.3.73.89-1.06.45.5-1.18,1.63-.21,1.21.73.35,1.56-.98-.27.72-.5.46-.31.43.17,1.21.94.15,2.91-.17.62.29-.37-1.26-.89-1.36-.49-1.5-.18-.77.07-.4.07-.51-.92-.51-.45-.09v-.5h1.37l-.58-1-.74-.44-.35-.58.29-.66-.17-.79-1.1-2.49-.06-.56.5-.4.28-.59ZM250.75,349.52l-.6.03-.59.59-.31.07v-.21s-.92-.23-.92-.23l-.5-.28-.46-.2-.32.18.12.35.05.44-.23.59.43.33.72.45-.17.32.3.4.66.21.45.46.02.68.37.21,1.04-.32,1.2-.77.5-.53v-.46l-.3-.78-1.43-1.54ZM385.71,223.24l-.24-1.38-1.07-.86-.8,1.33-4.15,4.53-1.68,1.31-1.33-.23-1.04-1.27-.99-1.1-1.37-1.27.06-1.1,1.09-.89.65-.21.68-.32.53-.71.24-1.26-.36-.46-.52-.36-.49-2.1-.38-2.74-.35-.41-.44-.3-.39-.73-.23-1.32.28-9.75.35-1.6.79-1.37,2.02-2.44.4-1.48.4-6.91-.36-3.35-.89-3.32-.33-3.19-.02-.13,1.2-3.33,1.48-2.82.68-3.1-.18-3.35-2.17-6.85-.6-3.36-.58-7.28-.47-2.55.02-.79.39-.88.6-.9.38-.94-.25-.98-3.35-4.66-1.23-3.4-.89-6.18-1-2.84-3.16-3.46-.45-1.26-.24-1.31-.61-1.23-1.79-2.24-2.98-5.83-.85-.88-1.02-.61-.85-1.44-1.92-6.2-.67-1.38-2.31-1.28-.4-1.71-.02-2.02-.17-1.68-3.39-3.98-.71-.59-5.07-5.59-4.22-6.14-10.89-15.53-.9-2.44-2.34-2.89-.74-1.3-4.5-11.93-5.77-11.38-1.56-3.99-.6-2.64-3.06-6.01-1.95-3.85-3.69,1.92-1.78,1.41-.41,1.08.14,1.45.55,2.85-.28,2.95-.85,2.57-1.27,2.3-1.51,2.16-3.47,3.63-4.18,2.69-4.49,1.59-4.44.35-6.86-.4-4.32.91-.9-.23-.81-.81-.83-1.21-.53-.36-12.61,1.1-3.84,1.16-1.96.18-6.21-1.88-8.05.7-2.08-.22-4.21.46-4.39,1.77-4.17,2.6-3.59,2.95-.38.49-.81,1.03-.89,2.19-1.33,3.28-1.07,1.24-2.52,1.95-1.14,1.16-5.59,8.51-2.6,2.07-1.68.64-1.21.13-.79.58-.35,1.97.45,7.09h0s.99-.68.99-.68l.64-.09.49.61-.68,1.32-.3,1.65.07.94h0l.06.7.61,1.29.28,1.23-.32,1.75-1.09,2.92,3.77,2.71,1.22,1.26-1.58-.09-2.54-1.07-2.01-1.68.02-1.93.36-1.06.1-1.56-.14-1.52-.32-.97-.86-.58-.85.17-.96.44-1.14.25-3.61-1.29-.86.16-.25,1.11.95,6.76.7,2.59.27,1.66v1.11s.76.73.76.73l.67,1.16.59.95.51,1.22.31.72-.31,1.98.14,1.5.35.82,1.35-.14.24-.71.88.24-.14.69-.57.28-1.87.57-.63,1.1.21,1.18-.15,1.5,1.07.57,1.18.63.54.92-.87,1.3-.68,1.49,1.65,1.26,1.6-2.03,3.41.43.2.55-.87.87-1.27,1.83.15.95,2.85,2.15,2.04.65,1.24.25.77.04.8-.25.97.18.41.62.91-.03.61.18.51.33.4.5.3.67-1.44.21-1.02-.62-.91-.12-1.1,1.64-.32,1.75-.32.77-.68.27-.62-.3-.32-.69-.08-.89.08-.91-1,.5-.85-.28-.87-.54-1.04-.28-1.27.32-.73.04-.48-.36-.41.39-.2.13-.29.08.53,1.02.43,1.1.46.88.58.36,1.75-.24.21.28-.8,1.09-.66.37-.91.3-.8.47-.35.83.21,1.11.6.19,1.9-.44-.96,1.36-.4.73-.02.75.43.42.7.02.75-.27.6-.48,2.33-2.52,1.26-.9,1.56-.79v1l.33.65.62.36.84.17,1.35-1.18.91-.49.41.29-.1,1.51-.36.54-1.77.48-1.66.03-1.11.42-1.04.5-.91,1.23-.75,1.38.13,1.4-.24,1.09.29.81-.02.93,3.01.9,1.26-.32,1.25-.26.62.62.62-.33.3-1.42.11-1.32.36-1.29.57-.76.74.33-.47,2.15.65,1.59.89,1.38.28,1.55-.55-.44-.65-.22-.69-.04-.74.1.62.47.27.13v.51l-3.91.43.88,2.17,2.32,2.28,2.57,1.49,2.17.31,1.51-.5.47-.57-.21-2.52.6-.83,3.9-1.09-.16.94-.44.29-.58.09-.91.5h-.33s-.35.03-.35.03l-.36.33.13.17.6.64.13.35-.45,1.97-.7.8-.98.47-2.09,1.59-2.85,1.14-1.2.2-1.33.6.67,1.37,2.24,2.48-1.38-.17-1.33-.39.54,2.04-.32,1.16-.65,1.08-.38,1.82-.54-.25-.38-.32-.25-.47-.2-.68,1.07-.33.19-.72-.55-2.53-.58-.97-.13-.67.06-.64.3-1.11.08-.5-.15-2.32-.28-1.2-.46-.67-.67.13-1.22,1.58-.78.52,1.03-3.52-.1-1.74-1.37-1.41-1.14-.74-1.58-.42-1.25-.46-1.14-.14h-1s-1.08.51-1.08.51l-.6,1.14-.41.7-.27.66.25,2-.18.68-.29.6-.71.5.24-1.34-.08-.76-.65-1.24-.13-.58.64-.75.3-1.1-.65-1.11-.96-.52-.99-.68-.51-.52-1.26-.86-1.31-.93-.93-.82-1.05-.5-1.19.03.14,1.27.61,1.88,1.35,1.26,1.25.6.92.23.45.53-.06.56-.61.36h-.82l-.67-.31-.55-.49-1.04-1.3-.67-.63-.55-.1-.23.88.29.23,4,4.22.51.82.57,1.66.46.62v.51l-.92-.04-.5-.54-.34-.82-.46-.88-1.13-1.25-.8-.54-.36.45-.28,1.92-1.19,3.89-.27,2.03-.22.38-.47-.28-.48-.74-.22-1.05v-3.63l.2-.5.59-.7.12-.21-.07-.55-.3-.52-.08-.57-.26-.68h-.65s-.74.39-.74.39l-.58.58-.4-1.32.38-.92.62-.71.33-.66-.5-1.08-1.15-.4-2.41.04v.61l.29.61-.24.25-.55-.11-.62-.48-.64-.36-.7.11-.65.46-.48.62,1.2-.09,1,.31.46.75-.43,1.26-.95-.68-.31.27.21.75.64.77.84.34,1.71.03.58.19.51,1.35-.24,1.83-.92,1.5-1.58.36v.51l1.27.52.52.08v.51l-1.32.33-.67.28-.28.28-.3.88-.65-.41-1.05-1.34-.7.81.49,1.82,1.35,2.91-1.88-1.29-.83.02-1.1,1.01-.47.22-.35-.44-.21-.74-.07-.7.25-.21,1.16-.77.36-.39-.05-.32-.42-1.19-.02-.75.4-.7.63-.68.41-.76-.82-2.14-.29-1.78-.05-1.76.2-1.13-1.52.47-.3,2.01.16,2.46-.11,1.83-.43.73-.43.3-1.63.03-.9-.19-.16-.55.41-1.99-1.59.58-1.13.91-.09,1.13,1.48,1.22-1.07,1.73.12,1.01,1.03.46,1.67.12-.5.96-.76.2-1.87-.56.7,1.25.68.96-.55-.12-.5-.17-.44-.03-.35.32-.45-.66-.35-.67-.29-.71-.2-.78-.27,1.04-.33.74-1.67,2.12-.18.55.14,1.98-.08,2.03.25.66.76-.69.37-.94.2-2.02.33-.97.84.69,1.05.31,1,.49.7,1.27v1.22s-.67.47-.67.47l-2.7-.02-.31.33.09.75.28.76.2.38.78.46.67-.05.67-.26.75-.14,1.28-.47,1.73-2.18,1.2-.68.5,2.22-.58,1.58,1.93,3.14-.9,1.98.22.47.15.55.08.61v.59s.55-.84.55-.84l.72-.69.84-.48.99-.2-1.09-1.49-.09-.67.71-.6-.44-1.34-1.19-1.9-.61-1.24,1.49-.02.47-.95.16-1.3.59-1.06,1.06-.18.7.84-.23,2.06.75.36-.39,1.58-.31,4.38,1.26.82,1.27.06,1.2.94.6-.74.69-1.82-.29-2.12.48-1.58-.08-1.37-.46-.71-.05-.57.21-.57,1.04-.44.92-1.01.55-.46.2.71.31.5.88,1-1.53.24-.5,1,.31,1.36,1.57.29.62,1.13-.92.74-.66.95,1.05,1.03.77.16.53.7-.39.87-.1.99-1.36-.05-1.3.61-.9.05.02.34.4.59.32,1.39.06.75-.29.67.3.75.31.07.52.33.57.53,1.25-.45.21.44-.62.98-1.36,1.59-.05.91.38,1.53.59,1.49.65.78,1.04-.2,1.41-2.1.92-.52h3.82l-1.28.68-2.69.74-1.26,1.83-1.35.41-1.18.65.97,1.81h-.84v.55l.52.46.77.94.45.31,2.16.02,1.03.27.41,1.07-.6.84-2.91.7-.99.91,1,.53,2.78.85.71.88-.96.64-.78,1.66-1.37,3.76.4.57.5.53.37.21.52-.31.44.1.73.54.55.62.97,1.6-2.75-.79-1.96.62-2.22,1.12-.26,2.35.45.42.22-.53.39-1.52,1.28-.2,1.48.95.03.88h.41s.88-.5.88-.5l1.14.5,1.5,2.57.82.27.89.37.43.5-.91.73.59.98,1.11,1.44.54.88.33,1.01.1.74.33.56,1,.48,1.36-.6,1.45-.25,1.22-.59,1.11-1.06,1.33-.91,1.34-.41,3.83-1.18-.12,1.16-1.29.92-3.06,1.22-2.41,1.82-1.37.7-1.12-.33-1.05.64-3.27.19-3.22.4-5.92.64.28,2.43,2.89-.45,1.94.66.61.53.2,1.9.02,1.38,3.13.24,3.16.21,1.61-.08,4.8-1.94.21-.16.77.28.7.61.33.59-.29.26-.9.15-.31.41-.15.59-.39.72-.59.31-.81.06-3.65-.24-.6.14-.53.44-.55.75-.17.69.61.3,1.16.87,1.42.96,1.25.62.6.44.88.69-.09.94-.23.91-.26.65-.7-1.2-1.04-.26-1.45-1.12-2.3-.28-2.34.24-.39.34-.75.47-1,.59-.28,2.39-1.82,2.54-2.41,1.32-1.96,1.14-1.23,1.41-1.34,1.31-1.52.76-.06.86-.2,2.15,3.23,2.01,9.28-1.51.98.57.61,1.36.85,2.99-.88-.29-1.2-1.48-1.17-1.31-1.3.33-.92,1.32-.96.77-2.08.11-2.42.5-2.13.76-1.49,2.14-1.78,4.13-1.12,2.33-.48,1.89.32.85,2.16,2.45.16.58-.59.04-1.15-.35-.96-1.24-.38-.4-1.44,2.19-.57,1.22-.23,1.25.12.55.21.5.1.52-.22.61-.43.46-.42.32-.39.42-.31.72.51.1.24.16.21.18.38.15-1.18.29-1.36.08-1.2.27-.73.9,1.87-.02.86-.14.84-.33-.14,1.1.35.63.68.49-.14.73-.31.43-.3.32-.14.39.48,1.15,2.15,2.5.67,1.78.44.44.52.3,1.22.31.32.51.03,1.42-.17,1.26-1.65,3.72-.69-.71-.47-.81-.1-.87.38-.91-.5-.28-1.11-.04-.63-.22-.77-.47-.24-.26-.07-.45-.25-1.05-.21-.13-.3.11h-.26l-.13-.47.08-.46.3-.74.17-1.47-.08-.76-.47-.91-.52,1.82-.46.91-.83.53-.52-1.26-1.19-.6-1.34.18-.93,1.09.23,1.32,1.67,2.23-.61.85.93,1.2.92-.03.45-1.02-.52-1.78,1.26.43,1.14,1.05,1.87,2.57.48,1.67-1.82,1.81.18,1.71-1.63-.35-.74-.04-.75.39.32.72.4.59.48.5.58.41-.26.12-.62.43.82.54,1.14.37,1.18-.08.91-.83v-.74s-.33-.91-.33-.91l-.09-.78.63-.32.5-.18.35-.39.44-.38.75-.13,1.63.39-.38.7-1.23.84-.91.83-.13,1.31.39,1.56.72,1.33.81.63-.84.74-.22.58.17,1.19-.03.61-.1.54-.28.57-.48.73-1.34,1.33-.46.78.22.84.69.35,1.41-.46h.9s.1-.8.1-.8l.55-.26,1.74.38.85-.27.58-.5.6-.26.89.45-.28.42-.35.82-.27.42.4.31v.19l1.3-.12.68-.92.73-2.7.78-1.56.11-.1-.1-.72-.43-1.33.08-.66.71-.99.98-.46.9.27.52,1.17-.02.82-.29.48-.35.39-.23.52v.83l.16.54.09.52-.25.77,3.39-.3,1.48.27.98,1.11-.68-.03-.54.12-1.02.5.46,1.01-1.54-.12-2.99-.89-1.6.4-.78,1.02-.12,1.39.28,1.52-.3-.12-.17-.14-.16-.16-.25-.17-1,.2-2.99-2.2-2.49,1.11-1.94-.31-.92.37-.94,1.17.21.76,1.5.5,1.65-.44,1.34.86,1.93-.12,1.63.32,1.19.56,2.13,2.73,1.42,1.03-.48.59,1.97,1.72,1.11.71,1.38.23-1.37.35-1.88-.6-1.56-.85-1.21-.69-.81.17,1.36,1.81-.28.35-.69-.45-.91-.65-.7-.69-1.18-.46-.85-.55-.39-.54-.68-.44-.16-.47.03-.31-.02-.32.17-1.03-.36-.63-2.73-.59-1.79.17.38,1.38-.51,1.13.21,1.98.42,1.48.67-.06.43-1.12.85-.15-.23,1.82.84.83.62.99,1.35.29.38.2.74-.11-.53,1.37-.75.06-1.38-.95-3.24-.54-.81-.48-1.36-3.78-.21-.87-.12-.81.2-.79.62-.82-1.99-2.97-.43-.95-.39-.26-.51-.14-.48-.05-.53.26-.1.62.06.73-.07.6-.68,1.76-.58,2.54.12,2.28,1.35.99,1.76.86.28.81-.47.38h-.66s-.26-.38-.26-.38l-.26.44-.26.1-.12.23.23.8.17.08,1.35,1.29.41.16.53-.11.46-.26.18-.31.2-.51.4.39.32.64-.02.25,1.55.77.57.73.12,1.25.97-.38.76-.13,1.4-.03.65.11.55.02.58-.13.23-.71.26-.54.4-.36.44.02.84.52h.54s.42-.27.42-.27l.6-.73.29-.12.8.44-.02.74-.64.84-1.04.72.62.21.51.33.4.47.3.61-1.63.04-1.74.33-1.3.96-.29,1.9,1.05-.35.12.52-.24.98-.02,1.01-.15.12-.2.39.1.43.69.19.98.12.47.17.32.26.25.8-.17.81-.92,1.67-.29.19-.29-.09-.22.04-.14,1.24-.1.32-.35.46v.49l1.71-.09.82.16.6.51.12.89-.61,1.89.09.93.75.15,3.01-.99,1.6.34v-.91l.13-.76,1.59-5.32.25-.51.73-.61,1.94-.49.52-.34.33-.78v-.59s.18-.36.18-.36l.85-.13.32.09.61.36.39.08.22-.17.07-.39-.06-.38-.23-.18-.97-.39.93-.86,2.51-1.44-1.47-1.86-.26-.96,2.02-.67-.02-.66-.41-.95-.27-1.1.22-.75.54-.85.71-.67.72-.2.74.55.43,1.06.08,1.22-.36.99.25,1.54-.28,4.01.51,1.51.58.35,2.51.73,1.82,1.3.84.27-.36-.92-.03-.85.26-.77.58-.69,1.74.87.61-.54-.12-3.26,3.6-3.54-.48-1.03.3-.84.61-.71.43-.65.13-.92-.03-.87.12-.65.5-.25.8-.21.83-.48,1.29-.98,2.39-1.4.53-.44,1.18-1.55.72-.66.77-.27,1.64.34.8.04.95-.38.91-1.11,1.32-3.38.93-1.45,1.6,2.59,1.18.99,1.43-.61,1.23-.96.46.64.36,1.41.91,1.35-.51.82-.9,1.92-.43.55-1,.37-.75-.24-.57-.72-.39-1.03.35-.76-.12-.62-.44-.48-.68-.36-1.88,2.08-.36.63.06,1.2.39.61.51.52.38.91.02,2.34-.96,1.32-1.6.58-1.92.13.96-2.31.32-1.28.06-1.31-.95.46-.47.58-.81,1.71-1.33,1.74-.46.42-1.45.86-.41.68.08,1.16.6,1.14.88.46,1.03.2,1.07.36-.2-.31-.25-.81,2.58-1.35.75-.17,2.46,2.64.92,1.89,2.67,3.52h1.81s-.84-.92-.84-.92l-.2-1.37,1.88-1.43,1.2.55,1.11-1.56,3.09-2.84-1.36-1.15-2.48.65-.55-.36-.91-.2-.79-1.64-.15-.25.37-.6.9-.64,1.05-.48.84-.16.96.31,2.98,1.85.81-.2,1.28.06.67-.57.6-.59-.19-1.65-.37-.88-2.8-1.07.48-.11h1.15s.67.11.67.11l-1.4-2-2.04-1.31-1.89-1.68-.91-3.15.18-.21.36-.09.13-.28-.46-.75-.65-.28-1.23.49-.55-.45.24-1.09,1.4-.78,2.78-.88v-.5l-1.38-.4-1.7-.73-.86-.71,1.06-.31,2.83.07,1.29-.16,2.23-.78.33-.04.23-.15.43-.6,1.12-2.83.22-.18.15-.33.3.1.3.35.15.45-.07.41-.29.77-.06.47.17.77.99,2.08-.2.3-.12.48.03.4.32.35.38.06h.37s.26.18.26.18l1.04,2.24.53.74.3,1.33-.61,1.56-.85,1.65-.41,1.68.32,1.77.75,1.16,1.16.64,1.56.2,1.07,1.12.68.37.29-.65-.47-3.54-.38-1.11-.52-1.04.33-.08.08-.14.1-.02.38.25,1.2-2.61,1.45.31,1.82.91,2.3-.77.54-.91.75-3.96.65-2.24.21-1.11.08-1.56-1.23.65-1.11-.07-1.2-.24-1.41.19-2.03,1.89-.81.51-.68-.33-.74-.95-1.04-.67-1.15-1.58-1.02-1.81-.61-1.4-.07-1.33.35-1.59.72-1.02,1.03.41,1.23,2.51.98.84,1.37-.61,2.47-1.97.61-.7.25-.5.47-1.47-.14-.42-.12-.95.17-.6.75.59.39.77.15.6.36.4.88.15,2.65-.02.43.12.68.18.98.8.39-.38.52-.06.62.16.69.27,1.74-.16,1.37-1.22.7-2.02.18-2.56.74.57.42.78.68,1.9,1.7-1.07,1.77.04.82-.55-1.2-2.82,1.57-.13,1.04-1.07.84-1.43,1.02-1.22-.08.97-.28.77-.35.58-.18.44-.1.95.1,5.88-.1.54-.17.59-.02.62.3.63.54.29,1.54.13.95.22.73-.13.3.08.07.3v1.17s.15.43.15.43l1.2.67,3.03-.14,1.39.23-.04-1.17.14-1.22.36-.96.66-.4,1.49.15.71.46,1.38,1.85,1.52-.1,1.07-2.07,1.06-1.05,1.49,2.97-1.51.58-.67.42.14.65.93,1.3.84.34,4.06.45-.32.53-.54.1-1.26.02-.03,1.21,1.96.13,1.47-.44,1.65-2.14.91-1.63-.89-1.03-.2.78-.45.63-.58.19-.6-.57.48-3.25.09-1.65-.02-.59-.07-.42-.44-.68-.59-.35-.3-.37.44-.77.84.35,1.28.06,1.27-.21.84-.47.52-1.06-.13-.91-.39-1.03-.23-1.4-1.11.08-6.52,3.45v-.54l.7-.72.13-1.09.34-1.01,2.56-.7,2.24-1.13,1.22-.24-.76-1.06-.03-.56.59-.29,2.16-.41.99.06,3.53,1.23.44.36.63.66.22.51.02.53.2.42.7.16h1.32s.58-.16.58-.16l.58-.38-.46-.13-.81-.35-.52-.07.31-1.06-.16-.74-1.08-1.47-.57-.96-.27-.74-.46-2.1-.83-1.73v-.85s.83-1.28.83-1.28l.75-.68.38.22.65,2.09-.25.59.54,1.6-.29,1.13,1.31-.52.9.72.81,1.16,1.04.81.03-1.23.47-.73.55-.23.28.29v3.48l1-.77.79.09.7,1.33,1.52.68.66-.31.6-2.21.43.78.25,1.46,4.3-.07,1.62.18.46-1.9.57-1.26.44.06-.06,1.52.06,1.62.91-.06,1.99-3.51.6-.87.31.28-.09,1.15-.51,2.05-.22,1.61.53,1.79.44.54.64-.4.67-.45.29.13.22.54h.5l-.16-1.61-.06-.76.77.84.31.78.53-.37.25-1.55.79-1.45,1.71-1.83.53.65.71.59,1.19,1.03,1.47-.69.33-1.06-.09-.93-.52-.77.07-1.12.77-.09.71-.32.68.03.91-.15.75.03,1,.02.44-.89.64-1.3,1.17-1.4,1.04-2.2.74-1.49-.02-.45-.37-1.09.44-.65.39-.76.1-1.47.33-1.14,1.53.06,1.82-1.79,1.27-.76,1.34-.44.09-1.08-.44-.44-.54-.77.55-.98.61-.98-.28-1.53-.08-1.49-.09-.57.52-.52.75-.07.67-.25.29-1.07-.06-1.14-.25-.99-.53-.67-.9-.21.54-1.56.91.23.84,1.37.39,1.84.43,1.41.99-.54,1.07-1.44.66-1.32.45-3.1.14-2.06.24-1.74-.44-.77-.6-.71-.54-1.43.55-1.26,1.28-2.51,1.73-5.18-.09-2.98,1.7-4.78.69-5.49.18-2.09,2.35-4.67,1.03-1.59-.35-1.6-.46-1.44ZM336.78,302.61l-.75.08-.68.39-.18.57.35.63.22.66-.08.56.17.41.5.52.32,1.39.16.35.33-.12.43-.59.29-1.64.03-2.01-.45-1-.66-.2ZM158.88,340.06l-.13-.4-.14-.15-.06-.69-.8-.45-.47-.49-.8-.64-.5.37.41,1.33.65,1.04.32.79-.32.77-.75.57-.95.03-.9.14-.35.42,1.44.32.07.27-.39.3-.32.33-.41.02-.38.13.24.41.75.21.71-.1,1.28-.76.55-.52.53-.39.36-.39.06-.76.21-.88.06-.82ZM238,385.26l-.38-.33-.83-1.37-.1-.81.22-.73-.16-.34-.09.03-.17.21-.31.09-.23-.08-.21.06-.06.33.03.36-.09.32.16.54.2.25.24.17.15.65.22.54.16.25.9.21.93.44.08-.39-.17-.26-.47-.13ZM186.9,372.43l-1.17.81-.57,1.17.05,1.19.69.92,1.25.06.99-.59.65-.58.73-.5.22-.42.36-.34.61-.02.59.33.25.09.12-.31.23.04.28.24.15-.35-.54-.68-.56-.24-.37-.11h-.74s-.54.16-.54.16l-.38-.05-1.29-.82h-.99ZM193.67,375.39l.14,1.06.33.08.31.25.12.36.33.2.65-.17.33-.62v-.8l.09-.46.29-.05.21-.24-.22-.39-.26-.14-.67-.97.12-.6.62-.54-.15-.77-1.11-.57h-.57s-.03.26-.03.26l-.53.51.13.36.43.4-.14,1.02-.42,1.81ZM165.79,358.29l6.22-3.38.26-1.26v-.49l.52.32,1.12,1.06.1.24.66-.44.52-.83,1.28-2.75.36-1.17.17-1.22-.1-1.08-1.94-3.13-.06-.69-1.48.93-.3.1-.44-.35-.31-.54-.2-.5-.16-.23-.69-.36-.93-.74-1.08-.59-1.05.08-.44.66,1.68,1.32.5.99-.4,1.2-.92.61-1.04-.1-.76-.94-.18,1.11-.47.35-.62.1-.7.39-.6.68-.38.6-.6,1.71-1.82.13-1.86,2.13-.81,2.63,1.36,1.62v-1.67l1.89,1.18.35.49-.18.4-.48.48-.37.58.15.69.75.19,2.76-.23.75-.26ZM206.97,352.51l-.31-.47-.81-.14-1.35.32-1.3.71-.91,1.21-.45.99-.31.46-.24.47.29.29.32.02.31.23.14.69v.81s.42.5.42.5l.36-.25.18-.85.61-.81,1.72-.8.33-.48.55-.14,1.34.41.49-.08-.06-.48-.44-.63-.5-.56-.61-.36-.06-.19.35-.35-.06-.52ZM213.72,427.66l-.41.34-.3.36-.64-.92-.65-2.34-.96-.96-3.15-1.25-.97-.75-.77-1.16-2.03-.34-3.06.25-5.29.85-1.04-.29-4.34,1.88-6.37.67-1.67,1.43-6.66,1.9-3.06,1.05-.83,1.78-1.79.46-1.94,3.36-2.26,1.34-.68.69-1.11,1.97-1.16,3.17.67,2.45,1.93,2,1.99.68,1.49,2.4,1.05.5,1.05-.22,1.15-2.03,1.94-.91,6.21-.09,2.76.82,3.31-.62,2.9.29,2.7-.6,2.22-1.87,6.6-1.21,2.5-1.97,1.72.15.62-.32,1.61-.19.43-1.01.05-.69.98-1.72.69-1.47,2.23-1.77,1.18-1.36.1-.23.57-.73.22-.42v-.42l-.42-.72-.02-.46.45-.54.63-.18.3-.35-.5-1.02-.17.33ZM188.27,370.28l-.34.94.07.26.3.06.28.1.13.32.52.48.99.27.33-.28-.32-.56.53-.11.95-.05.23-.9.45-.38-.05-.69-.27-.38-.35-.25-.7-.37-1.36-.23-.5-.28-.52-.16-.22.19.33.55.05.22-.16.17-.23.12-.06.17.13.19-.02.24-.2.35ZM208.95,359.11l-.73-.08-.28.05-.28.02-.47-.12-.38-.3-.67.17-.88.72-.73.3-.59-.28-.52-.08-.24.12-.29.16-.65.2-.68.09.09.27,1.45.64.24.16.25.13h.62s.78-.27.78-.27l.67-.1.51.21.35.48.14.61.32.46.59-.12.28-.29.32-.28.61-.12.57.11.4-.45.07-.55.09-.27.38-.44.13-.58-.57-.33-.93-.22ZM223.4,359.38l-.4-.51-.22-.36-.3-.27-.66.08-.89.28-.51-.23-.25-.71-.43-.63-.46-.44-.21-.08.06.21-.64.54-.61.73-.38.26-.48.09-.15.15.18.13.43.14,1.1.1.44.26.15.4-.18.31,1.43.29.23.32-.42.28-.32.49.06.69.68-.3,1.14-.91.48-.47-.4-.23-.17-.21.47-.18.65.14.55.28.4-.08-.14-.37-.22-.19ZM231.84,348.28l-1.06-.08-2.04.24-2.15.39-1.04.43-.9.66.61.41.25.36-.07.36-.36.44v.59l1.57,1.05.76.37,1.05.14,2.69-.49,1.21-.5.85-1.2.22-1.47-.72-1.28-.89-.43ZM200.59,360.34l-.36-.48-.21-.58-.17-1.25-.61-1.52-.77-.92-.7-.47-.75-.25-1.15.12-.37.09-.7.34-.52.76-.25.99-.06.99.07.98.19.86.46.57.76.5.85.24.68-.18.56.15.15.58-.6.46v.51s1.23.43,1.23.43l.99.23.58.26.31-.18.07-.46.28-.06.5.32.59.25.31.09.32.04.22-.21-.37-.88-.13-.49-1.19-1.18-.21-.68ZM208.79,370.21l-.47.44-.25.59-.1.75-.4.82.26,1.21.24.14.23-.39.43-.05.59.53.71.37.98-.08.76-.41.42-.74.16-.42.17-.99-.39-.44-.64-.57-.66-.95-1.12-.28-.93.46Z"/>
</svg>