<?xml version="1.0" encoding="UTF-8"?>
<svg id="Layer_1" data-name="Layer 1" xmlns="http://www.w3.org/2000/svg" viewBox="0 0 600 600">
  <defs>
    <style>
      .cls-1 {
        fill: #5d816c;
        stroke-width: 0px;
      }
    </style>
  </defs>
  <path class="cls-1" d="M277.78,290.97h-.04s-.02.02-.02.02l-.05.05-.08.07v.05s.02.05.02.05l.02.03h0v.02h.01s.03-.03.03-.03h.03s.04,0,.04,0l.04-.02.02-.05v-.06s.04-.06.04-.06v-.04s-.05-.02-.05-.02ZM284.27,309.16l.04.02.03.03.04.02.07-.02.06-.05.04-.07.02-.08v-.09s-.05-.07-.05-.07l-.06-.04h-.05s-.02.09-.02.09l-.02.04h-.04s-.05-.01-.05-.01h-.03s-.07.06-.07.06l-.09.14-.05.04v.04h.06s.16-.04.16-.04ZM284.58,309.9l.04.08v.05s.04.03.04.03h.04s.02-.01.02-.01l.03-.02h.05s.05.07.05.07l.06.06h.06s.03-.06.03-.06v-.06s-.02-.05-.02-.05v-.04s0-.03,0-.03l-.02-.03-.03-.03h-.05s-.06-.02-.06-.02l-.04-.02-.03-.03-.05-.02h-.06s-.05,0-.05,0l-.04.02h-.09s.02.04.02.04l.1.1ZM285.01,308.14v-.03s-.02-.03-.02-.03l-.02-.03h-.04s-.06,0-.06,0l-.04-.02h-.03s-.04.03-.04.03v.03s.01,0,.01,0h.02s.01,0,.01,0l-.04.03h0s.02.01.02.01h.02s0,.04,0,.04h.02s.03-.01.03-.01h.02s.04.06.04.06h.03s.02,0,.02,0l.02-.02v-.06ZM284.63,309.25l-.05-.03h-.06s-.07.04-.07.04v.05s.02.06.02.06l.04.06.07.08v.02s0,.04,0,.04h.05s.05-.03.05-.03l.02-.06v-.07s.03-.04.03-.04h.05s.03-.02.03-.02v-.06s-.01-.09-.01-.09l.07-.04v-.04s-.03-.03-.03-.03h-.02s-.03-.01-.03-.01h-.06s-.05.04-.05.04v.07s0,.04,0,.04h-.05ZM277.72,290.09l-.27.1-.13-.04-.05.22.15.13.2.03.1-.08-.03-.02h-.06s-.05-.03-.05-.03v-.07s.02-.01.02-.01h.13s.1.05.1.05l.07-.05v-.09s-.05-.07-.05-.07l-.14-.05ZM284.95,309.62v-.02s-.05-.05-.05-.05l-.05-.02-.04.03-.07.03-.12.02-.05.04.06.04.08.03.06.05.06.03.06-.02.03-.03v-.08s0-.04,0-.04l.02-.02ZM284.14,309.65l-.02-.02h-.02s-.03,0-.03,0l-.16.06-.09.02-.07-.03-.06.02-.05.04-.04.05-.02.07v.08s.03.06.03.06l.04.04h.06s.06-.02.06-.02l.04-.05.03-.07v-.08s.04-.02.04-.02h.06s.07.01.07.01l.04-.06h.03s.06.03.06.03h.02s0-.12,0-.12v-.04ZM284.3,310.95h.05s.04-.02.04-.02v-.07s-.03-.08-.03-.08l-.05-.08-.06-.14-.04.05-.02.12.02.21.04.03.05-.02ZM284.12,310.14l-.06-.05-.04-.08h-.02s-.03,0-.03,0l-.09.12-.15.06-.03.05.04.1h.02s.08.02.08.02l.07.04v.02h.05s.03,0,.03,0l.03-.03.07-.1.02-.04v-.05s0-.05,0-.05l-.02-.02ZM279.78,313.84l-.04-.05-.05-.02-.04.03-.02.06v.05s.07.03.07.03l.1.09.02.02h.01s.02.01.02.01l.02-.03v-.05s-.08-.15-.08-.15ZM281.38,310.24h-.04s-.02-.04-.02-.04l-.02-.02h-.04s-.04.04-.04.04l-.04.06-.03.06-.03.07v.08s.03.09.03.09l.05.02.02-.02.03-.03.03-.05v-.04s.09-.09.09-.09v-.03s.04-.03.04-.03l.04-.04v-.02s-.07.01-.07.01ZM282.58,292.02h-.04s0,.06,0,.06l.03.08.02.03h.03s.05-.06.05-.06v-.07s-.02-.04-.02-.04h-.05ZM285.27,291.51l.05-.03.05-.02.21.04h.11s.09-.08.09-.08l.03-.11-.05-.05h-.09s-.1-.01-.1-.01l-.09-.06-.08-.02-.07.02-.06.06-.06.17v.02s0,.07,0,.07h.05ZM285.33,308.87l.02-.02.02-.06v-.03s-.03-.01-.03-.01h-.08l-.04.02v.06s.01.05.01.05h.06s.04-.02.04-.02ZM286.39,294.49l-.09.05-.04.06v.08s0,.08,0,.08l.03.02h.04s.04.02.04.02h.06s.04-.06.04-.06v-.04s.02-.04.02-.04l.05-.02.02-.03-.02-.08-.05-.03h-.11ZM285.75,291.78v-.02s-.02-.11-.02-.11v-.03s-.02-.02-.02-.02h-.02s-.03,0-.03,0l-.03.02-.02.03-.02.03-.03.12-.02.05-.04.04.33.26h.1s.05-.07.05-.07v-.06s-.06-.05-.06-.05l-.06-.05-.07-.06-.03-.03-.02-.04ZM286.96,293.11l-.03-.02-.02-.03-.02-.02-.04-.02h-.03s-.03,0-.03,0h-.03s-.03-.03-.03-.03h-.03s-.06-.07-.06-.07l-.07.03-.03.14-.1.05h-.11s-.16.01-.16.01l-.22.16-.04-.02h-.03s-.02.05-.02.05v.03s.07.05.07.05v.03s-.02.03-.02.03h.05s.04.03.04.03l.03-.02.02-.03h.03s.01.03.01.03v.02s0,.01,0,.01h.02s.02-.03.02-.03l.04.02.02.08h.02s.05,0,.05,0h.05s.22-.15.22-.15l.03-.06.06-.06.11-.05.05-.02h.04s.09-.01.09-.01l.02-.02.04-.03h.03s-.01-.04-.01-.04l-.02-.04ZM285.94,291.77l.18.33.03.03.03.02v.03s-.04.07-.04.07l-.04.02-.15.04.1.14.1.04h.26s.02-.03.02-.03l.02-.02h.03s.04.01.04.01l.05.06h.03s.04,0,.04,0l.05-.04.05-.13.06-.04-.02-.03-.03-.07-.03-.03.02-.05-.02-.22v-.05s-.06-.08-.06-.08v-.04s0-.04,0-.04l.03-.08v-.05s-.02-.1-.02-.1l-.06-.06-.16-.08-.07-.07-.07-.09-.08-.06-.09.02-.12.14-.05.02-.02.07v.29s-.01.07-.01.07v.05ZM286.78,294.96v.03s.11-.01.11-.01l.25-.2.03-.06v-.05s-.02-.03-.02-.03l-.03-.03-.09-.04-.06-.03-.02-.05v-.05s0,0,0,0l-.07.06-.08-.04h-.01s.04.05.04.05l.04.06.03.09v.07s-.07.07-.07.07l.02.04v.04s-.06.07-.06.07ZM284.55,312.51l-.03-.02h-.07s-.17-.02-.17-.02l-.04.02v.03s-.02.03-.02.03v.03s.04.05.04.05l.1.04h.03s0-.03,0-.03h.02s.02.03.02.03h.02s.03-.01.03-.01h.05s.02-.04.02-.04v-.04s0-.07,0-.07ZM285.35,304.87l.02.04.02.02h.03s.02-.02.02-.02l.04-.03.06-.07.09-.08.02-.04v-.04s-.03-.02-.03-.02l-.02.02-.04.03h-.06s-.02-.01-.02-.01v.03s0,0,0,0h-.03s-.02.03-.02.03l-.03.02h-.01s.03.03.03.03h0s-.05.04-.05.04v.04ZM285.56,309.09l-.06.02v.03s-.02.02-.02.02l-.02.02-.1.04h-.08s-.03.04-.03.04l.03.04.06.02h.07s.06-.04.06-.04l.15-.02h.02s.14.09.14.09v.02s0,.03,0,.03l-.03.04.05.02.1-.09v-.13s-.1-.03-.1-.03h-.07s-.03-.01-.03-.01v-.03s0-.04,0-.04v-.03s.08-.05.08-.05h.04s0-.04,0-.04l-.06-.06-.09-.04-.09-.02-.05.03.02.06.04.05v.04s-.02.04-.02.04ZM284.61,294.81h.01s.01.03.01.03l.03.06.05.02h.06s.04-.03.04-.03l.06-.06.02-.04-.04-.04-.12-.06-.04-.03-.03-.06-.04-.03-.04.05-.03.08v.1s-.02.02-.02.02h.02s.03-.01.03-.01ZM285.21,307.86h.05s.03-.04.03-.04v-.04s-.04,0-.04,0h-.02s-.01-.03-.01-.03h-.03s-.05.01-.05.01h-.04s-.05-.02-.05-.02l-.06-.02-.06.02-.03.05.05.12.03.03h.03s.02.03.02.03h.02s.04,0,.04,0l.03.02.13.02h.03s0,.04,0,.04v.05s.02.04.02.04l.02.03h.06s.01.03.01.03l.02-.02.02-.06v-.05s-.03-.03-.03-.03v-.05s-.04-.04-.04-.04h-.05s-.05-.02-.05-.02l-.05-.06v-.03l.02-.02ZM284.43,308.02h.01s.02.03.02.03h.05s.13.03.13.03h.03s.02-.06.02-.06l.04-.06.06-.05.05-.02-.07-.11-.02-.06v-.06s.04-.05.04-.05l.15-.09-.07-.02-.1.02-.09.06-.04.08-.02.04-.05.03-.06.02-.03.02-.03.06-.04.19h.02s.01.01.01.01ZM297.67,309.04l-.05.03-.1.04.08-.2.02-.07v-.08s-.02-.06-.02-.06l-.03-.06-.02-.07v-.04s.03-.22.03-.22v-.06s-.02-.05-.02-.05l-.09-.03-.08.06-.03.11.06.11-.35.2h-.07s0,.09,0,.09l.02.1.05.09.09.06v.04h-.09s-.07-.04-.07-.04l-.07-.04-.08-.03h-.05s-.18.04-.18.04l-.06.03-.07.05-.06.06-.03.07.02.11.06.09.07.08.06.09.08-.06.18-.08.05-.06.07.04-.03.11v.09s-.04.07-.04.07l-.12.02-.03.03v.07s.02.07.02.07l.05.03.15-.08-.02.09v.07s.02.05.02.05l.07.03-.17.12h.11s.36-.12.36-.12l.08-.07-.04-.05-.08-.03-.06-.04.03-.08.09-.1.02-.05v-.08s.07.04.07.04l.09.05.09.03h.04s-.01-.11-.01-.11l-.06-.14-.03-.08.07.03.04-.04.02-.08v-.07s0-.1,0-.1h-.02ZM295.35,310.58h-.02s0-.04,0-.04l-.16-.08h-.03s-.02.03-.02.03v.03s-.01.03-.01.03v.03s.02.02.02.02h.02s.02.03.02.03v.03s-.01.04-.01.04v.02s.03,0,.03,0l.03-.02.05-.03h.04s.05,0,.05,0h.03s.02-.02.02-.02l.05-.06v-.03s0-.01,0-.01l-.09.05ZM295.17,309.59v-.02s.01-.04.01-.04h.03s.05-.01.05-.01l.02-.03-.03-.05-.07-.08h-.06s-.07.04-.07.04l-.03.06v.03s.03.05.03.05l.05.04h.03s.05.03.05.03ZM294.3,309.47l-.17-.03-.11.02-.12.05-.1.02-.06-.11-.11-.04-.04-.03-.03-.05-.02-.11-.02-.04.11-.12.04-.08v-.08s-.03-.07-.03-.07l-.07-.06-.07-.02-.06.03-.08.06-.03.04-.02.13-.03.02h-.04s-.04.03-.04.03l-.06.11v.11s0,.11,0,.11l.14.44v.08s.01.05.01.05v.04s.04.05.04.05l.05.03.07.03h.07s.03-.05.03-.05l.02-.12.04-.1.06-.04.08.04.05.24.05.12h.08s.09-.05.09-.05l.08.03.07.04h.08s.02-.08.02-.08l-.04-.12.04-.02.03-.03v-.07s0-.12,0-.12v-.08s.04-.06.04-.06v-.06s-.01-.07-.01-.07h-.03ZM294.35,309.3l-.03-.04-.03-.1v-.07s-.04-.01-.04-.01l-.03-.02v-.04s-.06,0-.06,0l-.06.09-.03.07-.03-.02v-.06s.01-.07.01-.07l.03-.1-.03-.07-.08.02-.05.06-.04.08-.07.09-.03.09.04.08.07.04h.07s.12-.03.12-.03l.22.06h.05s-.03-.05-.03-.05l-.02-.02ZM292.92,311.32h-.04s0-.03,0-.03v-.04s-.07-.15-.07-.15l-.06-.05h-.09s-.08.05-.08.05l-.03.05.03.04.04.02.02.04.02.05.05.04.07.02.05.03.02.02h.01s.04,0,.04,0l.06-.02v-.04s-.01-.03-.01-.03l-.03-.02ZM293.05,310.43l-.03-.09-.05-.07h-.05s.06-.07.06-.07l.03-.07v-.06s-.07-.02-.07-.02h-.06s-.05.03-.05.03v.05s.07.08.07.08l-.04.15-.02.04-.09.07-.02.03-.03.11.02.07.17.18.06.03h.06s.05-.05.05-.05l.04-.08v-.09s.01-.09.01-.09l-.04-.15ZM313.06,294.71h0s0,.01,0,.01h0s0-.01,0-.01ZM308.27,292.86l-.12.04-.18.03-.09.06-.04.09.03.13.08.1.12.07.13.02.09-.05.06-.12.05-.18v-.16s-.08-.06-.08-.06h-.06ZM296.15,309.45l-.05-.05h-.09s-.08.02-.08.02l-.05.02-.03-.02-.06-.04-.08-.03h-.06s-.04.06-.04.06v.04s.04,0,.04,0l.06-.02.09.03.05.04v.05s-.06.04-.06.04l.02.02h.06s.01.05.01.05v.04s.03,0,.03,0l.02.05.04.05h.08s.05-.06.05-.06l.02-.04-.04-.03h-.04s0-.02,0-.02h.02s.05,0,.05,0l.02-.04-.02-.03.03-.05v-.08ZM285.97,298.76v-.04s-.07-.1-.07-.1l-.09.03-.09.08-.04.06.05.17.02.14.02.22-.03.15.05-.03.02.06.07-.08.03.04-.09.12-.02.09.05.03.12-.07-.02.05-.04.03-.02.03v.09s.08.01.08.01h.22s.05,0,.05,0l-.03-.1-.07-.1-.04-.11v-.06s0-.03,0-.03v-.04s-.06-.04-.06-.04h-.03v-.04h.1l-.04-.08-.06-.03-.03-.04.02-.05v-.06s-.1-.19-.1-.19v-.04s.03-.03.03-.03l.02-.04ZM291.57,311.54h-.05s-.04.05-.04.05h-.02s0,0,0,0l-.07-.02-.04-.02h-.03s-.02,0-.02,0v.03s.01.03.01.03l-.02.04.03.02.05.03v.02s0,.03,0,.03l.05.02.03.03v.05s.03.02.03.02l.08-.02.09-.06.04-.04v-.03l-.02-.06-.11-.12ZM301.77,302l-.02-.1-.08-.06-.06.1-.31.34-.13.1-.1-.02-.08-.1-.07-.08-.1-.1v-.08s.09-.07.09-.07l.05-.02.05-.02.04-.05.02-.09-.03-.03-.04-.03-.04-.16-.03-.21-.03-.03-.03-.02-.03-.06-.02-.1.02-.74.03-.12.06-.1.15-.18.03-.11.03-.52-.03-.25-.07-.25-.03-.24h0s.09-.26.09-.26l.11-.21.05-.23v-.25s-.18-.52-.18-.52l-.05-.25-.04-.55-.04-.19v-.06s.03-.07.03-.07l.05-.07.03-.07-.02-.07-.25-.35-.09-.26-.07-.47-.08-.21-.24-.26-.03-.1-.02-.1-.05-.09-.13-.17-.22-.44-.06-.07-.08-.05-.06-.11-.14-.47-.05-.1-.17-.1-.03-.13v-.15s-.01-.13-.01-.13l-.26-.3-.05-.04-.38-.42-.32-.46-.82-1.17-.07-.18-.18-.22-.06-.1-.34-.9-.44-.86-.12-.3-.05-.2-.23-.45-.15-.29-.28.14-.13.11-.03.08v.11s.05.22.05.22l-.02.22-.06.19-.1.17-.11.16-.26.27-.32.2-.34.12-.34.03-.52-.03-.33.07-.07-.02-.06-.06-.06-.09-.04-.03-.95.08-.29.09h-.15s-.47-.13-.47-.13l-.61.05-.16-.02-.32.03-.33.13-.31.2-.27.22-.03.04-.06.08-.07.17-.1.25-.08.09-.19.15-.09.09-.42.64-.2.16-.13.05h-.09s-.06.05-.06.05l-.03.15.03.54h0s.07-.05.07-.05h.05s.04.04.04.04l-.05.1-.02.12v.07h0v.05s.05.1.05.1l.02.09-.02.13-.08.22.28.2.09.1h-.12s-.19-.09-.19-.09l-.15-.13v-.15s.03-.08.03-.08v-.12s0-.11,0-.11l-.02-.07-.07-.04h-.06s-.07.05-.07.05l-.09.02-.27-.1h-.07s-.02.1-.02.1l.07.51.05.2.02.13v.08s.06.05.06.05l.05.09.04.07.04.09.02.05-.02.15v.11s.04.06.04.06h.1s.02-.06.02-.06l.07.02v.05s-.05.02-.05.02l-.14.04-.05.08.02.09v.11s.07.04.07.04l.09.05.04.07-.07.1-.05.11.12.1.12-.15.26.03v.04s-.05.07-.05.07l-.1.14v.07s.23.16.23.16l.15.05.09.02h.06s.06-.02.06-.02h.07s.03.06.03.06h.07s.05.01.05.01l.04.03.03.04.02.05-.11.02-.08-.05h-.07s-.08.11-.08.11l-.02.13-.02.06-.05.02-.05-.02-.02-.05v-.07s0-.07,0-.07l-.08.04-.06-.02-.07-.04-.08-.02-.1.02h-.05s-.04-.02-.04-.02l-.03.03h-.01s-.02.02-.02.02l.04.08.03.08.03.07.04.03.13-.02.02.02-.06.08-.05.03-.07.02-.06.04-.03.06.02.08h.05s.14-.02.14-.02l-.07.1-.03.06v.06s.03.03.03.03h.05s.06-.02.06-.02l.05-.04.18-.19.09-.07.12-.06v.08l.03.05.05.03h.06s.1-.08.1-.08l.07-.04.03.02v.11s-.03.04-.03.04l-.13.04h-.13s-.08.03-.08.03l-.08.04-.07.09-.06.1v.11s0,.08,0,.08l.02.06v.07s.23.07.23.07l.09-.02.09-.02.05.05.05-.02.02-.11v-.1s.04-.1.04-.1l.04-.06.06.02-.04.16.05.12.07.1.02.12-.04-.03-.05-.02h-.05s-.06,0-.06,0l.05.04h.02v.05l-.3.03.07.16.18.17.19.11.16.02.11-.04.04-.04-.02-.19.05-.06.29-.08v.07s-.05.02-.05.02h-.04s-.07.04-.07.04h-.03s-.03,0-.03,0l-.03.02h0s.05.06.05.06v.03s-.02.15-.02.15l-.05.06-.07.04-.16.12-.22.09h-.09s-.1.06-.1.06l.05.1.17.19h-.1s-.1-.04-.1-.04l.04.15-.02.09-.05.08-.03.14-.04-.02-.03-.02-.02-.04v-.05s.07-.02.07-.02v-.05s-.03-.19-.03-.19l-.04-.07v-.05s0-.05,0-.05l.02-.08v-.04s0-.18,0-.18l-.02-.09-.03-.05h-.05s-.09.13-.09.13l-.06.04.08-.27v-.13s-.11-.11-.11-.11l-.09-.06-.12-.03-.09-.03h-.09s-.08,0-.08,0l-.08.04-.05.09-.03.05-.02.05.02.15v.05s-.04.05-.04.05l-.05.04.02-.1v-.06s-.05-.09-.05-.09v-.04s.04-.06.04-.06l.02-.08-.05-.08-.07-.04-.07-.05-.04-.04-.09-.07-.1-.07-.07-.06-.08-.04h-.09s.01.1.01.1l.05.14.1.1.09.05.07.02.03.04v.04s-.05.03-.05.03h-.06l-.05-.02-.04-.04-.08-.1-.05-.05h-.04s-.02.06-.02.06l.02.02.3.32.04.06.04.13.03.05v.04h-.07s-.04-.04-.04-.04l-.03-.06-.03-.07-.09-.09-.06-.04-.03.03-.02.14-.09.29-.02.15-.02.03-.04-.02-.04-.06-.02-.08v-.31s.06-.05.06-.05v-.02s0-.04,0-.04l-.02-.04v-.04s-.03-.05-.03-.05h-.05s-.06.03-.06.03l-.04.04-.03-.1.03-.07.05-.05.03-.05-.04-.08-.09-.03h-.18v.05l.02.05-.02.02h-.04s-.05-.04-.05-.04l-.05-.03h-.05s-.05.04-.05.04l-.04.05h.09s.08.02.08.02l.03.06-.03.1-.07-.05-.02.02.02.06.05.06.06.03h.13s.04.02.04.02l.04.1-.02.14-.07.11-.12.03v.04l.1.04h.04v.04l-.1.02-.05.02-.02.02-.02.07-.05-.03-.08-.1-.05.06.04.14.1.22-.14-.1h-.06s-.08.08-.08.08l-.04.02-.03-.03-.02-.06v-.05s.01-.02.01-.02l.09-.06.03-.03v-.02s-.03-.09-.03-.09v-.06s.03-.05.03-.05l.05-.05.03-.06-.06-.16-.02-.13v-.13s.01-.09.01-.09l-.12.04-.02.15v.19s0,.14,0,.14l-.03.06-.03.02h-.12s-.07-.01-.07-.01v-.04s.02-.15.02-.15l-.12.04-.09.07v.09s.1.09.1.09l-.08.13v.08s.09.03.09.03h.13s-.04.08-.04.08l-.06.02-.14-.04.05.09.05.07h-.04s-.04-.02-.04-.02h-.03s-.03.02-.03.02l-.03-.05-.03-.05-.02-.05v-.06s-.03.08-.03.08l-.03.06-.13.16v.04s0,.15,0,.15v.15s.01.05.01.05l.06-.05.03-.07v-.15s.04-.07.04-.07l.06.05.08.02.08.04.05.1v.09s-.05.04-.05.04h-.2s-.02.02-.02.02v.06s.03.06.03.06v.03s.07.03.07.03h.05s.05-.02.05-.02h.06s.1-.05.1-.05l.13-.16.09-.05.04.17-.04.12.15.24-.07.15.02.04v.04s.02.05.02.05v.04s.04-.06.04-.06l.05-.05.06-.04h.07s-.08-.13-.08-.13v-.05s.05-.05.05-.05l-.03-.1-.09-.14-.05-.09h.11s.04-.07.04-.07v-.1s.06-.08.06-.08h.08s.05.05.05.05l-.02.16.06.03-.03.12-.02.33.09.06h.1s.09.08.09.08l.05-.06.05-.14-.02-.16.04-.12v-.1s-.04-.05-.04-.05v-.04s.01-.04.01-.04l.08-.03.07-.08.04-.03v.05s.04.04.04.04l.07.08-.12.02-.04.08.02.1.12.02.05.09-.07.06-.05.07.08.08h.06s.04.07.04.07l-.03.07v.08s-.11,0-.11,0l-.1.05h-.07s0,.03,0,.03l.03.04.02.11v.06s-.02.05-.02.05l.02.06h.02s.04.03.04.03l.04.04.09-.03.02.03-.05.07-.1.12v.07s.03.12.03.12l.04.11.05.06h.08s.11-.17.11-.17l.07-.04h.29l-.1.05-.2.06-.1.14-.1.03-.09.05.07.14h-.06v.04l.04.03.06.07.03.02h.16s.08.02.08.02l.03.08-.05.06-.22.05-.07.07.08.04.21.06.05.07-.07.05-.06.13-.1.28.03.04.04.04.03.02.04-.02h.03s.05.05.05.05l.04.05.07.12-.21-.06-.15.05-.17.08-.02.18.03.03.02-.04.03-.11.1-.02.11.07v.07s.03,0,.03,0l.07-.04.09.04.11.19.06.02.07.03.03.04-.07.06.04.07.08.11.04.07.03.08v.06s.03.04.03.04l.08.04.1-.05.11-.02.09-.04.08-.08.1-.07.1-.03.29-.09v.09s-.11.07-.11.07l-.23.09-.18.14-.1.05-.08-.02-.08.05h-.25s-.24.04-.24.04l-.45.05.02.18.22-.03.15.05.05.04v.14s.02.1.02.1l.24.02.24.02h.12s.36-.15.36-.15h.02s.06,0,.06,0l.05.05.03.04-.02.02h-.07s-.02.04-.02.04v.04s-.04.05-.04.05l-.04.02h-.06s-.28-.01-.28-.01h-.05s-.04.04-.04.04l-.04.06v.05s.03.02.03.02l.09.07.11.07.09.05.05.03.07.05v.07s-.02.07-.02.07l-.02.05-.05-.09-.08-.02-.11-.08-.17-.02-.18.02-.03.03-.06.04-.08.04-.02.18-.14.19-.18.1-.15.09-.09.11-.1.1-.12.06v.06s-.02.16-.02.16l.24.15.7-.11.07.04.05.1.06.23-.07-.02-.09-.11-.09-.1-.1.03-.07.1-.07.06h-.16s-.18.05-.18.05l-.16.06-.11.16-.13.31-.08.18-.04.14.02.06.16.18v.04s-.03,0-.03,0l-.09-.03-.07-.09-.03-.03-.11.17-.04.09-.02.09v.04s.02.04.02.04v.04s0,.05,0,.05l-.03.03-.03.02-.03.03-.02.05h.04s.02.02.02.02h.02s.03.03.03.03l-.09.02h-.1s-.09.03-.09.03l-.05.07h.14s.07-.01.07-.01l.06-.02v.08s.02.05.02.05l.05.04v.06s-.03.03-.03.03l-.02.02v.03s.03.09.03.09l.16.19.05.13.03.03.04.02.09.02.02.04v.11s-.01.09-.01.09l-.12.28-.05-.05-.04-.06v-.07s.02-.07.02-.07l-.04-.02h-.08s-.05-.02-.05-.02l-.06-.04-.02-.02v-.03s-.02-.08-.02-.08h-.02s-.02,0-.02,0h-.02v-.04s0-.03,0-.03l.02-.06v-.11s0-.06,0-.06l-.04-.07-.04.14-.03.07-.06.04-.04-.1-.09-.05h-.1s-.07.1-.07.1l.02.1.13.17-.05.06.07.09h.07s.03-.08.03-.08l-.04-.13.09.03.09.08.14.19.04.13-.14.14v.13s-.11-.03-.11-.03h-.06s-.06.03-.06.03l.02.05.03.04.04.04.04.03h-.02s-.05.04-.05.04l.06.04.09.03h.09s.07-.07.07-.07v-.06s-.03-.07-.03-.07v-.06s.04-.02.04-.02h.04s.03-.04.03-.04l.03-.03h.06s.12.02.12.02l-.03.05-.09.06-.07.06v.1s.02.12.02.12l.05.1.06.05-.06.06-.02.04v.09s.01.05.01.05v.04s-.03.04-.03.04l-.04.06-.1.1-.03.06.02.06.05.03.11-.03h.07s0-.06,0-.06l.04-.02.13.03.06-.02.04-.04.05-.02.07.03-.02.03-.03.06-.02.03.03.02h0s.1,0,.1,0l.05-.07.05-.2.06-.12h0s0-.06,0-.06l-.03-.1v-.05s.06-.07.06-.07l.07-.03.07.02.04.09v.06s-.02.04-.02.04l-.03.03-.02.04v.1s.02.04.02.04l-.02.06.26-.02.11.02.07.08h-.05s-.04,0-.04,0l-.08.04.03.08h-.12s-.23-.08-.23-.08l-.12.03-.06.08v.11s.01.12.01.12h-.02s-.01-.02-.01-.02h-.01s-.02-.03-.02-.03h-.08s-.23-.15-.23-.15l-.19.08-.15-.02-.07.03-.07.09.02.06.11.04.12-.03.1.07h.15s.12.02.12.02l.09.04.16.21.11.08-.04.04.15.13.08.05.1.02-.1.03-.14-.05-.12-.06-.09-.05h-.06s.1.15.1.15l-.02.03-.05-.03-.07-.05-.05-.05-.09-.03-.06-.04-.03-.04-.05-.03v-.04s0-.02,0-.02v-.02s.01-.08.01-.08l-.03-.05-.21-.04h-.14s.03.12.03.12l-.04.08.02.15.03.11h.05s.03-.09.03-.09h.06s-.02.13-.02.13l.06.06.05.07.1.02h.03s.06,0,.06,0l-.04.1h-.06s-.1-.07-.1-.07l-.24-.04-.06-.04-.1-.29-.02-.07v-.06s0-.06,0-.06l.05-.06-.15-.22-.03-.07-.03-.02h-.04s-.04-.01-.04-.01l-.04.02v.05s0,.06,0,.06v.05s-.06.13-.06.13l-.04.19v.17s.11.07.11.07l.13.06.02.06-.04.03h-.05s-.02-.03-.02-.03l-.02.03h-.02s0,.03,0,.03l.02.06h.01s.1.1.1.1h.03s.04,0,.04,0l.03-.02v-.02s.03-.04.03-.04l.03.03.02.05v.02s.12.06.12.06l.04.05v.09s.08-.03.08-.03h.06s.11-.01.11-.01h.05s.04,0,.04,0h.04s.02-.06.02-.06l.02-.04.03-.03h.03s.06.04.06.04h.04s.03-.02.03-.02l.05-.06h.02s.06.02.06.02v.06s-.05.06-.05.06l-.08.05.05.02.04.02.03.04.02.05h-.12s-.13.03-.13.03l-.1.07-.02.14.08-.03v.04s0,.07,0,.07v.08s-.01,0-.01,0v.03s0,.03,0,.03h.05s.07.02.07.02h.04s.02.03.02.03l.02.06v.06s-.08.13-.08.13h-.02s-.02,0-.02,0h-.02s-.01.1-.01.1v.02s-.03.03-.03.03v.04h.13s.06,0,.06,0l.05.04v.07s-.04.14-.04.14v.07s.06.01.06.01l.23-.07.12.03v-.13s.13-.4.13-.4l.02-.04.05-.05.15-.04.04-.03.03-.06v-.04s.01-.03.01-.03h.06s.02,0,.02,0l.05.03h.03s.02,0,.02,0v-.03s0-.03,0-.03h-.02s-.07-.04-.07-.04l.07-.07.19-.11-.11-.14-.02-.07.15-.05v-.05s-.03-.07-.03-.07l-.02-.08.02-.06.04-.06.05-.05.05-.02.06.04.03.08v.09s-.02.07-.02.07l.02.12-.02.3.04.11.04.03.19.06.14.1.06.02-.03-.07v-.06s.02-.06.02-.06l.04-.05.13.07.05-.04v-.25s.26-.27.26-.27l-.04-.08.02-.06.05-.05.03-.05v-.07s0-.07,0-.07v-.05s.05-.02.05-.02l.06-.02.06-.04.1-.07.18-.11.04-.03.09-.12.05-.05.06-.02.12.03h.06s.07-.03.07-.03l.07-.08.1-.26.07-.11.12.2.09.07.11-.05.09-.07.03.05.03.11.07.1-.04.06-.07.14-.03.04-.08.03-.06-.02-.04-.05-.03-.08.03-.06v-.05s-.04-.04-.04-.04l-.05-.03-.14.16-.03.05v.09s.03.05.03.05l.04.04.03.07v.18s-.07.1-.07.1l-.12.04h-.14s.07-.16.07-.16l.02-.1v-.1s-.07.03-.07.03l-.04.04-.06.13-.1.13-.03.03-.11.06-.03.05v.09s.05.09.05.09l.07.03.08.02.08.03v-.02s-.03-.06-.03-.06l.2-.1h.06s.19.19.19.19l.07.14.2.27h.14s-.06-.07-.06-.07v-.1s.13-.11.13-.11l.09.04.08-.12.23-.21-.1-.09-.19.05-.04-.03-.07-.02-.06-.12v-.02s.02-.05.02-.05l.07-.05.08-.04h.06s.07.01.07.01l.22.14.06-.02h.1s.05-.04.05-.04l.05-.04v-.12s-.04-.07-.04-.07l-.21-.08h.04s.09,0,.09,0h.05s-.11-.14-.11-.14l-.15-.1-.14-.13-.07-.24v-.02s.04,0,.04,0v-.02s-.03-.06-.03-.06l-.05-.02-.09.04-.04-.03.02-.08.11-.06.21-.07v-.04l-.1-.03-.13-.06-.06-.05.08-.02h.21s.1,0,.1,0l.17-.06h.03s.02-.01.02-.01l.03-.05.08-.21h.02s.01-.04.01-.04h.02s.02.03.02.03v.03s0,.03,0,.03l-.02.06v.04s0,.06,0,.06l.07.16v.02s-.02.04-.02.04v.03s.03.03.03.03h.03s.03,0,.03,0h.02s.08.18.08.18l.04.06.02.1-.05.12-.06.12-.03.13.02.13.06.09.09.05h.12s.08.1.08.1l.05.03.02-.05-.04-.27-.03-.08-.04-.08h.03s0-.02,0-.02h0s.03.02.03.02l.09-.2.11.02.14.07.17-.06.04-.07.06-.3.05-.17.02-.08v-.12s-.09.05-.09.05h-.08s-.09-.02-.09-.02h-.11s-.15.16-.15.16l-.06.04-.05-.02-.06-.07-.08-.05-.09-.12-.08-.14-.05-.11v-.1s.02-.12.02-.12l.05-.08.08.03.09.19.07.06.1-.05.19-.15.05-.05.02-.04.04-.11v-.03s-.02-.07-.02-.07v-.05s.07.04.07.04l.03.06v.05s.04.03.04.03h.07s.2,0,.2,0h.03s.05.02.05.02l.07.06.03-.03h.04s.05,0,.05,0l.05.02h.13s.1-.1.1-.1l.05-.15v-.19s.07.04.07.04l.03.06.05.14.13-.08h.13s.06-.04.06-.04l-.09-.21h.12s.08-.09.08-.09l.06-.11.08-.09v.07s-.03.06-.03.06l-.03.04v.03s-.02.07-.02.07v.44s0,.04,0,.04v.04s-.01.05-.01.05l.02.05.04.02h.12s.07.03.07.03h.05s.02,0,.02,0v.02s0,.09,0,.09v.03s.1.05.1.05h.23s.1,0,.1,0v-.09s0-.09,0-.09l.03-.07.05-.03h.11s.05.05.05.05l.1.14h.12s.08-.16.08-.16l.08-.08.11.22-.11.04-.05.03v.05s.08.1.08.1l.06.03.31.03-.02.04h-.04s-.09,0-.09,0v.09s.15,0,.15,0l.11-.03.12-.16.07-.12-.07-.08v.06s-.05.05-.05.05h-.04s-.05-.03-.05-.03l.04-.25v-.12s0-.04,0-.04v-.03s-.04-.05-.04-.05l-.04-.03-.02-.03.03-.06.06.03h.1s.1-.01.1-.01l.06-.04.04-.08v-.07s-.04-.08-.04-.08l-.02-.11h-.08s-.49.27-.49.27v-.04l.05-.05v-.08s.03-.08.03-.08l.19-.05.17-.08.09-.02-.06-.08v-.04s.04-.02.04-.02l.16-.03h.07s.27.1.27.1l.03.03.05.05.02.04v.04s.02.03.02.03h.05s.1.01.1.01h.04s.04-.04.04-.04h-.03s-.06-.04-.06-.04h-.04s.02-.09.02-.09v-.06s-.09-.11-.09-.11l-.04-.07-.02-.06-.03-.16-.06-.13v-.06s.06-.1.06-.1l.06-.05.03.02.05.16-.02.04.04.12-.02.08.1-.04.07.05.06.09.08.06v-.09s.04-.06.04-.06l.04-.02.02.02v.26l.08-.06h.06s.05.11.05.11l.12.05.05-.02.05-.17.03.06.02.11h.33s.12,0,.12,0l.03-.14.04-.1h.03s0,.12,0,.12v.12s.07,0,.07,0l.15-.27.05-.07.02.02v.09s-.05.15-.05.15l-.02.12.04.14.03.04.05-.03.05-.03h.02s.02.05.02.05h.04v-.12s-.02-.06-.02-.06l.06.06.02.06.04-.03.02-.12.06-.11.13-.14.04.05.05.04.09.08.11-.05.03-.08v-.07s-.05-.06-.05-.06v-.08s.06,0,.06,0l.05-.02h.05s.07,0,.07,0h.06s.08,0,.08,0l.03-.07.05-.1.09-.11.08-.17.06-.11v-.03s-.03-.08-.03-.08l.03-.05.03-.06v-.11s.03-.09.03-.09h.12s.14-.13.14-.13l.1-.06.1-.03v-.08s-.03-.03-.03-.03l-.04-.06.04-.07.05-.07-.02-.12v-.11s-.01-.04-.01-.04l.04-.04h.06s.05-.02.05-.02l.02-.08v-.09s-.02-.07-.02-.07l-.04-.05-.07-.02.04-.12.07.02.06.1.03.14.03.11.07-.04.08-.11.05-.1.03-.23v-.16s.03-.13.03-.13l-.03-.06-.05-.05-.04-.11.04-.1.1-.19.13-.39v-.23s.12-.36.12-.36l.05-.42v-.16s.19-.35.19-.35l.08-.12-.03-.12-.03-.11ZM298.07,308h-.06s-.05.04-.05.04v.04s.01.05.01.05l.02.05v.04s0,.03,0,.03l.04.04.02.11v.03s.04,0,.04,0l.03-.04.02-.12v-.15s-.03-.08-.03-.08h-.05ZM284.63,310.83v-.03s-.02-.01-.02-.01v-.05s-.06-.03-.06-.03l-.04-.04-.06-.05-.04.03.03.1.05.08.02.06-.02.06-.06.04h-.07s-.07.01-.07.01l-.03.03.11.02v.02s-.02.02-.02.02l-.02.02h-.03s-.03.01-.03.01l.02.03.06.02h.05s.1-.07.1-.07l.04-.04.04-.03.03-.03v-.06s.02-.07.02-.07v-.06ZM290.61,314.24l-.03-.03-.06-.1v-.06s0-.06,0-.06v-.03s-.02,0-.02,0v.02s-.04,0-.04,0h-.02s-.02,0-.02,0v.02s0,.03,0,.03v.02s0,.04,0,.04v.02s.03.01.03.01v.05s.03.04.03.04v.02s.08.02.08.02l.07.03v-.03s0-.02,0-.02h-.04ZM286.75,313.27l-.09.06-.04.09v.09s.06.07.06.07h.09s.07-.04.07-.04l.05-.04.05-.04.02-.03.03-.03h.05s.04.02.04.02h.02s0-.02,0-.02h.02s.02.02.02.02v-.03s-.03-.05-.03-.05l-.04-.02h-.03s-.06,0-.06,0h-.04s-.03,0-.03,0l-.1-.06h-.07ZM287.26,313.5v.08s.04,0,.04,0l.02.02v.03s.03.01.03.01h.05s.03-.06.03-.06v-.1s.03,0,.03,0l.02-.02-.02-.03h-.02s-.05-.08-.05-.08v-.05s.06-.04.06-.04v-.06s-.09-.04-.09-.04h-.04s0,.02,0,.02l-.04.04v.03s.04.03.04.03v.08s-.04.14-.04.14ZM285.15,312.2l.47-.26.02-.1v-.04l.04.02.08.08v.02s.06-.03.06-.03l.04-.06.1-.21.03-.09v-.09s0-.08,0-.08l-.15-.24v-.05s-.12.07-.12.07h-.02s-.03-.02-.03-.02l-.02-.04v-.04s-.03-.02-.03-.02l-.05-.03-.07-.06-.08-.04h-.08s-.03.06-.03.06l.13.1.04.07-.03.09-.07.05h-.08s-.06-.08-.06-.08v.08s-.05.03-.05.03h-.05s-.05.04-.05.04l-.05.05-.03.05-.05.13h-.14s-.14.17-.14.17l-.06.2.1.12v-.13l.14.09.03.04v.03s-.05.04-.05.04l-.03.04v.05s.07.01.07.01l.21-.02.06-.02ZM288.26,311.77l-.02-.04h-.06s-.1.01-.1.01l-.1.05-.07.09-.03.07-.02.03-.02.04.02.02h.02s.02.02.02.02v.05s0,.06,0,.06l.03.04.03-.02v-.06s.06-.06.06-.06l.13-.06.03-.04h.04s.1.02.1.02h.04s0-.04,0-.04l-.03-.05-.04-.04-.05-.03h0s.03-.04.03-.04v-.04ZM288.77,317.44l-.03.03-.02.03-.05-.07-.05-.18-.07-.07-.24-.09-.07-.06-.06-.09-.15-.03-.23.02-.4.06-.08-.02-.33.14-.48.05-.13.11-.5.14-.23.08-.06.13-.13.03-.15.25-.17.1-.05.05-.08.15-.09.24.05.18.15.15.15.05.11.18.08.04.08-.02.09-.15.15-.07h.47s.21.06.21.06l.25-.05.22.02.2-.05.17-.14.5-.09.19-.15h.13s.05-.01.05-.01h.12s.03-.09.03-.09v-.05s.08-.13.08-.13l.05-.11.17-.13.09-.1v-.02s.05-.06.05-.06l.02-.03v-.03l-.03-.05v-.03s.03-.04.03-.04h.05s.02-.04.02-.04l-.04-.08v.02ZM286.85,313.11l-.03.07v.02s.03,0,.03,0h.02s0,.03,0,.03l.04.04.07.02.03-.02-.02-.04h.04s.07-.01.07-.01l.02-.07.03-.03v-.05s-.02-.03-.02-.03l-.03-.02-.05-.03-.1-.02-.04-.02h-.04s-.02,0-.02,0l.03.04v.02s0,.01,0,.01h-.02s0,.02,0,.02h0s0,.03,0,.03v.03ZM288.41,312.27h-.05s-.02,0-.02,0h-.02s-.04,0-.04,0l-.03-.02h-.05s-.07.07-.07.07l-.05.02-.04-.02h-.04s-.02,0-.02,0h-.02s-.05.03-.05.03h-.05s0,.03,0,.03l.11.05h.02s.02.02.02.02h.05s.06-.02.06-.02h.05s.04,0,.04,0l.03.04v.05s.03.03.03.03h.04s.02-.03.02-.03l.02-.02h.05s.04,0,.04,0l.03-.03v-.04s.01-.02.01-.02l.03-.03v-.04s-.03-.03-.03-.03l-.07-.02ZM289.5,312.29l-.03-.04-.02-.03-.02-.02h-.05s-.07.03-.07.03l-.04-.02-.02-.05-.03-.05-.03-.03h-.02s0,0,0,0l-.05.04-.05.06-.03.02h-.04s-.01.02-.01.02h.01s.03.02.03.02h.08s.03.03.03.03v.03s0,.02,0,.02l.11.02.02.02-.03.02-.02.04v.05s.06-.02.06-.02l.09-.07.04-.04-.03-.02v-.02s.02-.01.02-.01h.05s.04.03.04.03h.03s-.01-.03-.01-.03h-.02ZM290.14,311.45h-.08s-.15.01-.15.01l-.16.03-.08.03-.07.05.05.03.02.03v.03s-.03.03-.03.03v.04l.12.08.06.03h.08s.2-.03.2-.03l.09-.04.06-.09.02-.11-.05-.1-.07-.03ZM287.78,312.36l-.03-.04-.02-.04v-.09s-.06-.11-.06-.11l-.06-.07-.05-.04-.06-.02h-.09s-.03.02-.03.02l-.05.03-.04.06-.02.08v.07s0,.07,0,.07v.06s.05.04.05.04l.06.04.06.02h.05s.04,0,.04,0v.04s-.03.03-.03.03v.04s.09.03.09.03l.07.02.04.02h.02s0-.05,0-.05h.02s.04.02.04.02l.04.02h.02s.02.01.02.01l.02-.02-.03-.07v-.04s-.1-.09-.1-.09l-.02-.05ZM288.4,313.1l-.04.03-.02.04v.06s-.04.06-.04.06l.02.09h.02s.02-.02.02-.02h.03s.04.04.04.04l.05.03h.07s.06-.04.06-.04l.03-.06v-.03s.03-.07.03-.07l-.03-.03-.05-.04-.05-.07-.08-.02-.07.03Z"/>
</svg>