<?xml version="1.0" encoding="UTF-8"?>
<svg id="Layer_1" data-name="Layer 1" xmlns="http://www.w3.org/2000/svg" viewBox="0 0 600 600">
  <defs>
    <style>
      .cls-1 {
        fill: #5d816c;
        stroke-width: 0px;
      }
    </style>
  </defs>
  <path class="cls-1" d="M271.01,314.25v-.02s0,0,0,0l-.04-.06-.07-.09-.11-.09-.07-.09.04-.23-.04-.1h-.07s-.08-.04-.08-.04v-.05s0-.04,0-.04l-.02-.1-.12.07-.02.07-.18.11-.11.02-.08.04-.03.02-.07-.16-.03-.07h-.09s-.05.04-.05.04l-.04.08.04.1-.03.07v.03s0,.03,0,.03v.03s.03.02.03.02v.03s.03.06.03.06v.06s0,.06,0,.06v.06s-.07.16-.07.16v.04s-.02-.05-.02-.05l-.02-.13v-.03s-.04.02-.04.02l-.03.04-.02.05v.05s-.05.07-.05.07l-.02.1.09.03.17.11.05-.06.24-.02h.12s.09.14.09.14l.09.05.08-.09v-.07s.02-.07.02-.07l-.07-.09h-.02s-.01-.04-.01-.04l.02-.06.02-.02h.04s.03-.03.03-.03l.11.03v.07s.21-.05.21-.05h.11s.09,0,.09,0ZM263.45,350.53l-.03-.04h-.05s-.04.08-.04.08l-.02.11v.03s0,.05,0,.05v.07s.05.02.05.02l.04-.05v-.07s.03-.07.03-.07v-.07s.01-.04.01-.04v-.02ZM262.78,348.42h-.05s-.04.04-.04.04l-.03.06.03.02h.06s.05,0,.05,0l.04-.04v-.06s-.06-.02-.06-.02ZM244.5,352.94l-.09.02v.06s.07-.02.07-.02h.08l-.04-.06h-.03ZM268.8,345.92l-.04-.05-.08-.02-.07.04-.03.05h-.04s-.03.01-.03.01v.05l.03.02h.02s.02.03.02.03l.1.05h.08s.03-.04.03-.04v-.1s-.02-.04-.02-.04ZM270.04,343.73h0s0-.02,0-.02l-.25.11-.07.06-.08.05h-.09s-.19-.03-.19-.03h-.07s-.04.01-.04.01h-.02s-.02.06-.02.06v.05s-.02.07-.02.07v.07s.04.05.04.05l.06.05.07.02h.07s.06-.06.06-.06h.04s.05,0,.05,0h.04s.03-.1.03-.1l.06.02.05-.05.08-.14.07-.06.14-.08.05-.07h-.02s0-.01,0-.01ZM252.76,357.98l-.04-.02-.09-.03h-.07s-.02.06-.02.06v.06s-.05.01-.05.01l-.04.02v.07s.05.07.05.07l.09.02.18-.02.06-.06-.03-.11-.04-.05ZM248.4,359.36l-.03.02-.07.09-.16.32-.06.05-.08.04-.05.08-.04.1-.05.08-.05.03h-.05s-.12.01-.12.01h-.06s-.04-.04-.04-.04l-.04-.04-.03-.02v-.04s-.03-.03-.03-.03h-.06s-.02.03-.02.03l-.05.09-.03.04-.08.02v.04s.05.03.05.03l.08.02.08.03.03.06.02.06.05.04-.1.13.09.1.18.05.17-.02.15-.14.06-.2.03-.23.07-.23.17-.25.05-.1.04-.04.03-.05-.02-.07-.04-.04ZM246.37,360.5l-.19-.06-.18-.03-.1.02-.12-.1-.03-.04-.04-.02h-.03s-.01.06-.01.06v.04s-.07.2-.07.2l-.03.19-.03.05-.06.02-.06-.04-.05-.03-.04.07-.03-.02h-.02s-.02-.03-.02-.03l-.08.14.08.06.31.02.52.13h.11s.21-.27.21-.27l.1-.19v-.14s-.13-.06-.13-.06ZM260.65,349.7l-.07-.07-.09-.04h-.09s-.05,0-.05,0l-.09.02-.08.04-.04.05.03.08.08.05.11.03.09.04.04.08v.03s.04.03.04.03l.03.02h.03s.03,0,.03,0v-.04s0-.02,0-.02l.03-.04.03-.05v-.05s.01-.05.01-.05l-.04-.09ZM244.84,353.13h.02s0,0,0,0l-.02-.04v.03ZM253.86,358.4l-.11-.05-.09-.02h-.11s-.04,0-.04,0l-.16-.15-.03-.03-.04-.07-.06-.15-.04-.07-.02-.02-.02-.02-.05-.03h-.06s-.01-.02-.01-.02l.05.09.02.06v.2s-.07.3-.07.3l-.02.07v.1s.21.04.21.04h.41s.2-.04.2-.04l.1-.03.04-.04-.04-.06-.09-.07ZM271.57,341.82l-.07-.04-.05-.05-.06-.14-.06-.32-.09-.11-.16.08-.08.02-.03.03-.03.21-.02.09-.03.07.1.31-.04.15.02.08.11.03v.04s.03.08.03.08l.04.08.09.03.07-.02.08-.05.07-.07.05-.11.12-.16.03-.09-.02-.07-.06-.05ZM268.21,347.36l.02-.02-.03-.09-.38-.4v.12s-.08.18-.08.18l-.02.1-.04.07-.19.11-.04.08-.02.02h-.03s-.04.03-.04.03l-.02.11-.02.03-.2.15-.04.07.04.09-.26.16-.21.05h-.05s-.04-.02-.04-.02l-.03-.07.02-.06.03-.05v-.05s-.06-.07-.06-.07l-.11-.02h-.22s-.17,0-.17,0h-.04s0,.05,0,.05l.04.18v.1s0,.08,0,.08l.04.06.23.04.08.04.03.07v.1s-.12.18-.12.18l-.17.09-.19.06-.17.09v.03s-.08.14-.08.14h-.02l-.02.06-.06.03h-.06s-.16,0-.16,0h-.08s-.04.07-.04.07v.13s0,.12,0,.12l.07.24.02.11v.06s-.05.11-.05.11l-.06.08h-.09s-.04.1-.04.1l-.07.14-.09.1h-.1s-.01.11-.01.11l.1.38-.03.2h.29l.07-.03.08-.14.06-.05.1.02.1-.1.09-.14.05-.11h-.07s-.09,0-.09,0h-.08s-.03-.07-.03-.07v-.1s.04-.09.04-.09l.25-.45.06-.04.1.02.1.05.1.03.09-.03-.05-.07-.11-.09-.05-.07-.02-.07-.02-.16-.02-.07-.05-.04-.06-.02-.02-.04.06-.09.04-.02h.05s.34-.01.34-.01l.03-.02.02-.09.04-.02h.06s.06-.04.06-.04l.26-.27.1-.13.08.04h.09s.09,0,.09,0l.12-.04h.03s.02-.02.02-.02l.02-.04v-.05s-.02-.02-.02-.02h-.03s-.01-.02-.01-.02l.02-.05.04-.06.04-.06.04-.03.07-.03h.22s.13-.05.13-.05l.1-.11.16-.27h.02s.02,0,.02,0h.02s0-.02,0-.02v-.07s0-.02,0-.02l.07-.14.02-.02.03-.03.02-.04-.02-.05-.02-.04v-.04s.02-.03.02-.03ZM275.7,318.81h.02s-.03.04-.03.04v.04s.04.05.04.05l.02.04v.03s.03.02.03.02h.03s.04.06.04.06h.07s.07-.04.07-.04h.05s.05,0,.05,0l.03-.04v-.04s0-.02,0-.02v-.02s-.02-.04-.02-.04v-.04s0-.04,0-.04v-.03s.03-.02.03-.02h-.02s-.07,0-.07,0l-.02.03.02.06v.04s-.05-.01-.05-.01l-.19-.16-.1-.03-.07.04-.04.06v.06s-.01.04-.01.04l.02.02h.04s.04-.07.04-.07l.05-.02ZM275.95,329.56v.03s0,.02,0,.02h.01s.05.07.05.07l.05.02.08.03.03-.03h0s-.01-.02-.01-.02v-.02s-.05-.1-.05-.1l-.03-.06-.03-.06-.04.02h-.02s.02.05.02.05l-.04.04v.02ZM276.06,330.45l.03-.02-.15-.12-.02-.16-.02-.02h-.02s-.02,0-.02,0h-.02s-.12-.04-.12-.04l-.09.08.04.13.06.06.05.08.28.03v-.02ZM276.24,324.73v-.05s-.07-.04-.07-.04l-.03-.02-.04-.02h-.03s-.05.06-.05.06l-.04.02-.02.02.03.05v.02s.01.01.01.01l.08.04h.06l.05-.03.05-.05ZM276.53,338.65l-.21.12-.31.26.21.07h.11s.09-.03.09-.03l.06-.09.07-.14.05-.14v-.09s-.06.05-.06.05ZM277.1,316.45l.1-.22.02-.04.12-.05.05-.03.04-.05.02-.04v-.04s.03-.16.03-.16v-.05s-.02-.04-.02-.04v-.05s-.03-.49-.03-.49l-.05-.24-.14-.14h-.1s-.1.02-.1.02l-.09.04-.13.03-.1.06h-.07s-.05,0-.05,0l-.04-.03-.05-.03h-.06s.11.18.11.18l.02.12-.05.13-.07.1-.06.12-.03.11.03.09-.04.03-.03.04-.02.05v.06s.02.13.02.13l.06.11.09.05.11-.04.08.03h.04s.05,0,.05,0l-.05.06h-.05s-.06,0-.06,0h-.07s-.1.08-.1.08l-.15.14-.02.04-.02.06v.03s.09-.05.09-.05h.05s.05.01.05.01l.06-.05-.07.3v.05s.09,0,.09,0l.12-.05.12-.07.07-.05.11-.14.04-.04.11-.05.03-.02ZM272.37,312.35l.03-.1-.07-.12-.3.13-.06-.03v-.17s0-.1,0-.1l.02-.11.05-.09.03-.11.03-.12-.04-.03-.04-.05.02-.05.02-.05v-.11s-.04-.05-.04-.05l-.06.24v.06s.05.08.05.08l-.02.11-.08.04-.02.11.02.08v.12s-.03.02-.03.02h-.05s-.01-.14-.01-.14l-.08.03-.03.23.06.12-.1.07-.07-.08-.11.08-.08.04v.07s.04.02.04.02l.18.04.04.03.07.14-.03.08v.19s.03.12.03.12v.11s.09.02.09.02l.02-.05v-.08s-.03-.05-.03-.05l.03-.08.09.02h.05s0-.07,0-.07v-.04s-.04-.1-.04-.1v-.09s.05-.07.05-.07l.08-.1h.1s.09-.13.09-.13l.1-.05ZM273.11,340l-.14.02-.04-.03-.12-.05-.06-.05v-.04s.02-.05.02-.05l.04-.05.03-.04-.18.02-.05-.03.03-.11h-.16s-.07.03-.07.03l.03.09.13.19v.05s.02.14.02.14l.02.04h.05s.1,0,.1,0h.05s0,.02,0,.02l.05.07h.01s.02.03.02.03l.03-.02.03-.04v-.02s0-.01,0-.01l.02-.02h.03s.01.02.01.02h.01s.09.1.09.1l.13-.04v-.11s-.12-.09-.12-.09ZM275.41,319.23l-.04-.09-.03.12-.04.12-.07.09-.11.04-.07.04-.13.17-.07.19-.1.04.02.1.09.07.09.05.11-.09.05-.04.06-.18.17-.31.05-.05.06-.04v-.11s-.04-.12-.04-.12ZM277.1,317.12l-.03.1.03.08.07.04.09-.02.03-.06.08-.23.02-.07-.03-.12-.05-.04h-.11s-.1-.05-.1-.05h-.05s-.04.02-.04.02v.08s0,.1,0,.1l.04.1.05.06ZM275.02,338.14l-.02-.04-.05-.18-.05-.08h-.07s-.03.03-.03.03v.04s.03.04.03.04v.03s-.09.17-.09.17l-.05.07-.06.03-.08-.02v-.05s.05-.19.05-.19l-.32.18-.14.12-.08.21-.06-.04-.06-.03-.05-.03-.03-.06-.05.09-.07.07-.09.03-.09-.04-.07.12-.09.03h-.11s-.13,0-.13,0h0s-.07.09-.07.09l-.1.08-.04.02-.12.02-.06.04-.05.05-.07.04.06.08.07.03h.18s-.1.16-.1.16h-.14s-.16-.05-.16-.05l-.14.04-.05-.03h-.04s-.04,0-.04,0l-.04.02v.03l.07.05.07.03.17.04.17.08h.07s.06-.08.06-.08l.06.06v.08s0,.08,0,.08l.03.07.25.17.14.14.05.02.02-.04-.02-.08-.05-.08-.06-.04.1-.04.09.02h.06s.02-.12.02-.12h.04s.26-.17.26-.17l-.05-.06-.12-.09-.06-.05.05-.02.05-.03.04-.04.03-.06-.04-.08h.07s.13.05.13.05l.06-.03.15-.15.02-.02.1-.05.14-.24.1-.05.05-.02.02-.04v-.04s.02-.02.02-.02h.03s.07-.03.07-.03l.21-.09.06-.04h.03s.04,0,.04,0h.04s.02-.03.02-.03v-.05s-.02-.03-.02-.03l-.03-.03ZM275.03,331.4l-.02.07v.07s.05.13.05.13l.11-.09.05-.13-.04-.09-.15.04ZM274.53,332.6v-.07s0-.06,0-.06v-.02s-.04,0-.04,0h-.01s-.01-.02-.01-.02l-.03.02-.02.06.02.05.04.04h.06ZM271.64,312.74l-.02-.05-.02-.05-.05-.05-.08-.03h-.04v.04s-.03.02-.03.02v.02s.01.02.01.02v.03s.03.04.03.04l.03.03v.03s-.01,0-.01,0l-.09-.05h-.04s0,.05,0,.05l.02.09h0s.02.03.02.03l.02.03h.03s.07-.02.07-.02h.05s.03.05.03.05h.02s0,.06,0,.06h.03l.02-.04v-.19s0-.02,0-.02v-.05ZM317.04,283.18l.05.03h.05s.11,0,.11,0l.52-.19.57-.39.07-.09.06-.24.06-.12.2-.33.05-.12v-.25h-.17s-.23.05-.23.05l-.17-.02-.04.11h-.04s-.03-.07-.03-.07v-.12s.03-.12.03-.12l.21-.49.1-.38.06-.41v-.07s-.03-.03-.03-.03h-.12s-.06.02-.06.02l-.04.04-.2.36-.13.09-.22.24-.04.07-.09.07-.09.09-.08.2-.21.29-.05.12-.03.12v.13s-.01.15-.01.15l.08.18.33-.12.14.19-.06.09-.16.18-.05.1v.28l-.02.08-.05.04-.24.05-.04.02-.02.07v.06s.05.05.05.05ZM291.66,293.77v.18s-.01.18-.01.18l.1-.1.12-.15.06-.16-.07-.12-.14.04-.06.14ZM292.26,293.03l.23.21.03.02h.11l.2.04h.04s.06-.04.06-.04l.02-.06-.02-.06-.06-.04.04-.04.05-.03h.04s.04.08.04.08l.07-.04.03-.06v-.3s-.06-.1-.06-.1l-.02-.03-.02-.06-.03-.04-.03-.02-.06-.02-.03-.02v-.03s-.03-.05-.03-.05l-.02-.02h-.04s-.05-.02-.05-.02l-.04-.03v-.07s-.41.28-.41.28l-.07.12-.04.38.02.06.05.02ZM291.48,294.14l-.1-.03-.06.07v.04s.02.04.02.04l.03.03h.03s.18,0,.18,0h.07s-.06-.07-.06-.07l-.11-.08ZM291.16,294.02h.07s.05-.05.05-.05l-.05-.11v-.07s.03-.03.03-.03h.05s.02.01.02.01v.03s.01.06.01.06v.03s.05.03.05.03h.04s.04,0,.04,0l.05-.04v-.04s0-.04,0-.04v-.06s.02-.11.02-.11l.07-.03.07-.02v-.05s0-.05,0-.05h-.07s-.09.01-.09.01l-.09-.04-.12.12-.22.18-.1.12.08.08.08.06ZM291.82,293.57l-.1-.06v.03s0,.05,0,.05l.1-.02ZM345.28,241.84l.17-.06-.09-.03h-.22s-.07-.04-.07-.04l-.07-.06-.11-.04-.12-.02h-.09s-.02.05-.02.05l.41.15.22.05ZM322.59,259.59l.14-.07.04-.06-.02-.04-.03-.02h-.12s-.04-.01-.04-.01l-.02.03v.05l.02.09.02.03ZM274.85,307.68l-.15-.07v.1s.05.08.05.08l.07-.04.05.03-.02.09.07.08.1.09.05.02v-.11s.07-.12.07-.12h.12s.12,0,.12,0l.08-.08v-.08s-.11-.05-.11-.05v-.04h.03s.05-.03.05-.03h.03s-.08-.04-.08-.04l-.07-.06-.02-.06v-.06s.03-.08.03-.08v-.05s-.33-.1-.33-.1l-.06-.06v.07s-.05.06-.05.06l-.03.1.03.1h-.11s0,.07,0,.07v.12s.14.1.14.1v.04h-.05ZM347.82,243.19h-.03,0s.03,0,.03,0ZM241.89,359.99l-.17.02h-.06s-.05.03-.05.03l-.03.06v.06s.05.03.05.03l.2-.02.05.02.06-.04.04-.06v-.06s-.08-.02-.08-.02ZM322.97,255.38v.06s.01.13.01.13v.06s.04.06.04.06v.08s.01.07.01.07l.05.05.05.02.19-.18.07-.15.02-.15v-.16s.04-.17.04-.17l.16-.25.05-.13-.08-.08-.05.02-.14.1-.06.02h-.06s-.11.04-.11.04h-.06s-.07.06-.07.06l-.07.1-.05.13-.02.12v.07s.06.08.06.08ZM330.76,232.97l-.03.34.02.15.06.16.12.25-.03.06v.04s.03.1.03.1l.07-.2.05-.2.07-.72-.02-.13-.08-.05-.09.03-.08.05h-.07s-.07-.13-.07-.13v-.03s-.03-.03-.03-.03h-.03s-.03,0-.03,0l-.04.03.15.23.02.08ZM331.5,234.87l.16.14.26.17.08.02h.08s.18-.15.18-.15l.03-.03.03-.09.06-.07.04-.07-.04-.1-.17-.24-.12-.13-.16-.11-.16-.05-.11.03-.06.03-.18.21.02.03.03.07.02.04-.07.14.09.16ZM267.76,341.54v-.07s-.01-.02-.01-.02v-.03s-.04-.01-.04-.01v.09s.06.04.06.04ZM270.69,313.4l.02.06.04.02.09.06h.04s.03,0,.03,0l.06-.1.06-.07v-.04s-.02-.07-.02-.07v-.02s-.05-.03-.05-.03l-.12-.08-.03.02.02.06.02.05v.05s.02.02.02.02v.02s0,.02,0,.02h-.02s-.02-.05-.02-.05v-.07s-.05-.07-.05-.07l-.05-.03h-.04s-.01.05-.01.05v.05s0,.18,0,.18ZM274.06,309.37v-.03s.05-.01.05-.01l.06.03h.07s.07-.02.07-.02l.04-.06v-.05s-.1.01-.1.01v-.03s-.02-.04-.02-.04h-.05s-.08.06-.08.06l-.09.09-.02.06h.04s.02,0,.02,0ZM270.96,312.99h.03s.07.09.07.09l.03.02.02.02.02.03v.03s-.02.02-.02.02v.02s.06,0,.06,0l.03.02v.05s.03,0,.03,0l.02-.05v-.04s-.02-.02-.02-.02v-.03s.05-.02.05-.02l.02-.06v-.13s-.02-.06-.02-.06h0s-.02-.03-.02-.03l-.02.02v.06s-.03.03-.03.03l-.04-.02h-.01s.01.09.01.09h-.03s-.08-.1-.08-.1l-.09-.03-.05.05v.04s.04-.01.04-.01ZM245.2,352.1h0s0,0,0,0h0ZM265.51,347.86l.13-.02v-.16s-.08.02-.08.02h-.13s-.07.02-.07.02l.02.09.13.06ZM266.45,346l.09-.15.04-.14h-.03l-.04.07-.25.29-.05.08.13-.05.12-.12ZM274.11,329.96v.04s.02.05.02.05l.03.02.06-.02v-.02s0-.04,0-.04l-.03-.02h-.04s-.03,0-.03,0ZM273.68,310.25l-.02.17-.15.13v.12s.05.1.05.1l-.11-.02-.06.06-.02.08.03.06h.06s.03.04.03.04l.02.02-.03.05h-.08s-.12-.08-.12-.08l-.05-.09-.02.14v.06s.07.02.07.02l.09.04.18-.05.17-.12.23-.27.05-.12v-.09s.06-.05.06-.05v-.06l.06-.03.06-.07-.05-.05.07-.07.07-.1.03-.08-.03-.26-.15.03v.08s.07.07.07.07l-.08.07-.03-.06-.04-.02-.07.14-.26.06v.13ZM272.35,305.63h.03s.06-.05.06-.05l.04.02.06.07h.03s.02.07.02.07l.06-.03.02-.04h.06s.01-.04.01-.04l.06-.04v-.05s.07-.03.07-.03l.03-.1v-.07s.02-.05.02-.05h.03s.01-.03.01-.03v-.07s.01-.09.01-.09v-.07s0-.02,0-.02v-.03s.06,0,.06,0l.08-.06-.02-.07v-.1s.02-.08.02-.08l.09-.04.02-.05-.02-.04h-.13s-.02.08-.02.08l-.05-.05v-.12s-.06-.06-.06-.06l-.05-.03h-.06s0,.04,0,.04l.02.05h-.07s-.07.04-.07.04h-.05s-.04.04-.04.04h-.03s0-.11,0-.11l.02-.05-.02-.04h-.09s-.04.07-.04.07v.26s-.05.14-.05.14v.09s-.04.04-.04.04l-.02.19v.15s-.03.14-.03.14v.24ZM271.93,310.63l.03.03.05.04.08.02h.04s.03-.07.03-.07l.08-.06v-.04s-.03-.05-.03-.05l-.04-.09h-.04s-.07.05-.07.05h-.05s-.07.05-.07.05l-.06.08v.05s.02,0,.02,0h.03ZM273.63,324.66l.02-.02v-.02s-.03,0-.03,0v.03ZM272.85,304.15l.07.07.03-.03-.03-.1.05-.07.06-.04-.02.07v.06s0,.11,0,.11h.05s.09-.1.09-.1l.06.03v.17s-.13-.04-.13-.04l-.08.05.09.12.09.03.12-.04.05-.1.03-.04.07-.04.04-.08-.04-.02-.06-.07-.02-.1.02-.04.03-.08v-.04s-.09.1-.09.1l-.08.02v-.09s.12-.11.12-.11l-.02-.17.11-.17.22-.2.09-.24.04-.15v-.05s.03-.05.03-.05l-.08-.07-.05-.06h.05s.05.02.05.02l.04-.02.04-.09v-.06s-.05-.03-.05-.03h-.04s.04-.04.04-.04l.03-.03.02-.08-.03-.05-.05-.05-.03-.05h-.07s-.06.04-.06.04h-.08s-.03.05-.03.05l.04.05-.08.02-.09.12-.06.06-.09-.02h-.12s-.07,0-.07,0l-.08.27-.02.1-.07.1v.08s.1-.03.1-.03l.08.11v.04s-.1.09-.1.09l-.08.2-.06.15.02.07.06-.02.08-.08v.04s-.06.08-.06.08l-.03.04h-.02s-.05,0-.05,0l-.04.05.03.12v.22s-.07.04-.07.04h-.12s-.03.08-.03.08l.1.02.12-.03ZM333.03,361.32l-.04.03v.03s.05.02.05.02h.02s.01-.04.01-.04v-.04s-.05,0-.05,0ZM332.48,358.27h-.09s-.09,0-.09,0l-.06.03-.03.06v.07s-.01.18-.01.18l.06-.04.09-.13.05-.06.06-.02h.07s.04-.03.04-.03l-.04-.06-.05-.02ZM330.1,344.93v.09s.05-.08.05-.08l-.02-.03-.03.02ZM332.24,354.79v-.06s-.06-.04-.06-.04h-.07s-.02.07-.02.07l.02.07.06.05.04-.04.02-.06ZM336.01,272.11l-.03-.02-.14-.14-.02-.07.04-.11-.03-.04v-.04s0-.04,0-.04l.03-.06-.12.02-.23.24-.03-.08.02-.09.07-.14v-.09s.03-.28.03-.28l.04-.15v-.03s.07-.06.07-.06l.02-.05v-.05s-.02-.04-.02-.04v-.03s0-.03,0-.03l-.12-.39-.02-.08-.02-.2-.03-.06-.03-.04-.03-.05-.05-.12v-.04s.07-.08.07-.08l.02-.06v-.07s-.03-.07-.03-.07l-.03-.14-.04-.03-.05-.02-.05-.03-.32-.3-.06-.1-.02-.16.05-.13.09-.08.06-.08-.06-.13-.06-.05-.13-.05-.06-.05v-.06s0-.06,0-.06l.05-.05.05-.02.04-.07-.06-.16-.13-.25-.09-.11-.04-.06v-.08s-.03-.04-.03-.04l-.07-.16-.02-.07-.05-.09-.09-.06-.03-.12-.14-.19-.05-.06-.28-.33-.17-.13-.03-.07-.03-.06-.08.02-.05.05h-.08s-.06-.04-.06-.04l-.14-.16-.05-.08-.06-.13-.16-.5-.07-.36-.09-.59-.06-.68v-.08s-.02-.28-.02-.28v-.35s.04-.4.04-.4v-.07s0-.09,0-.09l.02-.08-.02-.07-.02-.15.06-.39v-.07s.03-.17.03-.17l.07-.37.04-.11.04-.14.03-.1.06-.07v-.07s0-.03,0-.03v-.03s.03-.03.03-.03v-.02s0-.06,0-.06l.03-.04v-.04s-.03-.03-.03-.03l-.06.08-.08.08-.1.1-.14.12-.16.08-.15.05h-.21s-.2-.1-.2-.1l-.2-.13-.05-.07-.02-.05-.1-.08-.08-.11-.17-.2-.21-.11-.22-.02-.09-.02-.05-.03-.07-.04-.07-.07-.07-.08-.12-.08-.07-.09-.03.05-.02.07-.02.03.03.07v.08s-.02.13-.02.13v.03s-.08.06-.08.06l-.15.24-.08.08-.05.2-.02.15-.04.18-.06.05v.05l-.02.12-.03.16-.06.17.02.11-.03.19-.06.07v.07s0,.26,0,.26l.16.11h.08s.07-.11.07-.11l.17-.12.06-.02.08.02.08-.06h.19s.08-.11.08-.11l.07-.04.07.02.07-.02.14.06.12.02.07-.09.11-.09.09-.03.16-.14.05-.08v-.03s.01-.02.01-.02h-.01s-.03.05-.03.05l-.03.05h-.03s0-.03,0-.03l.05-.06.03-.06.04-.09h.11s.11.09.11.09l.15.18.1.17.07.17.04.2-.03.12-.04.07-.05.05-.03.08v.06s-.02.1-.02.1l-.03.44-.05.18-.2.5-.11.13-.08.08-.1.04h-.07s-.09-.06-.09-.06l-.04-.03-.05-.09-.03-.07-.05-.04h-.05s-.06-.01-.06-.01l-.12-.07-.1-.03h-.06s-.02-.02-.02-.02v-.05s.02-.03.02-.03h0s.01-.02.01-.02v-.04s-.08-.06-.08-.06l-.04-.05-.05-.08-.05-.02h-.12s-.06-.1-.06-.1h-.07s-.03,0-.03,0l-.05.12-.02.03v.04s-.04.04-.04.04v.04s0,.05,0,.05h-.06s-.04.03-.04.03l.03.03.03.02.05-.02.04.02-.02.02-.02.05v.07s.04.05.04.05l-.09.2-.11.11-.16.18-.23.03-.24-.12-.15-.27-.09-.74-.07-.22-.02-.2-.03-.14v-.08s.01-.06.01-.06v-.19s.04-.17.04-.17l-.05-.15-.19-.17-.22-.04-.12.04-.07.15-.13.09h-.11s-.13-.1-.13-.1l-.13-.17-.09-.1-.06-.02-.1-.06-.08-.08-.02.04v.08s-.03.06-.03.06v.17s-.02.07-.02.07l.02.07-.02.13-.04.15-.08.09-.11-.02h-.12s-.05.04-.05.04v.07s.09.02.09.02h.08s.09.06.09.06l.11.19v.08s.01.16.01.16v.03s.05-.03.05-.03l.03-.03.02.04.03.03h.09s.05,0,.05,0h.1s.03.03.03.03l.02.06h-.05s-.05-.02-.05-.02h-.04s-.04.05-.04.05l.03.06.03.16h-.06s-.04-.03-.04-.03l-.06-.04-.04-.04-.08-.15h-.01v.18s-.03.14-.03.14v.16s-.03.12-.03.12l-.06.41-.13.4-.06.11-.09.08-.11.03-.1-.05-.21.16-.07.08-.09.03h-.07s-.06-.03-.06-.03l-.13-.11h-.12s-.24.15-.24.15l-.06.16-.08.16-.05.1-.1.05-.06.15-.13.03-.1.11-.1.11-.02.12.1.04.19-.02.07.1v.11s.07.06.07.06v.15s.01.28.01.28v.28s0,.1,0,.1l.09.1.17.17.06.06.06.08-.02.14-.04.63-.04.08-.07.2.02.14-.08.28-.36.69-.18.21-.22.15h-.11s-.28-.14-.28-.14l-.21-.15v.11s0,.18,0,.18l.09.05-.08.04.02.13.11.14.04.07.07.16.04.05h.32l.09-.02.05-.06.05-.07.07-.07.22-.04.22.12.19.19.11.17.06.2v.15l.1.27v.19l-.05,1.23-.14.62-.12.51-.16.18-.16.07-.07.16-.07.24-.03.2v.26s-.03.12-.03.12l-.06.12-.03.1-.03.23-.05.19-.21.58-.2.78-.13.24-.15.21-.44.41-.14.21-.09.26-.25.62-.18.34-.1.26-.05.24-.15,1.29-.04.11-.08.12-.51.56-.32.24-.11.08-.41.19-.2.03h-.11s-.04.05-.04.05l-.64.44-.36.29-.15.19-.09.23-.22.78-.09.23-.14.2-.29.25-.18.29-.13.26-.09.2-.14.15-.56.35-.56.56-.4.29-.19.09-.21.05-.33-.06-.1.13-.12.12-.27.12-.51.33-.44.16-.61.26-.48.11-.43.09-.26.14-.1.07-.07.15.03.12-.03.09-.02.1-.07.11-.06.17-.16.11-.08.12-.17.03-.28-.05-.22.04-.2-.02-.14-.1-.23-.08-.14-.13-.23-.15-.09-.22.18-.26v-.15s.15-.17.15-.17l-.03-.35.03-.35-.03-.12-.04-.02-.07.05-.1.25-.12.05-.08-.03-.15-.17-.1-.02-.1.06-.09.02-.07-.04.04-.08v-.13s.1,0,.1,0l.03-.04v-.13s-.06-.03-.06-.03l.06-.18.12-.15.05-.09.02-.05.06-.02.05-.06h.04s-.02.04-.02.04l-.05.07.07.06.1.07.17.07.06-.04.03-.08.11-.03.08-.05v-.12s.11-.14.11-.14l.08-.14.28-.11.21.05h.1s.04-.05.04-.05l.09-.08.03-.07v-.08s.02-.09.02-.09h-.09s-.06-.15-.06-.15l.04-.21.04-.1.07-.05.1-.04.1.02h.09s.13-.04.13-.04l.02-.05v-.08s-.05-.05-.05-.05v-.07s.03-.12.03-.12l-.05-.07-.22-.09-.2.04-.7.23-.11.09-.1.12-.13.03-.54.3h-.15s-.11-.05-.11-.05l-.19.05-.29.16-.17.1-.14.2v.17s.06.08.06.08l-.03.09-.07.11-.07.07.04.07-.07.08-.04.1-.04.15-.02.16.03.08h.1s.01-.06.01-.06h.05s.06.03.06.03l.03.1-.04.31v.13s.06.05.06.05l.05.21.09.08.04.12-.03.18-.04.1v.06s.03.04.03.04l.04.04v.15s-.02.12-.02.12l-.35.86-.25.42-1.04,1.41-.24.25-.18.15-.24.11-.1.15-.4.35-.17.07h-.09s-.1,0-.1,0l-.02.04.08.13-.07.15-.06.09-.07.15-.24.31-.06.18-.07.14-.09.2-.06.08-.12.07-.03.16.07.08.12.15v.14s0,.17,0,.17l.09.09.18.2.11.08.03.08.06.1.06.12v.1s-.03.1-.03.1v.11s0,.06,0,.06l-.05.07v.08s0,.04,0,.04l-.03.03-.03.1-.11.02-.02-.07-.08-.07.02-.06h.05s.02-.07.02-.07l-.04-.11-.04-.09v-.05s-.06-.12-.06-.12l-.19.15-.13.07v.17s.07-.01.07-.01l.02.07v.09s-.05.13-.05.13l.09.07v.08s-.05.03-.05.03l-.1-.02-.06.06-.1.06-.05-.04-.04-.06-.17.04-.07-.04-.06-.05-.09-.07h-.06s.02.08.02.08l.07.08.02.02.02.08.03.04.03.03.02.04-.07.03-.07.02-.05-.05h-.05s-.01.06-.01.06l.07.13.04.05.05.02-.12.05-.08-.03-.08-.11h-.1s-.04-.09-.04-.09l-.05-.04-.16.05-.07.1.08.03.06.11.14-.07v.12s-.05.09-.05.09l-.07.05h-.14s-.26.06-.26.06l-.11-.04.06-.04.04-.17.11-.05.02-.03-.1-.05-.12.06-.1.09-.04.07-.1.05-.05.02h-.04s-.14,0-.14,0l-.09-.03v-.08s0-.11,0-.11v-.11s-.05.1-.05.1l-.03.05-.04.02h-.05s0-.04,0-.04v-.04s0-.06,0-.06l.02-.09-.06-.04-.09-.04.03-.09.02-.1-.12.08-.02.06-.05.06-.05.05-.07.02h-.14s-.06.02-.06.02l-.12.1.06.16.12.05.14-.03v.15l-.04.03-.12-.06h-.09s-.06.09-.06.09l-.05.1-.05.05-.03-.07v-.05s.06-.11.06-.11l.02-.05.03-.08-.05-.1-.04.04-.07.03-.31-.17v-.1s.07,0,.07,0h.05s.04-.03.04-.03l-.03-.03-.06-.03-.03-.12-.06.04-.07.1-.07.05v.11s-.06,0-.06,0l-.04-.03v-.12s.08-.13.08-.13l.14-.16.05-.05.02-.08.06-.13.1-.07.1.06.03-.08v-.1s-.07-.14-.07-.14l-.08-.12-.07-.05-.05-.11-.12-.09-.08.05-.13.02-.24.05-.25.08v.08s-.19.15-.19.15l-.08.05h-.09s-.11.02-.11.02l-.14.1.02.08-.05.02-.03.02-.1.08-.06-.02-.09-.03-.06.02-.02-.07h-.09s-.1.07-.1.07l-.04-.07-.1-.03-.07-.02h-.16s-.37.01-.37.01h-.22s-.28.02-.28.02l-.26-.08-.19.11-.16.1-.26.1-.18.06-.07.09h-.05s-.05.01-.05.01l-.24.05-.06.13-.1.07-.12.04-.32.06-.69.1-.13-.11-.48.14-.89.07-.49-.11-.26-.07-.27.07-.16.07-.25.12-.12.21h-.09s-.1,0-.1,0l-.1-.02-.15-.03-.17-.09-.15-.09-.02-.08-.03-.07v-.07s.02-.01.02-.01l.06-.08.08-.02.06-.03.07-.02.06-.04-.09-.05h-.11s-.1.02-.1.02l-.1.04-.03.02h-.06s-.02-.03-.02-.03l.03-.06-.03-.03-.09.06h-.09s-.16.06-.16.06l-.07-.05-.11-.09-.07-.08-.07-.02v.08l-.05.07-.08-.03-.06.04-.05.07-.04.09-.09.03-.11-.02-.09.02-.02.15h-.12s-.12.02-.12.02h-.28s-.14.04-.14.04l-.16.07-.14.09-.11.02-.08.03h-.05s.09.06.09.06l.05.04-.03.03-.07.02h-.16s-.1,0-.1,0l-.13.04h-.1s-.06.07-.06.07l.04.07.11.08.08.04.02.08v.08s-.01.1-.01.1l-.04.15-.06.1-.06.11-.09.06-.22.07-.13.07-.09.03v.08s-.18.08-.18.08l-.14.12-.29.23-.03.09-.08.09v.06s-.03.06-.03.06l-.11.08-.15.12-.05.18-.11.08-.11.05-.17.03-.1.13-.29.22-.13.11-.1.09-.24.21v.13s-.05.08-.05.08l-.1-.03-.07.06-.12.17-.2.15-.16.15-.11.1-.03.04-.11.02-.03.08-.02.05-.02.14-.09.05-.09.04-.16.07-.22.06-.17.02-.15-.02-.03.02v.05s-.08.05-.08.05l-.13-.03-.07-.03-.09.03v.1s-.01.1-.01.1v.05s-.04,0-.04,0h-.1s-.04.02-.04.02v.14s-.03.06-.03.06l-.07.09-.08.08-.19.15-.1.02-.03.03.04.12-.03.05-.15.15-.06.07v.18s-.24.05-.24.05h-.15s-.06.14-.06.14l-.19.05h-.24s-.04.02-.04.02l-.06.05-.03.02v-.09s.03-.08.03-.08l.03-.07.04-.06.06-.02h.05s.08.07.08.07h.07s-.08-.11-.08-.11l-.06-.06-.09.02-.14.03-.07.02-.11-.03v.08s.01.04.01.04l.09.1-.06.09-.03.07h-.09s-.06-.06-.06-.06l-.03-.2h-.09s-.08-.01-.08-.01l-.12-.07-.07.02-.05.03-.07.02h-.07s-.06,0-.06,0l-.04-.03v-.07s-.06-.05-.06-.05l-.07-.02-.09.07-.05.05-.04.07-.03.07.06.02v-.02s.04-.05.04-.05l.05.02.19.04h.07s.08.07.08.07l-.11.03-.08.04-.2.05-.03.02-.03.05h-.07s-.08,0-.08,0l-.05-.02-.03.07-.02.07-.02.18-.02.04-.03.04-.02.04.02.06.08.06v.02s.03.07.03.07l.07.12.03.15.02.04v.05s0,.08,0,.08l-.05.1-.06.05-.06.04-.07.06-.06.1v.06s.04.06.04.06l.02.08.03.06h.13s.04.09.04.09l-.04.14.04.05.02.06-.02.07-.03.09v.07s-.04.14-.04.14h-.09s0,.07,0,.07l.07.03.03.05.08.06.05-.05.03-.13.18-.15.22-.26.11-.2.18.06.15.04.1.18.16.12h.04s0,.04,0,.04l-.03.05v.07s.04.06.04.06v.05s.04.02.04.02h.04s.04-.04.04-.04l.03-.03h0s.03-.03.03-.03l.03-.02h.02s0,.06,0,.06l.02.04h.04s.04,0,.04,0l.04-.02.04.08h.07s.25-.17.25-.17l.05-.05.11-.16.14-.26.03-.04.05.04.02.09v.11s-.06.08-.06.08l.05.03h.04s.03-.05.03-.05l.03-.06v.04s.04.04.04.04l.03.03h.03s.04-.01.04-.01v-.02s.01-.02.01-.02l.02-.02v-.04s.05-.04.05-.04h.01s.03-.04.03-.04v-.03s-.03-.05-.03-.05l.07-.03.05.02.09.09.04.02.16.05v-.02l.03-.02h.03s.01.05.01.05v.04s.01.02.01.02h.02s.03,0,.03,0l.07-.04.02-.06-.02-.08-.04-.07.04-.06h.02s.02.04.02.04l.02.02h.19s.15-.08.15-.08l.06-.04.07.02.19-.07.29.11.07.05h.05s0,.05,0,.05l-.08.09-.15.12v.1s.07.03.07.03h.17v-.04h-.07l.11-.14.09-.02.09.06.11.1.05.03.14.06.05.04.12.17.03.03.11.02.31.11.09.05.06.05.06.04.05.06.02.11-.02.09-.05.04h-.06s-.04-.07-.04-.07v.05s-.05.09-.05.09l-.02.03-.1.08v.1s.06,0,.06,0l.1-.06.15-.13.22-.12.06-.07v-.09s-.11-.22-.11-.22l-.03-.11v-.15s.04-.05.04-.05h.07s.12-.07.12-.07l.16-.19v-.21s-.07-.23-.07-.23v-.26s.07-.09.07-.09l.07-.05.06-.06.02-.14-.02-.14v-.09s-.04-.12-.04-.12l-.05-.08.44-.52.17-.13.18-.1h.11s.18.09.18.09h.1s.1-.03.1-.03l.08-.05.1.06.04.04.02.06h-.04s-.06.03-.06.03h-.04s.03.08.03.08v.05s-.03.05-.03.05v.08s.02.03.02.03l.07.08.06.15.08.08.05.07-.07.08.05.07h.06s.13-.07.13-.07l.02-.02v-.03s.04-.03.04-.03h.05s0,0,0,0v.04s.03.04.03.04l.02.02h.14s.23-.16.23-.16l.12-.04h.15s.07-.02.07-.02l.03-.04-.03-.06-.04-.06v-.04s.07-.02.07-.02l.1-.06.09-.12.09-.05.08.14.15-.1.14-.06.53-.05.2-.05.13-.11-.03-.19.07-.04.05.03h.05s.05,0,.05,0h.05s.09.06.09.06l.08.07v.04l-.1.02-.07.2-.1.02.02-.07v-.09s-.02-.06-.02-.06l-.05.04-.08.11-.05.06h-.02s0,.24,0,.24l.03.1.08.04.05-.03.11-.11.09-.04.06-.05h.03s.02,0,.02,0l.06.06h.04s.09-.04.09-.04l.03-.11-.03-.12-.1-.08.06-.07.09-.06.08-.08.09-.3.1.04.05.11-.09.07v.04h.12s.11.03.11.03l.05.07-.05.1-.05.02h-.07s-.06.03-.06.03l-.03.04.03.06h.06s.07-.01.07-.01l.15-.07.08-.07.35-.45.05-.12-.04-.04.02-.1.06-.03h.13s.06-.02.06-.02l.11-.08.05-.02.11.05-.07.12-.19.23.31-.13.03-.02.03-.03.03-.02.09-.02.04-.02.03-.03v-.04s.06-.04.06-.04l.22-.12.14-.05.08-.06.07-.03.08.03.03-.04v.07s.03.06.03.06l.03.03.03-.02.12.11.06.15.07.12.16.03-.02-.15h.18s.38.06.38.06l.09-.13.06-.19.08-.13.14.05-.02-.05h0s-.01-.03-.01-.03l.06-.06.08-.05.06-.07v-.11s-.05-.07-.05-.07l-.08-.02h-.09s-.08.05-.08.05l-.13.15-.07.06-.06-.04-.02-.1.06-.06.08-.03.13-.08.07-.02h.17s.09.02.09.02l.11.11.07.03.15-.02.17-.07.14-.1.06-.13-.05.03h-.05s-.04,0-.04,0l-.03-.03.08-.05.04-.02.09-.02.08-.06h.04s.02-.04.02-.04l.1-.14h.03s.1-.03.1-.03h.04s-.26-.07-.26-.07l-.05-.02-.04-.1h.06s.13.06.13.06l.14.02.25.07h.14s0-.07,0-.07l.03-.07.05-.05.06-.02h.04s.04.05.04.05l.05.03h.07s.04-.03.04-.03l.13-.17h.03s.02,0,.02,0h.01s0-.05,0-.05v-.04s.03-.03.03-.03l.03-.02h.03s0,.08,0,.08l.03.05.05.02h.06s.03,0,.03,0h.03s.03-.04.03-.04l.02-.02.03-.02h.03s.03.03.03.03h.03s.64-.05.64-.05l.24.06.09.06.19.16.16.06.27.18.1.08.15.06.11.14.09.02h.19s.14.1.14.1l.17-.02.16-.08.36-.06v-.14s.1-.01.1-.01l.03.13.16.03-.11-.24.17-.06v.14s.16-.02.16-.02v-.15s.15,0,.15,0h.12s.11.11.11.11l.09.05.08-.03.08-.04-.05.2.02.15.04.15v.18s0,.13,0,.13l-.03.1-.05.05-.04.06-.09.03v.07s0,.14,0,.14l-.09.1-.17.23-.19.19-.12.12-.24.21-.51.14-.17.19-.05.11.16.04.13.1.08.09.07.25h.08s.07.12.07.12l.05.1v.08s-.2-.01-.2-.01h-.13s.04.09.04.09v.08s-.02.01-.02.01l-.04.02h-.01s-.1.21-.1.21h.08s.11.06.11.06l.1.06.05.05v.09s-.05.09-.05.09l-.12.07-.07.03h-.1s-.08.09-.08.09v.11s.09,0,.09,0l.03.03-.08.07-.07.07.04.07v.07s-.07,0-.07,0l-.03.03.04.03-.03.04v.06s.02-.03.02-.03l.17-.03.09-.02.17.1.1.22.11.14.16.1v.1s.17,0,.17,0l.15.1h.09s.05.06.05.06l.1.05.25.19.05.07-.11.02-.18.03-.07.13.07.08.08.02.05.05h.03s.03.05.03.05l.06.11-.03.06v.08s.05.07.05.07l.06.05.18.14.23.06.73.27.15.02.48.05.03.08-.08.1.03.11.06-.07.09.02v-.07s-.03-.11-.03-.11l.07-.13.06-.06.09-.05.28-.09.05-.07.09-.04.17-.18.07-.09-.1-.06v-.08s.09-.05.09-.05l.02-.1.09-.06.05-.17.02-.02.11-.28.26-.67.18-.26h.1s.05,0,.05,0l.03-.02.05-.08.04-.04.02-.02.17-.03.04-.04.02-.11.09.04.03-.06-.03-.08-.11-.02v-.04l.07-.06.07-.07.03.06.04.07.06.03.07-.03v-.05s0-.16,0-.16v-.03s.03-.03.03-.03l-.04-.06-.09-.09v-.08s-.04-.05-.04-.05l-.05-.02h-.07s0-.04,0-.04l.06-.04.08-.13.03-.03.04.02.06.11.05.03h.04s.05-.03.05-.03l.04-.03.02-.03.03-.08v-.03s-.05-.02-.05-.02l-.06-.05v-.17s.2-.18.2-.18l.23-.12h.16l.05-.06.22-.15.15.06h.06s-.04-.1-.04-.1l.03-.03.03-.05.03-.07h.05s.14.08.14.08v-.05s.02-.02.02-.02l.02-.02.03-.04.09.11h.08s.07-.07.07-.07l.16-.07.06-.07v-.07s-.08-.03-.08-.03l.13-.07.15-.05.08.02-.07.12-.03.09.11.02.15-.03.08-.07.17.12v-.04s.01-.02.01-.02v-.02s-.01-.04-.01-.04l.1-.03.09.03.05.08-.04.13-.06-.04v.03s.02.05.02.05v.04s-.05-.04-.05-.04l-.1-.04-.1-.02-.07.03v.07s.1.05.1.05l.12.03h.08s.08,0,.08,0l.17-.07.05-.04.02-.09v-.11s-.04-.1-.04-.1l-.04-.06.03-.05.03-.04.08-.07h-.06s-.05-.01-.05-.01l-.04-.03-.02-.04.04-.06.05-.02h.06s.06.04.06.04l.04-.22v-.07s-.05-.06-.05-.06h-.04s-.05,0-.05,0l-.06-.02-.05-.06v-.06s-.02-.06-.02-.06l-.03-.07-.05-.04-.07-.02h-.07s-.05.02-.05.02l-.05-.05-.25-.11-.37-.24-.07-.07-.07-.08-.08-.07-.1-.03h-.22s-.08-.04-.08-.04l-.05-.08v-.06s.03-.08.03-.08v-.07s-.05-.03-.05-.03l-.02-.02-.05-.1v-.03s0-.13,0-.13l.03-.12.04-.27.15-.21.25-.32.12-.21.04-.14v-.11s.07-.06.07-.06h-.08s-.01-.05-.01-.05v-.03s.03-.06.03-.06v-.04s.05-.09.05-.09l.11-.1.22-.16.09.02.03-.02.13.03.1-.02v-.15s.05,0,.05,0l.02.13.13-.03-.05-.28.06.02v.09s.03.13.03.13l.04-.13.07-.19.07.03v.11s-.03.16-.03.16l-.07.11-.04.11-.06.11-.05.1-.05.1v.1s0,.11,0,.11v.14s.03.14.03.14h.08s.06.09.06.09l.04.12v.09s-.04.1-.04.1l-.02.1-.05.11v.1s.06.08.06.08l.11.07.17.11.16.07h.13s0-.09,0-.09l-.05-.13-.13-.07-.05-.11-.06-.07.05-.31.03-.11.04-.09.09-.14.06-.16.05-.08.02.16-.1.24-.02.15.09.04.09.1.03.03.08.11.05.02.11.02.11-.04.07.05.07-.05.1-.02h.09s.08.04.08.04l.07-.02v.12s.09-.04.09-.04v-.11s.03-.11.03-.11l.07.03.07-.08.11.04.1.04.07-.03.09.07.12.14v.04s0,.07,0,.07l-.04.11.14.06-.04.04-.12-.03v.11s-.03.1-.03.1h-.04s.02-.1.02-.1v-.13s-.09-.02-.09-.02l-.11.16-.09.04-.22.14-.15.1-.07.03-.08.03-.08.05v.02s-.05.05-.05.05l-.03-.04-.02-.04-.14-.15-.1.11-.05.17-.06.12-.03.04-.04.07h.08s.07-.01.07-.01l.25-.08.22.02.98-.35.43-.12.59-.06h.24s.44.04.44.04l.54.19.5-.17h.37s.39.08.39.08l.71.32.21.04.03-.05-.08-.08-.12-.03-.04-.12.04-.11.07-.31.17-.16.22-.16.11-.19.05-.06.07-.11-.05-.11v-.06s.03-.11.03-.11l.05-.08.03-.1.07-.08.16-.09.14-.07.19-.09.23-.13.09-.22h-.05s-.07.03-.07.03v.12l-.06-.06v-.19s.16-.11.16-.11l.13-.27.16-.11h.25s.13-.08.13-.08l.16-.07.24.02.29.08.17.13.07.13.27.29-.07.06h-.09s-.1,0-.1,0l-.14-.03-.2-.02-.05.14-.07.14v.14s.06.15.06.15l.02.06.06.09h-.06s-.07.08-.07.08l-.05.09.03.06v.12s0,.02,0,.02l-.02.1-.05.1.05.18.08.19-.06.02-.03.06-.06.05v.12s.01.11.01.11l.03.06.03.02h.04s.03.04.03.04l.02.05-.03.1.12.13.06.08.07.07.08.04.13-.1.17-.09.22-.19.12.05.04.04h.05s.06-.02.06-.02l-.03-.09v-.11s0-.11,0-.11l.04-.08.03-.04-.02-.07.06-.08.04-.05.04-.06.08-.02.04-.06.04-.09.08-.1.05-.12.02-.08.05-.08.1-.07.11-.02.04-.21-.03-.22-.06-.14-.15-.06-.07-.14.05-.09.02-.11.02-.11-.15-.02v-.13s.06-.21.06-.21l.16-.24.18.08-.08-.29.02-.31.19-.17.25-.13.24-.07.24-.05.42-.09.26.03.1.08.1-.02h.1s.09-.02.09-.02l.02.12h.06s.03.07.03.07l.02.04.14.18.03.09.08.03.02.05-.11.06.06.17v.13s-.01.06-.01.06l.02.05h.05s.08-.03.08-.03l.11.03h.05s.05-.03.05-.03l-.02-.05-.05-.06-.05-.11.03-.09.11-.09h.19s.02-.08.02-.08v-.02s-.01-.02-.01-.02l-.02-.02.1-.09-.06-.1-.2-.02-.08-.14-.06-.04-.03.07-.05-.07v-.08s0-.1,0-.1l.03-.08v-.23s-.06-.07-.06-.07l-.03-.08.07-.05.12.06h.06s-.02-.11-.02-.11l.03-.08-.03-.04-.09-.05-.1-.05.05-.06.08-.02.11.04.13-.02.15-.12.17-.11.04-.06h0s0-.09,0-.09l.06-.08-.07-.17v-.07s-.08-.12-.08-.12l-.05-.18.03-.13.05.07v.14s.07.09.07.09l.06-.09.03-.12h.07s.02.09.02.09l.07.05.03-.09.03-.05.07.03h.03s.04.04.04.04h.06s.03.06.03.06l.07-.06.14-.08-.09-.15.15-.06.16.02.06.07.06-.02.12.11.07.06.08.09.08.07.02.11v.11s.09,0,.09,0l-.02.07-.04.09h-.09s-.15.16-.15.16l-.11.14-.07.11-.12.09h-.12s-.09.1-.09.1l-.14.05-.06.07.04.19v.08s-.07.09-.07.09l-.24-.07-.03.1-.07.07v.11s-.11.07-.11.07h-.1s0,.02,0,.02l.13.05.2.07v.13s.08.15.08.15v.13s-.07.06-.07.06l-.14.09-.03.08v.09s0,.08,0,.08l.09.14v.22s0,.07,0,.07l.05.11v.07s0,.07,0,.07l-.06.06v.06s.11.04.11.04l.06.04v.08s-.01.05-.01.05l-.03.02-.09-.03h-.07s-.03.06-.03.06l-.06.03-.07.02h-.05s-.09-.02-.09-.02h-.06s0,.07,0,.07l.02.05h.11s.16.08.16.08l.06.05v.08s0,.06,0,.06l.08.04.02.03h.06s.07-.03.07-.03l.06.02h.09s.13-.04.13-.04l.08-.07.05-.06.05-.08v-.11s0-.1,0-.1l.05-.09.03-.1.05-.08.15-.11.17-.12h.1s.13-.1.13-.1l.03-.13.14-.15.1.03.22.02.18.02.08-.13.13.02.08-.09.04.08.09.02.06-.07v-.09s.08-.14.08-.14l.14.02.08-.12.02-.15.03-.23.04-.25-.04-.17-.09-.31.18-.66.3-.46.56-.52.32-.22.27-.06.02.1.25-.09.16-.07.12-.03.06.06.03.06.07.04.04-.05.05-.14-.03-.05-.05-.03h-.03s-.03-.02-.03-.02l-.05-.03-.05-.11-.2-.29-.71-1.24-.18-.5-.16-.4-.06-.52v-.23s.06-.13.06-.13l.19-.2.04-.16v-.1s-.07-.24-.07-.24v-.1s.06-.44.06-.44l.08-.21.27-.48.24-.92.05-.1.2-.32.02-.05.02-.06v-.11s.01-.07.01-.07l.04-.03.04-.02.07-.09.12-.03.16-.11.13-.03h.04s.17-.18.17-.18l.07-.22.07-.54.08-.2v-.07s.01-.57.01-.57l.03-.08v-.19s.11-.45.11-.45l.03-.2-.07-1.68v-.06s-.08-.09-.08-.09l-.02-.04v-.04s.06-.08.06-.08v-.05s.02-.13.02-.13l-.02-.08-.05-.06-.02-.09-.06-.22-.17-.31-.13-.24v-.02s-.07-.46-.07-.46v-.26s.03-.26.03-.26l.2-.76.1-.23.14-.24.17-.21.05-.04.05-.03.04-.03v-.05s0-.06,0-.06l-.05-.02h-.06s-.05.03-.05.03l.03-.12.05-.11.07-.09.09-.07.04.03h.04s.04,0,.04,0l.04-.03.08.26.02.04h.09s.03,0,.03,0v-.14s.03-.15.03-.15l.11-.09.13-.05.37-.09h.14s.1.04.1.04l.11.11.05.03.06.02h.06s.04-.02.04-.02h.04s.06.06.06.06l-.04.13-.03.04.16.08.05.05v.03s-.02.03-.02.03l-.02.04.02.04.03.02h.07s.03.02.03.02l.14.14.03.02.06-.17.03-.05-.06-.1v-.14s-.02-.13-.02-.13l-.12-.07.04-.09.06-.03h.07s.07.03.07.03l-.06-.08-.09-.03-.1.02-.06.05-.05-.06v-.05s0-.05,0-.05l-.03-.07v-.04s.06-.03.06-.03l.12-.04-.02-.03v-.02s-.02-.02-.02-.02l-.03-.02.03-.06.07-.24.02.06.03.05.04.04.05.02.02-.13v-.1s-.02-.09-.02-.09l-.06-.1-.07.09-.08-.04-.08-.1-.08-.08.22-.18.03-.04.05-.09.03-.09v-.04s-.25-.02-.25-.02l-.06-.03-.05-.06v-.04s.09-.07.09-.07l.05-.03.12-.04.05-.04.06-.09.02-.02h.03s.03.03.03.03l.03.02.03-.03.03-.09-.03-.06-.09-.08-.05-.1-.03-.04-.05-.03.04-.08.21-.16.07-.08v-.04s0-.06,0-.06v-.12s0-.12,0-.12l.02-.06.05-.02h.09s.04-.01.04-.01l.03-.02h.03s.03,0,.03,0l.02.04.02.09v.03s.12.08.12.08l-.02-.13-.12-.32-.02-.27v-.13s.05-.07.05-.07h.21s-.04.07-.04.07l-.06.03.03.06.05.07.07.06.06.02.06-.03.02-.06-.03-.06-.07-.03.07-.08h.05s.06,0,.06,0l-.03-.07-.04-.07-.03-.07v-.09s.09.06.09.06h.1s.2-.02.2-.02l.2.05.04-.03-.04-.06-.07-.06-.05-.03v-.05h.06s.06,0,.06,0h.06s.06-.04.06-.04l-.06-.07-.21-.11.09-.09.27.09.11-.05-.02-.08-.24-.18-.09-.09h.13s.13-.04.13-.04l.1-.07.05-.11h-.16s-.06-.03-.06-.03v-.1s.1.02.1.02l.14-.05.09-.1v-.13s-.01,0-.01,0h-.08s-.16,0-.16,0v-.09s0-.08,0-.08h.04s.08,0,.08,0h.04s-.02-.05-.02-.05l-.03-.04-.04-.03.24-.11.1-.09v-.15s-.08.06-.08.06l-.1.07-.11.03-.1-.04.11-.1.13-.1.05-.09-.12-.06.06-.04.11-.1.05-.03h.05s.05,0,.05,0h.05s.1-.02.1-.02l.03-.04v-.1s0-.09,0-.09l.03-.04.06-.04-.04-.07-.07-.04-.04.04-.05.12-.11.09h-.13s-.09-.1-.09-.1l.07-.07.16-.06.08-.05.17-.22.03-.02v-.05s.04-.02.04-.02l.02-.03v-.06s0-.04,0-.04l-.02-.02ZM310.49,303.06l-.03.04-.12.06-.08.04.03.03.09-.02.07-.05h.07s0-.06,0-.06l.04-.05h-.07ZM323.47,305.6l-.14.12-.04.19.09.15h.14s.13-.13.13-.13l.07-.19-.09-.14h-.16ZM325.02,311.47l-.13-.04-.11-.07-.11-.09-.08.03-.05.07.02.09.16.23.06.13.07.06.09.04h.07s.05-.04.05-.04l.12-.17.04-.07-.07-.11-.12-.06ZM324.62,315.36l.09.07-.08-.17v.1ZM323.94,306.91l-.05-.04h-.09s-.06.1-.06.1v.11s.07.05.07.05h.08s.06-.01.06-.01l.03-.05v-.04s-.03-.08-.03-.08l-.02-.03ZM326.02,321.19h0s0,0,0,0h0s0,0,0,0ZM327.34,326.66l-.03.03v.03s.03.04.03.04h.06s.04-.07.04-.07l-.04-.03h-.05ZM310.47,303.31l-.1.03.02.05.03.05.04-.03.06-.04.02-.05v-.05s-.04,0-.04,0l-.03.04ZM326.03,321.2h.01s0-.01,0-.01h0ZM351.93,245.88l-.05.06-.02.11.05.03.07-.03.03-.08.04-.05.19-.05.06-.04v-.07s-.09-.08-.09-.08l-.16-.12-.12-.05-.42-.09.64.33-.07.05-.15.07ZM336.6,345.35l.02.07.03-.04.03-.06v-.06s0-.05,0-.05h-.05s-.03.05-.03.05v.09ZM336.79,345.68h-.07s-.07.04-.07.04l.03.02.03.04.03.04.02.05-.17-.08.09.15.1.06.08-.05.03-.19-.04-.06-.06-.02ZM354.36,246.97h-.06s-.01-.02-.01-.02v-.02s-.04-.02-.04-.02h-.03s-.03,0-.03,0l-.06.07h-.04s-.23,0-.23,0h-.07s-.06.06-.06.06l-.03.05-.02.05-.03.04-.06.04-.13.03-.06.05-.2.23-.19.16-.03.05.02.09.06.05.04.05-.02.08-.12-.1-.12-.06-.42-.04-.16-.04-.15-.07-.09-.1.08-.03-.03-.05-.08-.04-.09-.02-.08-.03-.03-.07v-.08s.06-.05.06-.05l.14.03.31.27.16-.03-.24-.18-.17-.23-.1-.26-.13-.57-.06-.17-.03-.11-.07-.06-.02-.05v-.15s-.05-.13-.05-.13l-.05-.12-.06-.09-.32-.35-.07-.1-.2-.46v-.05s-.02-.09-.02-.09l.02-.08.07-.1.05-.15.06-.13.03-.14-.05-.12.08-.25.11-.25.12-.22.45-.58.04-.11.05-.33.06-.14.29-.39.11-.26v-.3s-.02-.07-.02-.07l-.09-.16-.04-.13h-.05s-.05.03-.05.03l-.02.04-.04.14-.1.12-.2.19-.24.45-.08.07-.09.03-.23.25-.35.22-.06.08-.44.52-.57.63-.21.14-.24.05-.84-.07-.69-.12-.17-.06-.08-.04-.21-.16-.04-.02-.05-.05-.08-.22-.04-.05-.08-.04-.05-.09-.06-.21.04-.19-.1-.08-.14.05-.07.2-.02.1-.04.12-.05.1-.05.07-.07.04h-.07s-.16-.08-.16-.08l.11-.33.07-.09.09-.05h.06s0-.04,0-.04l-.09-.08-.17-.08-.59-.03-.08.03-.08.07-.14.16-.04-.02h-.72s-.07-.03-.07-.03l-.06-.04-.07-.07-.02.02-.05.03-.07-.26-.03-.04-.12-.12-.02-.04.07-.05.4.05v-.05l-1.11-.43-.73-.45-.04-.04-.13-.16v-.03s-.09-.2-.09-.2l-.06-.04-.21-.06-.09-.08-.19-.21-.08-.04-.1-.03-.42-.34-.37-.4-.3-.22-.21-.33-.16-.09-.96-1.1-.24-.42-.17-.12-.08-.14-.37-.8-1.57-1.96-.19-.18-.43-.32-.2-.21-.19-.38-.08-.05-.07-.04-.05-.09-.08-.21-.08-.07-.13.03-.13.11-.07.12v.07s0,.1,0,.1v.08s-.04.04-.04.04l-.05.02-.17.12-.24.07-.23.03-.11.05h-.06s-.03-.07-.03-.07v-.09s-.02-.07-.02-.07l-.03-.06-.06-.04-.09.09-.04.11v.12s0,.11,0,.11l.05.22v.11s-.11.19-.11.19v.06s-.03.07-.03.07l-.02.07-.04.07-.1.12-.03.05-.04.31.06.3.67,1.46.16.48.15.83.06.86-.02.31-.22,1.19-.4.77-.05.25.07,1.44v.28s-.06.28-.06.28l-.09.31-.12.24-.15.19-.28.23-.09.06-.1.04-.21.03-.11.05-.11.08-.08.08-.13.24-.07.17-.03.13.03.15.11.3v.13s.03.06.03.06l.09.27-.08.13-.06.12v.13s.04.18.04.18l.28.42.06.18v.31s-.08.3-.08.3l-.13.26-.13.2-.33.36-.38.29-.13.07h-.07s-.09.02-.09.02h-.06s-.1-.08-.1-.08l-.12-.03-.2-.09-.18-.02-.05-.02-.09-.12.04-.12.05-.09-.05-.03h-.11s-.37.17-.37.17l-.51.08-.07-.02-.05-.03-.07-.1-.05-.05-.36-.17-.1-.08-.15-.19-.09-.08-.42-.32-.08-.04-.04-.03-.05-.06-.06-.05h-.07s-.04.03-.04.03l-.02.06v.07s-.04.06-.04.06l-.09.07-.12.03h-.24s-.15.5-.15.5l.04.27.15.19.19.15.16.18.24.35.03.1.04.15.07.11.05.1-.03.13-.09.11-.21.14-.34.34-.08.1-.12.27-.07.13-.09.05-.04.07v.15s-.04.16-.04.16l-.11.08-.1-.02-.07-.08-.11-.19-.11-.09-.08.03-.07.1-.13.26-.04.07-.04.03h-.06s-.05.03-.05.03l-.05.04-.2.27-.08.05-.12.03-.48.03-.2.09-.17.24-.05.25.08.5v.3s-.06.3-.06.3l-.05.15-.21.34-.06.14-.02.13.05.26.05.16.05.07.22.18.15.06.05.03.1.19.03.03v.03s.1.12.1.12l.49.22.16.17.25.46.16.19-.03.1v.12s.03.13.03.13l.03.1-.02.04v.11s-.01.08-.01.08l-.05.03-.04.03-.02.03v.04s.03.06.03.06v.04s0,.15,0,.15v.06s-.06.06-.06.06h-.04s-.11,0-.11,0l-.02.03-.06.27-.26.42-.08.41-.09.21-.02.14.02.14.15.38.07.27.05.12.07.05.05.02.12.1.06.02h.05s.08-.05.08-.05h.05s.24.11.24.11l.12.02.05-.11.03-.14.08-.13.09-.1.07-.06.62-.2.16-.12.05-.22-.05-.53.1-.24.08-.04.26-.08.06-.04.05-.05.29-.16.06-.12.08-.28.05-.12.09-.08.12-.02.12.04.09.09.03.12-.05.07-.08.06-.04.09.05.09.11-.03.22-.13h.24s.25.08.25.08l.42.24.23.06.18-.08.3-.31.09-.06.11-.04.23-.03.05-.06-.08-.12-.37-.35-.12-.07-.12-.03h-.13s-.11-.04-.11-.04l-.1-.06-.09-.08-.33-.43-.08-.08-.19-.13-.08-.08-.24-.34-.08-.18-.3-.21-.1.05-.09.03-.32.03-.19.06-.11.02-.09-.04-.36-.41-.16-.13-.51-.28-.15-.17-.05-.3.03-.3.08-.28.11-.27.27-.48.18-.22.2-.17.21-.1h.12s.35.05.35.05l.32-.05h.12s.23.1.23.1l.83.96.05.27.03.05.04.05.1.08.14.04.06.05v.07s-.06.02-.06.02l-.2-.04-.02.03.03.06.04.06.03.04.06.03h.06s.06,0,.06,0l.05-.02.08-.07.28-.41.09-.1.38-.28.05-.03.06-.02h.06s.06-.03.06-.03l.1-.09.14-.06.82-.64.6-.25.43-.1h.44s.45.11.45.11l.35.2.1.03.08.05.27.32.4.26.52.07.27.32.29.3.88.63.43.14,1.04.61,1,.35.77.51.12.12.11.13.05.12.04.07.1.1.11.09.08.03.06-.09.06-.3.13-.12.06-.14.14-.54.02-.15v-.14s0-.15,0-.15l-.06-.38.03-.32.08-.28.49-.9.63-.99.31-.39.75-.64.47-.58.77-.55.7-.33.69-.18h.11s.06.02.06.02l.03.07.02.08.02.06.04.05.04.03.37.13.15.03.13-.07.38-.03.71.17.2-.07-.06-.07-.08-.06-.07-.07-.03-.1.02-.08.04-.1.05-.08.04-.04.03-.02.05-.09.03-.03h.04s.03-.01.03-.01h.03s.06.01.06.01l.09.03v.07s0,.08,0,.08v.07s.14.13.14.13l.15.06h.17s.33-.04.33-.04l.07-.02.05-.05.02-.09-.03-.07-.1-.16.24.08h.12s.12-.08.12-.08l.04-.06v-.04s.02-.03.02-.03l.19-.02.05-.03.05-.06-.08-.03h-.08s-.06-.02-.06-.02l-.02-.12.03-.09.06-.05.08-.03.38-.06.13-.06.11-.11.11-.06h.5s.16-.06.16-.06h.08s.13.07.13.07l.1.03h.1s.06,0,.06,0l-.07-.04.14-.18.03-.05.03-.08.04-.17.03-.07.04-.05.13-.13.04-.07.03-.06.04-.04.07-.02.14.03.05-.02.07-.08.05-.03.19-.04.07-.03.09-.13.05-.03h.11s.04-.03.04-.03l.03-.06-.06-.03-.16-.05ZM394.85,360.96l-.04.03v.03s.03.01.03.01h.03s0-.05,0-.05l-.02-.02ZM394.65,360.87l.06.1.06-.09-.06-.04-.06.02ZM310.13,301.13l-.06-.09h-.06s.05.22.05.22h.04s0-.04,0-.04l.06-.02v-.08ZM336.08,342.2v.06s.03-.05.03-.05v-.02s-.03.01-.03.01ZM311.24,287.21l-.03-.05-.07.03-.05.06-.04.03h-.05s-.05-.03-.05-.03l-.04-.04h-.04s-.03,0-.03,0l-.04.03-.04.02h-.04s-.03.02-.03.02l-.03.02h-.02s-.02-.06-.02-.06l-.04-.02-.03.05.05.1.1.12.04.07h.02s.08-.03.08-.03h.05s.06-.04.06-.04l.09-.03h.09s.08-.04.08-.04l.04-.05v-.05s0-.05,0-.05v-.04ZM302.24,303.79l.16-.12-.08-.11-.18.14.03.05.07.03ZM336.23,342.18h-.02s.01.07.01.07l.02-.05v-.02ZM336.6,342.8l-.02.04.08.07v-.09s-.06-.02-.06-.02ZM336.61,348.1h-.02s-.04.02-.04.02v-.03s.01-.01.01-.01h0s.02-.03.02-.03v-.04h-.07s-.05-.03-.05-.03v-.04s.05-.04.05-.04v-.04h-.06s-.05,0-.05,0l-.04-.02-.02-.05-.05-.03h-.02s-.03,0-.03,0l.14.32.1.17.1.07-.03-.06v-.05s.03-.03.03-.03h.06s-.02-.06-.02-.06v-.02ZM291.19,304.92l-.08.02-.03.03-.04.12.04.04.18-.1h.17s.08-.08.08-.08l.02-.12-.05-.18-.07-.13-.1.02-.1.11-.09.12h.05s.04.02.04.02l.02.04v.06s-.03.03-.03.03ZM289.09,313.67l-.02-.02h-.01s-.03-.03-.03-.03l-.02.03-.02.07v.07s.02.08.02.08l.03.02.07-.03.04-.04v-.05s-.01-.05-.01-.05l-.03-.05ZM277.48,316.44v.06s.02.02.02.02l.04-.03h.05s.05-.03.05-.03l.05-.05.05-.06.02-.03-.03-.05-.08-.04-.06.02v.02s-.02.01-.02.01h-.03s-.03.04-.03.04l-.02.06v.06ZM288.66,305.64l-.09.1.11.05h.27s.11.05.11.05l.07-.03.05-.14v-.11s-.14.06-.14.06v-.08s-.01-.07-.01-.07v-.07s-.05-.07-.05-.07h.04s.01-.03.01-.03v-.03s.02-.03.02-.03l-.04-.04h-.05s-.06.01-.06.01l-.06.04-.05.06.06.15-.06.09-.12.07ZM287.78,304.82l.15-.13.1-.1v-.03s0-.05,0-.05l-.03-.05h-.05s-.07.02-.07.02l-.08.05-.06.08-.1.15v.05s.06.04.06.04l.08-.03ZM278.34,315.02l-.02-.03v-.04s-.04-.02-.04-.02h-.04l-.11.07-.18.06-.07.04-.11.08-.1.11-.04.03h-.07s-.03.03-.03.03l-.02.03v.08s.04.09.04.09l.1.15.11-.05.1-.02h.2s.09-.08.09-.08h.05s.02.05.02.05v.13s0,.07,0,.07l.02.03.15-.13.21-.56.17-.11-.06-.08h-.08s-.15.08-.15.08l-.09.02h-.04ZM287.43,306.54l-.12.05-.08.14.03.14.07.13.04.12.05-.03.02-.02.02-.03.04.04.05-.02.09.03h.06s.02-.05.02-.05l.02-.06.03-.03.07.05.03-.04.05.05v.05s0,.06,0,.06l.02.05.04.02h.11s.06.02.06.02l.02-.06v-.06s.02-.15.02-.15l.02-.05.05-.03.12-.04.05.02h.04s.11-.15.11-.15l.06-.06h-.08s-.13-.01-.13-.01h-.06s-.03.04-.03.04v.06s-.04.04-.04.04h-.03s-.07,0-.07,0h-.03s-.1.08-.1.08l-.06.04h-.07s-.14-.2-.14-.2l-.09-.06-.13-.05-.14-.02ZM299.76,307.25l-.16.04v-.04h.04s.05-.03.05-.03h.04v-.04h-.28s-.07-.03-.07-.03l.08-.13.06-.03.07-.03.02-.06.06-.06v-.09s0-.1,0-.1l-.06-.03.03-.06-.16-.1-.06-.1-.07-.15h-.05s-.01.08-.01.08h-.06s-.03-.02-.03-.02l-.03-.05-.03-.12v-.06s0-.04,0-.04l.03-.1.03-.02-.02-.1v-.15s.09-.14.09-.14v-.03s0-.06,0-.06l.05-.09.04-.08h-.07s-.04-.02-.04-.02h-.06s.1-.03.1-.03v-.03s0-.04,0-.04v-.05s.07-.09.07-.09l.03-.08-.09.04-.09.1h-.08s.03-.07.03-.07l.05-.07-.02-.07-.06.11h-.06s-.1.06-.1.06l-.32-.02-.13.1h-.14s-.12-.1-.12-.1l-.05-.06-.02-.05-.03-.04h-.06s-.13.02-.13.02l-.07-.02-.11-.11-.06-.02h-.06s-.19-.13-.19-.13l.07-.17-.05-.07-.11-.04-.1-.08-.02.05-.11.13-.04.03-.08-.02-.02-.06v-.16l-.02-.07-.03-.06-.05-.04h-.08s-.01.06-.01.06v.08s-.04.04-.04.04l-.08-.09-.06.13-.03.04-.17-.04h-.05s-.08.03-.08.03h-.05s-.05-.02-.05-.02l-.06-.05-.09-.02-.07-.06h-.05s-.05,0-.05,0l-.08.03h-.04s-.06.04-.06.04l-.04.07-.04.08-.04.06-.15.1-.3.14-.14.11-.11.11-.15.12-.14.05-.09-.09-.08.03-.14-.03-.15-.06-.1-.06.07.1.08.06.08.05.08.07.06.08.04.08.02.1v.25s-.02.27-.02.27l-.04.11-.06.09-.17.15-.07.08-.05.08-.06.07-.08.06-.1.03h-.12s-.24-.1-.24-.1l-.12-.02-.27.02-.09-.04h-.09s-.11.05-.11.05h-.1s-.15.04-.15.04l-.03.11-.17.05-.18.04-.13.05h-.1s-.1-.06-.1-.06l-.1-.05-.05-.06-.04-.09-.04-.1-.14-.36-.27-.33-.05-.03-.02-.04-.04-.03-.06-.09-.07.13h-.07s-.09-.02-.09-.02v.06s.04,0,.04,0h.1s.02.11.02.11l-.04.06-.02.1-.28.07-.08.09-.24.16-.14.1v.24s-.06.12-.06.12v.15s-.22.03-.22.03l-.03.16-.04.16-.04.22.03.16v.18s-.09.24-.09.24l-.15.15-.13.09-.08.08-.5.21-.1.1-.04.04-.14.17-.03.05-.03.09-.08.07-.59.29-.14.13h-.12s-.09.06-.09.06h-.11s-.14.05-.14.05l-.08.05v.05s.06.05.06.05l-.07.03-.09-.03-.2.07-.21.19-.11.06-.09.1.07.02.24-.13.18-.11-.04.1.06.04h.08s.04-.06.04-.06l.05-.09.15-.11.17-.09.19-.1.12-.04.14-.1.07.04.06-.03.05-.03h.09s.09,0,.09,0l.2.13h-.05s-.04.04-.04.04l-.03.04-.02.05h.07v.04l-.08.11v.13s.06.07.06.07l.09-.08-.02.17v.03s-.05.03-.05.03h-.08s-.04.03-.04.03l-.03.07.06.02.05.04.09.03.33-.07h.19s-.02.05-.02.05l-.09.02-.1.08v.08s.03.03.03.03l.05.02.03.05.08-.03h.08s-.08.08-.08.08l.06.04.06.09-.06.05-.11.02-.05.09v.1s-.08.07-.08.07l-.04-.07-.08-.06v-.07s-.08,0-.08,0l-.13-.03-.13.03.02.1h.08s.04-.07.04-.07l.07.05.05.04.05.07-.1.03v.07s.01.08.01.08l.05.03h.14s.05.02.05.02v.04s-.05.04-.05.04l-.02.02h-.02s-.11,0-.11,0v.04l.07.02.03.06v.08s-.03.09-.03.09h.1l-.06.07-.1.02-.22-.1-.05.07.02.08-.09.14.07.02.11-.21.11.05.15.02.05.1.1.18-.03.05-.07.09.05.13-.11.09.09.19.07.06h.08s.08-.02.08-.02l-.03-.02-.04-.04h-.03s.03-.14.03-.14h.06s.08.03.08.03h.09s-.07-.07-.07-.07l.08.03.21.15h.04s.06-.01.06-.01h.34s-.02.07-.02.07l-.06.07-.15.16-.08.18-.11.15-.02.15.04.12.18-.16.23-.06.09.09.14.13.07.04.1.03h.1s.09-.05.09-.05l.07-.07.07-.05h.07s.04.1.04.1l.06-.13.11-.02.12.04.09.07.02.04.05.11.03.04.04.03.09.05.13-.05v-.11s-.05-.11-.05-.11l-.07-.08-.09-.09-.04-.05-.03-.07-.07-.04v-.12s0-.1,0-.1l.03-.07h.14s.06-.03.06-.03l.03-.2-.07-.27.04-.22.08-.22.17-.09.11.06.08.06.04-.02v-.05s0-.09,0-.09l.05-.08.12-.16.16-.28.12-.15h.07s.03.07.03.07l.08-.05-.04-.04v-.13s.04-.04.04-.04l.07-.07.06-.08.03-.14v-.02s.03-.02.03-.02l.02-.02v-.04s0-.03,0-.03l-.02-.02v-.03s-.03-.04-.03-.04l-.03-.04v-.05s.02-.07.02-.07l-.02-.12.07-.12.11-.11.1-.06.03.02.03.02v.1s.01-.01.01-.01l.09-.13.05-.05.04-.03h.05s.08-.01.08-.01l.11-.02.12-.05.08-.08-.02-.1.08-.14.4-.19.21-.09.09-.08.32-.08.33-.05.12.1.45.12.35.04.08.2.13.14.14.07.14.05.07.18.2.27.14.14v.12s.1.03.1.03h.07s.08.12.08.12l.09.2.07-.07v-.13s.03-.15.03-.15v-.08s.06-.17.06-.17l.03-.22.15-.5.14-.28.12-.14.08-.07v-.07s0-.1,0-.1l.07-.04.07.02.07-.03.04-.04.02-.07.12-.14-.06-.07.14-.11.26-.1.4-.27.04-.09.12-.02.04-.16h.14s.04-.11.04-.11l.17-.02.06-.07.18-.09.15-.07.09-.05-.06-.03-.09.04ZM323.1,301.76l-.06-.09-.1-.05-.09-.05-.22-.05-.02.18v.28s.04.11.04.11l.31.15h.1s.05-.01.05-.01l.02-.07v-.15s0-.13,0-.13l-.03-.12ZM279.4,327.1l-.16-.13-.22-.08-.12-.1-.05.06h-.11s-.03.09-.03.09l-.1.11-.09.13h-.18s-.05.03-.05.03v.16s.05.15.05.15l.12.27.08.2.05.09.24.08h.16s.14-.03.14-.03l.15-.03.13-.09.21-.22.11-.28.03-.2-.18-.16-.19-.06ZM282.6,352.38h-.03s-.02.03-.02.03l-.07.09-.04.08v.07s.09.04.09.04l.05.02h.05s.02-.05.02-.05v-.06s.03-.05.03-.05l.03-.04.03-.03-.11-.09h-.04ZM282.87,351.96h-.06s0,.08,0,.08l.05.07.04.02h.03s.03-.02.03-.02l.03-.05-.03-.06-.09-.03ZM286.62,312.47l-.13-.03-.06.08h-.04s-.02-.01-.02-.01v-.03s-.06.03-.06.03l-.04-.02-.03-.03-.03-.02h-.05s-.05.03-.05.03l-.05-.09h-.07s-.1-.1-.1-.1l-.06-.04.02-.17.08-.1.03-.11h.08s.19,0,.19,0l.13-.03.02-.07-.09-.16-.02.13-.03.03-.05.02h-.04s-.04-.04-.04-.04l-.03-.05-.04-.1h-.04s0,.08,0,.08l-.02.07h-.07s-.05-.05-.05-.05h-.07s-.05.01-.05.01l-.09-.04.03-.07.08-.09.13-.09-.05-.03h-.16s-.13.09-.13.09l-.16-.08.08-.15.02-.1.09-.11.08-.03.04-.04v-.09s.05-.12.05-.12l.1-.17h-.09s-.17.08-.17.08l-.14.05-.3-.06-.25-.1-.05.09-.22-.1-.21.11h-.32s-.1-.05-.1-.05l-.09-.07-.06-.4.04-.13.13-.02.07.08.04.03h.1l.1-.02.02-.09.04-.02.12-.03.02-.07v-.09s0-.08,0-.08l.09-.04.08.04.11.06.04-.02v-.14s.1-.18.1-.18l.05-.12-.04-.16.05-.16v-.12s-.05-.12-.05-.12l-.08-.15-.12-.21-.11-.15-.1-.02h-.1s-.1-.04-.1-.04l-.09-.03h-.08s-.11.02-.11.02l-.15.02-.11.06-.07.08-.04.13-.08.09-.18.16-.03.04-.25.04-.22-.04h-.19s-.14-.14-.14-.14l-.18-.02-.15-.05-.21-.03-.13-.03h-.08s-.11-.05-.11-.05l-.08-.11-.07-.17-.15-.26-.05-.12-.02-.15v-.04s0-.2,0-.2l-.11.03-.1-.03-.02-.02v-.02s0-.08,0-.08l.08-.06.02-.04.03-.05v-.04s-.03-.06-.03-.06h.08s0-.08,0-.08l-.04-.06.06-.08v-.03s.01-.04.01-.04l.04-.07.02-.13-.06-.06-.15.05-.13.11-.04.13-.08.1-.06.05h-.08s-.08-.03-.08-.03l-.05-.1-.05-.07h-.13s-.07.03-.07.03l.03-.11-.19-.03h-.17s-.12.07-.12.07l-.07-.04h-.06s-.06,0-.06,0l-.04.02-.15.22-.1.08-.1.02-.23-.02h-.08s-.03.04-.03.04l-.02.04-.04.05-.11.07h-.05s-.04-.04-.04-.04l-.05.18-.03.05-.05.04-.04.02-.02.03v.07s.03.05.03.05h.05s.02.11.02.11v.11s-.09.09-.09.09l-.04.06-.08.03-.07.06-.07.08-.08.07-.2.09h-.11s-.07-.06-.07-.06l-.03-.09h-.05s-.02.03-.02.03l.03.1.06.05.06-.02.03.03.06.03.06.04.06-.03.09-.08.1-.06.02.06.02.05-.03.12v.09s-.06.07-.06.07h-.09s-.07.04-.07.04h-.14s-.07,0-.07,0l-.05.07-.02.03h-.03s-.02.03-.02.03l-.02-.02-.06-.03-.04-.03.05-.09-.02-.05-.1.02-.03-.02-.07-.04-.02-.09.05-.06-.02-.05-.05-.04-.06-.03-.02.15-.03.04-.04.02h-.04s-.05,0-.05,0h-.06s-.03.06-.03.06v.07s-.07.07-.07.07l-.05.02h-.1s-.05.06-.05.06l-.03.05v.04s.02.03.02.03h.06s.04.03.04.03v.08s.06.02.06.02l.16-.04h.06s-.03.07-.03.07l-.06.05-.07.03h-.06s-.02.03-.02.03l-.05.04-.06-.02-.09.03-.15.07-.05.06-.02.14-.06.06-.06.03-.14-.02-.07-.03-.04-.05v-.06l-.02-.06-.05.05-.06-.03.02-.07.06-.07.02-.06-.09-.11-.16-.09-.12.07-.08-.02-.08-.08v.12s-.08.12-.08.12l.04.19.11.14.02.08-.05.03-.06-.03-.04-.07-.03-.07-.08-.11h-.07s-.03.1-.03.1l-.05.08.05.06.1.11.26.17-.03.04.05.07-.06.06-.06.12-.02.19.03.13.02.08-.07-.03-.05-.05-.04-.06-.03-.15h0s-.03-.1-.03-.1l-.31-.1-.21.07-.12-.06v-.16s-.02-.05-.02-.05l-.14.21-.12.02-.14-.13-.06.06-.02.14-.02.16.06.11.03.07v.04s-.04.05-.04.05h-.03s-.04.02-.04.02v.1s-.07.17-.07.17l.06.09h.13l.05.02.09.08.05.02h.05s.04-.03.04-.03l.03.04.02.03v.03l-.02.05.05.02.05.03.04.05.02.06-.02.07-.1.03.02.15.03-.02.04-.06h.08s.04.02.04.02l.02-.04.02-.13v-.13s.05.02.05.02v.08s0,.07,0,.07l.02.06.09-.1h.05s0,.06,0,.06l-.07.03v.05s.01.11.01.11l-.05-.02h-.03s.05.14.05.14l.02.06.07.05h.07s.06-.08.06-.08l.05-.04.12.09v.12s.06,0,.06,0l.09-.06.14-.05.15.15.17.12v.12s-.03.13-.03.13l-.05.09v.17s.28.38.28.38l.09.1-.07.02-.26-.11-.26-.09-.04.09-.03.05-.07.03-.02.04-.03.02-.02-.04-.05-.04-.04-.05-.04-.03-.1-.07.06-.06-.02-.1-.07-.06v-.21s.03,0,.03,0l.03.14.03.05.04-.05v-.09s0-.14,0-.14v-.05s.05-.05.05-.05l-.05-.09-.08-.09-.15-.05-.07.13-.05.03-.03-.07v-.09s.09-.13.09-.13l.03-.04-.02-.04h-.03s-.03.02-.03.02l-.03.03h-.02s0-.02,0-.02v-.05s0-.01,0-.01l-.07-.11-.19-.09-.09.15v.17s-.06.04-.06.04v.1s0,.07,0,.07l-.04.09-.07.06v.13s.03.18.03.18l.07.02.05.05.04.06.02.07v.07s.03.06.03.06l.04.09.05.09.11.07.06.13.06-.03.05-.05.08.03.03.06v.07s.04.04.04.04l.04.03.05.05.1.21v.08s.17-.01.17-.01l-.07.14-.06.04-.04-.06-.05.02-.03.05h-.06v.06l.03.04.05-.03.02.03-.02.09-.05.09-.05.09-.06.15-.04.04-.07.03-.06.02-.08.06.03.07.05-.02.07-.04.07.02.03.02v-.06s.13-.08.13-.08l.12-.11.03-.09.02-.04h.07s.09-.06.09-.06l.1-.08.04-.11.07-.1.13-.18.06-.1-.03-.07.05-.04.02.02v.05s.04.05.04.05h.1s.09-.06.09-.06l.12-.03.09-.08.07-.07.15-.06.16.03h.06l.05-.04h.15s.06.07.06.07l-.02.05-.02.03.02.04.04.03.06.03v.11s-.03.05-.03.05l-.06.06-.06.05-.05.04-.07.07-.06.02h-.07s0,.12,0,.12v.12s.09.04.09.04l.04.05.07.04.02.09-.03.06h.08s.08-.06.08-.06l.12-.02.04-.02.02-.07h.09s.03-.06.03-.06v-.07s.04-.04.04-.04h.18s.18-.1.18-.1l.09-.12-.05-.09.02-.08.09-.13v-.05s0-.19,0-.19v-.08s-.12-.24-.12-.24l-.06-.13-.16-.12h-.31s-.24.18-.24.18h-.08s-.12.01-.12.01l-.1-.08-.05-.08-.08-.04.05-.03.09-.05.07-.04.07-.08.12-.04.08-.08v-.13s.08-.02.08-.02l.02-.12-.09-.1-.21-.37-.08-.18-.07-.1-.02-.11.12.05.14-.14.2-.14.11-.17.08.06.16.17h.05s.07,0,.07,0l.11.03.14.02.02.03v.05s.02.07.02.07l.04.04.1.08h.02s.03.01.03.01h.03s.03.03.03.03v.03s0,.08,0,.08l.03.11v.25s.02.38.02.38l.04.11.14.08.23.24.38.31.06.11v.04s.03.03.03.03v.02s0,.03,0,.03l-.06.07-.02.04v.04s0,.06,0,.06l.03.07.05.06.07.03v.04h-.05s-.04.01-.04.01l-.08.03h-.08s-.05.02-.05.02l-.1.1-.34.17-.09.07-.05.08.07.04.08-.04.81-.15h.13s-.06.14-.06.14l-.07.09-.35.31-.03.05v.07s.13.09.13.09l.04.08h-.14s-.06.02-.06.02l-.04.06.09.08.02.15-.05.14-.11.06-.13.18-.02.04.02.16v.07s-.05.06-.05.06l-.13-.13h-.04s-.04.13-.04.13v.05s0,.05,0,.05v.05s-.03.03-.03.03l-.06.04v.03s-.06.15-.06.15l-.36.39v.02s0,.08,0,.08v.02s-.05.02-.05.02l-.02.02h0s-.05.16-.05.16l-.02.04-.06.06-.1.07-.1.03-.15-.19-.2.08-.13.16.12.12v.14l-.09.12-.07.05v.11s.08.07.08.07l.02.03.05.05.04.12.03.12-.03.25-.09.16.05.09.13.14-.06-.03-.16-.06-.05.05-.05.21.05.13v.06s.09.03.09.03l.23.14.06.05.19.29.14.16.05.09v.11s-.06.12-.06.12l.05.14-.03.19-.06.21-.06.09-.06.18-.24.23-.08.14-.07-.06-.09-.12-.06-.02h-.04s-.06-.03-.06-.03h-.05s-.04.01-.04.01l-.13.07.11.06.15.12.13.13.05.1v.07s-.08-.01-.08-.01h-.06s.07.07.07.07l.05.12.03.08.02.11.05.08h.13s.13-.04.13-.04h.11s.76.02.76.02l.22.13.06.08.05.13v.08s.03.04.03.04l.07.04h.07s.06-.03.06-.03h.05s.06.07.06.07l.09-.1.1-.04.08-.04.03-.12.02-.1.06-.2v-.07s-.19-.02-.19-.02l-.1-.15-.07-.02-.08-.05-.05-.11-.06-.23-.15-.33-.02-.12v-.11s.06-.24.06-.24l.06-.16.08-.14.05-.2.04-.06.14-.16.02-.05.02-.15v-.06s.17-.19.17-.19l.2-.06.26.1h.19s.14.12.14.12l.03.21-.06.23-.11.18-.09.09-.05.02h-.06s-.07-.02-.07-.02l-.02-.04.02-.15-.05-.1-.12-.03h-.13s-.12-.02-.12-.02l-.12.06-.11.15.04.07.05.04h.05s.09.06.09.06l.29.05.05.1-.06.25.05.15.22.14.11.19.07.17.06.16v.11s-.03.29-.03.29l-.05.19-.13.22.05.1-.11.37-.07.06-.2.12-.13.12-.03.38h.1s.08-.09.08-.09l.15-.16.21-.05.03-.05.09-.07.13-.05h.13s.13-.05.13-.05l.18-.06.08-.03.08-.05.08-.06.06-.06.06-.08.08-.18.05-.08v-.12s.13-.04.13-.04h.14s.35-.3.35-.3l-.04-.05-.16.07-.09-.03.04-.09.11-.07v-.04s0-.07,0-.07l-.1-.05-.12-.04-.17-.05-.06-.05.07-.22.08-.15.06-.07.07-.06.19-.09.1-.03h.1s.05.03.05.03l.08.07.11-.03h.04s.02.02.02.02l.03.05.1.1.02.04v.06s.01.1.01.1l.02.04.08.04h.09s.2-.04.2-.04v.02s-.01.02-.01.02l-.02.04h.03s.01.02.01.02l.02.02.03-.03v-.04s.02-.04.02-.04l.02-.05.07-.09.03-.05.05-.27v-.04s.08-.06.08-.06l.02-.03v-.12s-.01-.03-.01-.03l-.02-.02v-.04s0-.07,0-.07l.02-.06.07-.11h.01s.02-.1.02-.1l.06-.07.16-.13-.02-.17.12-.64.02-.05.07-.1.02-.05-.14-.05-.06-.1-.04-.15v-.07s0-.11,0-.11l.06-.17.19-.62.17-.55.1-.36.06-.28.09-.21.06-.29.05-.12.04-.04h.03s.01-.04.01-.04v-.14s.05-.15.05-.15l.02-.05.04-.02h.06s.05-.04.05-.04l.13-.09-.07-.12-.09-.09.02-.11.09.02.08.03.11-.03.1-.11-.09-.1-.03-.02h-.08s-.05-.06-.05-.06v-.07s.07-.17.07-.17l.03-.1.02-.03h.1s.07-.01.07-.01l.03-.04.09-.16.02-.06v-.05s-.01-.02-.01-.02h0s.01-.04.01-.04l.02-.03.06-.05.06-.1.08-.05.03-.08.06.02.07.1.04-.02v-.09s.02-.1.02-.1v-.02s.04-.01.04-.01l.02-.02v-.03s.01-.02.01-.02v-.16l.05-.12.23.03.09-.09h.07s.09-.03.09-.03l.08-.07.03-.08-.03-.03-.14.02h-.06s.04-.08.04-.08l.04-.03.04-.02.04-.04.05-.1-.02-.04-.05-.02-.02-.04.06-.09.15-.12.09-.02.1-.05.1.02v-.06s-.11-.02-.11-.02ZM278.68,314.43l-.03-.03-.05-.02-.04.02-.04.04h-.02s0-.01,0-.01h-.01s-.07.12-.07.12v.04s.04.03.04.03l.02.05-.02.07v.07s.07.05.07.05l.03.02v-.06s.02-.02.02-.02l.07-.02.03-.06v-.1s0-.06,0-.06l-.03-.04.02-.04v-.05ZM281.81,324.99l-.07-.1-.05-.14v-.09s-.05,0-.05,0l-.03.02-.03.03-.06.07-.1.17v.12s-.03.13-.03.13l-.07.02v.07s-.09.16-.09.16l-.07.09-.07.08.03.05v.06s.01.08.01.08v.18s.01.09.01.09l-.04.14-.06.17-.14.21-.12.13-.03.1h-.04s-.05-.04-.05-.04v.05s0,.12,0,.12l.05.1v.15s-.01.1-.01.1l-.02.08.05.07v.06h.09l.03-.07.08-.06.09-.02.1-.03h.09s0-.07,0-.07l.07-.08-.04-.09v-.06s.04-.07.04-.07l-.03-.07-.04-.04.02-.05v-.09s.06-.1.06-.1v-.13s.07-.08.07-.08l.05-.11h.07s.09-.03.09-.03v-.09s.01-.1.01-.1l.07-.04.03-.08v-.18s-.02-.11-.02-.11l.12-.21-.04-.22v-.18s.08-.08.08-.08ZM296.99,303.41l.04.08h.08s.09-.04.09-.04h.09s.1.05.1.05l.03.06-.02.21.09-.02.06-.08.05-.1.07-.07.11-.02.04.04-.02.05h-.09v.05h.07s.06,0,.06,0l.05.03.02.05.11-.32.03-.17-.02-.07-.02-.06v-.05s0-.05,0-.05h-.07s-.17.04-.17.04l-.18.02-.06.02-.21.13-.12.04-.14-.05-.02.07v.07s0,.06,0,.06l-.05.04ZM294.74,304.16l.03-.03.04-.03.03-.04v-.08s-.05-.07-.05-.07h-.04s-.01.03-.01.03l-.07.08-.02.07.04.07.04.02.02-.02ZM296.43,303.44l.09.04h0s.04.04.04.04h.04s.09-.12.09-.12v-.06s0,0,0,0h-.03s-.04-.04-.04-.04l-.02-.02h-.06s-.09.07-.09.07h-.04s-.04.03-.04.03v.02s0,.01,0,.01l.05.02ZM301.14,302.64l-.11.04-.09.13-.12.18-.08.03-.19.1-.06.12-.03.05-.04.1-.03.05-.04.03-.09.06-.12.08-.39.7-.08.04-.11-.03-.07.16-.06.08.05.14.11.13.18-.05-.05.08-.06.11.02.02.11.05v.11s.12,0,.12,0l.24-.05.17-.15.11-.06.14-.05.12-.08.14-.03.1-.04-.04-.1-.12-.13-.04-.07v-.11s-.09-.06-.09-.06v-.07s-.02-.07-.02-.07v-.05s.04-.22.04-.22l.15-.21.12-.19.14-.12.06-.15.04-.13.07-.09.06-.08v-.07s-.14-.1-.14-.1ZM322.36,308.33h0s-.01,0-.01,0h.01ZM322.32,303.8l-.06.07-.05.04-.02.04-.05.21v.07s.07.11.07.11l.08-.08.06-.18.03-.19v-.11s-.05.02-.05.02ZM277.64,326.81l-.11-.05-.09-.06-.06.03-.13-.08h-.11s.05.07.05.07l.06.05.05.08.09-.04.02.05v.07s.09.11.09.11l.1-.02.04-.06h.11v-.07l-.1-.09ZM289.89,305.25h.04s.03.01.03.01v.04s.01,0,.01,0l.04-.02.04-.03.03-.06-.03-.07-.08-.05h-.05s-.1-.04-.1-.04l-.07.02-.03.06.04.05.13.06ZM289.38,306.54l.07-.07v-.06s.01-.03.01-.03l.02-.03v-.04s.02-.06.02-.06v-.06s-.01-.02-.01-.02l-.02.03-.06.05-.03.02h-.02s-.04.04-.04.04l-.05.05-.05.07v.08s.07.04.07.04l.1-.02ZM290.58,305.03h.1s.11-.03.11-.03l.05-.05v-.07s.06-.11.06-.11l.02-.14-.02-.05-.04.04-.06.09-.05.04h-.05s-.14.06-.14.06h-.02s-.04.03-.04.03l-.02.07.03.08.06.04ZM287.52,307.49l-.09-.04h-.08s-.07.04-.07.04l-.03.08h.08s.16.07.16.07l.1.02.08-.02v-.02s-.1-.08-.1-.08l-.04-.05ZM291.38,305.35l-.03.03-.02.08v.1s.05.04.05.04l.09-.04.24-.25.04-.06v-.03s-.04,0-.04,0h-.05s-.03-.04-.03-.04l-.03-.04-.08-.03-.11.02-.03.08.04.09v.05s-.01,0-.01,0h-.03Z"/>
</svg>