<?xml version="1.0" encoding="UTF-8"?>
<svg id="Layer_1" data-name="Layer 1" xmlns="http://www.w3.org/2000/svg" viewBox="0 0 600 463.92">
  <defs>
    <style>
      .cls-1 {
        fill: #fff;
        stroke: #fff;
      }
    </style>
  </defs>
  <path class="cls-1" d="M146.63,287.28l.03-.07v-.02l-.12-.21-.25-.32-.39-.3-.22-.3.13-.77-.13-.33-.24-.05-.29-.08v-.17s.02-.15.02-.15l-.06-.35-.41.23-.08.23-.6.36-.36.08-.27.13-.1.07-.23-.54-.11-.24h-.31s-.17.15-.17.15l-.15.28.14.33-.11.22-.03.1v.11s.05.09.05.09l.05.08.04.09.05.19.02.21v.22s-.03.2-.03.2l-.22.53-.02.12-.04-.17-.05-.43-.02-.09-.13.05-.1.15-.08.19-.05.15-.11.24-.06.32.3.09.57.36.17-.21.83-.05.4.02.32.45.3.18.29-.29.04-.23.04-.24-.25-.29-.08-.05-.05-.09.06-.21.06-.08.14-.03.09-.08.37.11.04.24.67-.18.38.02h.31ZM121.07,410.1l-.09-.13-.17.04-.14.23-.06.38v.11s0,.18,0,.18l.04.22.14.08.13-.19.04-.25.07-.24.05-.23v-.13l-.02-.08ZM118.78,402.93l-.18.03-.12.11-.1.2.1.08.2-.04h.16s.12-.13.12-.13l-.03-.19-.16-.07ZM56.92,418.26l-.29.08-.04.2.29-.07h.27l-.13-.21h-.1ZM139.15,394.48l-.12-.16-.26-.07-.22.13-.12.17h-.12s-.09.04-.09.04v.15l.09.07.08.04.08.08.34.17.29.02.11-.15v-.35s-.05-.12-.05-.12ZM143.35,387.07v-.02s-.04-.06-.04-.06l-.84.38-.25.2-.27.15h-.31s-.65-.09-.65-.09l-.25.04h-.14s-.08.05-.08.05l-.08.17-.04.17-.02.23.03.24.09.19.22.15.24.06.24-.05.22-.16.13-.04.16.04.14-.05.09-.29.21.07.16-.17.26-.48.23-.21.47-.27.15-.24-.06-.03h-.01ZM84.85,435.3l-.14-.07-.29-.11-.22.03-.06.19-.04.19-.13.04-.14.06-.02.22.18.22.29.06.62-.07.2-.21-.11-.37-.13-.17ZM70.12,439.99l-.11.06-.23.32-.54,1.09-.2.16-.27.12-.17.29-.13.33-.17.26-.16.09-.18.04h-.39s-.19-.03-.19-.03l-.14-.09-.13-.12-.09-.06-.02-.13-.06-.1-.22.04-.06.07-.18.31-.11.13-.28.07v.13s.17.12.17.12l.29.05.29.09.1.19.06.21.18.13-.35.45.3.34.61.16.58-.07.5-.49.2-.69.11-.79.22-.78.59-.86.17-.33.13-.15.09-.18-.05-.23-.13-.12ZM63.26,443.84l-.64-.19-.63-.1-.33.07-.39-.32-.11-.12-.13-.06-.12.02-.05.17-.03.15-.2.67-.09.63-.09.18-.22.07-.19-.14-.18-.09-.15.23-.12-.05-.06-.03-.06-.06-.26.49.26.21,1.04.07,1.76.44.36-.02.71-.88.34-.63-.03-.48-.4-.22ZM111.57,407.26l-.24-.23-.29-.15-.3-.05-.17.02-.3.07-.28.13-.15.19.1.26.27.15.36.1.31.14.13.26.04.12.09.1.12.08.11.02.1-.04v-.06l-.02-.07.04-.08.11-.12.09-.17.05-.18v-.17s-.15-.29-.15-.29ZM58.07,418.89h.07s.03,0,.03,0l-.06-.12-.04.12ZM88.59,436.72l-.36-.17-.29-.07-.36.04-.12-.05-.53-.52-.09-.11-.12-.24-.2-.51-.13-.22-.07-.08-.08-.06-.18-.09-.2-.04h-.04s.18.3.18.3l.06.21v.67s-.22,1.03-.22,1.03l-.08.22.03.33.68.14,1.4-.02.66-.1.34-.09.14-.14-.13-.22-.31-.22ZM148.53,380.6l-.23-.14-.18-.16-.19-.48-.2-1.09-.31-.37-.53.26-.25.08-.09.09-.1.72-.07.31-.09.23.34,1.04-.14.52.06.26.37.11.05.13.04.28.13.27.29.1.23-.08.26-.18.22-.22.18-.38.4-.54.09-.31-.08-.24-.19-.17ZM137.17,399.35l.07-.07-.1-.31-1.28-1.36v.41s-.27.6-.27.6l-.07.34-.14.24-.63.38-.14.27-.06.06-.12.02-.12.08-.08.37-.08.1-.68.52-.13.23.13.32-.9.54-.71.19h-.18s-.14-.08-.14-.08l-.12-.25.06-.19.12-.16.03-.16-.23-.24-.38-.08-.75.05-.58-.03-.12.03v.15s.12.61.12.61v.33s0,.29,0,.29l.15.2.77.13.26.14.11.24-.04.33-.38.59-.58.29-.64.2-.56.32-.03.1-.25.47h-.06l-.08.19-.19.09-.21.03h-.56s-.27.03-.27.03l-.15.18-.03.44.06.39.24.82.05.39-.04.21-.13.37-.22.28-.3-.04-.12.37-.25.47-.32.34-.34-.04-.04.43.35,1.29-.09.69h.98l.25-.1.27-.48.22-.18.35.06.35-.33.29-.49.16-.39-.23-.04-.31.07h-.27s-.12-.22-.12-.22l.04-.35.11-.31.85-1.54.21-.14.35.08.35.16.33.11.3-.09-.16-.25-.36-.3-.18-.24-.08-.24-.06-.53-.08-.24-.17-.12-.2-.08-.07-.14.22-.3.14-.08.18-.03h1.16s.12-.07.12-.07l.06-.29.15-.08.2-.02.2-.12.87-.91.32-.43.26.12.31.03.31-.05.41-.15h.09s.06-.06.06-.06l.06-.14v-.17s-.07-.06-.07-.06l-.1-.02-.05-.06.05-.17.13-.22.14-.2.12-.12.22-.09.75-.04.44-.14.35-.36.54-.91.06-.02.07.02h.06s.03-.06.03-.06v-.24s0-.06,0-.06l.23-.46.06-.08.11-.12.07-.14-.06-.16-.07-.14v-.13s.06-.11.06-.11ZM162.52,302.72l.05.04-.12.08v.15s.12.16.12.16l.06.13.03.1.07.05.09.05.12.14h.23s.22-.13.22-.13l.16-.03h.16s.12-.14.12-.14l.04-.13v-.06s-.05-.08-.05-.08v-.12s.02-.14.02-.14l-.03-.12v-.09s.09-.08.09-.08l-.08-.04-.25.04-.08.12.07.19-.05.12-.13-.05-.63-.54-.32-.1-.22.14-.14.21-.05.22v.13s.06.06.06.06l.13-.03.13-.19.18-.07ZM163.37,339.1l-.02.1v.06s.06.03.06.03l.17.19.17.06.29.09.12-.1v-.02l-.04-.04-.03-.07-.16-.32-.12-.22-.09-.22-.14.08-.07.02.06.14-.15.14-.04.07ZM163.73,342.12l.09-.05-.5-.4-.06-.53-.08-.05-.08-.03h-.08s-.07.01-.07.01l-.41-.16-.3.26.12.45.2.2.19.28.95.09.03-.07ZM164.35,322.75l-.03-.16-.2-.15-.11-.08-.13-.05-.11.04-.16.15-.13.07-.07.08.1.17v.08s.04.04.04.04l.26.12h.2l.18-.11.16-.18ZM165.33,369.88l-.71.4-1.04.87.72.23.36.02.29-.13.2-.3.23-.47.16-.48v-.32s-.21.17-.21.17ZM167.25,294.72l.33-.75.08-.14.4-.16.15-.1.14-.18.07-.12.04-.15.05-.53-.03-.16-.04-.13-.04-.15-.04-1.67-.16-.82-.48-.49-.35-.03-.32.1-.29.13-.43.11-.34.19-.22.04-.17-.06-.14-.11-.16-.1h-.21s.37.6.37.6l.08.39-.17.43-.23.33-.2.39-.09.39.11.31-.14.11-.11.14-.06.18-.02.22.08.44.19.37.29.17.36-.15.27.1.14.03h.17s-.19.21-.19.21l-.19.04h-.2s-.22.03-.22.03l-.34.22-.52.47-.07.12-.05.19v.09s.3-.16.3-.16l.17.03h.18s.2-.15.2-.15l-.25,1.03.02.18h.27s.42-.18.42-.18l.4-.24.23-.18.37-.48.14-.14.37-.18.09-.07ZM151.25,280.86l.12-.35-.22-.42-1,.45-.19-.11v-.59s.02-.35.02-.35l.06-.37.16-.31.11-.36.09-.41-.13-.1-.12-.17.06-.18.07-.18.02-.36-.16-.16-.2.82.04.22.13.26-.08.36-.27.13-.08.39.06.27v.39s-.11.06-.11.06l-.17.03-.04-.49-.28.09-.1.78.2.41-.32.24-.25-.26-.37.28-.28.12-.04.25.16.07.59.12.15.09.25.46-.1.28-.02.66.12.42-.02.38.32.08.06-.16v-.26s-.12-.18-.12-.18l.11-.25.31.08h.17s.02-.22.02-.22v-.13s-.13-.32-.13-.32l.04-.3.13-.25.29-.33.33-.05.32-.4.33-.17ZM153.75,374.43l-.48.07-.15-.11-.39-.18-.21-.17-.02-.14.09-.15.13-.16.09-.14-.61.08-.19-.1.1-.36h-.53s-.25.09-.25.09l.1.29.45.66.03.17.04.47.06.13.15.05.35-.06.19.02v.05s.18.25.18.25l.04.03.05.09.1-.08.09-.14v-.08s0-.04,0-.04l.08-.07.09-.03.04.09.05.04.3.29.44-.15-.05-.39-.37-.31ZM161.53,304.15l-.13-.3-.11.39-.15.4-.24.3-.37.12-.25.14-.44.59-.24.65-.35.14.06.35.31.24.31.16.39-.31.17-.13.21-.62.58-1.04.17-.16.22-.15v-.36s-.14-.41-.14-.41ZM167.25,297l-.09.33.12.28.25.15.3-.08.11-.2.29-.79.06-.23-.12-.39-.19-.14h-.38s-.35-.16-.35-.16l-.18-.03-.13.1-.04.28.06.35.14.32.17.19ZM160.2,368.16l-.06-.12-.16-.62-.17-.27-.24-.02-.1.13.03.15.06.14v.09s-.31.58-.31.58l-.17.23-.19.09-.27-.07-.04-.18.21-.66-1.09.6-.46.39-.29.7-.2-.13-.2-.09-.17-.12-.12-.19-.15.31-.25.24-.31.1-.32-.12-.23.41-.32.09-.39-.03-.43.04v.04s-.25.26-.25.26l-.35.26-.12.06-.41.08-.19.14-.18.17-.23.15.2.27.24.11h.61s-.33.55-.33.55l-.49-.02-.55-.15-.47.15-.15-.1-.14-.02-.14.04-.15.08v.12l.22.18.25.09.57.13.58.29h.23s.22-.29.22-.29l.19.21v.26s0,.27,0,.27l.11.24.85.57.47.46.17.07.06-.12-.08-.27-.17-.26-.21-.12.32-.13.29.08h.22s.08-.41.08-.41l.14-.02.88-.57-.19-.19-.42-.29-.19-.17.17-.08.15-.09.14-.14.12-.21-.12-.26h.23s.44.16.44.16l.19-.09.52-.51.06-.08.34-.18.46-.8.34-.18.15-.05.07-.12.03-.13.04-.08.1-.04.24-.05.71-.3.21-.14.11-.03.14.02h.12s.08-.12.08-.12v-.17s-.06-.12-.06-.12l-.1-.1ZM160.26,345.35l-.06.23.02.25.14.44.38-.31.17-.44-.13-.3-.52.13ZM158.55,349.39l.05-.23-.08-.2-.04-.07h-.08s-.04-.04-.04-.04l-.05-.02-.11.08-.06.19.07.15.14.13h.21ZM148.78,282.19l-.05-.17-.06-.16-.19-.15-.29-.1h-.13v.06l-.04.06-.05.06v.07s.05.08.05.08l.02.12.09.13.09.1.02.1h-.06s-.31-.16-.31-.16h-.14s0,.18,0,.18l.07.31.02.04.07.05.06.1.09.04.24-.09.16.04.12.12.06.04v.17h.11l.07-.15.03-.65v-.06s-.04-.16-.04-.16ZM302.45,182.12l.17.1.18.03.37-.05,1.76-.64,1.94-1.33.24-.31.21-.81.19-.39.69-1.12.16-.4v-.83l-.58-.05-.77.21-.59-.06-.13.37h-.14s-.09-.24-.09-.24v-.42s.11-.4.11-.4l.71-1.67.34-1.27.2-1.4v-.23s-.09-.1-.09-.1h-.41s-.19.07-.19.07l-.14.14-.68,1.21-.45.32-.76.8-.14.23-.32.23-.32.29-.26.68-.7.97-.18.4-.11.41-.05.44v.5l.26.62,1.12-.4.46.65-.19.32-.54.62-.18.35v.95l-.08.27-.19.13-.81.17-.14.08-.06.23.05.21.13.15ZM216.52,217.98l-.04.62v.6s.35-.34.35-.34l.4-.52.21-.55-.24-.42-.47.14-.2.47ZM218.55,215.46l.79.7.11.07h.37l.67.14h.13s.19-.15.19-.15l.06-.2-.06-.19-.19-.15.14-.15.15-.11.15.02.13.24.22-.13.1-.22.04-1.02-.24-.34-.06-.1-.07-.19-.09-.13-.09-.06-.22-.07-.11-.08-.05-.09-.05-.18-.06-.07-.15-.05-.17-.03-.13-.1v-.25s-1.39.94-1.39.94l-.22.4-.14,1.28.08.21.17.08ZM215.92,219.22l-.35-.12-.2.22v.14s.06.14.06.14l.09.11.11.04.62-.03.24.03-.21-.27-.36-.28ZM214.85,218.81l.22.03.15-.21-.18-.37-.05-.22.17-.1h.16s.08.04.08.04l.03.1v.2s.05.09.05.09l.12.09.15.05.15-.03.18-.14.02-.12-.05-.15-.04-.22.11-.36.24-.1.24-.06.02-.15v-.18s-.23-.02-.23-.02l-.29.06-.3-.12-.4.41-.75.6-.34.41.27.26.27.19ZM217.06,217.29l-.34-.2-.04.11.04.17.34-.08ZM398.01,42.22l.59-.21-.31-.09h-.76s-.25-.14-.25-.14l-.25-.2-.37-.14-.39-.07h-.31s-.06.18-.06.18l1.38.52.73.16ZM321.21,102.29l.48-.24.13-.21-.06-.13-.09-.06h-.29l-.13-.05h-.13s-.06.13-.06.13v.16l.07.3.08.09ZM159.63,265.05l-.51-.24.04.34.13.27.23-.15.17.12-.06.3.23.27.33.3.17.06.03-.38.21-.4h.42s.39-.03.39-.03l.27-.26v-.28s-.39-.17-.39-.17v-.13l.09-.03.16-.08.09-.03-.26-.12-.24-.19-.07-.21v-.22s.09-.27.09-.27v-.16s-1.13-.34-1.13-.34l-.2-.19-.03.23-.13.22-.1.34.09.35h-.36s.02.23.02.23l.03.4.45.35v.14l-.17-.03ZM406.6,46.78h-.11.01s.1,0,.1,0ZM48.08,442.1l-.58.06-.21-.04-.18.12-.11.21v.19s.16.09.16.09l.67-.07.18.07.21-.15.12-.21-.03-.19-.23-.08ZM322.5,88.04l.04.19v.46l.04.2.09.2-.05.25.1.24.17.18.16.07.64-.61.25-.49.06-.51v-.55s.13-.59.13-.59l.55-.83.17-.45-.26-.26-.17.06-.49.34-.19.08-.2.02-.37.11-.19.02-.25.18-.22.35-.16.43-.06.42.03.22.17.28ZM348.88,12.18l-.11,1.14.08.5.19.53.42.84-.1.19v.13s.1.32.1.32l.23-.66.16-.69.24-2.44-.07-.43-.27-.18-.29.1-.26.15h-.22s-.22-.45-.22-.45l-.04-.11-.07-.1-.09-.04-.11.03-.12.1.49.79.08.26ZM351.37,18.62l.53.48.9.57.27.08.29-.04.6-.45.09-.1.11-.32.2-.23.12-.24-.14-.34-.57-.81-.41-.45-.55-.37-.54-.18-.39.11-.21.1-.59.7.06.1.09.24.08.15-.24.46.32.54ZM135.64,379.66l.03-.22-.08-.07-.04-.11-.11-.05.04.3.16.14ZM145.56,284.41l.08.2.13.05.31.2.15.03.12-.03.21-.33.21-.24.02-.14-.09-.25-.05-.08-.13-.11-.4-.28-.09.05.06.19.08.18.04.16v.07s.03.05.03.05l-.02.06-.07-.05-.06-.12-.05-.23-.11-.22-.18-.1-.15.02-.04.13.02.16v.62ZM156.94,270.78l.04-.09.13-.05.21.11.25.03.23-.1.14-.2-.05-.16-.29.04-.02-.12-.05-.14h-.17s-.29.19-.29.19l-.3.29-.06.19h.14s.08,0,.08,0ZM146.47,283.01l.1.03.24.28.1.07.07.08.06.11v.1s-.06.08-.06.08l.04.05.15.02.11.08.03.17h.08s.07-.18.07-.18l-.03-.13-.05-.07.04-.09.12-.05.06-.21-.04-.43-.04-.22-.03-.04-.08-.07-.05.08-.02.22-.07.09-.15-.08-.04.05.04.25-.09-.03-.26-.3-.3-.09-.17.17.04.13.11-.04ZM59.28,415.39l-.02-.02v.04s.02-.02.02-.02ZM128.02,401.04l.43-.08-.02-.53-.23.07-.45-.05-.24.1.06.29.45.19ZM131.19,394.75l.29-.5.13-.47h-.09l-.14.25-.86,1-.17.29.44-.16.39-.4ZM157.15,340.48v.13s.08.17.08.17l.11.07.19-.07.05-.08-.07-.12-.12-.08-.13-.03-.11.02ZM155.68,273.74l-.06.57-.52.43.04.42.14.34-.38-.05-.2.21-.07.28.12.21.19.03.12.1.06.07-.11.16-.26.04-.4-.3-.18-.29-.08.46-.04.21.26.05.3.14.61-.17.57-.4.78-.93.16-.4-.02-.29.22-.16v-.2l.2-.11.2-.24-.18-.16.25-.24.23-.35.11-.26-.11-.88-.51.12-.03.29.27.22-.27.22-.12-.2-.13-.07-.22.47-.88.2-.03.45ZM151.18,258.11l.1-.04.21-.12.14.08.21.22.09.03.07.19.19-.12.07-.12.21.02.05-.15.19-.14.04-.19.2-.11.12-.34v-.23s.07-.15.07-.15l.11-.03.04-.08v-.23s.04-.32.04-.32l.05-.23-.08-.08v-.11s.19,0,.19,0l.26-.21-.06-.23-.05-.35.13-.26.29-.14.07-.18-.07-.12-.43-.03-.07.3-.19-.17.02-.4-.22-.2-.15-.1h-.19s.03.15.03.15l.08.15h-.22s-.23.14-.23.14l-.16.02-.14.12h-.11s0-.39,0-.39l.07-.17-.05-.13-.3-.04-.15.26-.04.87-.12.47v.31s-.14.14-.14.14l-.08.64.05.52-.14.46.02.8ZM149.75,275.04l.11.09.19.13.27.05.14-.02.12-.22.26-.21v-.15s-.11-.17-.11-.17l-.13-.3-.12-.03-.25.2-.16.05-.25.11-.22.29-.02.18.08-.03.1.03ZM155.49,322.51l.07-.07-.05-.07-.04.03.02.11ZM152.86,253.09l.24.25.12-.1-.1-.34.16-.23.2-.15-.07.24v.21s0,.38,0,.38h.19s.31-.35.31-.35l.21.09-.03.58-.4-.13-.26.18.32.41.32.09.41-.14.18-.35.12-.13.24-.13.12-.27-.14-.07-.19-.24-.06-.34.07-.13.1-.28-.02-.15-.3.33-.27.08.04-.3.37-.37-.08-.58.38-.59.73-.67.3-.8.15-.51.04-.18.05-.18-.26-.24-.17-.21.16-.05.17.1.14-.06.12-.32v-.21s-.17-.09-.17-.09l-.15-.04.14-.09.09-.12.07-.28-.12-.15-.17-.18-.1-.16h-.23s-.2.14-.2.14l-.26-.03-.09.19.13.15-.27.05-.32.42-.2.19-.29-.06h-.41s-.22,0-.22,0l-.26.9-.07.33-.24.34.03.28.3-.09.28.37v.14s-.34.31-.34.31l-.27.67-.22.5.08.23.21-.05.26-.27.03.13-.22.26-.09.14-.08-.05-.16.03-.14.17.09.41-.02.75-.21.12-.41.03-.11.25.32.07.4-.09ZM356.55,446.61l-.12.09.05.12.12.07.08-.03.05-.1v-.13s-.18-.02-.18-.02ZM354.68,436.28l-.3-.02-.31.04-.2.11-.12.22-.05.25v.61s.21-.14.21-.14l.3-.44.17-.19.2-.06.25-.02.14-.08-.13-.22-.16-.06ZM346.65,391.13l.03.29.14-.27-.07-.1-.1.08ZM353.87,424.5l-.03-.19-.16-.13-.22.03-.07.2.07.25.22.17.14-.12.06-.19ZM366.65,144.64l-.09-.06-.47-.46-.06-.23.14-.37-.09-.13-.03-.12.03-.14.09-.2-.4.07-.77.81-.1-.28.07-.3.22-.48.04-.32.05-.96.12-.51.04-.1.18-.21.07-.17-.03-.17-.05-.15v-.12s-.03-.11-.03-.11l-.4-1.34-.05-.28-.06-.67-.09-.19-.12-.14-.11-.18-.18-.39.05-.15.19-.27.08-.22-.03-.23-.07-.23-.1-.47-.14-.11-.18-.06-.18-.1-1.08-1-.21-.33-.08-.52.17-.45.31-.26.19-.26-.2-.44-.2-.16-.45-.18-.21-.17-.05-.2.08-.22.15-.18.17-.07.13-.25-.19-.55-.45-.85-.3-.37-.12-.19-.05-.26-.05-.14-.24-.55-.08-.23-.16-.32-.3-.22-.11-.42-.47-.64-.17-.19-.96-1.1-.58-.45-.12-.23-.11-.21-.27.06-.19.17h-.26s-.22-.14-.22-.14l-.47-.53-.15-.26-.2-.43-.55-1.68-.24-1.22-.29-2-.21-2.31-.05-.27-.04-.95-.03-1.17.17-1.35-.03-.25v-.3s.06-.26.06-.26l-.06-.22-.06-.5.22-1.32v-.22s.09-.58.09-.58l.25-1.24.14-.38.13-.47.09-.33.2-.25.04-.23-.07-.09-.03-.1.14-.09.03-.07-.05-.21.11-.13-.05-.15-.06-.09-.21.26-.28.27-.35.35-.47.4-.56.27-.51.16h-.7s-.67-.32-.67-.32l-.68-.44-.18-.23-.07-.18-.34-.26-.28-.36-.59-.68-.71-.38-.74-.07-.3-.07-.17-.09-.25-.15-.23-.25-.23-.29-.4-.25-.22-.3-.11.18-.06.23-.07.09.11.25.02.27-.1.44-.05.11-.24.19-.51.82-.27.27-.16.68-.06.51-.14.6-.2.18v.19l-.06.4-.1.54-.21.59.07.37-.11.63-.21.24v.25s0,.87,0,.87l.54.36h.27s.23-.39.23-.39l.57-.4.21-.05.26.06.28-.22h.64s.28-.36.28-.36l.25-.15.24.07.23-.05.47.22.4.06.24-.3.37-.3.31-.09.56-.49.17-.26.03-.11v-.08s-.05.04-.05.04l-.11.13-.09.16-.11-.02v-.09s.14-.2.14-.2l.11-.19.15-.32.37.03.38.27.49.59.35.59.24.58.12.66-.09.41-.15.23-.19.16-.1.26.03.19-.1.34-.09,1.48-.17.62-.69,1.68-.36.44-.28.27-.35.13h-.25s-.31-.19-.31-.19l-.15-.11-.17-.3-.1-.24-.17-.12-.18.04-.2-.08-.4-.25-.33-.11-.19-.03-.08-.05.03-.18.05-.12h0s.04-.05.04-.05v-.13s-.26-.22-.26-.22l-.14-.18-.15-.28-.17-.08-.41-.04-.19-.28-.24-.04-.11.06-.17.41-.06.11.04.14-.17.13-.03.15.03.18-.2.02-.15.07.12.12.11.06.15-.05.13.05-.06.08-.07.16.05.25.08.16-.31.69-.36.37-.53.61-.78.09-.82-.4-.5-.93-.31-2.49-.22-.73-.07-.67-.09-.47v-.28s.05-.22.05-.22l.04-.65.09-.59-.17-.51-.65-.57-.76-.14-.4.14-.23.49-.46.32h-.36s-.44-.32-.44-.32l-.44-.59-.3-.35-.21-.08-.33-.22-.28-.26-.07.15.05.27-.14.21-.05.56-.03.23.07.22-.06.42-.15.49-.28.29-.37-.08-.42.03-.18.11.04.23.28.05.29.04.31.18.36.63v.27s.04.56.04.56l.05.09.12-.1.12-.1.06.13.1.11h.29s.18.01.18.01l.34-.03.09.12.05.19-.19-.03-.18-.05-.15.03-.12.14.11.2.11.53-.21.05-.12-.15-.21-.12-.15-.15-.27-.49h-.05l-.04.61-.07.47.02.53-.12.4-.21,1.38-.43,1.35-.21.37-.29.27-.36.11-.35-.18-.72.55-.24.26-.3.1-.25.02-.21-.12-.43-.36-.39-.05-.8.56-.19.53-.28.53-.18.35-.35.17-.21.51-.43.1-.33.38-.33.36-.06.41.33.15.65-.06.22.33.04.36.2.21v.51s.05.95.05.95l-.05.96.06.34.29.33.59.58.22.2.21.28-.07.48-.14,2.13-.14.28-.24.68.08.47-.26.96-1.23,2.35-.62.72-.75.5-.36-.03-.95-.43-.72-.5-.05.37.05.6.31.19-.26.15.08.45.36.47.13.23.23.56.14.18h1.09l.3-.08.18-.2.16-.25.22-.23.73-.12.75.4.64.63.38.57.19.68v.52l.34.9v.64l-.18,4.18-.47,2.09-.42,1.73-.53.61-.53.25-.25.53-.22.81-.09.68-.04.88-.06.41-.19.4-.11.35-.11.78-.16.64-.71,1.95-.69,2.65-.44.82-.52.71-1.49,1.37-.46.7-.32.88-.84,2.1-.62,1.15-.33.89-.18.8-.5,4.37-.12.38-.29.41-1.73,1.9-1.09.82-.39.28-1.4.66-.69.09h-.39s-.14.18-.14.18l-2.17,1.5-1.21.99-.51.64-.3.77-.73,2.65-.32.79-.47.67-.98.85-.62.98-.43.89-.32.68-.46.52-1.89,1.17-1.88,1.9-1.34.99-.63.31-.71.16-1.12-.2-.35.45-.39.41-.9.4-1.71,1.12-1.49.56-2.08.89-1.61.38-1.46.29-.86.46-.34.24-.22.52.1.41-.11.32-.08.35-.23.38-.19.56-.55.37-.29.41-.58.12-.96-.17-.74.14-.67-.06-.48-.33-.79-.27-.47-.44-.79-.52-.3-.73.62-.89.04-.52.45-.58-.09-1.17.09-1.19-.11-.4-.14-.08-.24.15-.34.83-.4.18-.28-.1-.49-.59-.32-.05-.35.2-.31.07-.23-.15.12-.26v-.45s.33.01.33.01l.09-.15.04-.45-.26-.11.21-.61.4-.52.17-.32.07-.17.19-.06.16-.21h.15s-.06.13-.06.13l-.18.23.24.21.34.23.57.24.21-.14.1-.28.36-.12.27-.18v-.41s.37-.49.37-.49l.26-.46.95-.36.73.16.35.02.12-.2.3-.28.11-.23.05-.29.04-.32-.31-.05-.19-.47.14-.71.13-.33.24-.16.32-.14.34.07h.29s.44-.12.44-.12l.08-.16.05-.28-.23-.18-.03-.24.12-.41-.17-.23-.76-.3-.67.14-2.37.77-.38.32-.33.41-.45.11-1.84,1.02-.52.03-.38-.2-.65.18-.98.54-.58.33-.46.68.05.58.15.26-.12.32-.22.39-.25.24.13.24-.25.28-.14.33-.13.49-.07.53.1.26.33.02.04-.23.17-.05.21.16.1.32-.14,1.05.03.44.19.15.18.71.3.28.13.4-.11.6-.15.35-.03.2.13.13.12.12v.5s-.08.39-.08.39l-1.18,2.91-.83,1.42-3.51,4.77-.8.86-.59.52-.81.38-.33.51-1.37,1.2-.57.25-.3-.04-.34.02-.08.14.26.45-.25.51-.21.3-.25.49-.82,1.04-.21.62-.22.48-.3.68-.21.26-.4.24-.1.55.22.27.4.5v.47s-.01.58-.01.58l.31.29.61.66.36.29.1.27.19.34.19.4v.33s-.11.34-.11.34v.38s0,.19,0,.19l-.16.22v.28s-.02.13-.02.13l-.12.11-.09.35-.36.06-.07-.23-.27-.22.08-.22h.17s.08-.25.08-.25l-.13-.39-.13-.32.04-.17-.23-.39-.64.52-.42.24v.57s.23-.05.23-.05l.07.25-.02.3-.16.43.3.24-.02.27-.16.09-.34-.06-.19.21-.34.21-.16-.14-.13-.19-.57.13-.24-.15-.22-.18-.3-.22-.19.02.07.26.24.28.07.08.06.29.12.15.12.11.05.15-.25.12-.24.08-.17-.17-.19.05-.05.15.25.45.12.16.18.08-.4.15-.27-.09-.28-.38-.35.02-.13-.31-.16-.13-.54.17-.24.33.28.11.2.37.46-.23v.41s-.17.31-.17.31l-.23.16-.46-.02-.86.24-.38-.13.21-.14.12-.58.38-.16.08-.1-.35-.17-.4.22-.33.31-.15.25-.33.19-.16.07-.15.02-.48-.02-.31-.11-.04-.28.06-.37v-.37s-.16.33-.16.33l-.12.16-.12.07-.15-.04v-.1s.02-.14.02-.14l-.03-.2.07-.32-.22-.14-.29-.12.1-.31.08-.33-.4.26-.06.22-.16.21-.17.17-.22.07h-.49s-.21.08-.21.08l-.39.34.21.56.4.18.48-.11v.51l-.13.12-.41-.2-.3-.02-.21.32-.16.34-.19.16-.09-.24.03-.17.16-.39.08-.18.1-.28-.19-.33-.14.13-.25.1-1.05-.59.02-.33h.2s.17,0,.17,0l.15-.11-.09-.09-.2-.09-.09-.42-.22.15-.23.34-.23.18-.02.36-.18.03-.13-.11v-.41s.28-.46.28-.46l.47-.55.16-.17.06-.26.21-.44.34-.24.34.22.12-.28-.04-.36-.19-.47-.26-.4-.25-.17-.19-.37-.4-.3-.28.18-.44.06-.83.17-.84.26.03.27-.68.5-.26.18-.3.04-.38.03-.47.33.07.26-.17.06-.11.06-.34.28-.19-.06-.3-.1-.21.07-.07-.23-.29-.02-.35.26-.14-.24-.34-.11-.25-.07-.53-.02-1.26.06-.73-.02-.96.1-.89-.26-.65.37-.53.33-.88.34-.62.2-.25.32-.16.03h-.16s-.81.17-.81.17l-.2.43-.33.23-.41.14-1.07.21-2.32.35-.44-.36-1.62.46-3.02.24-1.65-.38-.87-.25-.91.23-.55.25-.86.4-.4.71-.29.05-.32-.04-.33-.08-.52-.1-.59-.3-.5-.32-.07-.28-.11-.24v-.25s.06-.05.06-.05l.21-.27.28-.08.2-.1.24-.07.22-.13-.29-.18-.37.02-.34.04-.34.14-.12.08-.19-.02-.08-.08.12-.2-.09-.1-.3.21-.29.02-.55.19-.25-.16-.36-.3-.24-.26-.23-.08v.29l-.17.25-.28-.1-.21.13-.16.25-.15.32-.32.11-.38-.08-.3.05-.06.51-.39-.03-.4.11-.96.05-.46.1-.55.22-.49.29-.38.08-.27.09-.18.04.32.15.17.15-.1.1-.24.06h-.55s-.32,0-.32,0l-.44.12-.34.04-.19.2.12.23.38.26.29.15.05.29v.27s-.04.35-.04.35l-.14.52-.2.34-.21.37-.29.21-.76.23-.43.22-.3.1-.04.26-.57.25-.47.39-1,.78-.09.3-.27.3.04.22-.15.2-.38.28-.51.39-.16.6-.39.28-.38.16-.58.11-.34.43-.98.76-.44.36-.35.31-.8.72-.04.44-.11.27-.32-.09-.22.22-.4.58-.67.49-.55.51-.37.35-.09.15-.37.08-.12.27-.06.17-.08.47-.3.19-.3.14-.55.25-.74.22-.58.08-.52-.06-.12.08-.04.16-.24.19-.45-.11-.24-.11-.31.11-.04.36v.33l.03.18-.18-.03-.34-.02-.13.09-.03.46-.07.22-.25.32-.26.28-.64.49-.35.08-.12.09.12.4-.09.18-.5.5-.22.24v.6s-.81.17-.81.17h-.51s-.19.46-.19.46l-.65.18-.81.04-.12.04-.21.16-.12.06.05-.29.07-.27.1-.23.12-.19.19-.07.17.04.26.19.25.03-.28-.41-.2-.19-.3.08-.46.09-.25.08-.36-.1v.26s.04.13.04.13l.3.33-.21.3-.1.22-.32-.03-.22-.18-.12-.67-.3.04-.27-.07-.41-.23-.23.08-.17.11-.23.08-.25.04-.22-.02-.14-.09.03-.22-.22-.18-.22-.08-.3.23-.18.17-.14.23-.09.24.21.07.04-.05.1-.17.17.07.64.14h.24s.26.22.26.22l-.37.12-.26.13-.69.15-.11.06-.11.16-.24.04-.27-.04-.19-.08-.12.23-.06.25-.06.62-.07.14-.11.14-.06.15.08.19.26.2.04.08.05.23.23.4.09.51.07.14.05.18-.04.27-.17.32-.2.18-.21.13-.22.2-.19.33.02.22.11.2.07.27.09.21.42.04.14.25-.12.48.13.16.07.22-.06.23-.09.29.03.23-.17.48h-.32s-.01.24-.01.24l.24.11.09.16.27.21.18-.17.1-.45.61-.52.76-.87.36-.67.62.22.51.14.35.61.56.42.14.04v.09s-.07.16-.07.16l-.02.23.17.22.04.16.09.07.15-.05.13-.1.09-.1.03-.04.12-.05.11-.07h.08s.03.19.03.19l.05.13.13.04.15-.03.12-.07.14.26.24-.04.83-.53.18-.18.39-.55.46-.87.11-.13.18.14.07.31-.04.36-.15.27.15.09.12-.03.1-.13.09-.2.05.13.08.14.1.11.11.03.14-.07.04-.07v-.07s.06-.07.06-.07l.02-.12.16-.15h.04s.09-.14.09-.14v-.09s-.09-.16-.09-.16l.23-.11.17.08.29.32.15.08.53.18v-.05l.09-.06h.1s.05.18.05.18v.13s.04.07.04.07l.07.02h.12s.24-.13.24-.13l.07-.22-.06-.26-.15-.23.14-.21.08.03.06.12.07.07h.46l.19-.04.52-.23.21-.14.24.06.64-.24.97.37.24.18.15.04.02.13-.28.29-.5.4.04.32.2.11.59-.02v-.12h-.24l.36-.47.31-.07.31.2.38.34.16.1.46.19.19.12.41.59.1.09.38.07,1.05.37.3.18.19.16.21.13.16.19.07.36-.07.29-.17.13-.2-.03-.14-.2-.04.16-.12.3-.06.09-.35.27-.05.34.24-.02.34-.2.5-.44.74-.42.19-.23-.03-.31-.35-.76-.09-.37.03-.5.12-.16.24-.05.4-.18.53-.64-.04-.71-.2-.8.05-.88.2-.32.23-.15.19-.21.08-.49-.06-.46-.04-.29-.11-.42-.15-.28,1.5-1.77.56-.44.62-.34.37-.05.6.36h.34s.33-.09.33-.09l.26-.16.35.19.14.15.08.21-.13.02-.21.09-.12.03.09.24-.03.16-.06.16v.26s.06.09.06.09l.23.27.21.5.29.28.15.25-.25.28.16.24h.19s.45-.24.45-.24l.06-.06.05-.1.08-.09.16-.04.03.06.05.13.06.14.08.08.49-.03.78-.53.4-.13h.5s.25-.06.25-.06l.11-.15-.09-.22-.15-.2-.03-.14.27-.06.35-.22.32-.39.3-.16.28.48.5-.35.48-.2,1.78-.17.68-.18.45-.38-.11-.63.24-.15.17.1h.16s.17,0,.17,0l.19.04.31.17.27.23v.15l-.35.07-.24.67-.33.08.07-.25v-.32s-.05-.19-.05-.19l-.18.13-.27.37-.18.2-.08-.02-.03.81.1.36.28.14.16-.09.38-.39.32-.13.19-.18.09-.05.08.04.21.19.12.05.29-.17.09-.38-.11-.41-.33-.26.22-.25.3-.19.27-.26.3-1.02.32.12.17.38-.3.24v.15l.41-.02.36.11.17.23-.16.35-.16.08-.23.05-.21.07-.09.15.09.19.2.02.23-.07.5-.24.26-.23,1.19-1.54.16-.41-.12-.13.07-.34.19-.1h.44s.2-.08.2-.08l.36-.26.18-.05.36.18-.22.42-.65.77,1.04-.43.1-.07.09-.09.12-.08.31-.06.13-.07.11-.11.05-.14.17-.13.74-.39.48-.18.26-.19.25-.12.28.12.12-.15.04.22.08.19.11.09.12-.07.42.36.19.5.23.41.54.11-.08-.5h.62s1.29.22,1.29.22l.29-.46.21-.66.28-.45.48.17-.06-.17v-.04s-.06-.07-.06-.07l.21-.2.27-.18.2-.23v-.36s-.17-.24-.17-.24l-.27-.07-.31.05-.28.11-.45.5-.25.19-.22-.12-.07-.34.19-.19.29-.12.42-.26.25-.06h.58s.31.08.31.08l.37.38.24.09.49-.08.58-.23.49-.35.2-.45-.17.09-.16.03-.14-.03-.11-.09.26-.18.13-.06.3-.06.27-.19.13-.04.07-.08.34-.48.12-.05.32-.05.13-.04-.87-.2-.17-.08-.14-.33h.2s.45.2.45.2l.48.06.84.22.46-.02-.03-.22.09-.22.18-.18.22-.08.14.05.14.12.18.11h.24s.14-.09.14-.09l.43-.59.09-.05.07.02.05-.02.02-.17.03-.14.09-.1.11-.07.11-.04v.29s.08.16.08.16l.17.07.22.03.1-.02.11-.05.11-.07.08-.07.11-.07.09.03.09.07.12.04,2.16-.2.81.2.3.19.63.53.55.19.92.6.32.28.49.21.39.48.32.05.63-.02.48.35.56-.06.53-.26,1.22-.22.03-.48.31-.05.11.45.53.09-.37-.81.58-.2-.02.48.56-.06v-.52s.5-.03.5-.03l.4-.03.37.39.3.16.27-.1.26-.12-.16.67.06.5.14.5v.6s-.02.44-.02.44l-.1.35-.15.16-.14.19-.3.1.02.23-.03.47-.32.34-.57.78-.64.63-.41.42-.8.69-1.73.49-.57.65-.17.37.53.15.45.36.27.29.22.84.29-.02.23.42.17.33-.05.27-.64-.04-.43.02.13.3v.18l-.03.09-.05.05-.14.05-.04.03-.34.69.28.04.37.15.33.19.16.18-.02.3-.14.31-.42.22-.24.1-.35.03-.27.29.03.37h.3s.1.09.1.09l-.28.24-.25.23.14.24.02.25h-.25l-.11.09.15.1-.09.13-.04.2.11-.11.58-.09.31-.06.57.34.34.75.39.47.56.32.05.33h.53s.5.37.5.37l.3-.04.16.25.32.15.85.63.18.25-.39.06-.61.09-.25.45.24.28.28.06.18.18.09.04.09.12.19.36-.09.22v.28s.18.23.18.23l.19.17.6.47.77.19,2.45.93.51.08,1.63.18.09.27-.28.33.1.36.2-.23.29.08v-.25s-.11-.39-.11-.39l.25-.44.19-.2.32-.17.95-.31.16-.25.3-.12.56-.6.23-.31-.35-.22-.03-.27.34-.17.07-.33.32-.21.17-.59.05-.08.39-.95.87-2.27.59-.89.35.04.19-.02.09-.06.17-.25.13-.14.07-.06.57-.09.12-.12.08-.36.29.13.1-.2-.12-.27-.38-.07v-.12l.24-.19.22-.24.11.21.14.22.19.11.24-.11.04-.17v-.54s.02-.11.02-.11l.05-.1-.15-.22-.3-.31-.04-.26-.11-.16-.18-.07h-.24s0-.15,0-.15l.2-.14.27-.43.11-.1.14.07.21.39.17.09.13-.03.15-.06.14-.09.08-.1.09-.28-.04-.11-.14-.07-.19-.16.03-.58.63-.6.79-.41h.54l.18-.19.74-.51.52.2h.2s-.15-.35-.15-.35l.11-.12.09-.18.09-.24.17.03.46.24v-.18s.06-.07.06-.07l.07-.05.1-.13.31.36.26-.04.25-.2.53-.23.2-.24.02-.23-.3-.09.44-.25.51-.16.28.06-.25.41-.09.32.39.08.51-.1.28-.24.57.41v-.15s.04-.07.04-.07v-.06s-.04-.14-.04-.14l.33-.09.32.1.16.27-.13.42-.21-.15.04.1.03.19.04.13-.2-.14-.34-.15-.35-.07-.25.09.03.23.32.18.41.11.28.02.26-.06.59-.23.16-.13.08-.32-.04-.37-.11-.34-.13-.21.09-.16.09-.13.26-.25-.21.02-.17-.06-.12-.11-.08-.13.13-.19.17-.07.19.03.2.1.15-.74-.02-.22-.14-.2h-.15s-.18.01-.18.01l-.22-.08-.17-.19-.04-.2-.03-.21-.11-.24-.17-.13-.22-.07h-.23s-.17.06-.17.06l-.18-.19-.86-.37-1.26-.83-.24-.24-.23-.28-.26-.23-.35-.1h-.73s-.29-.12-.29-.12l-.18-.28.02-.21.07-.28v-.24s-.16-.1-.16-.1l-.07-.07-.18-.32-.04-.1.04-.42.1-.39.13-.9.5-.7.85-1.08.39-.72.15-.46-.04-.37.27-.22-.28-.04-.04-.12.02-.1.09-.19.02-.13.15-.31.37-.34.74-.53.32.08.12-.06.45.12.32-.08.03-.5h.16s.07.43.07.43l.44-.1-.16-.94.22.08.02.29.08.43.14-.45.25-.64.23.09-.05.37-.05.55-.23.37-.15.36-.22.38-.18.35-.16.35-.02.34v.38s.01.49.01.49l.08.48.26.02.22.3.13.41v.3s-.12.34-.12.34l-.07.35-.17.38.03.33.19.26.37.23.59.36.54.25.44.04v-.34s-.15-.44-.15-.44l-.42-.22-.18-.36-.19-.25.17-1.06.09-.37.12-.29.31-.48.21-.54.16-.26.06.53-.34.82-.07.52.31.14.32.35.11.12.27.39.18.06.36.05.37-.15.25.18.23-.17.34-.08h.32s.28.15.28.15l.23-.06v.41s.29-.13.29-.13l.04-.38.06-.37.22.09.25-.28.38.13.35.13.22-.1.3.22.4.48.05.13-.06.23-.14.38.47.2-.14.13-.39-.11v.39s-.1.35-.1.35l-.13-.04.07-.32-.02-.43-.27-.06-.38.55-.31.15-.73.46-.5.35-.24.11-.27.12-.27.16-.04.08-.13.17-.1-.13-.06-.14-.47-.52-.35.36-.16.59-.22.4-.1.15-.12.24h.26s.22-.04.22-.04l.85-.26.75.08,3.33-1.17,1.47-.41,2-.19h.8s1.48.13,1.48.13l1.82.63,1.68-.57,1.25.02,1.33.24,2.39,1.08.72.13.12-.16-.26-.28-.4-.11-.12-.4.14-.38.24-1.05.56-.54.73-.54.36-.66.18-.19.25-.38-.18-.38-.03-.2.14-.38.17-.28.11-.32.23-.27.56-.31.49-.25.65-.29.77-.43.29-.75-.18-.05-.24.15v.42l-.2-.2.05-.65.5-.37.44-.92.55-.37.84-.03.44-.23.54-.24.8.08.99.26.59.46.25.43.91.97-.23.22h-.31s-.33.02-.33.02l-.48-.09-.68-.06-.15.47-.25.47.03.48.17.5.08.19.19.31-.22.04-.23.22-.15.29.11.2v.41s.03.05.03.05l-.07.34-.16.33.18.62.26.64-.21.06-.09.22-.2.17.03.4v.36s.1.19.1.19l.12.07.13.05.12.11.06.16-.11.32.39.43.19.25.23.23.26.13.43-.36.59-.31.75-.65.4.17.13.14.16.03.19-.11-.1-.3-.03-.37.05-.37.14-.28.09-.14-.06-.23.2-.27.13-.16.12-.2.28-.07.15-.21.12-.3.26-.33.15-.39.07-.28.18-.28.34-.23.36-.06.12-.7-.1-.75-.2-.46-.5-.19-.23-.46.18-.29.08-.39.07-.38-.5-.08v-.45s.21-.71.21-.71l.54-.82.62.28-.26-.97.06-1.04.63-.57.83-.45.81-.22.8-.17,1.42-.29.87.11.33.26.33-.08.33.04.3-.12.07.41.2.02.09.22.05.15.47.61.12.29.26.09.07.17-.37.2.21.57.03.43-.08.22.08.16.15.05.27-.16.38.1.18-.03.17-.08-.08-.19-.16-.21-.17-.37.1-.32.37-.31.65.04.07-.32-.02-.07-.03-.07-.06-.08.33-.32-.19-.33-.67-.07-.29-.46-.21-.15-.12.25-.15-.23.03-.25v-.33s.07-.26.07-.26l.04-.77-.25-.23-.11-.27.24-.18.41.2h.2s-.08-.37-.08-.37l.09-.27-.12-.13-.3-.17-.33-.16.15-.21.26-.07.36.14.43-.07.51-.4.57-.36.14-.2.02-.04-.02-.28.2-.26-.24-.58v-.25s-.27-.42-.27-.42l-.18-.63.12-.45.17.25v.48s.22.3.22.3l.19-.32.11-.4h.22s.06.31.06.31l.22.17.1-.29.12-.18.23.11.11.02.14.13.19.04.1.18.25-.2.46-.26-.32-.52.5-.22.55.08.2.24.22-.06.4.38.25.21.27.32.27.24.06.37.05.38h.27s-.07.23-.07.23l-.13.3-.3-.04-.51.59-.36.46-.24.36-.39.3-.4.05-.3.28-.47.16-.21.23.12.63v.28s-.25.3-.25.3l-.8-.25-.1.35-.23.25v.38s-.38.23-.38.23h-.35s.02.06.02.06l.43.18.69.24v.45s.29.52.29.52l-.02.45-.22.19-.46.32-.09.28.04.29-.05.26.29.46v.73s.03.22.03.22l.15.39.04.23-.06.23-.19.19.02.21.34.13.19.15.04.28-.07.18-.12.08-.31-.09-.22.02-.11.18-.2.11-.24.05-.18-.02-.31-.05h-.21s0,.24,0,.24l.07.17.37.04.53.22.21.17.03.27-.05.19.27.15.08.1.21-.05.25-.05.21.07.3-.03.43-.09.28-.23.16-.19.16-.26.04-.37v-.34s.17-.29.17-.29l.1-.35.17-.26.5-.36.58-.42h.33s.42-.34.42-.34l.09-.44.48-.51.35.09.74.06.62.05.27-.45.43.05.26-.3.15.27.3.06.21-.24-.05-.31.31-.46.48.08.27-.41.08-.52.09-.76.15-.85-.13-.57-.32-1.06.62-2.24,1.01-1.54,1.88-1.76,1.09-.75.92-.21.07.33.84-.3.54-.25.42-.09.2.2.11.19.23.15.13-.18.18-.49-.09-.18-.16-.09-.09-.04-.12-.04-.18-.1-.18-.38-.69-.98-2.39-4.2-.6-1.68-.53-1.36-.2-1.75-.04-.77.25-.45.63-.68.13-.53-.02-.33-.22-.8v-.32s.22-1.49.22-1.49l.26-.7.92-1.62.8-3.12.16-.34.69-1.09.07-.19.08-.22v-.37s.04-.24.04-.24l.13-.11.14-.07.25-.29.4-.12.55-.38.42-.09.14-.05.58-.57.24-.74.23-1.84.29-.69.04-.23v-1.94l.11-.28v-.66s.36-1.53.36-1.53l.1-.68-.23-5.68-.05-.21-.23-.3-.06-.14.02-.14.17-.28.05-.17v-.43s-.08-.27-.08-.27l-.15-.21-.06-.3-.19-.75-.57-1.06-.43-.83v-.05s-.23-1.55-.23-1.55l-.02-.89.12-.89.69-2.56.35-.77.49-.8.59-.72.16-.13.17-.1.13-.11.05-.16-.07-.19-.16-.07-.19.03-.16.09.09-.42.17-.37.25-.3.31-.23.14.11.14.03.14-.04.14-.11.27.89.07.14h.3s.09-.03.09-.03l-.05-.49.15-.51.36-.31.45-.18,1.25-.29.48-.02.34.14.37.36.17.1.2.07h.21s.15-.06.15-.06h.14s.19.19.19.19l-.15.45-.09.14.54.27.15.17v.11s-.06.11-.06.11l-.06.13.06.15.11.07h.25s.11.08.11.08l.46.47.12.05.2-.58.09-.16-.22-.32v-.46s-.08-.43-.08-.43l-.4-.25.13-.29.19-.11h.23s.25.11.25.11l-.19-.28-.32-.09-.32.06-.19.16-.17-.2v-.17s0-.18,0-.18l-.12-.23.02-.13.19-.1.42-.13-.05-.09-.03-.08-.04-.07-.1-.06.09-.2.24-.8.06.21.09.18.13.12.18.06.07-.44v-.35s-.08-.31-.08-.31l-.22-.33-.24.3-.26-.15-.27-.33-.27-.26.74-.59.11-.14.17-.3.12-.3-.05-.14-.78-.05-.19-.09-.18-.22v-.13s.3-.24.3-.24l.17-.11.42-.14.16-.12.21-.3.08-.07h.11s.09.1.09.1l.09.06.11-.09.1-.32-.09-.22-.3-.26-.17-.33-.12-.15-.17-.1.15-.27.71-.55.23-.27.04-.15-.05-.19-.04-.41v-.4s.08-.19.08-.19l.17-.06h.32s.12-.04.12-.04l.11-.06.09-.03.09.06.06.13.06.29.05.1.36.26-.08-.44-.39-1.08-.08-.9-.04-.43.21-.24.71.03-.12.2-.22.1.12.22.18.24.22.19.22.08.22-.09.06-.2-.09-.2-.25-.09.23-.29.16-.04.19.03-.12-.25-.13-.23-.09-.25v-.31s.29.22.29.22l.35.03.67-.1.68.16.14-.09-.13-.19-.24-.2-.18-.1v-.16h.21s.21,0,.21,0l.2-.05.19-.08-.2-.22-.71-.38.31-.29.92.32.38-.18-.08-.26-.8-.61-.29-.3.43-.04.43-.12.35-.23.17-.37h-.54s-.2-.12-.2-.12l-.05-.32.39.07.47-.17.32-.34-.04-.44v-.03s-.25.04-.25.04l-.54-.02v-.29s0-.28,0-.28h.14s.29-.01.29-.01h.14s-.06-.17-.06-.17l-.1-.14-.13-.09.81-.38.33-.31-.04-.51-.23.22-.34.23-.37.12-.32-.12.36-.34.44-.34.18-.29-.42-.21.19-.14.36-.33.16-.12.18-.04.16.02.16-.04.35-.03.11-.14v-.35s.03-.31.03-.31l.1-.13.21-.12-.13-.23-.24-.15-.13.13-.17.4-.38.3-.43.04-.3-.38.22-.23.55-.21.26-.17.59-.73.11-.07.04-.16.09-.07.08-.09v-.21s-.02-.13-.02-.13l-.07-.08ZM280.28,249.41l-.1.15-.41.2-.28.13.12.1.3-.07.25-.18.24-.05v-.14s.12-.16.12-.16l-.23.03ZM324.18,258l-.48.39-.12.64.32.5.48-.03.45-.41.23-.64-.31-.47-.55.02ZM329.46,277.89l-.43-.14-.37-.23-.39-.29-.28.09-.18.24.06.29.55.77.19.43.25.22.3.14h.25s.16-.13.16-.13l.4-.57.14-.24-.25-.39-.39-.19ZM328.08,291.03l.29.22-.28-.58v.36ZM325.78,262.46l-.16-.13h-.29s-.21.32-.21.32l.03.36.22.16.27.04.21-.08.1-.18v-.12s-.1-.28-.1-.28l-.06-.09ZM332.84,310.79v.02s.03-.03.03-.03l-.03-.04v.05ZM337.29,329.27l-.1.09v.11s.09.14.09.14l.2-.04.12-.19-.15-.11h-.16ZM280.21,250.26l-.32.11.08.16.09.16.13-.09.19-.13.07-.16.04-.17-.17-.03-.11.15ZM332.88,310.81h.04s-.02-.04-.02-.04v.04ZM420.52,55.88l-.18.22-.06.36.17.1.23-.11.12-.28.13-.17.64-.17.21-.12-.04-.23-.27-.26-.55-.4-.41-.18-1.41-.29,2.17,1.11-.22.18-.52.24ZM368.65,392.54l.08.24.11-.13.1-.19.04-.21-.06-.17-.16-.04-.09.21-.02.29ZM369.27,393.66l-.24.02-.22.1.11.08.1.12.09.15.06.17-.57-.27.31.5.33.2.27-.18.11-.64-.13-.19-.21-.07ZM428.75,59.58l-.21-.03-.05-.03-.05-.06-.07-.05-.11-.02-.1.05-.21.22-.14.05-.79-.05-.24.05-.21.14-.09.16-.06.16-.11.15-.22.12-.43.12-.21.16-.69.78-.63.55-.11.16.08.31.2.19.14.18-.08.28-.42-.36-.39-.19-1.42-.14-.55-.15-.49-.25-.29-.35.28-.1-.09-.16-.29-.15-.3-.07-.26-.1-.1-.24.04-.26.16-.18.49.12,1.04.91.53-.09-.8-.63-.57-.78-.35-.88-.44-1.94-.2-.56-.09-.37-.24-.22-.05-.19-.05-.5-.13-.46-.18-.4-.21-.32-1.08-1.17-.24-.35-.69-1.54-.04-.18v-.3s.04-.26.04-.26l.24-.34.16-.51.19-.44.1-.47-.17-.42.27-.84.37-.83.42-.75,1.52-1.95.15-.36.17-1.13.19-.48.99-1.33.37-.86.02-1.01-.1-.25-.3-.54-.13-.45h-.16s-.15.09-.15.09l-.07.13-.14.47-.33.41-.66.63-.81,1.53-.28.24-.3.12-.79.84-1.18.75-.19.27-1.5,1.77-1.94,2.13-.72.47-.8.17-2.84-.23-2.34-.41-.59-.19-.27-.13-.72-.55-.15-.08-.15-.17-.27-.76-.14-.17-.26-.12-.17-.29-.21-.7.13-.66-.34-.26-.47.18-.23.67-.06.35-.15.39-.19.35-.18.23-.24.13-.24-.02-.55-.25.36-1.13.23-.3.31-.18.21-.05v-.08s-.31-.26-.31-.26l-.56-.27-2.01-.12-.27.09-.29.23-.48.55-.13-.06-2.45-.04-.23-.07-.21-.15-.24-.25-.07.07-.17.1-.23-.88-.09-.15-.4-.42-.08-.15.25-.17,1.36.17v-.16l-3.75-1.47-2.46-1.51-.15-.13-.45-.54v-.12s-.3-.69-.3-.69l-.19-.13-.72-.19-.3-.27-.63-.71-.27-.14-.34-.11-1.44-1.16-1.27-1.35-1.02-.74-.7-1.13-.54-.3-3.23-3.72-.81-1.42-.58-.4-.27-.47-1.25-2.7-5.31-6.64-.64-.62-1.45-1.1-.66-.71-.65-1.27-.27-.18-.24-.12-.17-.29-.29-.7-.26-.24-.43.11-.43.36-.25.39-.03.24v.32l-.03.28-.12.12-.18.06-.57.42-.82.23-.78.1-.39.16h-.21s-.09-.24-.09-.24v-.31s-.05-.25-.05-.25l-.11-.19-.19-.15-.3.31-.14.38-.04.4.03.37.19.75v.39s-.37.63-.37.63l-.05.21-.04.23-.08.25-.13.23-.34.42-.1.17-.15,1.05.19,1,2.26,4.93.53,1.64.5,2.82.21,2.9-.07,1.05-.74,4.03-1.36,2.6-.17.83.25,4.88-.05.96-.14.96-.31,1.06-.42.81-.52.63-.95.79-.3.2-.33.12-.71.11-.39.18-.38.25-.28.28-.45.82-.24.56-.1.43.11.52.38,1.01-.05.43.14.21.31.9-.28.43-.2.4-.04.45.18.61.94,1.44.21.61v1.06s-.27,1-.27,1l-.43.87-.45.66-1.12,1.22-1.27.98-.45.25-.23.05h-.3s-.21-.03-.21-.03l-.35-.22-.41-.09-.69-.29-.62-.08-.18-.06-.29-.41.13-.4.17-.3-.19-.12-.38.05-1.26.52-1.72.27-.23-.07-.17-.12-.25-.34-.17-.18-1.21-.57-.34-.27-.5-.65-.3-.28-1.43-1.07-.29-.12-.13-.09-.18-.19-.21-.17-.23-.03-.14.13-.06.22-.05.24-.09.21-.32.24-.41.09h-.83s-.51,1.69-.51,1.69l.15.92.5.63.64.52.55.6.81,1.17.12.32.13.52.25.36.17.33-.1.44-.3.37-.7.48-1.14,1.15-.27.34-.42.93-.24.43-.31.18-.12.23-.03.52-.11.53-.36.28-.35-.08-.25-.27-.38-.65-.37-.29-.29.09-.23.33-.42.88-.14.22-.14.09-.2.02-.17.07-.16.12-.69.9-.27.18-.4.1-1.62.1-.67.31-.56.83-.18.86.27,1.69v1.01s-.21,1.02-.21,1.02l-.18.49-.7,1.16-.2.46-.08.44.17.9.17.55.18.24.75.61.52.19.16.11.32.66.09.11.02.1.3.4,1.67.75.56.57.85,1.54.55.64-.11.34.02.42.09.43.11.35-.06.14v.36s-.05.26-.05.26l-.17.1-.12.1-.06.11v.13s.12.19.12.19v.13s-.02.5-.02.5l-.05.21-.15.21-.14.03-.37-.04-.07.1-.2.91-.86,1.41-.27,1.39-.32.7-.07.48.06.47.51,1.28.24.92.17.42.23.18.18.07.42.32.2.07.16-.03.29-.12h.18s.8.37.8.37l.4.06.18-.36.11-.46.26-.43.31-.35.25-.21,2.11-.68.53-.4.18-.73-.17-1.8.33-.81.29-.14.89-.26.19-.15.17-.16.99-.53.19-.41.26-.95.17-.4.31-.27.41-.06.4.12.31.29.1.39-.19.23-.26.21-.14.32.16.32.37-.1.76-.46h.82s.84.27.84.27l1.43.81.78.22.62-.26,1.01-1.04.29-.2.37-.14.78-.11.17-.19-.29-.42-1.27-1.2-.39-.24-.4-.1-.43-.04-.37-.11-.32-.19-.3-.26-1.1-1.46-.28-.28-.64-.44-.28-.28-.8-1.14-.26-.62-1-.7-.34.17-.32.09-1.07.1-.64.22-.39.05-.31-.14-1.23-1.38-.54-.43-1.71-.94-.5-.58-.17-1.02.12-1.02.26-.96.36-.9.93-1.63.6-.75.68-.59.72-.34.42-.03,1.2.2,1.1-.18h.39s.79.35.79.35l2.8,3.24.18.91.1.18.14.17.34.27.46.15.2.15-.04.24-.14.06-.66-.14-.07.09.09.2.15.21.11.12.21.1.21.02.21-.04.19-.08.27-.25.94-1.37.3-.33,1.29-.94.18-.09.19-.06.2-.02.2-.07.33-.32.46-.22,2.76-2.17,2.04-.83,1.45-.33,1.5-.03,1.52.4,1.19.67.35.1.28.16.92,1.09,1.36.89,1.76.25.91,1.09.98,1.02,2.99,2.14,1.45.47,3.53,2.07,3.38,1.19,2.6,1.74.42.39.38.45.17.41.15.24.35.35.38.31.26.09.19-.31.21-1,.45-.41.19-.46.46-1.82.08-.51.03-.46-.03-.51-.19-1.27.12-1.07.29-.94,1.66-3.06,2.12-3.35,1.06-1.31,2.53-2.18,1.61-1.97,2.6-1.87,2.36-1.13,2.34-.6.37-.03.22.1.12.22.06.26.08.2.15.18.14.12,1.24.44.52.09.43-.25,1.29-.11,2.39.57.69-.24-.2-.23-.27-.22-.23-.25-.1-.32.06-.27.14-.34.17-.29.14-.12.12-.06.18-.3.12-.11.13-.05h.09s.11.03.11.03l.19.02.31.1.05.25-.04.28.03.22.45.43.52.2.57.03,1.11-.18.24-.08.16-.15.07-.3-.09-.25-.32-.55.81.26.41-.02.39-.24.12-.19.02-.15.05-.1.64-.06.17-.1.15-.2-.27-.12h-.28s-.21-.08-.21-.08l-.06-.41.11-.32.22-.18.26-.09,1.29-.2.45-.19.37-.36.37-.19,1.7-.03.53-.16.28-.04.43.27.34.09.34.03.19-.05-.22-.14.48-.62.1-.18.09-.27.15-.56.1-.25.13-.18.45-.44.15-.23.1-.2.13-.14.25-.06.49.1.19-.05.25-.27.16-.1.64-.15.22-.1.3-.44.17-.1h.38s.14-.09.14-.09l.11-.21-.19-.12-.55-.17ZM565.81,445.37l-.14.1-.02.09.11.04h.09s.03-.16.03-.16l-.07-.08ZM565.13,445.07l.21.35.22-.3-.21-.13-.22.08ZM279.06,242.87l-.21-.29h-.22s.16.75.16.75h.12s0-.14,0-.14l.19-.06-.04-.26ZM366.89,381.88l.03.19.08-.17-.05-.07-.06.05ZM282.82,195.75l-.11-.16-.24.09-.18.22-.13.09-.16.03-.17-.12-.13-.13-.13-.04-.12.03-.12.09-.15.05h-.15s-.12.06-.12.06l-.1.08-.08-.05-.06-.15-.14-.07-.1.15.17.33.32.41.15.22h.06s.27-.09.27-.09h.16s.22-.14.22-.14l.3-.11.31-.02.28-.12.12-.17-.03-.18v-.18s.06-.15.06-.15ZM252.34,251.88l.55-.39-.27-.38-.6.49.09.17.23.11ZM367.39,381.84l-.06.05.04.19.07-.17-.05-.07ZM368.63,383.91l-.06.13.27.25-.04-.32-.16-.06ZM368.68,401.87h-.07s-.15.08-.15.08l.04-.1v-.04s0-.03,0-.03l.08-.06v-.14h-.24s-.17-.09-.17-.09l-.02-.14.19-.15v-.13h-.21s-.17-.02-.17-.02l-.12-.08-.06-.15-.16-.1-.08-.02h-.11s.46,1.1.46,1.1l.35.57.34.25-.09-.21v-.16s.11-.1.11-.1l.2-.04-.07-.16-.05-.06ZM214.92,255.69l-.27.08-.11.09-.13.41.15.13.6-.33.59.02.28-.3.06-.4-.18-.62-.25-.45-.34.08-.35.37-.32.41h.16s.13.08.13.08l.07.13v.2s-.1.1-.1.1ZM207.84,285.31l-.07-.06-.05-.04-.11-.06-.08.1-.07.23v.24s.06.26.06.26l.11.08.23-.11.13-.14v-.16s-.04-.18-.04-.18l-.11-.15ZM168.55,294.7v.2s.07.05.07.05l.13-.09.16-.03.17-.08.18-.17.16-.19.06-.11-.1-.16-.27-.13-.19.06-.02.07-.04.04-.09.02-.1.1-.07.2-.03.22ZM206.37,258.14l-.31.34.38.16.91-.03.38.22.24-.09.18-.48-.05-.38-.44.21-.03-.26v-.24s-.06-.23-.06-.23l-.14-.24.12-.02.05-.07.02-.09.04-.09-.14-.12h-.18s-.22.05-.22.05l-.21.13-.16.22.22.51-.21.3-.39.24ZM203.4,255.37l.49-.43.32-.35v-.09s-.01-.18-.01-.18l-.1-.18-.16-.04-.24.12-.26.17-.2.26-.32.51v.18s.2.12.2.12l.28-.1ZM171.43,289.9l-.06-.12-.04-.15-.1-.08h-.13l-.36.25-.61.2-.25.12-.37.27-.33.39-.15.09-.23.04-.11.04-.08.11v.27s.13.29.13.29l.34.52.38-.16.33-.08.67-.04.31-.24.18-.05.08.22v.43s0,.22,0,.22l.06.1.51-.44.7-1.88.56-.37-.19-.28-.28.03-.5.24-.3.06h-.14ZM202.23,261.2l-.4.16-.26.47.12.47.25.45.14.4.17-.11.08-.06.08-.1.13.15.18-.08.29.11.21-.02.07-.14.05-.21.1-.11.23.16.12-.15.17.17v.19s0,.19,0,.19l.07.17.14.06h.37s.19.07.19.07l.06-.21.04-.2.02-.49.07-.16.16-.1.41-.13.16.06.13-.02.36-.48.19-.21h-.26s-.44-.04-.44-.04l-.2.04-.1.08-.04.22-.1.13-.1.03-.25-.04h-.1s-.35.28-.35.28l-.22.12-.23.02-.47-.68-.31-.22-.43-.18-.46-.05ZM243.94,263.58l-.54.12v-.14l.14-.03.17-.09.15-.02v-.13l-.94.03-.24-.13.27-.46.19-.12.22-.09.07-.19.2-.21v-.3s0-.33,0-.33l-.21-.1.09-.19-.55-.34-.2-.34-.23-.5-.17.05-.04.21h-.21s-.11-.07-.11-.07l-.09-.17-.09-.41v-.2s.01-.13.01-.13l.11-.36.1-.08-.05-.35v-.52s.3-.47.3-.47l-.04-.12.05-.21.18-.3.13-.27-.23.03-.15-.08-.19-.05.32-.07-.03-.11v-.15s.03-.17.03-.17l.23-.32.1-.28-.32.12-.29.34-.27.04.11-.29.18-.23-.06-.23-.22.38-.21.05-.35.17-1.1-.06-.45.34-.48-.02-.4-.32-.17-.21-.07-.17-.09-.14h-.21s-.44.06-.44.06l-.24-.08-.36-.37-.2-.08-.21-.04-.65-.38.22-.58-.18-.23-.38-.13-.35-.29-.08.16-.36.44-.13.09-.27-.08-.08-.2v-.56l-.06-.25-.09-.22-.16-.12-.27.04-.05.18-.03.29-.1.12-.27-.32-.21.43-.12.14-.59-.15h-.15s-.26.12-.26.12h-.16s-.18-.06-.18-.06l-.21-.17-.3-.08-.24-.19-.16-.04-.16.02-.27.09-.15.02-.21.1-.15.24-.13.28-.14.2-.51.32-1.03.48-.46.37-.38.38-.51.4-.48.16-.3-.32-.28.11-.47-.11-.5-.21-.35-.2.23.35.26.21.27.17.27.23.21.27.14.28.08.35.04.86-.12.91-.12.37-.22.31-.56.51-.25.28-.18.26-.22.25-.28.2-.35.11-.41-.03-.8-.3-.39-.08-.92.06-.32-.14h-.31s-.38.18-.38.18l-.35-.05-.5.18-.09.36-.58.18-.6.14-.44.18-.33-.04-.32-.16-.35-.16-.16-.21-.13-.29-.15-.34-.47-1.23-.92-1.12-.17-.12-.08-.14-.12-.09-.19-.32-.23.43h-.22s-.3-.06-.3-.06l-.04.19h.18s.33.03.33.03l.07.35-.13.19-.06.33-.95.25-.25.32-.81.54-.48.34.04.81-.25.42-.04.49-.71.12-.1.55-.12.53-.15.73.09.55.03.59-.34.82-.52.52-.45.31-.28.28-1.69.71-.35.33-.15.13-.48.58-.1.18-.12.32-.27.25-1.98.99-.49.43h-.4s-.32.2-.32.2l-.37-.02-.48.19-.27.17.03.16.16.17-.22.09-.3-.09-.69.23-.71.65-.37.22-.32.32.25.08.8-.45.61-.38-.14.33.21.12h.28s.14-.2.14-.2l.18-.3.5-.36.58-.32.65-.35.42-.13.49-.34.24.13.19-.1.18-.09.31-.02.3.04.67.43-.15.05-.13.09-.1.13-.06.16h.23v.14l-.28.37v.46s.19.25.19.25l.31-.26-.06.56-.03.12-.13.1-.28.03-.12.08-.09.23.19.07.18.14.32.1,1.12-.23.65.03-.06.14-.29.08-.34.26v.28s.12.12.12.12l.18.08.09.17.28-.1h.29s-.28.26-.28.26l.21.15.19.31-.2.19-.37.08-.18.29.04.35-.32.24-.13-.24-.28-.2-.03-.25-.24-.02-.42-.1-.42.12.07.33.28-.04.14-.2.24.15.19.13.16.23-.34.11-.04.25.09.27.16.11h.49s.18.08.18.08l-.04.14-.12.14-.07.07-.07.02-.37-.02v.12l.23.06.1.19v.27s-.1.29-.1.29h.34l-.19.24-.33.05-.73-.33-.19.22.06.28-.3.48.24.06.38-.7.36.16.51.06.17.34.34.6-.09.16-.22.3.19.43-.36.3.3.64.23.19.28.05.29-.13-.09-.07-.15-.15-.1-.05.12-.41.2-.02.27.13.32.04-.22-.27.28.1.72.49h.15s.21-.04.21-.04h1.16s-.06.23-.06.23l-.21.25-.5.55-.28.61-.38.52-.06.52.13.41.62-.53.78-.21.3.31.47.43.24.13.33.11h.34s.29-.16.29-.16l.23-.24.25-.17.23.02.15.32.2-.43.37-.07.4.15.3.23.08.15.16.39.09.14.13.1.3.16.43-.18v-.38s-.18-.36-.18-.36l-.22-.28-.32-.29-.14-.16-.12-.24-.24-.15.04-.41-.05-.34.1-.23.48.03.21-.13.11-.68-.25-.9.12-.75.28-.74.58-.31.36.21.26.19.13-.08.02-.18-.03-.31.17-.26.42-.55.55-.96.42-.52h.23s.1.24.1.24l.26-.16-.13-.13-.04-.43.19-.14.23-.23.21-.26.09-.46.03-.07.08-.05.07-.08.03-.14-.02-.09-.06-.07-.02-.1-.06-.14-.1-.13-.04-.16.11-.24-.07-.39.25-.41.38-.36.34-.22.11.08.11.05-.05.35.08-.04.31-.44.17-.15.14-.09.17-.04h.27s.39-.07.39-.07l.42-.17.26-.26-.08-.32.26-.47,1.35-.63.71-.32.31-.28,1.08-.26,1.12-.17.4.35,1.53.39,1.17.13.28.69.45.46.46.22.48.18.24.62.67.9.47.48-.03.41.36.1.24-.05.27.44.31.67.23-.24.02-.46.08-.51.04-.27.15-.57.12-.75.5-1.68.48-.94.39-.47.28-.23.03-.24-.05-.35.23-.15.22.06.23-.09.13-.14.05-.24.42-.46-.21-.24.47-.37.89-.33,1.35-.92.13-.31.41-.08.14-.55.47-.04.15-.33.59-.08.21-.24.63-.3.5-.25.32-.18-.19-.11-.3.12ZM322.96,245l-.21-.31-.32-.18-.3-.16-.74-.18-.07.61v.96s.12.36.12.36l1.04.51h.35s.19-.04.19-.04l.07-.22v-.51s-.02-.45-.02-.45l-.11-.4ZM175.05,330.79l-.53-.45-.74-.26-.41-.35-.18.21h-.36s-.1.31-.1.31l-.34.36-.3.45-.61.02-.17.07.04.55.12.51.41.93.28.69.18.32.81.25.53-.03.49-.08.51-.09.44-.32.73-.73.37-.95.09-.67-.6-.54-.65-.19ZM185.87,416.34l-.1.02-.08.06-.25.3-.14.26v.23s.3.14.3.14l.18.05h.18s.08-.15.08-.15l.03-.19.08-.17.11-.14.11-.09-.37-.31-.14-.04ZM186.79,414.93l-.21.04.02.23.18.22.14.07h.12s.09-.08.09-.08l.09-.19-.11-.19-.32-.1ZM199.47,281.25l-.43-.09-.22.28-.13.05-.07-.09v-.1s-.19.1-.19.1l-.12-.06-.09-.11-.11-.06-.16.04-.18.08-.16-.29h-.25s-.34-.34-.34-.34l-.19-.13.06-.57.27-.33.12-.37h.26s.65.03.65.03l.42-.11.07-.25-.29-.55-.08.45-.1.12-.15.06-.15-.03-.15-.11-.12-.18-.14-.33h-.13s-.03.26-.03.26l-.06.22-.22-.02-.17-.16-.25-.04-.17.09-.29-.15.09-.23.26-.3.45-.31-.19-.09h-.52s-.44.32-.44.32l-.55-.29.29-.49.07-.34.3-.36.27-.1.13-.14v-.3s.17-.42.17-.42l.34-.59-.3-.04-.56.32-.48.16-1-.19-.86-.33-.18.32-.76-.35-.71.37-1.07-.04-.32-.13-.3-.24-.2-1.34.13-.45.45-.06.24.28.15.12h.34l.33-.06.08-.31.14-.08.42-.1.06-.25-.05-.31.08-.28.31-.13.26.13.38.19.15-.06.05-.46.3-.62.17-.42-.14-.56.18-.54-.05-.41-.12-.4-.27-.5-.39-.72-.37-.52-.34-.05-.33.04-.34-.19-.29-.12-.27.04h-.37s-.51.09-.51.09l-.38.19-.24.28-.14.43-.27.31-.6.54-.09.15-.84.14-.74-.13-.66-.02-.46-.45-.61-.05-.52-.17-.71-.11-.43-.09-.28.04-.36-.21-.28-.37-.23-.57-.52-.89-.17-.39-.06-.52-.04-.15.06-.67-.36.09-.32-.09-.07-.06v-.08s.03-.26.03-.26l.27-.19.08-.12.11-.16-.04-.15-.06-.19h.26s.03-.27.03-.27l-.15-.21.19-.27v-.11s.04-.12.04-.12l.15-.24.06-.43-.19-.2-.51.17-.45.39-.13.43-.26.36-.21.16-.28.04-.27-.13-.16-.35-.16-.24h-.43s-.24.1-.24.1l.12-.39-.63-.1h-.58s-.41.25-.41.25l-.24-.12-.2-.02-.22.03-.13.06-.51.76-.35.28-.35.05-.79-.07-.27.05-.1.1-.05.13-.14.16-.38.25-.18.02-.14-.15-.19.6-.09.15-.17.13-.13.07-.08.11-.03.25.13.15.18.04.05.35-.04.39-.26.31-.12.19-.27.09-.22.22-.22.27-.26.24-.69.29-.36-.05-.22-.16-.09-.3-.18-.04-.08.15.09.34.2.18.19-.06.11.11.19.11.21.13.21-.1.29-.26.32-.2.08.22.07.15-.09.39-.05.3-.14.22-.3.04-.25.12h-.47s-.25,0-.25,0l-.16.25-.07.11h-.1s-.08.11-.08.11l-.08-.05-.2-.11-.13-.12.17-.3-.06-.17-.34.07-.1-.08-.23-.14-.07-.32.16-.19-.08-.18-.19-.13-.21-.11-.06.51-.12.12-.12.07-.14.03h-.19s-.19-.01-.19-.01l-.09.21.05.25-.29.24-.17.07h-.16l-.17.03-.18.16-.09.17v.14s.07.1.07.1l.2.04.15.06.04.27.16.06.53-.13h.21s-.1.25-.1.25l-.19.17-.23.1-.22.03-.06.05-.18.14-.19-.06-.3.11-.51.23-.18.19-.07.49-.19.21-.2.1-.47-.06-.23-.11-.14-.18v-.19l-.07-.2-.16.18-.2-.12.07-.23.19-.24.07-.2-.32-.38-.54-.31-.4.23-.29-.07-.26-.26.02.39-.3.39.12.64.38.49.07.28-.16.12-.22-.11-.13-.24-.1-.24-.29-.36-.24.05-.12.28-.17.26.16.2.33.37.87.57-.12.15.15.24-.2.21-.21.39-.08.64.11.45.06.27-.23-.11-.18-.17-.12-.22-.09-.52h0s-.12-.34-.12-.34l-1.06-.32-.72.23-.4-.19.05-.54-.11-.18-.48.72-.4.06-.47-.43-.2.2-.07.46-.08.54.22.39.09.22.04.13-.18.17-.12-.04-.14.09-.04.33-.19.59.2.29h.43l.17.06.29.27.18.06.17-.02.13-.09.12.14.06.11v.12l-.06.18.17.08.19.11.15.16.06.2-.06.22-.35.09.07.5.12-.05.12-.22h.27s.12.06.12.06l.07-.15.07-.43-.04-.43.22.08-.02.26.04.25.08.21.32-.34h.18s.02.19.02.19l-.23.1v.17s.05.36.05.36l-.17-.06h-.1s.15.49.15.49l.07.21.24.17.23-.03.19-.24.18-.13.41.29.03.39h.17s.32-.22.32-.22l.47-.17.51.52.56.41.03.41-.14.45-.16.29.03.57.91,1.3.29.35-.25.07-.87-.37-.88-.3-.14.29-.1.16-.23.11-.07.12-.09.06-.06-.12-.17-.12-.15-.16-.13-.1-.34-.23.22-.22-.06-.33-.23-.19-.05-.7h.14l.09.47.1.18.13-.16.02-.3-.04-.47.04-.18.12-.17-.18-.3-.26-.3-.51-.16-.24.44-.17.1-.1-.25.05-.3.24-.45.11-.12-.07-.14-.09-.04-.1.11-.11.11h-.05s0-.06,0-.06l.02-.18v-.05s-.25-.37-.25-.37l-.65-.3-.3.5-.05.58-.14.12-.04.33.06.25-.12.29-.23.21-.02.45.12.59.22.08.16.16.14.19.06.25.02.23.06.2.14.31.19.3.38.25.2.43.19-.09.17-.17.28.09.09.21.04.24.1.12.14.09.17.16.34.72v.28s.58-.05.58-.05l-.22.46-.19.14-.14-.21-.18.06-.11.15-.2.04v.15l.11.13.18-.11.07.12-.06.29-.17.29-.17.3-.19.49-.13.13-.22.1-.2.08-.26.21.11.25.15-.08.23-.14.22.07.11.06.05-.19.38-.29.4-.36.09-.31.06-.15h.24s.32-.19.32-.19l.34-.27.14-.36.22-.34.42-.6.21-.33-.09-.25.15-.14.06.06v.18s.14.16.14.16l.34-.05.3-.15.4-.09.29-.26.24-.25.5-.2.54.12h.2l.17-.13.51.05.2.19-.07.18-.05.1.07.14.15.09.19.1.05.37-.15.18-.19.2-.21.18-.18.14-.22.23-.19.08-.24-.04v.45s.02.4.02.4l.29.14.14.17.24.13.06.31-.12.21h.26s.28-.2.28-.2l.41-.06.14-.08.08-.25.29-.05.1-.16v-.22s.14-.13.14-.13l.62-.02.6-.31.32-.41-.17-.32.07-.26.31-.43.04-.18v-.64s-.06-.26-.06-.26l-.35-.8-.2-.45-.54-.39-1.07.02-.81.6-.28.05h-.41s-.35-.27-.35-.27l-.17-.25-.28-.14.17-.09.32-.17.24-.15.24-.26.42-.12.26-.27v-.44s.26-.08.26-.08l.05-.4-.31-.33-.73-1.24-.26-.61-.22-.34-.07-.38.39.18.46-.46.69-.49.37-.57.28.19.54.58h.17s.24.02.24.02l.38.1.46.06.05.11v.17s.07.23.07.23l.12.14.35.25.07.04h.09s.09.03.09.03l.09.08.03.1v.26s.11.38.11.38l-.04.86.11,1.3.14.36.48.28.77.82,1.28,1.04.21.38.03.13.06.09.03.08-.06.11-.19.25-.07.15-.03.14.04.21.11.23.18.2.23.09v.15h-.16s-.14.04-.14.04l-.27.1-.26-.02-.19.1-.35.33-1.15.59-.3.23-.15.27.23.12.27-.13,2.73-.52h.45s-.2.49-.2.49l-.25.32-1.19,1.04-.09.16.05.24.38.31.14.26h-.48s-.19.07-.19.07l-.14.2.29.28.06.51-.15.49-.36.22-.43.59-.08.15.06.55-.02.24-.15.22-.44-.43-.13.04-.13.39-.02.18.05.17-.03.19-.08.1-.22.14-.05.1-.17.5-1.21,1.31v.07s0,.29,0,.29l-.03.06-.14.06-.06.08v.02s-.16.52-.16.52l-.06.13-.2.2-.35.24-.33.1-.51-.65-.69.26-.45.53.4.41v.48l-.3.42-.22.18.02.37.26.25.07.1.18.18.15.42.11.4-.09.86-.3.53.18.29.45.47-.2-.1-.54-.21-.16.16-.16.72.17.43.04.19.26.1.78.47.22.17.64.99.47.55.18.31.02.36-.22.41.17.47-.1.65-.19.7-.2.32-.19.62-.81.78-.28.46-.22-.19-.32-.41-.2-.08-.14-.03-.22-.09h-.15s-.14.04-.14.04l-.44.22.36.21.5.4.44.45.19.34-.02.23-.27-.04-.19-.02.22.25.17.42.09.28.06.36.17.28.45.04.44-.17h.37s2.57.07,2.57.07l.73.43.2.28.16.45v.27s.09.13.09.13l.25.13h.23s.2-.09.2-.09h.18s.22.22.22.22l.29-.33.33-.13.27-.15.12-.4.06-.33.2-.68-.03-.25-.61-.08-.35-.51-.23-.08-.26-.16-.18-.39-.21-.79-.5-1.12-.07-.41.03-.37.19-.8.22-.55.27-.48.15-.67.12-.21.46-.53.06-.16.06-.5.05-.2.53-.63.69-.21.87.34.64-.04.47.45.1.71-.19.77-.38.62-.29.31-.16.08h-.22s-.22-.07-.22-.07l-.06-.14.05-.52-.18-.33-.4-.1-.43.03-.41-.09-.4.21-.39.51.13.25.18.14.17.04.29.18.98.18.17.33-.22.84.18.51.73.46.37.64.22.58.21.55.02.37-.12.98-.16.63-.44.75.18.34-.37,1.27-.23.19-.66.42-.43.4-.09,1.29.34-.03.28-.27.51-.55.71-.18.1-.18.31-.24.45-.18.43-.05.42-.12.61-.21.28-.12.28-.16.26-.19.21-.21.19-.28.29-.59.16-.26.03-.41.41-.13.46.04,1.2-1.05-.12-.17-.54.24-.31-.12.15-.29.36-.24.05-.15-.06-.23-.35-.19-.4-.13-.57-.18-.2-.17.24-.76.29-.5.19-.24.25-.19.63-.29.35-.09.34-.04.18.14.28.22.36-.1.13.03.08.03.11.16.32.35.07.12.05.2v.32s.07.15.07.15l.27.14.32-.02.67-.12-.02.08-.02.05-.07.12.11.04.04.03.06.07.12-.1.04-.12.02-.14.06-.17.22-.3.09-.18.16-.93.05-.14.21-.22.08-.11v-.41s-.04-.09-.04-.09l-.06-.07-.04-.13.02-.24.07-.19.22-.38.05-.03.08-.32.2-.24.54-.44-.08-.59.41-2.17.06-.16.24-.32.06-.18-.47-.17-.2-.33-.14-.5.04-.22-.04-.36.19-.56.63-2.1.57-1.86.33-1.22.2-.95.3-.71.2-.98.17-.39.14-.13.09-.05.05-.09.04-.46.13-.52.07-.17.13-.07.2-.04.17-.1.43-.3-.25-.4-.29-.31.05-.38.32.06.28.11.36-.09.32-.37-.3-.34-.1-.06h-.28s-.18-.21-.18-.21l-.05-.25.28-.58.09-.34.07-.09.35.04.23-.08.09-.12.3-.53.06-.22v-.16s-.04-.06-.04-.06v-.03s.04-.09.04-.09l.08-.1.21-.18.2-.35.27-.16.09-.27.2.08.23.33.14-.08.02-.29.04-.33.05-.05.08-.05.07-.08.02-.09v-.06s.01-.55.01-.55l.16-.42.78.1.31-.3h.24s.3-.12.3-.12l.27-.22.12-.27-.09-.11-.49.07-.22-.03.14-.23.14-.11.14-.08.15-.13.17-.33-.07-.14-.15-.08-.07-.13.21-.29.51-.4.3-.07.35-.18.33.06-.05-.2-.34-.07ZM172.59,287.9l-.11-.11-.17-.08-.13.06-.14.12-.05.03v-.08s-.06,0-.06,0l-.25.4v.13s.15.09.15.09l.06.16-.08.25.04.23.2.17.1.07-.05-.19.12-.06.23-.05.09-.21.05-.33-.02-.21-.1-.12.06-.13.05-.15ZM183.21,323.64l-.24-.33-.19-.48v-.31s-.17,0-.17,0l-.11.06-.1.1-.2.23-.35.58.03.41-.14.43-.24.08v.22s-.32.55-.32.55l-.23.31-.22.26.1.16-.04.19.09.26.05.6v.29s-.15.49-.15.49l-.2.56-.48.72-.42.44-.11.32-.14-.04-.17-.09-.04.17.07.39.15.33.05.51-.09.34-.05.26.17.24.05.19h.26l.09-.22.26-.2.3-.07.32-.1.31.04.02-.26.24-.27-.14-.29.04-.21.1-.22-.09-.22-.14-.14.05-.15-.02-.29.23-.34.04-.43.19-.26.16-.36h.24s.3-.12.3-.12l.04-.29v-.33s.23-.15.23-.15l.11-.27v-.6s-.06-.38-.06-.38l.42-.72-.13-.74v-.62s.28-.26.28-.26ZM234.57,250.61l.14.28h.27s.32-.12.32-.12l.31-.02.33.17.09.22-.07.72.3-.06.2-.28.18-.35.24-.25.36-.08.15.13-.08.18-.32.05v.13l.24-.03.21.03.16.1.08.18.37-1.08.09-.59-.06-.25-.08-.21-.04-.18.07-.18h-.23s-.58.15-.58.15l-.6.06-.2.06-.72.45-.41.12-.48-.15-.06.23.02.25v.22s-.19.14-.19.14ZM226.97,253.12l.11-.1.13-.09.09-.15-.02-.26-.15-.24-.12-.02-.05.11-.22.27-.06.25.12.23.12.06.05-.06ZM232.69,250.71l.3.15h.01s.14.13.14.13l.13.02.32-.42.03-.19-.04-.02h-.11s-.13-.13-.13-.13l-.07-.06-.19.05-.29.19-.15.02-.13.09-.03.05.05.05.16.08ZM248.63,248l-.36.12-.31.44-.42.6-.26.1-.65.34-.21.4-.11.18-.14.35-.1.15-.13.11-.31.19-.42.28-1.31,2.36-.26.13-.37-.1-.23.53-.21.28.16.46.36.44.6-.18-.17.26-.19.38.05.06.36.16.03.38.39-.02.81-.18.57-.52.37-.19.48-.17.41-.26.48-.11.34-.15-.13-.34-.4-.43-.13-.24-.04-.36-.28-.22v-.24s-.06-.24-.06-.24l.02-.18.1-.76.49-.69.4-.63.47-.42.19-.49.13-.43.25-.29.19-.26-.03-.25-.42-.35ZM320.44,267.26h0s-.05-.02-.05-.02l.05.02ZM320.31,251.91l-.2.24-.15.14-.08.15-.18.71v.24s.22.38.22.38l.26-.28.22-.63.1-.64-.03-.37-.16.07ZM169.08,329.81l-.38-.15-.3-.2-.19.11-.43-.26h-.39s.17.23.17.23l.19.18.17.28.29-.13.07.18-.02.24.32.36.32-.06.14-.22h.36v-.23l-.32-.32ZM210.54,256.82h.13s.1.05.1.05v.14s.04.03.04.03l.12-.05.14-.1.09-.19-.11-.24-.27-.16-.16-.04-.33-.09-.23.06-.1.21.15.17.43.21ZM208.82,261.18l.24-.22v-.2s.04-.09.04-.09l.07-.09.03-.12.03-.22v-.21s-.05-.05-.05-.05l-.08.12-.2.18-.11.07-.07.03-.12.1-.17.17-.16.23.04.27.19.13.33-.08ZM212.87,256.07h.33s.38-.09.38-.09l.18-.18.04-.22.15-.38.06-.46-.06-.18-.12.13-.22.29-.19.12h-.19s-.48.22-.48.22l-.05.02-.13.1-.06.24.12.27.22.13ZM202.52,264.4l-.3-.13h-.28s-.22.13-.22.13l-.12.28.27-.05.53.27.35.05.26-.05.02-.07-.36-.26-.14-.16ZM215.59,257.15l-.09.1-.05.27v.35s.18.15.18.15l.29-.14.82-.84.12-.21-.04-.09-.09.02h-.17s-.11-.13-.11-.13l-.09-.15-.27-.11-.38.08-.12.27.13.3.05.16-.09-.02h-.1Z"/>
</svg>